M48
; DRILL file {KiCad (6.0.5)} date Sun Aug 20 19:57:05 2023
; FORMAT={-:-/ absolute / metric / decimal}
; #@! TF.CreationDate,2023-08-20T19:57:05-04:00
; #@! TF.GenerationSoftware,Kicad,Pcbnew,(6.0.5)
; #@! TF.FileFunction,Plated,1,2,PTH
FMAT,2
METRIC
; #@! TA.AperFunction,Plated,PTH,ViaDrill
T1C0.400
; #@! TA.AperFunction,Plated,PTH,ComponentDrill
T2C0.760
; #@! TA.AperFunction,Plated,PTH,ComponentDrill
T3C0.800
; #@! TA.AperFunction,Plated,PTH,ComponentDrill
T4C0.900
; #@! TA.AperFunction,Plated,PTH,ComponentDrill
T5C1.600
; #@! TA.AperFunction,Plated,PTH,ComponentDrill
T6C2.159
; #@! TA.AperFunction,Plated,PTH,ComponentDrill
T7C2.500
; #@! TA.AperFunction,Plated,PTH,ComponentDrill
T8C4.500
%
G90
G05
T1
X74.93Y-61.595
X76.835Y-61.81
X94.615Y-81.28
X95.885Y-83.82
X111.125Y-91.44
X111.76Y-116.84
T2
X69.052Y-57.805
X70.322Y-55.265
X71.593Y-57.805
X72.862Y-55.265
X74.132Y-57.805
X75.403Y-55.265
X76.672Y-57.805
X77.942Y-55.265
X128.107Y-57.805
X129.377Y-55.265
X130.648Y-57.805
X131.917Y-55.265
X133.188Y-57.805
X134.457Y-55.265
X135.727Y-57.805
X136.998Y-55.265
T3
X99.06Y-97.79
X106.68Y-97.79
T4
X101.595Y-106.045
X104.135Y-106.045
T5
X88.76Y-52.095
X93.46Y-49.095
X93.46Y-55.095
T6
X69.85Y-159.766
X69.85Y-164.465
X69.85Y-169.164
X70.0Y-67.102
X70.0Y-71.801
X70.0Y-76.5
X70.0Y-98.102
X70.0Y-102.801
X70.0Y-107.5
X70.0Y-129.301
X70.0Y-134.0
X70.0Y-138.699
X87.0Y-82.301
X87.0Y-87.0
X87.0Y-91.699
X87.0Y-114.0
X87.0Y-118.699
X87.0Y-123.398
X87.085Y-145.161
X87.085Y-149.86
X87.085Y-154.559
X99.822Y-70.485
X105.918Y-70.485
X119.0Y-82.301
X119.0Y-87.0
X119.0Y-91.699
X119.0Y-113.801
X119.0Y-118.5
X119.0Y-123.199
X119.045Y-145.161
X119.045Y-149.86
X119.045Y-154.559
X135.89Y-159.766
X135.89Y-164.465
X135.89Y-169.164
X136.0Y-67.301
X136.0Y-72.0
X136.0Y-76.699
X136.0Y-98.301
X136.0Y-103.0
X136.0Y-107.699
X136.0Y-129.301
X136.0Y-134.0
X136.0Y-138.699
T7
X60.0Y-44.0
X60.0Y-169.0
X146.0Y-44.0
X146.0Y-169.0
T8
X113.03Y-45.295
X113.03Y-52.495
T0
M30
