%FSLAX45Y45*%
G04 Gerber Fmt 4.5, Leading zero omitted, Abs format (unit mm)*
G04 Created by KiCad (PCBNEW (6.0.5)) date 2023-08-20 19:57:34*
%MOMM*%
%LPD*%
G01*
G04 APERTURE LIST*
%TA.AperFunction,Profile*%
%ADD10C,0.100000*%
%TD*%
%ADD11C,0.200000*%
%ADD12C,0.320000*%
G04 APERTURE END LIST*
D10*
X5396000Y-3837000D02*
X15178000Y-3837000D01*
X15178000Y-3837000D02*
X15178000Y-17335500D01*
X15178000Y-17335500D02*
X5396000Y-17335500D01*
X5396000Y-17335500D02*
X5396000Y-3837000D01*
D11*
D12*
X6618250Y-4731500D02*
X6938250Y-5051500D01*
X6938250Y-4731500D02*
X6618250Y-5051500D01*
X7761250Y-4731500D02*
X8081250Y-5051500D01*
X8081250Y-4731500D02*
X7761250Y-5051500D01*
X12523750Y-4731500D02*
X12843750Y-5051500D01*
X12843750Y-4731500D02*
X12523750Y-5051500D01*
X13666750Y-4731500D02*
X13986750Y-5051500D01*
X13986750Y-4731500D02*
X13666750Y-5051500D01*
D11*
X5648619Y-17650976D02*
X5648619Y-17450976D01*
X5696238Y-17450976D01*
X5724809Y-17460500D01*
X5743857Y-17479548D01*
X5753381Y-17498595D01*
X5762905Y-17536690D01*
X5762905Y-17565262D01*
X5753381Y-17603357D01*
X5743857Y-17622405D01*
X5724809Y-17641452D01*
X5696238Y-17650976D01*
X5648619Y-17650976D01*
X5848619Y-17650976D02*
X5848619Y-17517643D01*
X5848619Y-17555738D02*
X5858143Y-17536690D01*
X5867667Y-17527167D01*
X5886714Y-17517643D01*
X5905762Y-17517643D01*
X5972428Y-17650976D02*
X5972428Y-17517643D01*
X5972428Y-17450976D02*
X5962905Y-17460500D01*
X5972428Y-17470024D01*
X5981952Y-17460500D01*
X5972428Y-17450976D01*
X5972428Y-17470024D01*
X6096238Y-17650976D02*
X6077190Y-17641452D01*
X6067667Y-17622405D01*
X6067667Y-17450976D01*
X6201000Y-17650976D02*
X6181952Y-17641452D01*
X6172428Y-17622405D01*
X6172428Y-17450976D01*
X6429571Y-17650976D02*
X6429571Y-17450976D01*
X6496238Y-17593833D01*
X6562905Y-17450976D01*
X6562905Y-17650976D01*
X6743857Y-17650976D02*
X6743857Y-17546214D01*
X6734333Y-17527167D01*
X6715286Y-17517643D01*
X6677190Y-17517643D01*
X6658143Y-17527167D01*
X6743857Y-17641452D02*
X6724809Y-17650976D01*
X6677190Y-17650976D01*
X6658143Y-17641452D01*
X6648619Y-17622405D01*
X6648619Y-17603357D01*
X6658143Y-17584310D01*
X6677190Y-17574786D01*
X6724809Y-17574786D01*
X6743857Y-17565262D01*
X6839095Y-17517643D02*
X6839095Y-17717643D01*
X6839095Y-17527167D02*
X6858143Y-17517643D01*
X6896238Y-17517643D01*
X6915286Y-17527167D01*
X6924809Y-17536690D01*
X6934333Y-17555738D01*
X6934333Y-17612881D01*
X6924809Y-17631929D01*
X6915286Y-17641452D01*
X6896238Y-17650976D01*
X6858143Y-17650976D01*
X6839095Y-17641452D01*
X7020048Y-17631929D02*
X7029571Y-17641452D01*
X7020048Y-17650976D01*
X7010524Y-17641452D01*
X7020048Y-17631929D01*
X7020048Y-17650976D01*
X7020048Y-17527167D02*
X7029571Y-17536690D01*
X7020048Y-17546214D01*
X7010524Y-17536690D01*
X7020048Y-17527167D01*
X7020048Y-17546214D01*
X5191000Y-17880500D02*
X5391000Y-18080500D01*
X5391000Y-17880500D02*
X5191000Y-18080500D01*
X5629571Y-17870976D02*
X5753381Y-17870976D01*
X5686714Y-17947167D01*
X5715286Y-17947167D01*
X5734333Y-17956690D01*
X5743857Y-17966214D01*
X5753381Y-17985262D01*
X5753381Y-18032881D01*
X5743857Y-18051929D01*
X5734333Y-18061452D01*
X5715286Y-18070976D01*
X5658143Y-18070976D01*
X5639095Y-18061452D01*
X5629571Y-18051929D01*
X5839095Y-18051929D02*
X5848619Y-18061452D01*
X5839095Y-18070976D01*
X5829571Y-18061452D01*
X5839095Y-18051929D01*
X5839095Y-18070976D01*
X5924809Y-17890024D02*
X5934333Y-17880500D01*
X5953381Y-17870976D01*
X6001000Y-17870976D01*
X6020048Y-17880500D01*
X6029571Y-17890024D01*
X6039095Y-17909071D01*
X6039095Y-17928119D01*
X6029571Y-17956690D01*
X5915286Y-18070976D01*
X6039095Y-18070976D01*
X6162905Y-17870976D02*
X6181952Y-17870976D01*
X6201000Y-17880500D01*
X6210524Y-17890024D01*
X6220048Y-17909071D01*
X6229571Y-17947167D01*
X6229571Y-17994786D01*
X6220048Y-18032881D01*
X6210524Y-18051929D01*
X6201000Y-18061452D01*
X6181952Y-18070976D01*
X6162905Y-18070976D01*
X6143857Y-18061452D01*
X6134333Y-18051929D01*
X6124809Y-18032881D01*
X6115286Y-17994786D01*
X6115286Y-17947167D01*
X6124809Y-17909071D01*
X6134333Y-17890024D01*
X6143857Y-17880500D01*
X6162905Y-17870976D01*
X6353381Y-17870976D02*
X6372428Y-17870976D01*
X6391476Y-17880500D01*
X6401000Y-17890024D01*
X6410524Y-17909071D01*
X6420048Y-17947167D01*
X6420048Y-17994786D01*
X6410524Y-18032881D01*
X6401000Y-18051929D01*
X6391476Y-18061452D01*
X6372428Y-18070976D01*
X6353381Y-18070976D01*
X6334333Y-18061452D01*
X6324809Y-18051929D01*
X6315286Y-18032881D01*
X6305762Y-17994786D01*
X6305762Y-17947167D01*
X6315286Y-17909071D01*
X6324809Y-17890024D01*
X6334333Y-17880500D01*
X6353381Y-17870976D01*
X6505762Y-18070976D02*
X6505762Y-17937643D01*
X6505762Y-17956690D02*
X6515286Y-17947167D01*
X6534333Y-17937643D01*
X6562905Y-17937643D01*
X6581952Y-17947167D01*
X6591476Y-17966214D01*
X6591476Y-18070976D01*
X6591476Y-17966214D02*
X6601000Y-17947167D01*
X6620048Y-17937643D01*
X6648619Y-17937643D01*
X6667667Y-17947167D01*
X6677190Y-17966214D01*
X6677190Y-18070976D01*
X6772428Y-18070976D02*
X6772428Y-17937643D01*
X6772428Y-17956690D02*
X6781952Y-17947167D01*
X6801000Y-17937643D01*
X6829571Y-17937643D01*
X6848619Y-17947167D01*
X6858143Y-17966214D01*
X6858143Y-18070976D01*
X6858143Y-17966214D02*
X6867667Y-17947167D01*
X6886714Y-17937643D01*
X6915286Y-17937643D01*
X6934333Y-17947167D01*
X6943857Y-17966214D01*
X6943857Y-18070976D01*
X7334333Y-17861452D02*
X7162905Y-18118595D01*
X7591476Y-17870976D02*
X7610524Y-17870976D01*
X7629571Y-17880500D01*
X7639095Y-17890024D01*
X7648619Y-17909071D01*
X7658143Y-17947167D01*
X7658143Y-17994786D01*
X7648619Y-18032881D01*
X7639095Y-18051929D01*
X7629571Y-18061452D01*
X7610524Y-18070976D01*
X7591476Y-18070976D01*
X7572428Y-18061452D01*
X7562905Y-18051929D01*
X7553381Y-18032881D01*
X7543857Y-17994786D01*
X7543857Y-17947167D01*
X7553381Y-17909071D01*
X7562905Y-17890024D01*
X7572428Y-17880500D01*
X7591476Y-17870976D01*
X7743857Y-18051929D02*
X7753381Y-18061452D01*
X7743857Y-18070976D01*
X7734333Y-18061452D01*
X7743857Y-18051929D01*
X7743857Y-18070976D01*
X7943857Y-18070976D02*
X7829571Y-18070976D01*
X7886714Y-18070976D02*
X7886714Y-17870976D01*
X7867667Y-17899548D01*
X7848619Y-17918595D01*
X7829571Y-17928119D01*
X8020048Y-17890024D02*
X8029571Y-17880500D01*
X8048619Y-17870976D01*
X8096238Y-17870976D01*
X8115286Y-17880500D01*
X8124809Y-17890024D01*
X8134333Y-17909071D01*
X8134333Y-17928119D01*
X8124809Y-17956690D01*
X8010524Y-18070976D01*
X8134333Y-18070976D01*
X8305762Y-17870976D02*
X8267667Y-17870976D01*
X8248619Y-17880500D01*
X8239095Y-17890024D01*
X8220048Y-17918595D01*
X8210524Y-17956690D01*
X8210524Y-18032881D01*
X8220048Y-18051929D01*
X8229571Y-18061452D01*
X8248619Y-18070976D01*
X8286714Y-18070976D01*
X8305762Y-18061452D01*
X8315286Y-18051929D01*
X8324809Y-18032881D01*
X8324809Y-17985262D01*
X8315286Y-17966214D01*
X8305762Y-17956690D01*
X8286714Y-17947167D01*
X8248619Y-17947167D01*
X8229571Y-17956690D01*
X8220048Y-17966214D01*
X8210524Y-17985262D01*
X8448619Y-17870976D02*
X8467667Y-17870976D01*
X8486714Y-17880500D01*
X8496238Y-17890024D01*
X8505762Y-17909071D01*
X8515286Y-17947167D01*
X8515286Y-17994786D01*
X8505762Y-18032881D01*
X8496238Y-18051929D01*
X8486714Y-18061452D01*
X8467667Y-18070976D01*
X8448619Y-18070976D01*
X8429571Y-18061452D01*
X8420048Y-18051929D01*
X8410524Y-18032881D01*
X8401000Y-17994786D01*
X8401000Y-17947167D01*
X8410524Y-17909071D01*
X8420048Y-17890024D01*
X8429571Y-17880500D01*
X8448619Y-17870976D01*
X8591476Y-17870976D02*
X8591476Y-17909071D01*
X8667667Y-17870976D02*
X8667667Y-17909071D01*
X8962905Y-18147167D02*
X8953381Y-18137643D01*
X8934333Y-18109071D01*
X8924810Y-18090024D01*
X8915286Y-18061452D01*
X8905762Y-18013833D01*
X8905762Y-17975738D01*
X8915286Y-17928119D01*
X8924810Y-17899548D01*
X8934333Y-17880500D01*
X8953381Y-17851929D01*
X8962905Y-17842405D01*
X9124810Y-17937643D02*
X9124810Y-18070976D01*
X9077190Y-17861452D02*
X9029571Y-18004310D01*
X9153381Y-18004310D01*
X9381952Y-18070976D02*
X9381952Y-17870976D01*
X9467667Y-18070976D02*
X9467667Y-17966214D01*
X9458143Y-17947167D01*
X9439095Y-17937643D01*
X9410524Y-17937643D01*
X9391476Y-17947167D01*
X9381952Y-17956690D01*
X9591476Y-18070976D02*
X9572429Y-18061452D01*
X9562905Y-18051929D01*
X9553381Y-18032881D01*
X9553381Y-17975738D01*
X9562905Y-17956690D01*
X9572429Y-17947167D01*
X9591476Y-17937643D01*
X9620048Y-17937643D01*
X9639095Y-17947167D01*
X9648619Y-17956690D01*
X9658143Y-17975738D01*
X9658143Y-18032881D01*
X9648619Y-18051929D01*
X9639095Y-18061452D01*
X9620048Y-18070976D01*
X9591476Y-18070976D01*
X9772429Y-18070976D02*
X9753381Y-18061452D01*
X9743857Y-18042405D01*
X9743857Y-17870976D01*
X9924810Y-18061452D02*
X9905762Y-18070976D01*
X9867667Y-18070976D01*
X9848619Y-18061452D01*
X9839095Y-18042405D01*
X9839095Y-17966214D01*
X9848619Y-17947167D01*
X9867667Y-17937643D01*
X9905762Y-17937643D01*
X9924810Y-17947167D01*
X9934333Y-17966214D01*
X9934333Y-17985262D01*
X9839095Y-18004310D01*
X10010524Y-18061452D02*
X10029571Y-18070976D01*
X10067667Y-18070976D01*
X10086714Y-18061452D01*
X10096238Y-18042405D01*
X10096238Y-18032881D01*
X10086714Y-18013833D01*
X10067667Y-18004310D01*
X10039095Y-18004310D01*
X10020048Y-17994786D01*
X10010524Y-17975738D01*
X10010524Y-17966214D01*
X10020048Y-17947167D01*
X10039095Y-17937643D01*
X10067667Y-17937643D01*
X10086714Y-17947167D01*
X10162905Y-18147167D02*
X10172429Y-18137643D01*
X10191476Y-18109071D01*
X10201000Y-18090024D01*
X10210524Y-18061452D01*
X10220048Y-18013833D01*
X10220048Y-17975738D01*
X10210524Y-17928119D01*
X10201000Y-17899548D01*
X10191476Y-17880500D01*
X10172429Y-17851929D01*
X10162905Y-17842405D01*
X10524810Y-18147167D02*
X10515286Y-18137643D01*
X10496238Y-18109071D01*
X10486714Y-18090024D01*
X10477190Y-18061452D01*
X10467667Y-18013833D01*
X10467667Y-17975738D01*
X10477190Y-17928119D01*
X10486714Y-17899548D01*
X10496238Y-17880500D01*
X10515286Y-17851929D01*
X10524810Y-17842405D01*
X10601000Y-17937643D02*
X10601000Y-18070976D01*
X10601000Y-17956690D02*
X10610524Y-17947167D01*
X10629571Y-17937643D01*
X10658143Y-17937643D01*
X10677190Y-17947167D01*
X10686714Y-17966214D01*
X10686714Y-18070976D01*
X10810524Y-18070976D02*
X10791476Y-18061452D01*
X10781952Y-18051929D01*
X10772429Y-18032881D01*
X10772429Y-17975738D01*
X10781952Y-17956690D01*
X10791476Y-17947167D01*
X10810524Y-17937643D01*
X10839095Y-17937643D01*
X10858143Y-17947167D01*
X10867667Y-17956690D01*
X10877190Y-17975738D01*
X10877190Y-18032881D01*
X10867667Y-18051929D01*
X10858143Y-18061452D01*
X10839095Y-18070976D01*
X10810524Y-18070976D01*
X10934333Y-17937643D02*
X11010524Y-17937643D01*
X10962905Y-17870976D02*
X10962905Y-18042405D01*
X10972429Y-18061452D01*
X10991476Y-18070976D01*
X11010524Y-18070976D01*
X11229571Y-17937643D02*
X11229571Y-18137643D01*
X11229571Y-17947167D02*
X11248619Y-17937643D01*
X11286714Y-17937643D01*
X11305762Y-17947167D01*
X11315286Y-17956690D01*
X11324809Y-17975738D01*
X11324809Y-18032881D01*
X11315286Y-18051929D01*
X11305762Y-18061452D01*
X11286714Y-18070976D01*
X11248619Y-18070976D01*
X11229571Y-18061452D01*
X11439095Y-18070976D02*
X11420048Y-18061452D01*
X11410524Y-18042405D01*
X11410524Y-17870976D01*
X11601000Y-18070976D02*
X11601000Y-17966214D01*
X11591476Y-17947167D01*
X11572428Y-17937643D01*
X11534333Y-17937643D01*
X11515286Y-17947167D01*
X11601000Y-18061452D02*
X11581952Y-18070976D01*
X11534333Y-18070976D01*
X11515286Y-18061452D01*
X11505762Y-18042405D01*
X11505762Y-18023357D01*
X11515286Y-18004310D01*
X11534333Y-17994786D01*
X11581952Y-17994786D01*
X11601000Y-17985262D01*
X11667667Y-17937643D02*
X11743857Y-17937643D01*
X11696238Y-17870976D02*
X11696238Y-18042405D01*
X11705762Y-18061452D01*
X11724809Y-18070976D01*
X11743857Y-18070976D01*
X11886714Y-18061452D02*
X11867667Y-18070976D01*
X11829571Y-18070976D01*
X11810524Y-18061452D01*
X11801000Y-18042405D01*
X11801000Y-17966214D01*
X11810524Y-17947167D01*
X11829571Y-17937643D01*
X11867667Y-17937643D01*
X11886714Y-17947167D01*
X11896238Y-17966214D01*
X11896238Y-17985262D01*
X11801000Y-18004310D01*
X12067667Y-18070976D02*
X12067667Y-17870976D01*
X12067667Y-18061452D02*
X12048619Y-18070976D01*
X12010524Y-18070976D01*
X11991476Y-18061452D01*
X11981952Y-18051929D01*
X11972428Y-18032881D01*
X11972428Y-17975738D01*
X11981952Y-17956690D01*
X11991476Y-17947167D01*
X12010524Y-17937643D01*
X12048619Y-17937643D01*
X12067667Y-17947167D01*
X12143857Y-18147167D02*
X12153381Y-18137643D01*
X12172428Y-18109071D01*
X12181952Y-18090024D01*
X12191476Y-18061452D01*
X12201000Y-18013833D01*
X12201000Y-17975738D01*
X12191476Y-17928119D01*
X12181952Y-17899548D01*
X12172428Y-17880500D01*
X12153381Y-17851929D01*
X12143857Y-17842405D01*
M02*
