G04 #@! TF.GenerationSoftware,KiCad,Pcbnew,(6.0.5)*
G04 #@! TF.CreationDate,2023-08-20T19:56:39-04:00*
G04 #@! TF.ProjectId,Kicadproject,4b696361-6470-4726-9f6a-6563742e6b69,rev?*
G04 #@! TF.SameCoordinates,Original*
G04 #@! TF.FileFunction,Copper,L1,Top*
G04 #@! TF.FilePolarity,Positive*
%FSLAX46Y46*%
G04 Gerber Fmt 4.6, Leading zero omitted, Abs format (unit mm)*
G04 Created by KiCad (PCBNEW (6.0.5)) date 2023-08-20 19:56:39*
%MOMM*%
%LPD*%
G01*
G04 APERTURE LIST*
G04 Aperture macros list*
%AMRoundRect*
0 Rectangle with rounded corners*
0 $1 Rounding radius*
0 $2 $3 $4 $5 $6 $7 $8 $9 X,Y pos of 4 corners*
0 Add a 4 corners polygon primitive as box body*
4,1,4,$2,$3,$4,$5,$6,$7,$8,$9,$2,$3,0*
0 Add four circle primitives for the rounded corners*
1,1,$1+$1,$2,$3*
1,1,$1+$1,$4,$5*
1,1,$1+$1,$6,$7*
1,1,$1+$1,$8,$9*
0 Add four rect primitives between the rounded corners*
20,1,$1+$1,$2,$3,$4,$5,0*
20,1,$1+$1,$4,$5,$6,$7,0*
20,1,$1+$1,$6,$7,$8,$9,0*
20,1,$1+$1,$8,$9,$2,$3,0*%
G04 Aperture macros list end*
G04 #@! TA.AperFunction,ComponentPad*
%ADD10R,1.500000X1.500000*%
G04 #@! TD*
G04 #@! TA.AperFunction,ComponentPad*
%ADD11C,1.500000*%
G04 #@! TD*
G04 #@! TA.AperFunction,ComponentPad*
%ADD12C,2.921000*%
G04 #@! TD*
G04 #@! TA.AperFunction,ComponentPad*
%ADD13C,5.000000*%
G04 #@! TD*
G04 #@! TA.AperFunction,ComponentPad*
%ADD14R,2.600000X2.600000*%
G04 #@! TD*
G04 #@! TA.AperFunction,ComponentPad*
%ADD15C,2.600000*%
G04 #@! TD*
G04 #@! TA.AperFunction,ComponentPad*
%ADD16C,1.600000*%
G04 #@! TD*
G04 #@! TA.AperFunction,ComponentPad*
%ADD17O,1.600000X1.600000*%
G04 #@! TD*
G04 #@! TA.AperFunction,ComponentPad*
%ADD18RoundRect,1.500000X1.500000X-1.500000X1.500000X1.500000X-1.500000X1.500000X-1.500000X-1.500000X0*%
G04 #@! TD*
G04 #@! TA.AperFunction,ComponentPad*
%ADD19C,6.000000*%
G04 #@! TD*
G04 #@! TA.AperFunction,ComponentPad*
%ADD20R,1.800000X1.800000*%
G04 #@! TD*
G04 #@! TA.AperFunction,ComponentPad*
%ADD21C,1.800000*%
G04 #@! TD*
G04 #@! TA.AperFunction,ComponentPad*
%ADD22C,2.667000*%
G04 #@! TD*
G04 #@! TA.AperFunction,ViaPad*
%ADD23C,0.800000*%
G04 #@! TD*
G04 #@! TA.AperFunction,Conductor*
%ADD24C,0.500000*%
G04 #@! TD*
G04 #@! TA.AperFunction,Conductor*
%ADD25C,0.250000*%
G04 #@! TD*
G04 #@! TA.AperFunction,Conductor*
%ADD26C,1.500000*%
G04 #@! TD*
G04 APERTURE END LIST*
D10*
X77942500Y-55265000D03*
D11*
X76672500Y-57805000D03*
X75402500Y-55265000D03*
X74132500Y-57805000D03*
X72862500Y-55265000D03*
X71592500Y-57805000D03*
X70322500Y-55265000D03*
X69052500Y-57805000D03*
D12*
X87000000Y-91699000D03*
X87000000Y-87000000D03*
X87000000Y-82301000D03*
X87085000Y-154559000D03*
X87085000Y-149860000D03*
X87085000Y-145161000D03*
X87000000Y-123398000D03*
X87000000Y-118699000D03*
X87000000Y-114000000D03*
D13*
X146000000Y-44000000D03*
D12*
X70000000Y-138699000D03*
X70000000Y-134000000D03*
X70000000Y-129301000D03*
X70000000Y-76500000D03*
X70000000Y-71801000D03*
X70000000Y-67102000D03*
D14*
X93460000Y-55095000D03*
D15*
X93460000Y-49095000D03*
X88760000Y-52095000D03*
D12*
X136000000Y-76699000D03*
X136000000Y-72000000D03*
X136000000Y-67301000D03*
X119000000Y-123199000D03*
X119000000Y-118500000D03*
X119000000Y-113801000D03*
X119000000Y-91699000D03*
X119000000Y-87000000D03*
X119000000Y-82301000D03*
X119045000Y-154559000D03*
X119045000Y-149860000D03*
X119045000Y-145161000D03*
D10*
X136997500Y-55265000D03*
D11*
X135727500Y-57805000D03*
X134457500Y-55265000D03*
X133187500Y-57805000D03*
X131917500Y-55265000D03*
X130647500Y-57805000D03*
X129377500Y-55265000D03*
X128107500Y-57805000D03*
D12*
X69850000Y-169164000D03*
X69850000Y-164465000D03*
X69850000Y-159766000D03*
X136000000Y-107699000D03*
X136000000Y-103000000D03*
X136000000Y-98301000D03*
D16*
X99060000Y-97790000D03*
D17*
X106680000Y-97790000D03*
D12*
X135890000Y-169164000D03*
X135890000Y-164465000D03*
X135890000Y-159766000D03*
D18*
X113030000Y-52495000D03*
D19*
X113030000Y-45295000D03*
D12*
X70000000Y-107500000D03*
X70000000Y-102801000D03*
X70000000Y-98102000D03*
D13*
X146000000Y-169000000D03*
D20*
X101595000Y-106045000D03*
D21*
X104135000Y-106045000D03*
D13*
X60000000Y-44000000D03*
X60000000Y-169000000D03*
D22*
X105918000Y-70485000D03*
X99822000Y-70485000D03*
D12*
X136000000Y-138699000D03*
X136000000Y-134000000D03*
X136000000Y-129301000D03*
D23*
X111125000Y-91440000D03*
X94615000Y-81280000D03*
X74930000Y-61595000D03*
X76835000Y-61809511D03*
X95885000Y-83820000D03*
X111760000Y-116840000D03*
D24*
X101595000Y-106045000D02*
X101595000Y-108934000D01*
X116459000Y-123444000D02*
X101595000Y-108580000D01*
X135890000Y-169164000D02*
X133650000Y-169164000D01*
X101346000Y-106045000D02*
X101595000Y-106045000D01*
X69850000Y-169164000D02*
X72480000Y-169164000D01*
D25*
X146000000Y-44000000D02*
X136997500Y-53002500D01*
D26*
X113030000Y-45295000D02*
X97260000Y-45295000D01*
X93460000Y-49095000D02*
X84112500Y-49095000D01*
D24*
X101595000Y-108934000D02*
X87085000Y-123444000D01*
D25*
X135890000Y-169164000D02*
X146836000Y-169164000D01*
D24*
X101595000Y-108580000D02*
X101595000Y-106045000D01*
D25*
X69850000Y-169164000D02*
X61164000Y-169164000D01*
D24*
X72480000Y-169164000D02*
X87085000Y-154559000D01*
D26*
X84112500Y-49095000D02*
X77942500Y-55265000D01*
D25*
X61164000Y-169164000D02*
X60000000Y-168000000D01*
D24*
X119000000Y-123444000D02*
X116459000Y-123444000D01*
X133650000Y-169164000D02*
X119045000Y-154559000D01*
D25*
X66677500Y-44000000D02*
X60000000Y-44000000D01*
X77942500Y-55265000D02*
X66677500Y-44000000D01*
D24*
X86995000Y-91694000D02*
X101346000Y-106045000D01*
D25*
X136997500Y-53002500D02*
X136997500Y-55265000D01*
D26*
X97260000Y-45295000D02*
X93460000Y-49095000D01*
D24*
X106680000Y-97790000D02*
X106680000Y-103500000D01*
X106680000Y-103500000D02*
X104135000Y-106045000D01*
D26*
X103520000Y-62005000D02*
X113030000Y-52495000D01*
X100370000Y-62005000D02*
X99822000Y-62553000D01*
X99822000Y-62553000D02*
X99822000Y-70485000D01*
X100370000Y-62005000D02*
X93460000Y-55095000D01*
X100370000Y-62005000D02*
X103520000Y-62005000D01*
D24*
X142057500Y-153598500D02*
X140500000Y-155156000D01*
X135727500Y-57805000D02*
X142057500Y-64135000D01*
X140500000Y-155156000D02*
X140500000Y-159855000D01*
X140500000Y-159855000D02*
X135890000Y-164465000D01*
X142057500Y-64135000D02*
X142057500Y-153598500D01*
X143000000Y-61267500D02*
X138197011Y-56464511D01*
X135657011Y-56464511D02*
X134457500Y-55265000D01*
X119045000Y-149860000D02*
X119045000Y-151544999D01*
X143000000Y-161000000D02*
X143000000Y-61267500D01*
X137500000Y-166500000D02*
X143000000Y-161000000D01*
X138197011Y-56464511D02*
X135657011Y-56464511D01*
X134000001Y-166500000D02*
X137500000Y-166500000D01*
X119045000Y-151544999D02*
X134000001Y-166500000D01*
X140335000Y-129665000D02*
X136000000Y-134000000D01*
X133187500Y-57805000D02*
X140335000Y-64952500D01*
X140335000Y-64952500D02*
X140335000Y-129665000D01*
X121500000Y-116000000D02*
X121500000Y-101815000D01*
X121500000Y-101815000D02*
X111125000Y-91440000D01*
X119000000Y-118500000D02*
X121500000Y-116000000D01*
X130647500Y-57805000D02*
X131805000Y-57805000D01*
X131987989Y-58301855D02*
X132690645Y-59004511D01*
X133004511Y-59004511D02*
X139500000Y-65500000D01*
X139500000Y-65500000D02*
X139500000Y-100249270D01*
X132690645Y-59004511D02*
X133004511Y-59004511D01*
X139500000Y-100249270D02*
X136374635Y-103374635D01*
X131987989Y-57987989D02*
X131987989Y-58301855D01*
X131805000Y-57805000D02*
X131987989Y-57987989D01*
X130504511Y-59004511D02*
X129307011Y-59004511D01*
X137910011Y-66410011D02*
X130504511Y-59004511D01*
X137910011Y-70089989D02*
X137910011Y-66410011D01*
X136000000Y-72000000D02*
X137910011Y-70089989D01*
X129307011Y-59004511D02*
X128107500Y-57805000D01*
X70000000Y-64477500D02*
X76672500Y-57805000D01*
X68009520Y-69810520D02*
X70000000Y-71801000D01*
X70000000Y-64477500D02*
X69022500Y-64477500D01*
X69022500Y-64477500D02*
X68009520Y-65490480D01*
X68009520Y-65490480D02*
X68009520Y-69810520D01*
X74132500Y-57805000D02*
X67310000Y-64627500D01*
X67310000Y-64627500D02*
X67310000Y-100111000D01*
X67310000Y-100111000D02*
X70000000Y-102801000D01*
X74930000Y-61595000D02*
X94615000Y-81280000D01*
X66040000Y-130040000D02*
X70000000Y-134000000D01*
X71592500Y-57805000D02*
X66040000Y-63357500D01*
X66040000Y-63357500D02*
X66040000Y-130040000D01*
X95885000Y-80859511D02*
X95885000Y-83820000D01*
X76835000Y-61809511D02*
X95885000Y-80859511D01*
X64135000Y-158750000D02*
X69850000Y-164465000D01*
X64135000Y-62722500D02*
X64135000Y-158750000D01*
X69052500Y-57805000D02*
X64135000Y-62722500D01*
X109855000Y-86995000D02*
X109855000Y-93345000D01*
X73000000Y-70102000D02*
X70000000Y-67102000D01*
X87085000Y-145161000D02*
X84455000Y-145161000D01*
X89000000Y-84301000D02*
X87000000Y-82301000D01*
X110490000Y-93980000D02*
X110490000Y-115570000D01*
X70000000Y-98102000D02*
X85898000Y-114000000D01*
X70000000Y-128000000D02*
X84000000Y-114000000D01*
X97790000Y-97790000D02*
X89000000Y-89000000D01*
X114799000Y-113801000D02*
X111760000Y-116840000D01*
X124694000Y-86995000D02*
X136267355Y-98568355D01*
X119000000Y-82301000D02*
X123694000Y-86995000D01*
X120140000Y-145161000D02*
X119045000Y-145161000D01*
X103505000Y-93345000D02*
X99060000Y-97790000D01*
X99060000Y-97790000D02*
X97790000Y-97790000D01*
X71199000Y-98102000D02*
X87000000Y-82301000D01*
X119000000Y-113801000D02*
X114799000Y-113801000D01*
X133650000Y-159766000D02*
X135190481Y-159766000D01*
X109855000Y-93345000D02*
X103505000Y-93345000D01*
X109855000Y-86995000D02*
X105918000Y-83058000D01*
X87000000Y-82301000D02*
X82301000Y-82301000D01*
X119000000Y-82301000D02*
X114549000Y-82301000D01*
X123694000Y-86995000D02*
X124694000Y-86995000D01*
X84455000Y-145161000D02*
X70344635Y-159271365D01*
X70000000Y-129301000D02*
X70000000Y-128000000D01*
X110490000Y-115570000D02*
X111760000Y-116840000D01*
X136000000Y-129301000D02*
X120140000Y-145161000D01*
X85860000Y-145161000D02*
X87085000Y-145161000D01*
X130000000Y-105000000D02*
X130000000Y-123301000D01*
X70000000Y-129301000D02*
X85860000Y-145161000D01*
X89000000Y-89000000D02*
X89000000Y-84301000D01*
X130000000Y-123301000D02*
X136000000Y-129301000D01*
X109855000Y-93345000D02*
X110490000Y-93980000D01*
X119000000Y-82301000D02*
X119000000Y-81000000D01*
X105918000Y-83058000D02*
X105918000Y-70485000D01*
X70000000Y-98102000D02*
X71199000Y-98102000D01*
X119000000Y-81000000D02*
X132381865Y-67618135D01*
X119045000Y-145161000D02*
X133650000Y-159766000D01*
X114549000Y-82301000D02*
X109855000Y-86995000D01*
X132381865Y-67618135D02*
X136317135Y-67618135D01*
X73000000Y-73000000D02*
X73000000Y-70102000D01*
X85898000Y-114000000D02*
X87000000Y-114000000D01*
X136267355Y-98568355D02*
X136267355Y-98732645D01*
X84000000Y-114000000D02*
X87000000Y-114000000D01*
X82301000Y-82301000D02*
X73000000Y-73000000D01*
X136267355Y-98732645D02*
X130000000Y-105000000D01*
M02*
