%FSLAX45Y45*%
G04 Gerber Fmt 4.5, Leading zero omitted, Abs format (unit mm)*
G04 Created by KiCad (PCBNEW (6.0.5)) date 2023-06-10 16:46:20*
%MOMM*%
%LPD*%
G01*
G04 APERTURE LIST*
%TA.AperFunction,Profile*%
%ADD10C,0.050000*%
%TD*%
%ADD11C,0.200000*%
%ADD12C,0.320000*%
G04 APERTURE END LIST*
D10*
X13205800Y-7610400D02*
X20325000Y-7610400D01*
X20325000Y-7610400D02*
X20325000Y-20165000D01*
X20325000Y-20165000D02*
X13205800Y-20165000D01*
X13205800Y-20165000D02*
X13205800Y-7610400D01*
D11*
D12*
X13930000Y-14838000D02*
X14250000Y-15158000D01*
X14250000Y-14838000D02*
X13930000Y-15158000D01*
X13930000Y-15981000D02*
X14250000Y-16301000D01*
X14250000Y-15981000D02*
X13930000Y-16301000D01*
D11*
X13460919Y-20477976D02*
X13460919Y-20277976D01*
X13508538Y-20277976D01*
X13537109Y-20287500D01*
X13556157Y-20306548D01*
X13565681Y-20325595D01*
X13575205Y-20363690D01*
X13575205Y-20392262D01*
X13565681Y-20430357D01*
X13556157Y-20449405D01*
X13537109Y-20468452D01*
X13508538Y-20477976D01*
X13460919Y-20477976D01*
X13660919Y-20477976D02*
X13660919Y-20344643D01*
X13660919Y-20382738D02*
X13670443Y-20363690D01*
X13679967Y-20354167D01*
X13699014Y-20344643D01*
X13718062Y-20344643D01*
X13784728Y-20477976D02*
X13784728Y-20344643D01*
X13784728Y-20277976D02*
X13775205Y-20287500D01*
X13784728Y-20297024D01*
X13794252Y-20287500D01*
X13784728Y-20277976D01*
X13784728Y-20297024D01*
X13908538Y-20477976D02*
X13889490Y-20468452D01*
X13879967Y-20449405D01*
X13879967Y-20277976D01*
X14013300Y-20477976D02*
X13994252Y-20468452D01*
X13984728Y-20449405D01*
X13984728Y-20277976D01*
X14241871Y-20477976D02*
X14241871Y-20277976D01*
X14308538Y-20420833D01*
X14375205Y-20277976D01*
X14375205Y-20477976D01*
X14556157Y-20477976D02*
X14556157Y-20373214D01*
X14546633Y-20354167D01*
X14527586Y-20344643D01*
X14489490Y-20344643D01*
X14470443Y-20354167D01*
X14556157Y-20468452D02*
X14537109Y-20477976D01*
X14489490Y-20477976D01*
X14470443Y-20468452D01*
X14460919Y-20449405D01*
X14460919Y-20430357D01*
X14470443Y-20411310D01*
X14489490Y-20401786D01*
X14537109Y-20401786D01*
X14556157Y-20392262D01*
X14651395Y-20344643D02*
X14651395Y-20544643D01*
X14651395Y-20354167D02*
X14670443Y-20344643D01*
X14708538Y-20344643D01*
X14727586Y-20354167D01*
X14737109Y-20363690D01*
X14746633Y-20382738D01*
X14746633Y-20439881D01*
X14737109Y-20458929D01*
X14727586Y-20468452D01*
X14708538Y-20477976D01*
X14670443Y-20477976D01*
X14651395Y-20468452D01*
X14832348Y-20458929D02*
X14841871Y-20468452D01*
X14832348Y-20477976D01*
X14822824Y-20468452D01*
X14832348Y-20458929D01*
X14832348Y-20477976D01*
X14832348Y-20354167D02*
X14841871Y-20363690D01*
X14832348Y-20373214D01*
X14822824Y-20363690D01*
X14832348Y-20354167D01*
X14832348Y-20373214D01*
X13003300Y-20707500D02*
X13203300Y-20907500D01*
X13203300Y-20707500D02*
X13003300Y-20907500D01*
X13441871Y-20697976D02*
X13565681Y-20697976D01*
X13499014Y-20774167D01*
X13527586Y-20774167D01*
X13546633Y-20783690D01*
X13556157Y-20793214D01*
X13565681Y-20812262D01*
X13565681Y-20859881D01*
X13556157Y-20878929D01*
X13546633Y-20888452D01*
X13527586Y-20897976D01*
X13470443Y-20897976D01*
X13451395Y-20888452D01*
X13441871Y-20878929D01*
X13651395Y-20878929D02*
X13660919Y-20888452D01*
X13651395Y-20897976D01*
X13641871Y-20888452D01*
X13651395Y-20878929D01*
X13651395Y-20897976D01*
X13737109Y-20717024D02*
X13746633Y-20707500D01*
X13765681Y-20697976D01*
X13813300Y-20697976D01*
X13832348Y-20707500D01*
X13841871Y-20717024D01*
X13851395Y-20736071D01*
X13851395Y-20755119D01*
X13841871Y-20783690D01*
X13727586Y-20897976D01*
X13851395Y-20897976D01*
X13975205Y-20697976D02*
X13994252Y-20697976D01*
X14013300Y-20707500D01*
X14022824Y-20717024D01*
X14032348Y-20736071D01*
X14041871Y-20774167D01*
X14041871Y-20821786D01*
X14032348Y-20859881D01*
X14022824Y-20878929D01*
X14013300Y-20888452D01*
X13994252Y-20897976D01*
X13975205Y-20897976D01*
X13956157Y-20888452D01*
X13946633Y-20878929D01*
X13937109Y-20859881D01*
X13927586Y-20821786D01*
X13927586Y-20774167D01*
X13937109Y-20736071D01*
X13946633Y-20717024D01*
X13956157Y-20707500D01*
X13975205Y-20697976D01*
X14165681Y-20697976D02*
X14184728Y-20697976D01*
X14203776Y-20707500D01*
X14213300Y-20717024D01*
X14222824Y-20736071D01*
X14232348Y-20774167D01*
X14232348Y-20821786D01*
X14222824Y-20859881D01*
X14213300Y-20878929D01*
X14203776Y-20888452D01*
X14184728Y-20897976D01*
X14165681Y-20897976D01*
X14146633Y-20888452D01*
X14137109Y-20878929D01*
X14127586Y-20859881D01*
X14118062Y-20821786D01*
X14118062Y-20774167D01*
X14127586Y-20736071D01*
X14137109Y-20717024D01*
X14146633Y-20707500D01*
X14165681Y-20697976D01*
X14318062Y-20897976D02*
X14318062Y-20764643D01*
X14318062Y-20783690D02*
X14327586Y-20774167D01*
X14346633Y-20764643D01*
X14375205Y-20764643D01*
X14394252Y-20774167D01*
X14403776Y-20793214D01*
X14403776Y-20897976D01*
X14403776Y-20793214D02*
X14413300Y-20774167D01*
X14432348Y-20764643D01*
X14460919Y-20764643D01*
X14479967Y-20774167D01*
X14489490Y-20793214D01*
X14489490Y-20897976D01*
X14584728Y-20897976D02*
X14584728Y-20764643D01*
X14584728Y-20783690D02*
X14594252Y-20774167D01*
X14613300Y-20764643D01*
X14641871Y-20764643D01*
X14660919Y-20774167D01*
X14670443Y-20793214D01*
X14670443Y-20897976D01*
X14670443Y-20793214D02*
X14679967Y-20774167D01*
X14699014Y-20764643D01*
X14727586Y-20764643D01*
X14746633Y-20774167D01*
X14756157Y-20793214D01*
X14756157Y-20897976D01*
X15146633Y-20688452D02*
X14975205Y-20945595D01*
X15403776Y-20697976D02*
X15422824Y-20697976D01*
X15441871Y-20707500D01*
X15451395Y-20717024D01*
X15460919Y-20736071D01*
X15470443Y-20774167D01*
X15470443Y-20821786D01*
X15460919Y-20859881D01*
X15451395Y-20878929D01*
X15441871Y-20888452D01*
X15422824Y-20897976D01*
X15403776Y-20897976D01*
X15384728Y-20888452D01*
X15375205Y-20878929D01*
X15365681Y-20859881D01*
X15356157Y-20821786D01*
X15356157Y-20774167D01*
X15365681Y-20736071D01*
X15375205Y-20717024D01*
X15384728Y-20707500D01*
X15403776Y-20697976D01*
X15556157Y-20878929D02*
X15565681Y-20888452D01*
X15556157Y-20897976D01*
X15546633Y-20888452D01*
X15556157Y-20878929D01*
X15556157Y-20897976D01*
X15756157Y-20897976D02*
X15641871Y-20897976D01*
X15699014Y-20897976D02*
X15699014Y-20697976D01*
X15679967Y-20726548D01*
X15660919Y-20745595D01*
X15641871Y-20755119D01*
X15832348Y-20717024D02*
X15841871Y-20707500D01*
X15860919Y-20697976D01*
X15908538Y-20697976D01*
X15927586Y-20707500D01*
X15937109Y-20717024D01*
X15946633Y-20736071D01*
X15946633Y-20755119D01*
X15937109Y-20783690D01*
X15822824Y-20897976D01*
X15946633Y-20897976D01*
X16118062Y-20697976D02*
X16079967Y-20697976D01*
X16060919Y-20707500D01*
X16051395Y-20717024D01*
X16032348Y-20745595D01*
X16022824Y-20783690D01*
X16022824Y-20859881D01*
X16032348Y-20878929D01*
X16041871Y-20888452D01*
X16060919Y-20897976D01*
X16099014Y-20897976D01*
X16118062Y-20888452D01*
X16127586Y-20878929D01*
X16137109Y-20859881D01*
X16137109Y-20812262D01*
X16127586Y-20793214D01*
X16118062Y-20783690D01*
X16099014Y-20774167D01*
X16060919Y-20774167D01*
X16041871Y-20783690D01*
X16032348Y-20793214D01*
X16022824Y-20812262D01*
X16260919Y-20697976D02*
X16279967Y-20697976D01*
X16299014Y-20707500D01*
X16308538Y-20717024D01*
X16318062Y-20736071D01*
X16327586Y-20774167D01*
X16327586Y-20821786D01*
X16318062Y-20859881D01*
X16308538Y-20878929D01*
X16299014Y-20888452D01*
X16279967Y-20897976D01*
X16260919Y-20897976D01*
X16241871Y-20888452D01*
X16232348Y-20878929D01*
X16222824Y-20859881D01*
X16213300Y-20821786D01*
X16213300Y-20774167D01*
X16222824Y-20736071D01*
X16232348Y-20717024D01*
X16241871Y-20707500D01*
X16260919Y-20697976D01*
X16403776Y-20697976D02*
X16403776Y-20736071D01*
X16479967Y-20697976D02*
X16479967Y-20736071D01*
X16775205Y-20974167D02*
X16765681Y-20964643D01*
X16746633Y-20936071D01*
X16737109Y-20917024D01*
X16727586Y-20888452D01*
X16718062Y-20840833D01*
X16718062Y-20802738D01*
X16727586Y-20755119D01*
X16737109Y-20726548D01*
X16746633Y-20707500D01*
X16765681Y-20678929D01*
X16775205Y-20669405D01*
X16841871Y-20717024D02*
X16851395Y-20707500D01*
X16870443Y-20697976D01*
X16918062Y-20697976D01*
X16937110Y-20707500D01*
X16946633Y-20717024D01*
X16956157Y-20736071D01*
X16956157Y-20755119D01*
X16946633Y-20783690D01*
X16832348Y-20897976D01*
X16956157Y-20897976D01*
X17194252Y-20897976D02*
X17194252Y-20697976D01*
X17279967Y-20897976D02*
X17279967Y-20793214D01*
X17270443Y-20774167D01*
X17251395Y-20764643D01*
X17222824Y-20764643D01*
X17203776Y-20774167D01*
X17194252Y-20783690D01*
X17403776Y-20897976D02*
X17384729Y-20888452D01*
X17375205Y-20878929D01*
X17365681Y-20859881D01*
X17365681Y-20802738D01*
X17375205Y-20783690D01*
X17384729Y-20774167D01*
X17403776Y-20764643D01*
X17432348Y-20764643D01*
X17451395Y-20774167D01*
X17460919Y-20783690D01*
X17470443Y-20802738D01*
X17470443Y-20859881D01*
X17460919Y-20878929D01*
X17451395Y-20888452D01*
X17432348Y-20897976D01*
X17403776Y-20897976D01*
X17584729Y-20897976D02*
X17565681Y-20888452D01*
X17556157Y-20869405D01*
X17556157Y-20697976D01*
X17737110Y-20888452D02*
X17718062Y-20897976D01*
X17679967Y-20897976D01*
X17660919Y-20888452D01*
X17651395Y-20869405D01*
X17651395Y-20793214D01*
X17660919Y-20774167D01*
X17679967Y-20764643D01*
X17718062Y-20764643D01*
X17737110Y-20774167D01*
X17746633Y-20793214D01*
X17746633Y-20812262D01*
X17651395Y-20831310D01*
X17822824Y-20888452D02*
X17841871Y-20897976D01*
X17879967Y-20897976D01*
X17899014Y-20888452D01*
X17908538Y-20869405D01*
X17908538Y-20859881D01*
X17899014Y-20840833D01*
X17879967Y-20831310D01*
X17851395Y-20831310D01*
X17832348Y-20821786D01*
X17822824Y-20802738D01*
X17822824Y-20793214D01*
X17832348Y-20774167D01*
X17851395Y-20764643D01*
X17879967Y-20764643D01*
X17899014Y-20774167D01*
X17975205Y-20974167D02*
X17984729Y-20964643D01*
X18003776Y-20936071D01*
X18013300Y-20917024D01*
X18022824Y-20888452D01*
X18032348Y-20840833D01*
X18032348Y-20802738D01*
X18022824Y-20755119D01*
X18013300Y-20726548D01*
X18003776Y-20707500D01*
X17984729Y-20678929D01*
X17975205Y-20669405D01*
X18337110Y-20974167D02*
X18327586Y-20964643D01*
X18308538Y-20936071D01*
X18299014Y-20917024D01*
X18289490Y-20888452D01*
X18279967Y-20840833D01*
X18279967Y-20802738D01*
X18289490Y-20755119D01*
X18299014Y-20726548D01*
X18308538Y-20707500D01*
X18327586Y-20678929D01*
X18337110Y-20669405D01*
X18413300Y-20764643D02*
X18413300Y-20897976D01*
X18413300Y-20783690D02*
X18422824Y-20774167D01*
X18441871Y-20764643D01*
X18470443Y-20764643D01*
X18489490Y-20774167D01*
X18499014Y-20793214D01*
X18499014Y-20897976D01*
X18622824Y-20897976D02*
X18603776Y-20888452D01*
X18594252Y-20878929D01*
X18584729Y-20859881D01*
X18584729Y-20802738D01*
X18594252Y-20783690D01*
X18603776Y-20774167D01*
X18622824Y-20764643D01*
X18651395Y-20764643D01*
X18670443Y-20774167D01*
X18679967Y-20783690D01*
X18689490Y-20802738D01*
X18689490Y-20859881D01*
X18679967Y-20878929D01*
X18670443Y-20888452D01*
X18651395Y-20897976D01*
X18622824Y-20897976D01*
X18746633Y-20764643D02*
X18822824Y-20764643D01*
X18775205Y-20697976D02*
X18775205Y-20869405D01*
X18784729Y-20888452D01*
X18803776Y-20897976D01*
X18822824Y-20897976D01*
X19041871Y-20764643D02*
X19041871Y-20964643D01*
X19041871Y-20774167D02*
X19060919Y-20764643D01*
X19099014Y-20764643D01*
X19118062Y-20774167D01*
X19127586Y-20783690D01*
X19137110Y-20802738D01*
X19137110Y-20859881D01*
X19127586Y-20878929D01*
X19118062Y-20888452D01*
X19099014Y-20897976D01*
X19060919Y-20897976D01*
X19041871Y-20888452D01*
X19251395Y-20897976D02*
X19232348Y-20888452D01*
X19222824Y-20869405D01*
X19222824Y-20697976D01*
X19413300Y-20897976D02*
X19413300Y-20793214D01*
X19403776Y-20774167D01*
X19384729Y-20764643D01*
X19346633Y-20764643D01*
X19327586Y-20774167D01*
X19413300Y-20888452D02*
X19394252Y-20897976D01*
X19346633Y-20897976D01*
X19327586Y-20888452D01*
X19318062Y-20869405D01*
X19318062Y-20850357D01*
X19327586Y-20831310D01*
X19346633Y-20821786D01*
X19394252Y-20821786D01*
X19413300Y-20812262D01*
X19479967Y-20764643D02*
X19556157Y-20764643D01*
X19508538Y-20697976D02*
X19508538Y-20869405D01*
X19518062Y-20888452D01*
X19537110Y-20897976D01*
X19556157Y-20897976D01*
X19699014Y-20888452D02*
X19679967Y-20897976D01*
X19641871Y-20897976D01*
X19622824Y-20888452D01*
X19613300Y-20869405D01*
X19613300Y-20793214D01*
X19622824Y-20774167D01*
X19641871Y-20764643D01*
X19679967Y-20764643D01*
X19699014Y-20774167D01*
X19708538Y-20793214D01*
X19708538Y-20812262D01*
X19613300Y-20831310D01*
X19879967Y-20897976D02*
X19879967Y-20697976D01*
X19879967Y-20888452D02*
X19860919Y-20897976D01*
X19822824Y-20897976D01*
X19803776Y-20888452D01*
X19794252Y-20878929D01*
X19784729Y-20859881D01*
X19784729Y-20802738D01*
X19794252Y-20783690D01*
X19803776Y-20774167D01*
X19822824Y-20764643D01*
X19860919Y-20764643D01*
X19879967Y-20774167D01*
X19956157Y-20974167D02*
X19965681Y-20964643D01*
X19984729Y-20936071D01*
X19994252Y-20917024D01*
X20003776Y-20888452D01*
X20013300Y-20840833D01*
X20013300Y-20802738D01*
X20003776Y-20755119D01*
X19994252Y-20726548D01*
X19984729Y-20707500D01*
X19965681Y-20678929D01*
X19956157Y-20669405D01*
M02*
