G04 #@! TF.GenerationSoftware,KiCad,Pcbnew,(6.0.5)*
G04 #@! TF.CreationDate,2023-06-10T16:45:34-04:00*
G04 #@! TF.ProjectId,CaelusRocketPCB,4361656c-7573-4526-9f63-6b6574504342,rev?*
G04 #@! TF.SameCoordinates,Original*
G04 #@! TF.FileFunction,Legend,Top*
G04 #@! TF.FilePolarity,Positive*
%FSLAX46Y46*%
G04 Gerber Fmt 4.6, Leading zero omitted, Abs format (unit mm)*
G04 Created by KiCad (PCBNEW (6.0.5)) date 2023-06-10 16:45:34*
%MOMM*%
%LPD*%
G01*
G04 APERTURE LIST*
%ADD10C,0.150000*%
%ADD11C,0.120000*%
%ADD12C,0.127000*%
%ADD13C,0.300000*%
%ADD14C,1.600000*%
%ADD15O,1.600000X1.600000*%
%ADD16R,1.800000X1.800000*%
%ADD17O,1.800000X1.800000*%
%ADD18C,5.000000*%
%ADD19R,1.905000X2.000000*%
%ADD20O,1.905000X2.000000*%
%ADD21C,2.000000*%
%ADD22R,5.516000X5.516000*%
%ADD23C,5.516000*%
%ADD24C,1.800000*%
%ADD25C,3.200000*%
%ADD26R,1.500000X1.500000*%
%ADD27C,1.500000*%
G04 APERTURE END LIST*
D10*
X143833333Y-141202380D02*
X143500000Y-140726190D01*
X143261904Y-141202380D02*
X143261904Y-140202380D01*
X143642857Y-140202380D01*
X143738095Y-140250000D01*
X143785714Y-140297619D01*
X143833333Y-140392857D01*
X143833333Y-140535714D01*
X143785714Y-140630952D01*
X143738095Y-140678571D01*
X143642857Y-140726190D01*
X143261904Y-140726190D01*
X144690476Y-140202380D02*
X144500000Y-140202380D01*
X144404761Y-140250000D01*
X144357142Y-140297619D01*
X144261904Y-140440476D01*
X144214285Y-140630952D01*
X144214285Y-141011904D01*
X144261904Y-141107142D01*
X144309523Y-141154761D01*
X144404761Y-141202380D01*
X144595238Y-141202380D01*
X144690476Y-141154761D01*
X144738095Y-141107142D01*
X144785714Y-141011904D01*
X144785714Y-140773809D01*
X144738095Y-140678571D01*
X144690476Y-140630952D01*
X144595238Y-140583333D01*
X144404761Y-140583333D01*
X144309523Y-140630952D01*
X144261904Y-140678571D01*
X144214285Y-140773809D01*
X137535714Y-134982380D02*
X137535714Y-133982380D01*
X137773809Y-133982380D01*
X137916666Y-134030000D01*
X138011904Y-134125238D01*
X138059523Y-134220476D01*
X138107142Y-134410952D01*
X138107142Y-134553809D01*
X138059523Y-134744285D01*
X138011904Y-134839523D01*
X137916666Y-134934761D01*
X137773809Y-134982380D01*
X137535714Y-134982380D01*
X139059523Y-134982380D02*
X138488095Y-134982380D01*
X138773809Y-134982380D02*
X138773809Y-133982380D01*
X138678571Y-134125238D01*
X138583333Y-134220476D01*
X138488095Y-134268095D01*
X139678571Y-133982380D02*
X139773809Y-133982380D01*
X139869047Y-134030000D01*
X139916666Y-134077619D01*
X139964285Y-134172857D01*
X140011904Y-134363333D01*
X140011904Y-134601428D01*
X139964285Y-134791904D01*
X139916666Y-134887142D01*
X139869047Y-134934761D01*
X139773809Y-134982380D01*
X139678571Y-134982380D01*
X139583333Y-134934761D01*
X139535714Y-134887142D01*
X139488095Y-134791904D01*
X139440476Y-134601428D01*
X139440476Y-134363333D01*
X139488095Y-134172857D01*
X139535714Y-134077619D01*
X139583333Y-134030000D01*
X139678571Y-133982380D01*
X143701904Y-137166666D02*
X144178095Y-137166666D01*
X143606666Y-137452380D02*
X143940000Y-136452380D01*
X144273333Y-137452380D01*
X173593148Y-106392135D02*
X173593148Y-105392135D01*
X173831244Y-105392135D01*
X173974101Y-105439755D01*
X174069339Y-105534993D01*
X174116958Y-105630231D01*
X174164577Y-105820707D01*
X174164577Y-105963564D01*
X174116958Y-106154040D01*
X174069339Y-106249278D01*
X173974101Y-106344516D01*
X173831244Y-106392135D01*
X173593148Y-106392135D01*
X174497910Y-105392135D02*
X175116958Y-105392135D01*
X174783624Y-105773088D01*
X174926482Y-105773088D01*
X175021720Y-105820707D01*
X175069339Y-105868326D01*
X175116958Y-105963564D01*
X175116958Y-106201659D01*
X175069339Y-106296897D01*
X175021720Y-106344516D01*
X174926482Y-106392135D01*
X174640767Y-106392135D01*
X174545529Y-106344516D01*
X174497910Y-106296897D01*
X181657148Y-106266421D02*
X182133339Y-106266421D01*
X181561910Y-106552135D02*
X181895244Y-105552135D01*
X182228577Y-106552135D01*
X196458120Y-106582380D02*
X196124787Y-106106190D01*
X195886692Y-106582380D02*
X195886692Y-105582380D01*
X196267644Y-105582380D01*
X196362882Y-105630000D01*
X196410501Y-105677619D01*
X196458120Y-105772857D01*
X196458120Y-105915714D01*
X196410501Y-106010952D01*
X196362882Y-106058571D01*
X196267644Y-106106190D01*
X195886692Y-106106190D01*
X196791454Y-105582380D02*
X197410501Y-105582380D01*
X197077168Y-105963333D01*
X197220025Y-105963333D01*
X197315263Y-106010952D01*
X197362882Y-106058571D01*
X197410501Y-106153809D01*
X197410501Y-106391904D01*
X197362882Y-106487142D01*
X197315263Y-106534761D01*
X197220025Y-106582380D01*
X196934311Y-106582380D01*
X196839073Y-106534761D01*
X196791454Y-106487142D01*
X197743835Y-105582380D02*
X198362882Y-105582380D01*
X198029549Y-105963333D01*
X198172406Y-105963333D01*
X198267644Y-106010952D01*
X198315263Y-106058571D01*
X198362882Y-106153809D01*
X198362882Y-106391904D01*
X198315263Y-106487142D01*
X198267644Y-106534761D01*
X198172406Y-106582380D01*
X197886692Y-106582380D01*
X197791454Y-106534761D01*
X197743835Y-106487142D01*
X139238095Y-80452380D02*
X139238095Y-79452380D01*
X139238095Y-79928571D02*
X139809523Y-79928571D01*
X139809523Y-80452380D02*
X139809523Y-79452380D01*
X140190476Y-79452380D02*
X140809523Y-79452380D01*
X140476190Y-79833333D01*
X140619047Y-79833333D01*
X140714285Y-79880952D01*
X140761904Y-79928571D01*
X140809523Y-80023809D01*
X140809523Y-80261904D01*
X140761904Y-80357142D01*
X140714285Y-80404761D01*
X140619047Y-80452380D01*
X140333333Y-80452380D01*
X140238095Y-80404761D01*
X140190476Y-80357142D01*
X194525840Y-183515619D02*
X194430602Y-183468000D01*
X194335364Y-183372761D01*
X194192507Y-183229904D01*
X194097269Y-183182285D01*
X194002031Y-183182285D01*
X194049650Y-183420380D02*
X193954412Y-183372761D01*
X193859174Y-183277523D01*
X193811555Y-183087047D01*
X193811555Y-182753714D01*
X193859174Y-182563238D01*
X193954412Y-182468000D01*
X194049650Y-182420380D01*
X194240126Y-182420380D01*
X194335364Y-182468000D01*
X194430602Y-182563238D01*
X194478221Y-182753714D01*
X194478221Y-183087047D01*
X194430602Y-183277523D01*
X194335364Y-183372761D01*
X194240126Y-183420380D01*
X194049650Y-183420380D01*
X195335364Y-182753714D02*
X195335364Y-183420380D01*
X195097269Y-182372761D02*
X194859174Y-183087047D01*
X195478221Y-183087047D01*
X142857142Y-128202380D02*
X142523809Y-127726190D01*
X142285714Y-128202380D02*
X142285714Y-127202380D01*
X142666666Y-127202380D01*
X142761904Y-127250000D01*
X142809523Y-127297619D01*
X142857142Y-127392857D01*
X142857142Y-127535714D01*
X142809523Y-127630952D01*
X142761904Y-127678571D01*
X142666666Y-127726190D01*
X142285714Y-127726190D01*
X143809523Y-128202380D02*
X143238095Y-128202380D01*
X143523809Y-128202380D02*
X143523809Y-127202380D01*
X143428571Y-127345238D01*
X143333333Y-127440476D01*
X143238095Y-127488095D01*
X144428571Y-127202380D02*
X144523809Y-127202380D01*
X144619047Y-127250000D01*
X144666666Y-127297619D01*
X144714285Y-127392857D01*
X144761904Y-127583333D01*
X144761904Y-127821428D01*
X144714285Y-128011904D01*
X144666666Y-128107142D01*
X144619047Y-128154761D01*
X144523809Y-128202380D01*
X144428571Y-128202380D01*
X144333333Y-128154761D01*
X144285714Y-128107142D01*
X144238095Y-128011904D01*
X144190476Y-127821428D01*
X144190476Y-127583333D01*
X144238095Y-127392857D01*
X144285714Y-127297619D01*
X144333333Y-127250000D01*
X144428571Y-127202380D01*
X198238095Y-194952380D02*
X198238095Y-193952380D01*
X198238095Y-194428571D02*
X198809523Y-194428571D01*
X198809523Y-194952380D02*
X198809523Y-193952380D01*
X199714285Y-194285714D02*
X199714285Y-194952380D01*
X199476190Y-193904761D02*
X199238095Y-194619047D01*
X199857142Y-194619047D01*
X185472295Y-164102580D02*
X186043723Y-164102580D01*
X185758009Y-165102580D02*
X185758009Y-164102580D01*
X186377057Y-165102580D02*
X186377057Y-164102580D01*
X186758009Y-164102580D01*
X186853247Y-164150200D01*
X186900866Y-164197819D01*
X186948485Y-164293057D01*
X186948485Y-164435914D01*
X186900866Y-164531152D01*
X186853247Y-164578771D01*
X186758009Y-164626390D01*
X186377057Y-164626390D01*
X187805628Y-164435914D02*
X187805628Y-165102580D01*
X187567533Y-164054961D02*
X187329438Y-164769247D01*
X187948485Y-164769247D01*
X162540758Y-111631807D02*
X162540758Y-112346588D01*
X162493106Y-112489544D01*
X162397802Y-112584848D01*
X162254846Y-112632500D01*
X162159542Y-112632500D01*
X162969627Y-111727111D02*
X163017279Y-111679459D01*
X163112583Y-111631807D01*
X163350843Y-111631807D01*
X163446147Y-111679459D01*
X163493799Y-111727111D01*
X163541451Y-111822415D01*
X163541451Y-111917719D01*
X163493799Y-112060675D01*
X162921975Y-112632500D01*
X163541451Y-112632500D01*
X174261904Y-92452380D02*
X174261904Y-91452380D01*
X174500000Y-91452380D01*
X174642857Y-91500000D01*
X174738095Y-91595238D01*
X174785714Y-91690476D01*
X174833333Y-91880952D01*
X174833333Y-92023809D01*
X174785714Y-92214285D01*
X174738095Y-92309523D01*
X174642857Y-92404761D01*
X174500000Y-92452380D01*
X174261904Y-92452380D01*
X175166666Y-91452380D02*
X175833333Y-91452380D01*
X175404761Y-92452380D01*
X181902882Y-92166666D02*
X182379073Y-92166666D01*
X181807644Y-92452380D02*
X182140978Y-91452380D01*
X182474311Y-92452380D01*
X151785714Y-135952380D02*
X151785714Y-134952380D01*
X152023809Y-134952380D01*
X152166666Y-135000000D01*
X152261904Y-135095238D01*
X152309523Y-135190476D01*
X152357142Y-135380952D01*
X152357142Y-135523809D01*
X152309523Y-135714285D01*
X152261904Y-135809523D01*
X152166666Y-135904761D01*
X152023809Y-135952380D01*
X151785714Y-135952380D01*
X153309523Y-135952380D02*
X152738095Y-135952380D01*
X153023809Y-135952380D02*
X153023809Y-134952380D01*
X152928571Y-135095238D01*
X152833333Y-135190476D01*
X152738095Y-135238095D01*
X154166666Y-134952380D02*
X153976190Y-134952380D01*
X153880952Y-135000000D01*
X153833333Y-135047619D01*
X153738095Y-135190476D01*
X153690476Y-135380952D01*
X153690476Y-135761904D01*
X153738095Y-135857142D01*
X153785714Y-135904761D01*
X153880952Y-135952380D01*
X154071428Y-135952380D01*
X154166666Y-135904761D01*
X154214285Y-135857142D01*
X154261904Y-135761904D01*
X154261904Y-135523809D01*
X154214285Y-135428571D01*
X154166666Y-135380952D01*
X154071428Y-135333333D01*
X153880952Y-135333333D01*
X153785714Y-135380952D01*
X153738095Y-135428571D01*
X153690476Y-135523809D01*
X166757142Y-125422380D02*
X166423809Y-124946190D01*
X166185714Y-125422380D02*
X166185714Y-124422380D01*
X166566666Y-124422380D01*
X166661904Y-124470000D01*
X166709523Y-124517619D01*
X166757142Y-124612857D01*
X166757142Y-124755714D01*
X166709523Y-124850952D01*
X166661904Y-124898571D01*
X166566666Y-124946190D01*
X166185714Y-124946190D01*
X167709523Y-125422380D02*
X167138095Y-125422380D01*
X167423809Y-125422380D02*
X167423809Y-124422380D01*
X167328571Y-124565238D01*
X167233333Y-124660476D01*
X167138095Y-124708095D01*
X168661904Y-125422380D02*
X168090476Y-125422380D01*
X168376190Y-125422380D02*
X168376190Y-124422380D01*
X168280952Y-124565238D01*
X168185714Y-124660476D01*
X168090476Y-124708095D01*
X150785714Y-184452380D02*
X150785714Y-183452380D01*
X151023809Y-183452380D01*
X151166666Y-183500000D01*
X151261904Y-183595238D01*
X151309523Y-183690476D01*
X151357142Y-183880952D01*
X151357142Y-184023809D01*
X151309523Y-184214285D01*
X151261904Y-184309523D01*
X151166666Y-184404761D01*
X151023809Y-184452380D01*
X150785714Y-184452380D01*
X152309523Y-184452380D02*
X151738095Y-184452380D01*
X152023809Y-184452380D02*
X152023809Y-183452380D01*
X151928571Y-183595238D01*
X151833333Y-183690476D01*
X151738095Y-183738095D01*
X153214285Y-183452380D02*
X152738095Y-183452380D01*
X152690476Y-183928571D01*
X152738095Y-183880952D01*
X152833333Y-183833333D01*
X153071428Y-183833333D01*
X153166666Y-183880952D01*
X153214285Y-183928571D01*
X153261904Y-184023809D01*
X153261904Y-184261904D01*
X153214285Y-184357142D01*
X153166666Y-184404761D01*
X153071428Y-184452380D01*
X152833333Y-184452380D01*
X152738095Y-184404761D01*
X152690476Y-184357142D01*
X142933333Y-108452380D02*
X142600000Y-107976190D01*
X142361904Y-108452380D02*
X142361904Y-107452380D01*
X142742857Y-107452380D01*
X142838095Y-107500000D01*
X142885714Y-107547619D01*
X142933333Y-107642857D01*
X142933333Y-107785714D01*
X142885714Y-107880952D01*
X142838095Y-107928571D01*
X142742857Y-107976190D01*
X142361904Y-107976190D01*
X143409523Y-108452380D02*
X143600000Y-108452380D01*
X143695238Y-108404761D01*
X143742857Y-108357142D01*
X143838095Y-108214285D01*
X143885714Y-108023809D01*
X143885714Y-107642857D01*
X143838095Y-107547619D01*
X143790476Y-107500000D01*
X143695238Y-107452380D01*
X143504761Y-107452380D01*
X143409523Y-107500000D01*
X143361904Y-107547619D01*
X143314285Y-107642857D01*
X143314285Y-107880952D01*
X143361904Y-107976190D01*
X143409523Y-108023809D01*
X143504761Y-108071428D01*
X143695238Y-108071428D01*
X143790476Y-108023809D01*
X143838095Y-107976190D01*
X143885714Y-107880952D01*
X132535714Y-84952380D02*
X132535714Y-83952380D01*
X132773809Y-83952380D01*
X132916666Y-84000000D01*
X133011904Y-84095238D01*
X133059523Y-84190476D01*
X133107142Y-84380952D01*
X133107142Y-84523809D01*
X133059523Y-84714285D01*
X133011904Y-84809523D01*
X132916666Y-84904761D01*
X132773809Y-84952380D01*
X132535714Y-84952380D01*
X134059523Y-84952380D02*
X133488095Y-84952380D01*
X133773809Y-84952380D02*
X133773809Y-83952380D01*
X133678571Y-84095238D01*
X133583333Y-84190476D01*
X133488095Y-84238095D01*
X134440476Y-84047619D02*
X134488095Y-84000000D01*
X134583333Y-83952380D01*
X134821428Y-83952380D01*
X134916666Y-84000000D01*
X134964285Y-84047619D01*
X135011904Y-84142857D01*
X135011904Y-84238095D01*
X134964285Y-84380952D01*
X134392857Y-84952380D01*
X135011904Y-84952380D01*
X135366904Y-87666666D02*
X135843095Y-87666666D01*
X135271666Y-87952380D02*
X135605000Y-86952380D01*
X135938333Y-87952380D01*
X187572840Y-167611108D02*
X187477602Y-167563489D01*
X187382364Y-167468250D01*
X187239507Y-167325393D01*
X187144269Y-167277774D01*
X187049031Y-167277774D01*
X187096650Y-167515869D02*
X187001412Y-167468250D01*
X186906174Y-167373012D01*
X186858555Y-167182536D01*
X186858555Y-166849203D01*
X186906174Y-166658727D01*
X187001412Y-166563489D01*
X187096650Y-166515869D01*
X187287126Y-166515869D01*
X187382364Y-166563489D01*
X187477602Y-166658727D01*
X187525221Y-166849203D01*
X187525221Y-167182536D01*
X187477602Y-167373012D01*
X187382364Y-167468250D01*
X187287126Y-167515869D01*
X187096650Y-167515869D01*
X188477602Y-167515869D02*
X187906174Y-167515869D01*
X188191888Y-167515869D02*
X188191888Y-166515869D01*
X188096650Y-166658727D01*
X188001412Y-166753965D01*
X187906174Y-166801584D01*
X198711412Y-176785869D02*
X198378079Y-176309679D01*
X198139983Y-176785869D02*
X198139983Y-175785869D01*
X198520936Y-175785869D01*
X198616174Y-175833489D01*
X198663793Y-175881108D01*
X198711412Y-175976346D01*
X198711412Y-176119203D01*
X198663793Y-176214441D01*
X198616174Y-176262060D01*
X198520936Y-176309679D01*
X198139983Y-176309679D01*
X199044745Y-175785869D02*
X199663793Y-175785869D01*
X199330459Y-176166822D01*
X199473317Y-176166822D01*
X199568555Y-176214441D01*
X199616174Y-176262060D01*
X199663793Y-176357298D01*
X199663793Y-176595393D01*
X199616174Y-176690631D01*
X199568555Y-176738250D01*
X199473317Y-176785869D01*
X199187602Y-176785869D01*
X199092364Y-176738250D01*
X199044745Y-176690631D01*
X150785714Y-100952380D02*
X150785714Y-99952380D01*
X151023809Y-99952380D01*
X151166666Y-100000000D01*
X151261904Y-100095238D01*
X151309523Y-100190476D01*
X151357142Y-100380952D01*
X151357142Y-100523809D01*
X151309523Y-100714285D01*
X151261904Y-100809523D01*
X151166666Y-100904761D01*
X151023809Y-100952380D01*
X150785714Y-100952380D01*
X152309523Y-100952380D02*
X151738095Y-100952380D01*
X152023809Y-100952380D02*
X152023809Y-99952380D01*
X151928571Y-100095238D01*
X151833333Y-100190476D01*
X151738095Y-100238095D01*
X152880952Y-100380952D02*
X152785714Y-100333333D01*
X152738095Y-100285714D01*
X152690476Y-100190476D01*
X152690476Y-100142857D01*
X152738095Y-100047619D01*
X152785714Y-100000000D01*
X152880952Y-99952380D01*
X153071428Y-99952380D01*
X153166666Y-100000000D01*
X153214285Y-100047619D01*
X153261904Y-100142857D01*
X153261904Y-100190476D01*
X153214285Y-100285714D01*
X153166666Y-100333333D01*
X153071428Y-100380952D01*
X152880952Y-100380952D01*
X152785714Y-100428571D01*
X152738095Y-100476190D01*
X152690476Y-100571428D01*
X152690476Y-100761904D01*
X152738095Y-100857142D01*
X152785714Y-100904761D01*
X152880952Y-100952380D01*
X153071428Y-100952380D01*
X153166666Y-100904761D01*
X153214285Y-100857142D01*
X153261904Y-100761904D01*
X153261904Y-100571428D01*
X153214285Y-100476190D01*
X153166666Y-100428571D01*
X153071428Y-100380952D01*
X163726435Y-184900001D02*
X163726435Y-185614782D01*
X163678783Y-185757738D01*
X163583479Y-185853042D01*
X163440523Y-185900694D01*
X163345219Y-185900694D01*
X164631824Y-185233565D02*
X164631824Y-185900694D01*
X164393564Y-184852349D02*
X164155304Y-185567130D01*
X164774780Y-185567130D01*
X177181904Y-163732380D02*
X177181904Y-162732380D01*
X177420000Y-162732380D01*
X177562857Y-162780000D01*
X177658095Y-162875238D01*
X177705714Y-162970476D01*
X177753333Y-163160952D01*
X177753333Y-163303809D01*
X177705714Y-163494285D01*
X177658095Y-163589523D01*
X177562857Y-163684761D01*
X177420000Y-163732380D01*
X177181904Y-163732380D01*
X178134285Y-162827619D02*
X178181904Y-162780000D01*
X178277142Y-162732380D01*
X178515238Y-162732380D01*
X178610476Y-162780000D01*
X178658095Y-162827619D01*
X178705714Y-162922857D01*
X178705714Y-163018095D01*
X178658095Y-163160952D01*
X178086666Y-163732380D01*
X178705714Y-163732380D01*
X180851904Y-165916666D02*
X181328095Y-165916666D01*
X180756666Y-166202380D02*
X181090000Y-165202380D01*
X181423333Y-166202380D01*
X143543333Y-174952380D02*
X143210000Y-174476190D01*
X142971904Y-174952380D02*
X142971904Y-173952380D01*
X143352857Y-173952380D01*
X143448095Y-174000000D01*
X143495714Y-174047619D01*
X143543333Y-174142857D01*
X143543333Y-174285714D01*
X143495714Y-174380952D01*
X143448095Y-174428571D01*
X143352857Y-174476190D01*
X142971904Y-174476190D01*
X144400476Y-174285714D02*
X144400476Y-174952380D01*
X144162380Y-173904761D02*
X143924285Y-174619047D01*
X144543333Y-174619047D01*
X143793333Y-179202380D02*
X143460000Y-178726190D01*
X143221904Y-179202380D02*
X143221904Y-178202380D01*
X143602857Y-178202380D01*
X143698095Y-178250000D01*
X143745714Y-178297619D01*
X143793333Y-178392857D01*
X143793333Y-178535714D01*
X143745714Y-178630952D01*
X143698095Y-178678571D01*
X143602857Y-178726190D01*
X143221904Y-178726190D01*
X144174285Y-178297619D02*
X144221904Y-178250000D01*
X144317142Y-178202380D01*
X144555238Y-178202380D01*
X144650476Y-178250000D01*
X144698095Y-178297619D01*
X144745714Y-178392857D01*
X144745714Y-178488095D01*
X144698095Y-178630952D01*
X144126666Y-179202380D01*
X144745714Y-179202380D01*
X135471904Y-185452380D02*
X135471904Y-184452380D01*
X135710000Y-184452380D01*
X135852857Y-184500000D01*
X135948095Y-184595238D01*
X135995714Y-184690476D01*
X136043333Y-184880952D01*
X136043333Y-185023809D01*
X135995714Y-185214285D01*
X135948095Y-185309523D01*
X135852857Y-185404761D01*
X135710000Y-185452380D01*
X135471904Y-185452380D01*
X136519523Y-185452380D02*
X136710000Y-185452380D01*
X136805238Y-185404761D01*
X136852857Y-185357142D01*
X136948095Y-185214285D01*
X136995714Y-185023809D01*
X136995714Y-184642857D01*
X136948095Y-184547619D01*
X136900476Y-184500000D01*
X136805238Y-184452380D01*
X136614761Y-184452380D01*
X136519523Y-184500000D01*
X136471904Y-184547619D01*
X136424285Y-184642857D01*
X136424285Y-184880952D01*
X136471904Y-184976190D01*
X136519523Y-185023809D01*
X136614761Y-185071428D01*
X136805238Y-185071428D01*
X136900476Y-185023809D01*
X136948095Y-184976190D01*
X136995714Y-184880952D01*
X143471904Y-185166666D02*
X143948095Y-185166666D01*
X143376666Y-185452380D02*
X143710000Y-184452380D01*
X144043333Y-185452380D01*
X142357142Y-96952380D02*
X142023809Y-96476190D01*
X141785714Y-96952380D02*
X141785714Y-95952380D01*
X142166666Y-95952380D01*
X142261904Y-96000000D01*
X142309523Y-96047619D01*
X142357142Y-96142857D01*
X142357142Y-96285714D01*
X142309523Y-96380952D01*
X142261904Y-96428571D01*
X142166666Y-96476190D01*
X141785714Y-96476190D01*
X143214285Y-96285714D02*
X143214285Y-96952380D01*
X142976190Y-95904761D02*
X142738095Y-96619047D01*
X143357142Y-96619047D01*
X143785714Y-96952380D02*
X143976190Y-96952380D01*
X144071428Y-96904761D01*
X144119047Y-96857142D01*
X144214285Y-96714285D01*
X144261904Y-96523809D01*
X144261904Y-96142857D01*
X144214285Y-96047619D01*
X144166666Y-96000000D01*
X144071428Y-95952380D01*
X143880952Y-95952380D01*
X143785714Y-96000000D01*
X143738095Y-96047619D01*
X143690476Y-96142857D01*
X143690476Y-96380952D01*
X143738095Y-96476190D01*
X143785714Y-96523809D01*
X143880952Y-96571428D01*
X144071428Y-96571428D01*
X144166666Y-96523809D01*
X144214285Y-96476190D01*
X144261904Y-96380952D01*
X143583333Y-145202380D02*
X143250000Y-144726190D01*
X143011904Y-145202380D02*
X143011904Y-144202380D01*
X143392857Y-144202380D01*
X143488095Y-144250000D01*
X143535714Y-144297619D01*
X143583333Y-144392857D01*
X143583333Y-144535714D01*
X143535714Y-144630952D01*
X143488095Y-144678571D01*
X143392857Y-144726190D01*
X143011904Y-144726190D01*
X144535714Y-145202380D02*
X143964285Y-145202380D01*
X144250000Y-145202380D02*
X144250000Y-144202380D01*
X144154761Y-144345238D01*
X144059523Y-144440476D01*
X143964285Y-144488095D01*
X185265714Y-125412380D02*
X185265714Y-124412380D01*
X185503809Y-124412380D01*
X185646666Y-124460000D01*
X185741904Y-124555238D01*
X185789523Y-124650476D01*
X185837142Y-124840952D01*
X185837142Y-124983809D01*
X185789523Y-125174285D01*
X185741904Y-125269523D01*
X185646666Y-125364761D01*
X185503809Y-125412380D01*
X185265714Y-125412380D01*
X186789523Y-125412380D02*
X186218095Y-125412380D01*
X186503809Y-125412380D02*
X186503809Y-124412380D01*
X186408571Y-124555238D01*
X186313333Y-124650476D01*
X186218095Y-124698095D01*
X187265714Y-125412380D02*
X187456190Y-125412380D01*
X187551428Y-125364761D01*
X187599047Y-125317142D01*
X187694285Y-125174285D01*
X187741904Y-124983809D01*
X187741904Y-124602857D01*
X187694285Y-124507619D01*
X187646666Y-124460000D01*
X187551428Y-124412380D01*
X187360952Y-124412380D01*
X187265714Y-124460000D01*
X187218095Y-124507619D01*
X187170476Y-124602857D01*
X187170476Y-124840952D01*
X187218095Y-124936190D01*
X187265714Y-124983809D01*
X187360952Y-125031428D01*
X187551428Y-125031428D01*
X187646666Y-124983809D01*
X187694285Y-124936190D01*
X187741904Y-124840952D01*
X191207142Y-189202380D02*
X190873809Y-188726190D01*
X190635714Y-189202380D02*
X190635714Y-188202380D01*
X191016666Y-188202380D01*
X191111904Y-188250000D01*
X191159523Y-188297619D01*
X191207142Y-188392857D01*
X191207142Y-188535714D01*
X191159523Y-188630952D01*
X191111904Y-188678571D01*
X191016666Y-188726190D01*
X190635714Y-188726190D01*
X191540476Y-188202380D02*
X192159523Y-188202380D01*
X191826190Y-188583333D01*
X191969047Y-188583333D01*
X192064285Y-188630952D01*
X192111904Y-188678571D01*
X192159523Y-188773809D01*
X192159523Y-189011904D01*
X192111904Y-189107142D01*
X192064285Y-189154761D01*
X191969047Y-189202380D01*
X191683333Y-189202380D01*
X191588095Y-189154761D01*
X191540476Y-189107142D01*
X192540476Y-188297619D02*
X192588095Y-188250000D01*
X192683333Y-188202380D01*
X192921428Y-188202380D01*
X193016666Y-188250000D01*
X193064285Y-188297619D01*
X193111904Y-188392857D01*
X193111904Y-188488095D01*
X193064285Y-188630952D01*
X192492857Y-189202380D01*
X193111904Y-189202380D01*
X142733333Y-92952380D02*
X142400000Y-92476190D01*
X142161904Y-92952380D02*
X142161904Y-91952380D01*
X142542857Y-91952380D01*
X142638095Y-92000000D01*
X142685714Y-92047619D01*
X142733333Y-92142857D01*
X142733333Y-92285714D01*
X142685714Y-92380952D01*
X142638095Y-92428571D01*
X142542857Y-92476190D01*
X142161904Y-92476190D01*
X143304761Y-92380952D02*
X143209523Y-92333333D01*
X143161904Y-92285714D01*
X143114285Y-92190476D01*
X143114285Y-92142857D01*
X143161904Y-92047619D01*
X143209523Y-92000000D01*
X143304761Y-91952380D01*
X143495238Y-91952380D01*
X143590476Y-92000000D01*
X143638095Y-92047619D01*
X143685714Y-92142857D01*
X143685714Y-92190476D01*
X143638095Y-92285714D01*
X143590476Y-92333333D01*
X143495238Y-92380952D01*
X143304761Y-92380952D01*
X143209523Y-92428571D01*
X143161904Y-92476190D01*
X143114285Y-92571428D01*
X143114285Y-92761904D01*
X143161904Y-92857142D01*
X143209523Y-92904761D01*
X143304761Y-92952380D01*
X143495238Y-92952380D01*
X143590476Y-92904761D01*
X143638095Y-92857142D01*
X143685714Y-92761904D01*
X143685714Y-92571428D01*
X143638095Y-92476190D01*
X143590476Y-92428571D01*
X143495238Y-92380952D01*
X142257142Y-112452380D02*
X141923809Y-111976190D01*
X141685714Y-112452380D02*
X141685714Y-111452380D01*
X142066666Y-111452380D01*
X142161904Y-111500000D01*
X142209523Y-111547619D01*
X142257142Y-111642857D01*
X142257142Y-111785714D01*
X142209523Y-111880952D01*
X142161904Y-111928571D01*
X142066666Y-111976190D01*
X141685714Y-111976190D01*
X143114285Y-111785714D02*
X143114285Y-112452380D01*
X142876190Y-111404761D02*
X142638095Y-112119047D01*
X143257142Y-112119047D01*
X144066666Y-111452380D02*
X143876190Y-111452380D01*
X143780952Y-111500000D01*
X143733333Y-111547619D01*
X143638095Y-111690476D01*
X143590476Y-111880952D01*
X143590476Y-112261904D01*
X143638095Y-112357142D01*
X143685714Y-112404761D01*
X143780952Y-112452380D01*
X143971428Y-112452380D01*
X144066666Y-112404761D01*
X144114285Y-112357142D01*
X144161904Y-112261904D01*
X144161904Y-112023809D01*
X144114285Y-111928571D01*
X144066666Y-111880952D01*
X143971428Y-111833333D01*
X143780952Y-111833333D01*
X143685714Y-111880952D01*
X143638095Y-111928571D01*
X143590476Y-112023809D01*
X193694761Y-85129619D02*
X193599523Y-85082000D01*
X193504285Y-84986761D01*
X193361428Y-84843904D01*
X193266190Y-84796285D01*
X193170952Y-84796285D01*
X193218571Y-85034380D02*
X193123333Y-84986761D01*
X193028095Y-84891523D01*
X192980476Y-84701047D01*
X192980476Y-84367714D01*
X193028095Y-84177238D01*
X193123333Y-84082000D01*
X193218571Y-84034380D01*
X193409047Y-84034380D01*
X193504285Y-84082000D01*
X193599523Y-84177238D01*
X193647142Y-84367714D01*
X193647142Y-84701047D01*
X193599523Y-84891523D01*
X193504285Y-84986761D01*
X193409047Y-85034380D01*
X193218571Y-85034380D01*
X194218571Y-84462952D02*
X194123333Y-84415333D01*
X194075714Y-84367714D01*
X194028095Y-84272476D01*
X194028095Y-84224857D01*
X194075714Y-84129619D01*
X194123333Y-84082000D01*
X194218571Y-84034380D01*
X194409047Y-84034380D01*
X194504285Y-84082000D01*
X194551904Y-84129619D01*
X194599523Y-84224857D01*
X194599523Y-84272476D01*
X194551904Y-84367714D01*
X194504285Y-84415333D01*
X194409047Y-84462952D01*
X194218571Y-84462952D01*
X194123333Y-84510571D01*
X194075714Y-84558190D01*
X194028095Y-84653428D01*
X194028095Y-84843904D01*
X194075714Y-84939142D01*
X194123333Y-84986761D01*
X194218571Y-85034380D01*
X194409047Y-85034380D01*
X194504285Y-84986761D01*
X194551904Y-84939142D01*
X194599523Y-84843904D01*
X194599523Y-84653428D01*
X194551904Y-84558190D01*
X194504285Y-84510571D01*
X194409047Y-84462952D01*
X197985342Y-161846580D02*
X197652009Y-161370390D01*
X197413914Y-161846580D02*
X197413914Y-160846580D01*
X197794866Y-160846580D01*
X197890104Y-160894200D01*
X197937723Y-160941819D01*
X197985342Y-161037057D01*
X197985342Y-161179914D01*
X197937723Y-161275152D01*
X197890104Y-161322771D01*
X197794866Y-161370390D01*
X197413914Y-161370390D01*
X198366295Y-160941819D02*
X198413914Y-160894200D01*
X198509152Y-160846580D01*
X198747247Y-160846580D01*
X198842485Y-160894200D01*
X198890104Y-160941819D01*
X198937723Y-161037057D01*
X198937723Y-161132295D01*
X198890104Y-161275152D01*
X198318676Y-161846580D01*
X198937723Y-161846580D01*
X199842485Y-160846580D02*
X199366295Y-160846580D01*
X199318676Y-161322771D01*
X199366295Y-161275152D01*
X199461533Y-161227533D01*
X199699628Y-161227533D01*
X199794866Y-161275152D01*
X199842485Y-161322771D01*
X199890104Y-161418009D01*
X199890104Y-161656104D01*
X199842485Y-161751342D01*
X199794866Y-161798961D01*
X199699628Y-161846580D01*
X199461533Y-161846580D01*
X199366295Y-161798961D01*
X199318676Y-161751342D01*
X143333333Y-123452380D02*
X143000000Y-122976190D01*
X142761904Y-123452380D02*
X142761904Y-122452380D01*
X143142857Y-122452380D01*
X143238095Y-122500000D01*
X143285714Y-122547619D01*
X143333333Y-122642857D01*
X143333333Y-122785714D01*
X143285714Y-122880952D01*
X143238095Y-122928571D01*
X143142857Y-122976190D01*
X142761904Y-122976190D01*
X144238095Y-122452380D02*
X143761904Y-122452380D01*
X143714285Y-122928571D01*
X143761904Y-122880952D01*
X143857142Y-122833333D01*
X144095238Y-122833333D01*
X144190476Y-122880952D01*
X144238095Y-122928571D01*
X144285714Y-123023809D01*
X144285714Y-123261904D01*
X144238095Y-123357142D01*
X144190476Y-123404761D01*
X144095238Y-123452380D01*
X143857142Y-123452380D01*
X143761904Y-123404761D01*
X143714285Y-123357142D01*
X185738095Y-92952380D02*
X186309523Y-92952380D01*
X186023809Y-93952380D02*
X186023809Y-92952380D01*
X186642857Y-93952380D02*
X186642857Y-92952380D01*
X187023809Y-92952380D01*
X187119047Y-93000000D01*
X187166666Y-93047619D01*
X187214285Y-93142857D01*
X187214285Y-93285714D01*
X187166666Y-93380952D01*
X187119047Y-93428571D01*
X187023809Y-93476190D01*
X186642857Y-93476190D01*
X188071428Y-92952380D02*
X187880952Y-92952380D01*
X187785714Y-93000000D01*
X187738095Y-93047619D01*
X187642857Y-93190476D01*
X187595238Y-93380952D01*
X187595238Y-93761904D01*
X187642857Y-93857142D01*
X187690476Y-93904761D01*
X187785714Y-93952380D01*
X187976190Y-93952380D01*
X188071428Y-93904761D01*
X188119047Y-93857142D01*
X188166666Y-93761904D01*
X188166666Y-93523809D01*
X188119047Y-93428571D01*
X188071428Y-93380952D01*
X187976190Y-93333333D01*
X187785714Y-93333333D01*
X187690476Y-93380952D01*
X187642857Y-93428571D01*
X187595238Y-93523809D01*
X193238095Y-79452380D02*
X193238095Y-78452380D01*
X193238095Y-78928571D02*
X193809523Y-78928571D01*
X193809523Y-79452380D02*
X193809523Y-78452380D01*
X194809523Y-79452380D02*
X194238095Y-79452380D01*
X194523809Y-79452380D02*
X194523809Y-78452380D01*
X194428571Y-78595238D01*
X194333333Y-78690476D01*
X194238095Y-78738095D01*
X177545833Y-103240491D02*
X177545833Y-103955272D01*
X177498181Y-104098228D01*
X177402877Y-104193532D01*
X177259921Y-104241184D01*
X177164617Y-104241184D01*
X177927050Y-103240491D02*
X178594178Y-103240491D01*
X178165310Y-104241184D01*
X169906904Y-178268380D02*
X169906904Y-177268380D01*
X170145000Y-177268380D01*
X170287857Y-177316000D01*
X170383095Y-177411238D01*
X170430714Y-177506476D01*
X170478333Y-177696952D01*
X170478333Y-177839809D01*
X170430714Y-178030285D01*
X170383095Y-178125523D01*
X170287857Y-178220761D01*
X170145000Y-178268380D01*
X169906904Y-178268380D01*
X171335476Y-177601714D02*
X171335476Y-178268380D01*
X171097380Y-177220761D02*
X170859285Y-177935047D01*
X171478333Y-177935047D01*
X179051904Y-178916666D02*
X179528095Y-178916666D01*
X178956666Y-179202380D02*
X179290000Y-178202380D01*
X179623333Y-179202380D01*
X183368335Y-138990491D02*
X183368335Y-139705272D01*
X183320683Y-139848228D01*
X183225379Y-139943532D01*
X183082422Y-139991184D01*
X182987118Y-139991184D01*
X183797203Y-139085795D02*
X183844855Y-139038143D01*
X183940159Y-138990491D01*
X184178420Y-138990491D01*
X184273724Y-139038143D01*
X184321376Y-139085795D01*
X184369028Y-139181099D01*
X184369028Y-139276403D01*
X184321376Y-139419359D01*
X183749551Y-139991184D01*
X184369028Y-139991184D01*
X184940852Y-139419359D02*
X184845548Y-139371707D01*
X184797896Y-139324055D01*
X184750244Y-139228751D01*
X184750244Y-139181099D01*
X184797896Y-139085795D01*
X184845548Y-139038143D01*
X184940852Y-138990491D01*
X185131460Y-138990491D01*
X185226765Y-139038143D01*
X185274417Y-139085795D01*
X185322069Y-139181099D01*
X185322069Y-139228751D01*
X185274417Y-139324055D01*
X185226765Y-139371707D01*
X185131460Y-139419359D01*
X184940852Y-139419359D01*
X184845548Y-139467011D01*
X184797896Y-139514663D01*
X184750244Y-139609968D01*
X184750244Y-139800576D01*
X184797896Y-139895880D01*
X184845548Y-139943532D01*
X184940852Y-139991184D01*
X185131460Y-139991184D01*
X185226765Y-139943532D01*
X185274417Y-139895880D01*
X185322069Y-139800576D01*
X185322069Y-139609968D01*
X185274417Y-139514663D01*
X185226765Y-139467011D01*
X185131460Y-139419359D01*
X197985142Y-91130380D02*
X197651809Y-90654190D01*
X197413714Y-91130380D02*
X197413714Y-90130380D01*
X197794666Y-90130380D01*
X197889904Y-90178000D01*
X197937523Y-90225619D01*
X197985142Y-90320857D01*
X197985142Y-90463714D01*
X197937523Y-90558952D01*
X197889904Y-90606571D01*
X197794666Y-90654190D01*
X197413714Y-90654190D01*
X198318476Y-90130380D02*
X198937523Y-90130380D01*
X198604190Y-90511333D01*
X198747047Y-90511333D01*
X198842285Y-90558952D01*
X198889904Y-90606571D01*
X198937523Y-90701809D01*
X198937523Y-90939904D01*
X198889904Y-91035142D01*
X198842285Y-91082761D01*
X198747047Y-91130380D01*
X198461333Y-91130380D01*
X198366095Y-91082761D01*
X198318476Y-91035142D01*
X199794666Y-90463714D02*
X199794666Y-91130380D01*
X199556571Y-90082761D02*
X199318476Y-90797047D01*
X199937523Y-90797047D01*
X142471904Y-168702380D02*
X142471904Y-167702380D01*
X142710000Y-167702380D01*
X142852857Y-167750000D01*
X142948095Y-167845238D01*
X142995714Y-167940476D01*
X143043333Y-168130952D01*
X143043333Y-168273809D01*
X142995714Y-168464285D01*
X142948095Y-168559523D01*
X142852857Y-168654761D01*
X142710000Y-168702380D01*
X142471904Y-168702380D01*
X143995714Y-168702380D02*
X143424285Y-168702380D01*
X143710000Y-168702380D02*
X143710000Y-167702380D01*
X143614761Y-167845238D01*
X143519523Y-167940476D01*
X143424285Y-167988095D01*
X136781904Y-170916666D02*
X137258095Y-170916666D01*
X136686666Y-171202380D02*
X137020000Y-170202380D01*
X137353333Y-171202380D01*
X147535714Y-82202380D02*
X147535714Y-81202380D01*
X147773809Y-81202380D01*
X147916666Y-81250000D01*
X148011904Y-81345238D01*
X148059523Y-81440476D01*
X148107142Y-81630952D01*
X148107142Y-81773809D01*
X148059523Y-81964285D01*
X148011904Y-82059523D01*
X147916666Y-82154761D01*
X147773809Y-82202380D01*
X147535714Y-82202380D01*
X149059523Y-82202380D02*
X148488095Y-82202380D01*
X148773809Y-82202380D02*
X148773809Y-81202380D01*
X148678571Y-81345238D01*
X148583333Y-81440476D01*
X148488095Y-81488095D01*
X149392857Y-81202380D02*
X150059523Y-81202380D01*
X149630952Y-82202380D01*
X176738095Y-117702380D02*
X177309523Y-117702380D01*
X177023809Y-118702380D02*
X177023809Y-117702380D01*
X177642857Y-118702380D02*
X177642857Y-117702380D01*
X178023809Y-117702380D01*
X178119047Y-117750000D01*
X178166666Y-117797619D01*
X178214285Y-117892857D01*
X178214285Y-118035714D01*
X178166666Y-118130952D01*
X178119047Y-118178571D01*
X178023809Y-118226190D01*
X177642857Y-118226190D01*
X178595238Y-117797619D02*
X178642857Y-117750000D01*
X178738095Y-117702380D01*
X178976190Y-117702380D01*
X179071428Y-117750000D01*
X179119047Y-117797619D01*
X179166666Y-117892857D01*
X179166666Y-117988095D01*
X179119047Y-118130952D01*
X178547619Y-118702380D01*
X179166666Y-118702380D01*
X150931714Y-117642380D02*
X150931714Y-116642380D01*
X151169809Y-116642380D01*
X151312666Y-116690000D01*
X151407904Y-116785238D01*
X151455523Y-116880476D01*
X151503142Y-117070952D01*
X151503142Y-117213809D01*
X151455523Y-117404285D01*
X151407904Y-117499523D01*
X151312666Y-117594761D01*
X151169809Y-117642380D01*
X150931714Y-117642380D01*
X152455523Y-117642380D02*
X151884095Y-117642380D01*
X152169809Y-117642380D02*
X152169809Y-116642380D01*
X152074571Y-116785238D01*
X151979333Y-116880476D01*
X151884095Y-116928095D01*
X153312666Y-116975714D02*
X153312666Y-117642380D01*
X153074571Y-116594761D02*
X152836476Y-117309047D01*
X153455523Y-117309047D01*
X198216221Y-115679431D02*
X197882888Y-115203241D01*
X197644793Y-115679431D02*
X197644793Y-114679431D01*
X198025745Y-114679431D01*
X198120983Y-114727051D01*
X198168602Y-114774670D01*
X198216221Y-114869908D01*
X198216221Y-115012765D01*
X198168602Y-115108003D01*
X198120983Y-115155622D01*
X198025745Y-115203241D01*
X197644793Y-115203241D01*
X199168602Y-115679431D02*
X198597174Y-115679431D01*
X198882888Y-115679431D02*
X198882888Y-114679431D01*
X198787650Y-114822289D01*
X198692412Y-114917527D01*
X198597174Y-114965146D01*
X199740031Y-115108003D02*
X199644793Y-115060384D01*
X199597174Y-115012765D01*
X199549555Y-114917527D01*
X199549555Y-114869908D01*
X199597174Y-114774670D01*
X199644793Y-114727051D01*
X199740031Y-114679431D01*
X199930507Y-114679431D01*
X200025745Y-114727051D01*
X200073364Y-114774670D01*
X200120983Y-114869908D01*
X200120983Y-114917527D01*
X200073364Y-115012765D01*
X200025745Y-115060384D01*
X199930507Y-115108003D01*
X199740031Y-115108003D01*
X199644793Y-115155622D01*
X199597174Y-115203241D01*
X199549555Y-115298479D01*
X199549555Y-115488955D01*
X199597174Y-115584193D01*
X199644793Y-115631812D01*
X199740031Y-115679431D01*
X199930507Y-115679431D01*
X200025745Y-115631812D01*
X200073364Y-115584193D01*
X200120983Y-115488955D01*
X200120983Y-115298479D01*
X200073364Y-115203241D01*
X200025745Y-115155622D01*
X199930507Y-115108003D01*
X151702380Y-156028333D02*
X152416666Y-156028333D01*
X152559523Y-156075952D01*
X152654761Y-156171190D01*
X152702380Y-156314047D01*
X152702380Y-156409285D01*
X151702380Y-155647380D02*
X151702380Y-155028333D01*
X152083333Y-155361666D01*
X152083333Y-155218809D01*
X152130952Y-155123571D01*
X152178571Y-155075952D01*
X152273809Y-155028333D01*
X152511904Y-155028333D01*
X152607142Y-155075952D01*
X152654761Y-155123571D01*
X152702380Y-155218809D01*
X152702380Y-155504523D01*
X152654761Y-155599761D01*
X152607142Y-155647380D01*
X147995714Y-165202380D02*
X147995714Y-164202380D01*
X148233809Y-164202380D01*
X148376666Y-164250000D01*
X148471904Y-164345238D01*
X148519523Y-164440476D01*
X148567142Y-164630952D01*
X148567142Y-164773809D01*
X148519523Y-164964285D01*
X148471904Y-165059523D01*
X148376666Y-165154761D01*
X148233809Y-165202380D01*
X147995714Y-165202380D01*
X149519523Y-165202380D02*
X148948095Y-165202380D01*
X149233809Y-165202380D02*
X149233809Y-164202380D01*
X149138571Y-164345238D01*
X149043333Y-164440476D01*
X148948095Y-164488095D01*
X149852857Y-164202380D02*
X150471904Y-164202380D01*
X150138571Y-164583333D01*
X150281428Y-164583333D01*
X150376666Y-164630952D01*
X150424285Y-164678571D01*
X150471904Y-164773809D01*
X150471904Y-165011904D01*
X150424285Y-165107142D01*
X150376666Y-165154761D01*
X150281428Y-165202380D01*
X149995714Y-165202380D01*
X149900476Y-165154761D01*
X149852857Y-165107142D01*
X193723084Y-111966425D02*
X193627846Y-111918806D01*
X193532608Y-111823567D01*
X193389751Y-111680710D01*
X193294513Y-111633091D01*
X193199275Y-111633091D01*
X193246894Y-111871186D02*
X193151656Y-111823567D01*
X193056418Y-111728329D01*
X193008799Y-111537853D01*
X193008799Y-111204520D01*
X193056418Y-111014044D01*
X193151656Y-110918806D01*
X193246894Y-110871186D01*
X193437370Y-110871186D01*
X193532608Y-110918806D01*
X193627846Y-111014044D01*
X193675465Y-111204520D01*
X193675465Y-111537853D01*
X193627846Y-111728329D01*
X193532608Y-111823567D01*
X193437370Y-111871186D01*
X193246894Y-111871186D01*
X194056418Y-110966425D02*
X194104037Y-110918806D01*
X194199275Y-110871186D01*
X194437370Y-110871186D01*
X194532608Y-110918806D01*
X194580227Y-110966425D01*
X194627846Y-111061663D01*
X194627846Y-111156901D01*
X194580227Y-111299758D01*
X194008799Y-111871186D01*
X194627846Y-111871186D01*
X177280104Y-149880580D02*
X177280104Y-148880580D01*
X177518200Y-148880580D01*
X177661057Y-148928200D01*
X177756295Y-149023438D01*
X177803914Y-149118676D01*
X177851533Y-149309152D01*
X177851533Y-149452009D01*
X177803914Y-149642485D01*
X177756295Y-149737723D01*
X177661057Y-149832961D01*
X177518200Y-149880580D01*
X177280104Y-149880580D01*
X178756295Y-148880580D02*
X178280104Y-148880580D01*
X178232485Y-149356771D01*
X178280104Y-149309152D01*
X178375342Y-149261533D01*
X178613438Y-149261533D01*
X178708676Y-149309152D01*
X178756295Y-149356771D01*
X178803914Y-149452009D01*
X178803914Y-149690104D01*
X178756295Y-149785342D01*
X178708676Y-149832961D01*
X178613438Y-149880580D01*
X178375342Y-149880580D01*
X178280104Y-149832961D01*
X178232485Y-149785342D01*
X180950104Y-152064866D02*
X181426295Y-152064866D01*
X180854866Y-152350580D02*
X181188200Y-151350580D01*
X181521533Y-152350580D01*
X135035714Y-101702380D02*
X135035714Y-100702380D01*
X135273809Y-100702380D01*
X135416666Y-100750000D01*
X135511904Y-100845238D01*
X135559523Y-100940476D01*
X135607142Y-101130952D01*
X135607142Y-101273809D01*
X135559523Y-101464285D01*
X135511904Y-101559523D01*
X135416666Y-101654761D01*
X135273809Y-101702380D01*
X135035714Y-101702380D01*
X136559523Y-101702380D02*
X135988095Y-101702380D01*
X136273809Y-101702380D02*
X136273809Y-100702380D01*
X136178571Y-100845238D01*
X136083333Y-100940476D01*
X135988095Y-100988095D01*
X137511904Y-101702380D02*
X136940476Y-101702380D01*
X137226190Y-101702380D02*
X137226190Y-100702380D01*
X137130952Y-100845238D01*
X137035714Y-100940476D01*
X136940476Y-100988095D01*
X136071904Y-103916666D02*
X136548095Y-103916666D01*
X135976666Y-104202380D02*
X136310000Y-103202380D01*
X136643333Y-104202380D01*
X163044514Y-173035490D02*
X163044514Y-173750271D01*
X162996862Y-173893227D01*
X162901558Y-173988531D01*
X162758602Y-174036183D01*
X162663298Y-174036183D01*
X164045207Y-174036183D02*
X163473383Y-174036183D01*
X163759295Y-174036183D02*
X163759295Y-173035490D01*
X163663991Y-173178446D01*
X163568687Y-173273750D01*
X163473383Y-173321402D01*
X196464961Y-157941819D02*
X196369723Y-157894200D01*
X196274485Y-157798961D01*
X196131628Y-157656104D01*
X196036390Y-157608485D01*
X195941152Y-157608485D01*
X195988771Y-157846580D02*
X195893533Y-157798961D01*
X195798295Y-157703723D01*
X195750676Y-157513247D01*
X195750676Y-157179914D01*
X195798295Y-156989438D01*
X195893533Y-156894200D01*
X195988771Y-156846580D01*
X196179247Y-156846580D01*
X196274485Y-156894200D01*
X196369723Y-156989438D01*
X196417342Y-157179914D01*
X196417342Y-157513247D01*
X196369723Y-157703723D01*
X196274485Y-157798961D01*
X196179247Y-157846580D01*
X195988771Y-157846580D01*
X197274485Y-156846580D02*
X197084009Y-156846580D01*
X196988771Y-156894200D01*
X196941152Y-156941819D01*
X196845914Y-157084676D01*
X196798295Y-157275152D01*
X196798295Y-157656104D01*
X196845914Y-157751342D01*
X196893533Y-157798961D01*
X196988771Y-157846580D01*
X197179247Y-157846580D01*
X197274485Y-157798961D01*
X197322104Y-157751342D01*
X197369723Y-157656104D01*
X197369723Y-157418009D01*
X197322104Y-157322771D01*
X197274485Y-157275152D01*
X197179247Y-157227533D01*
X196988771Y-157227533D01*
X196893533Y-157275152D01*
X196845914Y-157322771D01*
X196798295Y-157418009D01*
X183366174Y-177785869D02*
X183937602Y-177785869D01*
X183651888Y-178785869D02*
X183651888Y-177785869D01*
X184270936Y-178785869D02*
X184270936Y-177785869D01*
X184651888Y-177785869D01*
X184747126Y-177833489D01*
X184794745Y-177881108D01*
X184842364Y-177976346D01*
X184842364Y-178119203D01*
X184794745Y-178214441D01*
X184747126Y-178262060D01*
X184651888Y-178309679D01*
X184270936Y-178309679D01*
X185794745Y-178785869D02*
X185223317Y-178785869D01*
X185509031Y-178785869D02*
X185509031Y-177785869D01*
X185413793Y-177928727D01*
X185318555Y-178023965D01*
X185223317Y-178071584D01*
X143261333Y-193702380D02*
X142928000Y-193226190D01*
X142689904Y-193702380D02*
X142689904Y-192702380D01*
X143070857Y-192702380D01*
X143166095Y-192750000D01*
X143213714Y-192797619D01*
X143261333Y-192892857D01*
X143261333Y-193035714D01*
X143213714Y-193130952D01*
X143166095Y-193178571D01*
X143070857Y-193226190D01*
X142689904Y-193226190D01*
X143594666Y-192702380D02*
X144261333Y-192702380D01*
X143832761Y-193702380D01*
X186737073Y-105694380D02*
X187308501Y-105694380D01*
X187022787Y-106694380D02*
X187022787Y-105694380D01*
X187641835Y-106694380D02*
X187641835Y-105694380D01*
X188022787Y-105694380D01*
X188118025Y-105742000D01*
X188165644Y-105789619D01*
X188213263Y-105884857D01*
X188213263Y-106027714D01*
X188165644Y-106122952D01*
X188118025Y-106170571D01*
X188022787Y-106218190D01*
X187641835Y-106218190D01*
X189118025Y-105694380D02*
X188641835Y-105694380D01*
X188594216Y-106170571D01*
X188641835Y-106122952D01*
X188737073Y-106075333D01*
X188975168Y-106075333D01*
X189070406Y-106122952D01*
X189118025Y-106170571D01*
X189165644Y-106265809D01*
X189165644Y-106503904D01*
X189118025Y-106599142D01*
X189070406Y-106646761D01*
X188975168Y-106694380D01*
X188737073Y-106694380D01*
X188641835Y-106646761D01*
X188594216Y-106599142D01*
X132988095Y-194952380D02*
X132988095Y-193952380D01*
X132988095Y-194428571D02*
X133559523Y-194428571D01*
X133559523Y-194952380D02*
X133559523Y-193952380D01*
X133988095Y-194047619D02*
X134035714Y-194000000D01*
X134130952Y-193952380D01*
X134369047Y-193952380D01*
X134464285Y-194000000D01*
X134511904Y-194047619D01*
X134559523Y-194142857D01*
X134559523Y-194238095D01*
X134511904Y-194380952D01*
X133940476Y-194952380D01*
X134559523Y-194952380D01*
X141761904Y-116732380D02*
X141761904Y-115732380D01*
X142000000Y-115732380D01*
X142142857Y-115780000D01*
X142238095Y-115875238D01*
X142285714Y-115970476D01*
X142333333Y-116160952D01*
X142333333Y-116303809D01*
X142285714Y-116494285D01*
X142238095Y-116589523D01*
X142142857Y-116684761D01*
X142000000Y-116732380D01*
X141761904Y-116732380D01*
X142904761Y-116160952D02*
X142809523Y-116113333D01*
X142761904Y-116065714D01*
X142714285Y-115970476D01*
X142714285Y-115922857D01*
X142761904Y-115827619D01*
X142809523Y-115780000D01*
X142904761Y-115732380D01*
X143095238Y-115732380D01*
X143190476Y-115780000D01*
X143238095Y-115827619D01*
X143285714Y-115922857D01*
X143285714Y-115970476D01*
X143238095Y-116065714D01*
X143190476Y-116113333D01*
X143095238Y-116160952D01*
X142904761Y-116160952D01*
X142809523Y-116208571D01*
X142761904Y-116256190D01*
X142714285Y-116351428D01*
X142714285Y-116541904D01*
X142761904Y-116637142D01*
X142809523Y-116684761D01*
X142904761Y-116732380D01*
X143095238Y-116732380D01*
X143190476Y-116684761D01*
X143238095Y-116637142D01*
X143285714Y-116541904D01*
X143285714Y-116351428D01*
X143238095Y-116256190D01*
X143190476Y-116208571D01*
X143095238Y-116160952D01*
X143156904Y-118916666D02*
X143633095Y-118916666D01*
X143061666Y-119202380D02*
X143395000Y-118202380D01*
X143728333Y-119202380D01*
X171948935Y-87202001D02*
X171948935Y-87916782D01*
X171901283Y-88059738D01*
X171805979Y-88155042D01*
X171663023Y-88202694D01*
X171567719Y-88202694D01*
X172568412Y-87630869D02*
X172473108Y-87583217D01*
X172425456Y-87535565D01*
X172377804Y-87440261D01*
X172377804Y-87392609D01*
X172425456Y-87297305D01*
X172473108Y-87249653D01*
X172568412Y-87202001D01*
X172759020Y-87202001D01*
X172854324Y-87249653D01*
X172901976Y-87297305D01*
X172949628Y-87392609D01*
X172949628Y-87440261D01*
X172901976Y-87535565D01*
X172854324Y-87583217D01*
X172759020Y-87630869D01*
X172568412Y-87630869D01*
X172473108Y-87678521D01*
X172425456Y-87726173D01*
X172377804Y-87821478D01*
X172377804Y-88012086D01*
X172425456Y-88107390D01*
X172473108Y-88155042D01*
X172568412Y-88202694D01*
X172759020Y-88202694D01*
X172854324Y-88155042D01*
X172901976Y-88107390D01*
X172949628Y-88012086D01*
X172949628Y-87821478D01*
X172901976Y-87726173D01*
X172854324Y-87678521D01*
X172759020Y-87630869D01*
X142567142Y-189702380D02*
X142233809Y-189226190D01*
X141995714Y-189702380D02*
X141995714Y-188702380D01*
X142376666Y-188702380D01*
X142471904Y-188750000D01*
X142519523Y-188797619D01*
X142567142Y-188892857D01*
X142567142Y-189035714D01*
X142519523Y-189130952D01*
X142471904Y-189178571D01*
X142376666Y-189226190D01*
X141995714Y-189226190D01*
X143471904Y-188702380D02*
X142995714Y-188702380D01*
X142948095Y-189178571D01*
X142995714Y-189130952D01*
X143090952Y-189083333D01*
X143329047Y-189083333D01*
X143424285Y-189130952D01*
X143471904Y-189178571D01*
X143519523Y-189273809D01*
X143519523Y-189511904D01*
X143471904Y-189607142D01*
X143424285Y-189654761D01*
X143329047Y-189702380D01*
X143090952Y-189702380D01*
X142995714Y-189654761D01*
X142948095Y-189607142D01*
X144424285Y-188702380D02*
X143948095Y-188702380D01*
X143900476Y-189178571D01*
X143948095Y-189130952D01*
X144043333Y-189083333D01*
X144281428Y-189083333D01*
X144376666Y-189130952D01*
X144424285Y-189178571D01*
X144471904Y-189273809D01*
X144471904Y-189511904D01*
X144424285Y-189607142D01*
X144376666Y-189654761D01*
X144281428Y-189702380D01*
X144043333Y-189702380D01*
X143948095Y-189654761D01*
X143900476Y-189607142D01*
X184761904Y-78452380D02*
X184761904Y-77452380D01*
X185000000Y-77452380D01*
X185142857Y-77500000D01*
X185238095Y-77595238D01*
X185285714Y-77690476D01*
X185333333Y-77880952D01*
X185333333Y-78023809D01*
X185285714Y-78214285D01*
X185238095Y-78309523D01*
X185142857Y-78404761D01*
X185000000Y-78452380D01*
X184761904Y-78452380D01*
X186190476Y-77452380D02*
X186000000Y-77452380D01*
X185904761Y-77500000D01*
X185857142Y-77547619D01*
X185761904Y-77690476D01*
X185714285Y-77880952D01*
X185714285Y-78261904D01*
X185761904Y-78357142D01*
X185809523Y-78404761D01*
X185904761Y-78452380D01*
X186095238Y-78452380D01*
X186190476Y-78404761D01*
X186238095Y-78357142D01*
X186285714Y-78261904D01*
X186285714Y-78023809D01*
X186238095Y-77928571D01*
X186190476Y-77880952D01*
X186095238Y-77833333D01*
X185904761Y-77833333D01*
X185809523Y-77880952D01*
X185761904Y-77928571D01*
X185714285Y-78023809D01*
X184906904Y-79416666D02*
X185383095Y-79416666D01*
X184811666Y-79702380D02*
X185145000Y-78702380D01*
X185478333Y-79702380D01*
X176484635Y-161344201D02*
X176484635Y-162058982D01*
X176436983Y-162201938D01*
X176341679Y-162297242D01*
X176198723Y-162344894D01*
X176103419Y-162344894D01*
X177390024Y-161344201D02*
X177199416Y-161344201D01*
X177104112Y-161391853D01*
X177056460Y-161439505D01*
X176961156Y-161582461D01*
X176913504Y-161773069D01*
X176913504Y-162154286D01*
X176961156Y-162249590D01*
X177008808Y-162297242D01*
X177104112Y-162344894D01*
X177294720Y-162344894D01*
X177390024Y-162297242D01*
X177437676Y-162249590D01*
X177485328Y-162154286D01*
X177485328Y-161916026D01*
X177437676Y-161820721D01*
X177390024Y-161773069D01*
X177294720Y-161725417D01*
X177104112Y-161725417D01*
X177008808Y-161773069D01*
X176961156Y-161820721D01*
X176913504Y-161916026D01*
X184838095Y-190702380D02*
X185409523Y-190702380D01*
X185123809Y-191702380D02*
X185123809Y-190702380D01*
X185742857Y-191702380D02*
X185742857Y-190702380D01*
X186123809Y-190702380D01*
X186219047Y-190750000D01*
X186266666Y-190797619D01*
X186314285Y-190892857D01*
X186314285Y-191035714D01*
X186266666Y-191130952D01*
X186219047Y-191178571D01*
X186123809Y-191226190D01*
X185742857Y-191226190D01*
X186647619Y-190702380D02*
X187266666Y-190702380D01*
X186933333Y-191083333D01*
X187076190Y-191083333D01*
X187171428Y-191130952D01*
X187219047Y-191178571D01*
X187266666Y-191273809D01*
X187266666Y-191511904D01*
X187219047Y-191607142D01*
X187171428Y-191654761D01*
X187076190Y-191702380D01*
X186790476Y-191702380D01*
X186695238Y-191654761D01*
X186647619Y-191607142D01*
X187145739Y-95777619D02*
X187050501Y-95730000D01*
X186955263Y-95634761D01*
X186812406Y-95491904D01*
X186717168Y-95444285D01*
X186621930Y-95444285D01*
X186669549Y-95682380D02*
X186574311Y-95634761D01*
X186479073Y-95539523D01*
X186431454Y-95349047D01*
X186431454Y-95015714D01*
X186479073Y-94825238D01*
X186574311Y-94730000D01*
X186669549Y-94682380D01*
X186860025Y-94682380D01*
X186955263Y-94730000D01*
X187050501Y-94825238D01*
X187098120Y-95015714D01*
X187098120Y-95349047D01*
X187050501Y-95539523D01*
X186955263Y-95634761D01*
X186860025Y-95682380D01*
X186669549Y-95682380D01*
X187431454Y-94682380D02*
X188098120Y-94682380D01*
X187669549Y-95682380D01*
D11*
X139230000Y-142470000D02*
X148470000Y-142470000D01*
X148470000Y-139030000D02*
X139230000Y-139030000D01*
X149160000Y-140750000D02*
X148470000Y-140750000D01*
X139230000Y-139030000D02*
X139230000Y-142470000D01*
X138540000Y-140750000D02*
X139230000Y-140750000D01*
X148470000Y-142470000D02*
X148470000Y-139030000D01*
X140613239Y-136100000D02*
G75*
G03*
X140553850Y-137968866I-1113239J-900000D01*
G01*
X178568483Y-105199755D02*
G75*
G03*
X178509094Y-107068621I-1113239J-900000D01*
G01*
X194410978Y-103250000D02*
X193720978Y-103250000D01*
X183790978Y-103250000D02*
X184480978Y-103250000D01*
X184480978Y-104970000D02*
X193720978Y-104970000D01*
X184480978Y-101530000D02*
X184480978Y-104970000D01*
X193720978Y-101530000D02*
X184480978Y-101530000D01*
X193720978Y-104970000D02*
X193720978Y-101530000D01*
X183020000Y-180230000D02*
X193260000Y-180230000D01*
X189991000Y-180230000D02*
X189991000Y-181740000D01*
X183020000Y-184871000D02*
X193260000Y-184871000D01*
X193260000Y-180230000D02*
X193260000Y-184871000D01*
X183020000Y-181740000D02*
X193260000Y-181740000D01*
X186290000Y-180230000D02*
X186290000Y-181740000D01*
X183020000Y-180230000D02*
X183020000Y-184871000D01*
X148220000Y-126280000D02*
X138980000Y-126280000D01*
X138290000Y-128000000D02*
X138980000Y-128000000D01*
X138980000Y-126280000D02*
X138980000Y-129720000D01*
X148910000Y-128000000D02*
X148220000Y-128000000D01*
X138980000Y-129720000D02*
X148220000Y-129720000D01*
X148220000Y-129720000D02*
X148220000Y-126280000D01*
X184434200Y-165398200D02*
G75*
G03*
X184434200Y-165398200I-1200000J0D01*
G01*
D12*
X177745244Y-108354755D02*
X178875244Y-109354755D01*
X180745244Y-111004755D02*
X179725244Y-110104755D01*
X177745244Y-116454755D02*
X178875244Y-115454755D01*
X165245244Y-108354755D02*
X177745244Y-108354755D01*
X180745244Y-111004755D02*
X180745244Y-113804755D01*
X180745244Y-113804755D02*
X179725244Y-114704755D01*
X177745244Y-116454755D02*
X165245244Y-116454755D01*
X165245244Y-116454755D02*
X165245244Y-108354755D01*
D13*
X181545244Y-112304755D02*
G75*
G03*
X181545244Y-112304755I-150000J0D01*
G01*
D11*
X178814217Y-91100000D02*
G75*
G03*
X178754828Y-92968866I-1113239J-900000D01*
G01*
X145460000Y-133955000D02*
X145460000Y-137045000D01*
X145460000Y-137044830D02*
G75*
G03*
X151010000Y-135499538I2560000J1544830D01*
G01*
X151010000Y-135500462D02*
G75*
G03*
X145460000Y-133955170I-2990000J462D01*
G01*
X150520000Y-135500000D02*
G75*
G03*
X150520000Y-135500000I-2500000J0D01*
G01*
X172710000Y-122250000D02*
X172020000Y-122250000D01*
X172020000Y-120530000D02*
X162780000Y-120530000D01*
X172020000Y-123970000D02*
X172020000Y-120530000D01*
X162780000Y-120530000D02*
X162780000Y-123970000D01*
X162090000Y-122250000D02*
X162780000Y-122250000D01*
X162780000Y-123970000D02*
X172020000Y-123970000D01*
X144920000Y-182455000D02*
X144920000Y-185545000D01*
X150470000Y-184000462D02*
G75*
G03*
X144920000Y-182455170I-2990000J462D01*
G01*
X144920000Y-185544830D02*
G75*
G03*
X150470000Y-183999538I2560000J1544830D01*
G01*
X149980000Y-184000000D02*
G75*
G03*
X149980000Y-184000000I-2500000J0D01*
G01*
X147720000Y-106280000D02*
X138480000Y-106280000D01*
X137790000Y-108000000D02*
X138480000Y-108000000D01*
X138480000Y-106280000D02*
X138480000Y-109720000D01*
X147720000Y-109720000D02*
X147720000Y-106280000D01*
X148410000Y-108000000D02*
X147720000Y-108000000D01*
X138480000Y-109720000D02*
X147720000Y-109720000D01*
X138931761Y-88400000D02*
G75*
G03*
X138991150Y-86531134I1113239J900000D01*
G01*
X185818079Y-168063489D02*
X185818079Y-169573489D01*
X182548079Y-172704489D02*
X192788079Y-172704489D01*
X189519079Y-168063489D02*
X189519079Y-169573489D01*
X182548079Y-168063489D02*
X192788079Y-168063489D01*
X182548079Y-168063489D02*
X182548079Y-172704489D01*
X182548079Y-169573489D02*
X192788079Y-169573489D01*
X192788079Y-168063489D02*
X192788079Y-172704489D01*
X194938079Y-175333489D02*
X194248079Y-175333489D01*
X185008079Y-177053489D02*
X194248079Y-177053489D01*
X185008079Y-173613489D02*
X185008079Y-177053489D01*
X194248079Y-177053489D02*
X194248079Y-173613489D01*
X184318079Y-175333489D02*
X185008079Y-175333489D01*
X194248079Y-173613489D02*
X185008079Y-173613489D01*
X144710000Y-100955000D02*
X144710000Y-104045000D01*
X144710000Y-104044830D02*
G75*
G03*
X150260000Y-102499538I2560000J1544830D01*
G01*
X150260000Y-102500462D02*
G75*
G03*
X144710000Y-100955170I-2990000J462D01*
G01*
X149770000Y-102500000D02*
G75*
G03*
X149770000Y-102500000I-2500000J0D01*
G01*
D12*
X178100000Y-189300000D02*
X165600000Y-189300000D01*
X181100000Y-183850000D02*
X180080000Y-182950000D01*
X178100000Y-189300000D02*
X179230000Y-188300000D01*
X165600000Y-181200000D02*
X178100000Y-181200000D01*
X178100000Y-181200000D02*
X179230000Y-182200000D01*
X165600000Y-189300000D02*
X165600000Y-181200000D01*
X181100000Y-186650000D02*
X180080000Y-187550000D01*
X181100000Y-183850000D02*
X181100000Y-186650000D01*
D13*
X181900000Y-185150000D02*
G75*
G03*
X181900000Y-185150000I-150000J0D01*
G01*
D11*
X177763239Y-164850000D02*
G75*
G03*
X177703850Y-166718866I-1113239J-900000D01*
G01*
X149120000Y-174500000D02*
X148430000Y-174500000D01*
X139190000Y-172780000D02*
X139190000Y-176220000D01*
X138500000Y-174500000D02*
X139190000Y-174500000D01*
X148430000Y-176220000D02*
X148430000Y-172780000D01*
X148430000Y-172780000D02*
X139190000Y-172780000D01*
X139190000Y-176220000D02*
X148430000Y-176220000D01*
X148430000Y-177030000D02*
X139190000Y-177030000D01*
X149120000Y-178750000D02*
X148430000Y-178750000D01*
X139190000Y-177030000D02*
X139190000Y-180470000D01*
X138500000Y-178750000D02*
X139190000Y-178750000D01*
X139190000Y-180470000D02*
X148430000Y-180470000D01*
X148430000Y-180470000D02*
X148430000Y-177030000D01*
X140528239Y-184100000D02*
G75*
G03*
X140468850Y-185968866I-1113239J-900000D01*
G01*
X147620000Y-94780000D02*
X138380000Y-94780000D01*
X137690000Y-96500000D02*
X138380000Y-96500000D01*
X138380000Y-98220000D02*
X147620000Y-98220000D01*
X148310000Y-96500000D02*
X147620000Y-96500000D01*
X138380000Y-94780000D02*
X138380000Y-98220000D01*
X147620000Y-98220000D02*
X147620000Y-94780000D01*
X148370000Y-143030000D02*
X139130000Y-143030000D01*
X139130000Y-143030000D02*
X139130000Y-146470000D01*
X139130000Y-146470000D02*
X148370000Y-146470000D01*
X138440000Y-144750000D02*
X139130000Y-144750000D01*
X149060000Y-144750000D02*
X148370000Y-144750000D01*
X148370000Y-146470000D02*
X148370000Y-143030000D01*
X189040000Y-122545000D02*
X189040000Y-119455000D01*
X189040000Y-119455170D02*
G75*
G03*
X183490000Y-121000462I-2560000J-1544830D01*
G01*
X183490000Y-120999538D02*
G75*
G03*
X189040000Y-122544830I2990000J-462D01*
G01*
X188980000Y-121000000D02*
G75*
G03*
X188980000Y-121000000I-2500000J0D01*
G01*
X184190000Y-187750000D02*
X184880000Y-187750000D01*
X184880000Y-186030000D02*
X184880000Y-189470000D01*
X184880000Y-189470000D02*
X194120000Y-189470000D01*
X194120000Y-189470000D02*
X194120000Y-186030000D01*
X194810000Y-187750000D02*
X194120000Y-187750000D01*
X194120000Y-186030000D02*
X184880000Y-186030000D01*
X138380000Y-94220000D02*
X147620000Y-94220000D01*
X137690000Y-92500000D02*
X138380000Y-92500000D01*
X148310000Y-92500000D02*
X147620000Y-92500000D01*
X138380000Y-90780000D02*
X138380000Y-94220000D01*
X147620000Y-90780000D02*
X138380000Y-90780000D01*
X147620000Y-94220000D02*
X147620000Y-90780000D01*
X137840000Y-112000000D02*
X138530000Y-112000000D01*
X148460000Y-112000000D02*
X147770000Y-112000000D01*
X138530000Y-113720000D02*
X147770000Y-113720000D01*
X138530000Y-110280000D02*
X138530000Y-113720000D01*
X147770000Y-110280000D02*
X138530000Y-110280000D01*
X147770000Y-113720000D02*
X147770000Y-110280000D01*
X189141000Y-81980000D02*
X189141000Y-83490000D01*
X182170000Y-83490000D02*
X192410000Y-83490000D01*
X182170000Y-81980000D02*
X192410000Y-81980000D01*
X185440000Y-81980000D02*
X185440000Y-83490000D01*
X182170000Y-86621000D02*
X192410000Y-86621000D01*
X192410000Y-81980000D02*
X192410000Y-86621000D01*
X182170000Y-81980000D02*
X182170000Y-86621000D01*
X184864200Y-163368200D02*
X194104200Y-163368200D01*
X194104200Y-163368200D02*
X194104200Y-159928200D01*
X194794200Y-161648200D02*
X194104200Y-161648200D01*
X184174200Y-161648200D02*
X184864200Y-161648200D01*
X194104200Y-159928200D02*
X184864200Y-159928200D01*
X184864200Y-159928200D02*
X184864200Y-163368200D01*
X138190000Y-123000000D02*
X138880000Y-123000000D01*
X138880000Y-121280000D02*
X138880000Y-124720000D01*
X148120000Y-124720000D02*
X148120000Y-121280000D01*
X138880000Y-124720000D02*
X148120000Y-124720000D01*
X148810000Y-123000000D02*
X148120000Y-123000000D01*
X148120000Y-121280000D02*
X138880000Y-121280000D01*
X185200000Y-94500000D02*
G75*
G03*
X185200000Y-94500000I-1200000J0D01*
G01*
D12*
X177700978Y-94700000D02*
X178830978Y-95700000D01*
X165200978Y-102800000D02*
X165200978Y-94700000D01*
X177700978Y-102800000D02*
X165200978Y-102800000D01*
X180700978Y-100150000D02*
X179680978Y-101050000D01*
X180700978Y-97350000D02*
X180700978Y-100150000D01*
X165200978Y-94700000D02*
X177700978Y-94700000D01*
X177700978Y-102800000D02*
X178830978Y-101800000D01*
X180700978Y-97350000D02*
X179680978Y-96450000D01*
D13*
X181500978Y-98650000D02*
G75*
G03*
X181500978Y-98650000I-150000J0D01*
G01*
D11*
X175963239Y-177850000D02*
G75*
G03*
X175903850Y-179718866I-1113239J-900000D01*
G01*
D12*
X187000000Y-133100000D02*
X185980000Y-132200000D01*
X184000000Y-138550000D02*
X185130000Y-137550000D01*
X171500000Y-138550000D02*
X171500000Y-130450000D01*
X184000000Y-138550000D02*
X171500000Y-138550000D01*
X171500000Y-130450000D02*
X184000000Y-130450000D01*
X187000000Y-135900000D02*
X185980000Y-136800000D01*
X187000000Y-133100000D02*
X187000000Y-135900000D01*
X184000000Y-130450000D02*
X185130000Y-131450000D01*
D13*
X187800000Y-134400000D02*
G75*
G03*
X187800000Y-134400000I-150000J0D01*
G01*
D11*
X184530000Y-89030000D02*
X184530000Y-92470000D01*
X193770000Y-89030000D02*
X184530000Y-89030000D01*
X193770000Y-92470000D02*
X193770000Y-89030000D01*
X183840000Y-90750000D02*
X184530000Y-90750000D01*
X194460000Y-90750000D02*
X193770000Y-90750000D01*
X184530000Y-92470000D02*
X193770000Y-92470000D01*
X140346761Y-171650000D02*
G75*
G03*
X140406150Y-169781134I1113239J900000D01*
G01*
X144435000Y-84455000D02*
X144435000Y-87545000D01*
X144435000Y-87544830D02*
G75*
G03*
X149985000Y-85999538I2560000J1544830D01*
G01*
X149985000Y-86000462D02*
G75*
G03*
X144435000Y-84455170I-2990000J462D01*
G01*
X149495000Y-86000000D02*
G75*
G03*
X149495000Y-86000000I-2500000J0D01*
G01*
X175700000Y-118750000D02*
G75*
G03*
X175700000Y-118750000I-1200000J0D01*
G01*
X144960000Y-115955000D02*
X144960000Y-119045000D01*
X150510000Y-117500462D02*
G75*
G03*
X144960000Y-115955170I-2990000J462D01*
G01*
X144960000Y-119044830D02*
G75*
G03*
X150510000Y-117499538I2560000J1544830D01*
G01*
X150020000Y-117500000D02*
G75*
G03*
X150020000Y-117500000I-2500000J0D01*
G01*
X184530000Y-117220000D02*
X193770000Y-117220000D01*
X193770000Y-113780000D02*
X184530000Y-113780000D01*
X184530000Y-113780000D02*
X184530000Y-117220000D01*
X183840000Y-115500000D02*
X184530000Y-115500000D01*
X193770000Y-117220000D02*
X193770000Y-113780000D01*
X194460000Y-115500000D02*
X193770000Y-115500000D01*
X146750000Y-147250000D02*
X147250000Y-147750000D01*
X151130000Y-163455000D02*
X133170000Y-163455000D01*
X151130000Y-163455000D02*
X151130000Y-147935000D01*
X133170000Y-147935000D02*
X133170000Y-163455000D01*
X151130000Y-147935000D02*
X133170000Y-147935000D01*
X147750000Y-147250000D02*
X146750000Y-147250000D01*
X147250000Y-147750000D02*
X147750000Y-147250000D01*
X145420000Y-167205000D02*
X145420000Y-170295000D01*
X145420000Y-170294830D02*
G75*
G03*
X150970000Y-168749538I2560000J1544830D01*
G01*
X150970000Y-168750462D02*
G75*
G03*
X145420000Y-167205170I-2990000J462D01*
G01*
X150480000Y-168750000D02*
G75*
G03*
X150480000Y-168750000I-2500000J0D01*
G01*
X182085244Y-108524755D02*
X182085244Y-113165755D01*
X182085244Y-110034755D02*
X192325244Y-110034755D01*
X192325244Y-108524755D02*
X192325244Y-113165755D01*
X185355244Y-108524755D02*
X185355244Y-110034755D01*
X182085244Y-108524755D02*
X192325244Y-108524755D01*
X189056244Y-108524755D02*
X189056244Y-110034755D01*
X182085244Y-113165755D02*
X192325244Y-113165755D01*
X177861439Y-150998200D02*
G75*
G03*
X177802050Y-152867066I-1113239J-900000D01*
G01*
X139636761Y-104650000D02*
G75*
G03*
X139696150Y-102781134I1113239J900000D01*
G01*
D12*
X178250000Y-176300000D02*
X165750000Y-176300000D01*
X165750000Y-176300000D02*
X165750000Y-168200000D01*
X165750000Y-168200000D02*
X178250000Y-168200000D01*
X178250000Y-176300000D02*
X179380000Y-175300000D01*
X181250000Y-173650000D02*
X180230000Y-174550000D01*
X178250000Y-168200000D02*
X179380000Y-169200000D01*
X181250000Y-170850000D02*
X180230000Y-169950000D01*
X181250000Y-170850000D02*
X181250000Y-173650000D01*
D13*
X182050000Y-172150000D02*
G75*
G03*
X182050000Y-172150000I-150000J0D01*
G01*
D11*
X186384200Y-154323200D02*
X186384200Y-155833200D01*
X193354200Y-154323200D02*
X193354200Y-158964200D01*
X183114200Y-154323200D02*
X193354200Y-154323200D01*
X190085200Y-154323200D02*
X190085200Y-155833200D01*
X183114200Y-158964200D02*
X193354200Y-158964200D01*
X183114200Y-155833200D02*
X193354200Y-155833200D01*
X183114200Y-154323200D02*
X183114200Y-158964200D01*
X182578079Y-179083489D02*
G75*
G03*
X182578079Y-179083489I-1200000J0D01*
G01*
X138730000Y-191530000D02*
X138730000Y-194970000D01*
X147970000Y-194970000D02*
X147970000Y-191530000D01*
X138040000Y-193250000D02*
X138730000Y-193250000D01*
X148660000Y-193250000D02*
X147970000Y-193250000D01*
X138730000Y-194970000D02*
X147970000Y-194970000D01*
X147970000Y-191530000D02*
X138730000Y-191530000D01*
X186150978Y-106750000D02*
G75*
G03*
X186150978Y-106750000I-1200000J0D01*
G01*
X140068239Y-117850000D02*
G75*
G03*
X140008850Y-119718866I-1113239J-900000D01*
G01*
D12*
X180750000Y-87150000D02*
X179730000Y-88050000D01*
X165250000Y-81700000D02*
X177750000Y-81700000D01*
X177750000Y-89800000D02*
X178880000Y-88800000D01*
X165250000Y-89800000D02*
X165250000Y-81700000D01*
X177750000Y-89800000D02*
X165250000Y-89800000D01*
X180750000Y-84350000D02*
X179730000Y-83450000D01*
X180750000Y-84350000D02*
X180750000Y-87150000D01*
X177750000Y-81700000D02*
X178880000Y-82700000D01*
D13*
X181550000Y-85650000D02*
G75*
G03*
X181550000Y-85650000I-150000J0D01*
G01*
D11*
X138590000Y-190970000D02*
X147830000Y-190970000D01*
X147830000Y-187530000D02*
X138590000Y-187530000D01*
X137900000Y-189250000D02*
X138590000Y-189250000D01*
X148520000Y-189250000D02*
X147830000Y-189250000D01*
X138590000Y-187530000D02*
X138590000Y-190970000D01*
X147830000Y-190970000D02*
X147830000Y-187530000D01*
X181818239Y-78350000D02*
G75*
G03*
X181758850Y-80218866I-1113239J-900000D01*
G01*
D12*
X165898200Y-154452200D02*
X178398200Y-154452200D01*
X181398200Y-157102200D02*
X180378200Y-156202200D01*
X178398200Y-162552200D02*
X165898200Y-162552200D01*
X178398200Y-162552200D02*
X179528200Y-161552200D01*
X181398200Y-159902200D02*
X180378200Y-160802200D01*
X178398200Y-154452200D02*
X179528200Y-155452200D01*
X165898200Y-162552200D02*
X165898200Y-154452200D01*
X181398200Y-157102200D02*
X181398200Y-159902200D01*
D13*
X182198200Y-158402200D02*
G75*
G03*
X182198200Y-158402200I-150000J0D01*
G01*
D11*
X184300000Y-191500000D02*
G75*
G03*
X184300000Y-191500000I-1200000J0D01*
G01*
X185390978Y-96230000D02*
X185390978Y-97740000D01*
X182120978Y-97740000D02*
X192360978Y-97740000D01*
X182120978Y-100871000D02*
X192360978Y-100871000D01*
X189091978Y-96230000D02*
X189091978Y-97740000D01*
X182120978Y-96230000D02*
X182120978Y-100871000D01*
X192360978Y-96230000D02*
X192360978Y-100871000D01*
X182120978Y-96230000D02*
X192360978Y-96230000D01*
%LPC*%
D14*
X137500000Y-140750000D03*
D15*
X150200000Y-140750000D03*
D16*
X139500000Y-137000000D03*
D17*
X142040000Y-137000000D03*
D16*
X177455244Y-106099755D03*
D17*
X179995244Y-106099755D03*
D14*
X195450978Y-103250000D03*
D15*
X182750978Y-103250000D03*
D18*
X136000000Y-80000000D03*
D19*
X185600000Y-183500000D03*
D20*
X188140000Y-183500000D03*
X190680000Y-183500000D03*
D14*
X137250000Y-128000000D03*
D15*
X149950000Y-128000000D03*
D18*
X199000000Y-198000000D03*
D21*
X183234200Y-165398200D03*
D22*
X176595244Y-112404755D03*
D23*
X169395244Y-112404755D03*
D16*
X177700978Y-92000000D03*
D17*
X180240978Y-92000000D03*
D16*
X146750000Y-135500000D03*
D24*
X149290000Y-135500000D03*
D14*
X173750000Y-122250000D03*
D15*
X161050000Y-122250000D03*
D16*
X146210000Y-184000000D03*
D24*
X148750000Y-184000000D03*
D14*
X136750000Y-108000000D03*
D15*
X149450000Y-108000000D03*
D16*
X140045000Y-87500000D03*
D17*
X137505000Y-87500000D03*
D19*
X185128079Y-171333489D03*
D20*
X187668079Y-171333489D03*
X190208079Y-171333489D03*
D14*
X195978079Y-175333489D03*
D15*
X183278079Y-175333489D03*
D16*
X146000000Y-102500000D03*
D24*
X148540000Y-102500000D03*
D22*
X176950000Y-185250000D03*
D23*
X169750000Y-185250000D03*
D16*
X176650000Y-165750000D03*
D17*
X179190000Y-165750000D03*
D14*
X137460000Y-174500000D03*
D15*
X150160000Y-174500000D03*
D14*
X137460000Y-178750000D03*
D15*
X150160000Y-178750000D03*
D16*
X139415000Y-185000000D03*
D17*
X141955000Y-185000000D03*
D14*
X136650000Y-96500000D03*
D15*
X149350000Y-96500000D03*
D14*
X137400000Y-144750000D03*
D15*
X150100000Y-144750000D03*
D16*
X187750000Y-121000000D03*
D24*
X185210000Y-121000000D03*
D14*
X195850000Y-187750000D03*
D15*
X183150000Y-187750000D03*
D14*
X136650000Y-92500000D03*
D15*
X149350000Y-92500000D03*
D14*
X149500000Y-112000000D03*
D15*
X136800000Y-112000000D03*
D19*
X184750000Y-85250000D03*
D20*
X187290000Y-85250000D03*
X189830000Y-85250000D03*
D14*
X195834200Y-161648200D03*
D15*
X183134200Y-161648200D03*
D14*
X137150000Y-123000000D03*
D15*
X149850000Y-123000000D03*
D21*
X184000000Y-94500000D03*
D18*
X199000000Y-80000000D03*
D22*
X176550978Y-98750000D03*
D23*
X169350978Y-98750000D03*
D16*
X174850000Y-178750000D03*
D17*
X177390000Y-178750000D03*
D22*
X182850000Y-134500000D03*
D23*
X175650000Y-134500000D03*
D14*
X195500000Y-90750000D03*
D15*
X182800000Y-90750000D03*
D16*
X141460000Y-170750000D03*
D17*
X138920000Y-170750000D03*
D16*
X145725000Y-86000000D03*
D24*
X148265000Y-86000000D03*
D21*
X174500000Y-118750000D03*
D16*
X146250000Y-117500000D03*
D24*
X148790000Y-117500000D03*
D14*
X195500000Y-115500000D03*
D15*
X182800000Y-115500000D03*
D25*
X140900000Y-161410000D03*
X140900000Y-149980000D03*
D26*
X147250000Y-151250000D03*
D27*
X149790000Y-152520000D03*
X147250000Y-153790000D03*
X149790000Y-155060000D03*
X147250000Y-156330000D03*
X149790000Y-157600000D03*
X147250000Y-158870000D03*
X149790000Y-160140000D03*
D16*
X146710000Y-168750000D03*
D24*
X149250000Y-168750000D03*
D19*
X184665244Y-111794755D03*
D20*
X187205244Y-111794755D03*
X189745244Y-111794755D03*
D16*
X176748200Y-151898200D03*
D17*
X179288200Y-151898200D03*
D16*
X140750000Y-103750000D03*
D17*
X138210000Y-103750000D03*
D22*
X177100000Y-172250000D03*
D23*
X169900000Y-172250000D03*
D19*
X185694200Y-157593200D03*
D20*
X188234200Y-157593200D03*
X190774200Y-157593200D03*
D21*
X181378079Y-179083489D03*
D14*
X137000000Y-193250000D03*
D15*
X149700000Y-193250000D03*
D21*
X184950978Y-106750000D03*
D18*
X136000000Y-198000000D03*
D16*
X138955000Y-118750000D03*
D17*
X141495000Y-118750000D03*
D22*
X176600000Y-85750000D03*
D23*
X169400000Y-85750000D03*
D14*
X136860000Y-189250000D03*
D15*
X149560000Y-189250000D03*
D16*
X180705000Y-79250000D03*
D17*
X183245000Y-79250000D03*
D22*
X177248200Y-158502200D03*
D23*
X170048200Y-158502200D03*
D21*
X183100000Y-191500000D03*
D19*
X184700978Y-99500000D03*
D20*
X187240978Y-99500000D03*
X189780978Y-99500000D03*
M02*
