M48
; DRILL file {KiCad (6.0.5)} date Sat Jun 10 16:45:52 2023
; FORMAT={-:-/ absolute / metric / decimal}
; #@! TF.CreationDate,2023-06-10T16:45:52-04:00
; #@! TF.GenerationSoftware,Kicad,Pcbnew,(6.0.5)
; #@! TF.FileFunction,Plated,1,4,PTH
FMAT,2
METRIC
; #@! TA.AperFunction,Plated,PTH,ViaDrill
T1C0.400
; #@! TA.AperFunction,Plated,PTH,ComponentDrill
T2C0.760
; #@! TA.AperFunction,Plated,PTH,ComponentDrill
T3C0.800
; #@! TA.AperFunction,Plated,PTH,ComponentDrill
T4C0.900
; #@! TA.AperFunction,Plated,PTH,ComponentDrill
T5C1.000
; #@! TA.AperFunction,Plated,PTH,ComponentDrill
T6C1.100
; #@! TA.AperFunction,Plated,PTH,ComponentDrill
T7C2.500
; #@! TA.AperFunction,Plated,PTH,ComponentDrill
T8C4.500
%
G90
G05
T1
X136.673Y-149.0
X144.25Y-148.75
T2
X147.25Y-151.25
X147.25Y-153.79
X147.25Y-156.33
X147.25Y-158.87
X149.79Y-152.52
X149.79Y-155.06
X149.79Y-157.6
X149.79Y-160.14
T3
X136.65Y-92.5
X136.65Y-96.5
X136.75Y-108.0
X136.8Y-112.0
X136.86Y-189.25
X137.0Y-193.25
X137.15Y-123.0
X137.25Y-128.0
X137.4Y-144.75
X137.46Y-174.5
X137.46Y-178.75
X137.5Y-140.75
X149.35Y-92.5
X149.35Y-96.5
X149.45Y-108.0
X149.5Y-112.0
X149.56Y-189.25
X149.7Y-193.25
X149.85Y-123.0
X149.95Y-128.0
X150.1Y-144.75
X150.16Y-174.5
X150.16Y-178.75
X150.2Y-140.75
X161.05Y-122.25
X173.75Y-122.25
X182.751Y-103.25
X182.8Y-90.75
X182.8Y-115.5
X183.134Y-161.648
X183.15Y-187.75
X183.278Y-175.333
X195.451Y-103.25
X195.5Y-90.75
X195.5Y-115.5
X195.834Y-161.648
X195.85Y-187.75
X195.978Y-175.333
T4
X137.505Y-87.5
X138.21Y-103.75
X138.92Y-170.75
X138.955Y-118.75
X139.415Y-185.0
X139.5Y-137.0
X140.045Y-87.5
X140.75Y-103.75
X141.46Y-170.75
X141.495Y-118.75
X141.955Y-185.0
X142.04Y-137.0
X145.725Y-86.0
X146.0Y-102.5
X146.21Y-184.0
X146.25Y-117.5
X146.71Y-168.75
X146.75Y-135.5
X148.265Y-86.0
X148.54Y-102.5
X148.75Y-184.0
X148.79Y-117.5
X149.25Y-168.75
X149.29Y-135.5
X174.85Y-178.75
X176.65Y-165.75
X176.748Y-151.898
X177.39Y-178.75
X177.455Y-106.1
X177.701Y-92.0
X179.19Y-165.75
X179.288Y-151.898
X179.995Y-106.1
X180.241Y-92.0
X180.705Y-79.25
X183.245Y-79.25
X185.21Y-121.0
X187.75Y-121.0
T5
X174.5Y-118.75
X181.378Y-179.083
X183.1Y-191.5
X183.234Y-165.398
X184.0Y-94.5
X184.951Y-106.75
T6
X184.665Y-111.795
X184.701Y-99.5
X184.75Y-85.25
X185.128Y-171.333
X185.6Y-183.5
X185.694Y-157.593
X187.205Y-111.795
X187.241Y-99.5
X187.29Y-85.25
X187.668Y-171.333
X188.14Y-183.5
X188.234Y-157.593
X189.745Y-111.795
X189.781Y-99.5
X189.83Y-85.25
X190.208Y-171.333
X190.68Y-183.5
X190.774Y-157.593
T7
X136.0Y-80.0
X136.0Y-198.0
X199.0Y-80.0
X199.0Y-198.0
T8
X169.351Y-98.75
X169.395Y-112.405
X169.4Y-85.75
X169.75Y-185.25
X169.9Y-172.25
X170.048Y-158.502
X175.65Y-134.5
X176.551Y-98.75
X176.595Y-112.405
X176.6Y-85.75
X176.95Y-185.25
X177.1Y-172.25
X177.248Y-158.502
X182.85Y-134.5
T0
M30
