G04 #@! TF.GenerationSoftware,KiCad,Pcbnew,(6.0.5)*
G04 #@! TF.CreationDate,2023-06-10T16:45:34-04:00*
G04 #@! TF.ProjectId,CaelusRocketPCB,4361656c-7573-4526-9f63-6b6574504342,rev?*
G04 #@! TF.SameCoordinates,Original*
G04 #@! TF.FileFunction,Soldermask,Bot*
G04 #@! TF.FilePolarity,Negative*
%FSLAX46Y46*%
G04 Gerber Fmt 4.6, Leading zero omitted, Abs format (unit mm)*
G04 Created by KiCad (PCBNEW (6.0.5)) date 2023-06-10 16:45:34*
%MOMM*%
%LPD*%
G01*
G04 APERTURE LIST*
%ADD10C,1.600000*%
%ADD11O,1.600000X1.600000*%
%ADD12R,1.800000X1.800000*%
%ADD13O,1.800000X1.800000*%
%ADD14C,5.000000*%
%ADD15R,1.905000X2.000000*%
%ADD16O,1.905000X2.000000*%
%ADD17C,2.000000*%
%ADD18R,5.516000X5.516000*%
%ADD19C,5.516000*%
%ADD20C,1.800000*%
%ADD21C,3.200000*%
%ADD22R,1.500000X1.500000*%
%ADD23C,1.500000*%
G04 APERTURE END LIST*
D10*
X137500000Y-140750000D03*
D11*
X150200000Y-140750000D03*
D12*
X139500000Y-137000000D03*
D13*
X142040000Y-137000000D03*
D12*
X177455244Y-106099755D03*
D13*
X179995244Y-106099755D03*
D10*
X195450978Y-103250000D03*
D11*
X182750978Y-103250000D03*
D14*
X136000000Y-80000000D03*
D15*
X185600000Y-183500000D03*
D16*
X188140000Y-183500000D03*
X190680000Y-183500000D03*
D10*
X137250000Y-128000000D03*
D11*
X149950000Y-128000000D03*
D14*
X199000000Y-198000000D03*
D17*
X183234200Y-165398200D03*
D18*
X176595244Y-112404755D03*
D19*
X169395244Y-112404755D03*
D12*
X177700978Y-92000000D03*
D13*
X180240978Y-92000000D03*
D12*
X146750000Y-135500000D03*
D20*
X149290000Y-135500000D03*
D10*
X173750000Y-122250000D03*
D11*
X161050000Y-122250000D03*
D12*
X146210000Y-184000000D03*
D20*
X148750000Y-184000000D03*
D10*
X136750000Y-108000000D03*
D11*
X149450000Y-108000000D03*
D12*
X140045000Y-87500000D03*
D13*
X137505000Y-87500000D03*
D15*
X185128079Y-171333489D03*
D16*
X187668079Y-171333489D03*
X190208079Y-171333489D03*
D10*
X195978079Y-175333489D03*
D11*
X183278079Y-175333489D03*
D12*
X146000000Y-102500000D03*
D20*
X148540000Y-102500000D03*
D18*
X176950000Y-185250000D03*
D19*
X169750000Y-185250000D03*
D12*
X176650000Y-165750000D03*
D13*
X179190000Y-165750000D03*
D10*
X137460000Y-174500000D03*
D11*
X150160000Y-174500000D03*
D10*
X137460000Y-178750000D03*
D11*
X150160000Y-178750000D03*
D12*
X139415000Y-185000000D03*
D13*
X141955000Y-185000000D03*
D10*
X136650000Y-96500000D03*
D11*
X149350000Y-96500000D03*
D10*
X137400000Y-144750000D03*
D11*
X150100000Y-144750000D03*
D12*
X187750000Y-121000000D03*
D20*
X185210000Y-121000000D03*
D10*
X195850000Y-187750000D03*
D11*
X183150000Y-187750000D03*
D10*
X136650000Y-92500000D03*
D11*
X149350000Y-92500000D03*
D10*
X149500000Y-112000000D03*
D11*
X136800000Y-112000000D03*
D15*
X184750000Y-85250000D03*
D16*
X187290000Y-85250000D03*
X189830000Y-85250000D03*
D10*
X195834200Y-161648200D03*
D11*
X183134200Y-161648200D03*
D10*
X137150000Y-123000000D03*
D11*
X149850000Y-123000000D03*
D17*
X184000000Y-94500000D03*
D14*
X199000000Y-80000000D03*
D18*
X176550978Y-98750000D03*
D19*
X169350978Y-98750000D03*
D12*
X174850000Y-178750000D03*
D13*
X177390000Y-178750000D03*
D18*
X182850000Y-134500000D03*
D19*
X175650000Y-134500000D03*
D10*
X195500000Y-90750000D03*
D11*
X182800000Y-90750000D03*
D12*
X141460000Y-170750000D03*
D13*
X138920000Y-170750000D03*
D12*
X145725000Y-86000000D03*
D20*
X148265000Y-86000000D03*
D17*
X174500000Y-118750000D03*
D12*
X146250000Y-117500000D03*
D20*
X148790000Y-117500000D03*
D10*
X195500000Y-115500000D03*
D11*
X182800000Y-115500000D03*
D21*
X140900000Y-161410000D03*
X140900000Y-149980000D03*
D22*
X147250000Y-151250000D03*
D23*
X149790000Y-152520000D03*
X147250000Y-153790000D03*
X149790000Y-155060000D03*
X147250000Y-156330000D03*
X149790000Y-157600000D03*
X147250000Y-158870000D03*
X149790000Y-160140000D03*
D12*
X146710000Y-168750000D03*
D20*
X149250000Y-168750000D03*
D15*
X184665244Y-111794755D03*
D16*
X187205244Y-111794755D03*
X189745244Y-111794755D03*
D12*
X176748200Y-151898200D03*
D13*
X179288200Y-151898200D03*
D12*
X140750000Y-103750000D03*
D13*
X138210000Y-103750000D03*
D18*
X177100000Y-172250000D03*
D19*
X169900000Y-172250000D03*
D15*
X185694200Y-157593200D03*
D16*
X188234200Y-157593200D03*
X190774200Y-157593200D03*
D17*
X181378079Y-179083489D03*
D10*
X137000000Y-193250000D03*
D11*
X149700000Y-193250000D03*
D17*
X184950978Y-106750000D03*
D14*
X136000000Y-198000000D03*
D12*
X138955000Y-118750000D03*
D13*
X141495000Y-118750000D03*
D18*
X176600000Y-85750000D03*
D19*
X169400000Y-85750000D03*
D10*
X136860000Y-189250000D03*
D11*
X149560000Y-189250000D03*
D12*
X180705000Y-79250000D03*
D13*
X183245000Y-79250000D03*
D18*
X177248200Y-158502200D03*
D19*
X170048200Y-158502200D03*
D17*
X183100000Y-191500000D03*
D15*
X184700978Y-99500000D03*
D16*
X187240978Y-99500000D03*
X189780978Y-99500000D03*
M02*
