G04 #@! TF.GenerationSoftware,KiCad,Pcbnew,(6.0.5)*
G04 #@! TF.CreationDate,2023-06-10T16:45:34-04:00*
G04 #@! TF.ProjectId,CaelusRocketPCB,4361656c-7573-4526-9f63-6b6574504342,rev?*
G04 #@! TF.SameCoordinates,Original*
G04 #@! TF.FileFunction,Copper,L1,Top*
G04 #@! TF.FilePolarity,Positive*
%FSLAX46Y46*%
G04 Gerber Fmt 4.6, Leading zero omitted, Abs format (unit mm)*
G04 Created by KiCad (PCBNEW (6.0.5)) date 2023-06-10 16:45:34*
%MOMM*%
%LPD*%
G01*
G04 APERTURE LIST*
G04 #@! TA.AperFunction,ComponentPad*
%ADD10C,1.600000*%
G04 #@! TD*
G04 #@! TA.AperFunction,ComponentPad*
%ADD11O,1.600000X1.600000*%
G04 #@! TD*
G04 #@! TA.AperFunction,ComponentPad*
%ADD12R,1.800000X1.800000*%
G04 #@! TD*
G04 #@! TA.AperFunction,ComponentPad*
%ADD13O,1.800000X1.800000*%
G04 #@! TD*
G04 #@! TA.AperFunction,ComponentPad*
%ADD14C,5.000000*%
G04 #@! TD*
G04 #@! TA.AperFunction,ComponentPad*
%ADD15R,1.905000X2.000000*%
G04 #@! TD*
G04 #@! TA.AperFunction,ComponentPad*
%ADD16O,1.905000X2.000000*%
G04 #@! TD*
G04 #@! TA.AperFunction,ComponentPad*
%ADD17C,2.000000*%
G04 #@! TD*
G04 #@! TA.AperFunction,ComponentPad*
%ADD18R,5.516000X5.516000*%
G04 #@! TD*
G04 #@! TA.AperFunction,ComponentPad*
%ADD19C,5.516000*%
G04 #@! TD*
G04 #@! TA.AperFunction,ComponentPad*
%ADD20C,1.800000*%
G04 #@! TD*
G04 #@! TA.AperFunction,ComponentPad*
%ADD21R,1.500000X1.500000*%
G04 #@! TD*
G04 #@! TA.AperFunction,ComponentPad*
%ADD22C,1.500000*%
G04 #@! TD*
G04 #@! TA.AperFunction,ViaPad*
%ADD23C,0.800000*%
G04 #@! TD*
G04 #@! TA.AperFunction,Conductor*
%ADD24C,2.000000*%
G04 #@! TD*
G04 #@! TA.AperFunction,Conductor*
%ADD25C,2.500000*%
G04 #@! TD*
G04 #@! TA.AperFunction,Conductor*
%ADD26C,0.300000*%
G04 #@! TD*
G04 #@! TA.AperFunction,Conductor*
%ADD27C,0.250000*%
G04 #@! TD*
G04 #@! TA.AperFunction,Conductor*
%ADD28C,0.500000*%
G04 #@! TD*
G04 APERTURE END LIST*
D10*
X137500000Y-140750000D03*
D11*
X150200000Y-140750000D03*
D12*
X139500000Y-137000000D03*
D13*
X142040000Y-137000000D03*
D12*
X177455244Y-106099755D03*
D13*
X179995244Y-106099755D03*
D10*
X195450978Y-103250000D03*
D11*
X182750978Y-103250000D03*
D14*
X136000000Y-80000000D03*
D15*
X185600000Y-183500000D03*
D16*
X188140000Y-183500000D03*
X190680000Y-183500000D03*
D10*
X137250000Y-128000000D03*
D11*
X149950000Y-128000000D03*
D14*
X199000000Y-198000000D03*
D17*
X183234200Y-165398200D03*
D18*
X176595244Y-112404755D03*
D19*
X169395244Y-112404755D03*
D12*
X177700978Y-92000000D03*
D13*
X180240978Y-92000000D03*
D12*
X146750000Y-135500000D03*
D20*
X149290000Y-135500000D03*
D10*
X173750000Y-122250000D03*
D11*
X161050000Y-122250000D03*
D12*
X146210000Y-184000000D03*
D20*
X148750000Y-184000000D03*
D10*
X136750000Y-108000000D03*
D11*
X149450000Y-108000000D03*
D12*
X140045000Y-87500000D03*
D13*
X137505000Y-87500000D03*
D15*
X185128079Y-171333489D03*
D16*
X187668079Y-171333489D03*
X190208079Y-171333489D03*
D10*
X195978079Y-175333489D03*
D11*
X183278079Y-175333489D03*
D12*
X146000000Y-102500000D03*
D20*
X148540000Y-102500000D03*
D18*
X176950000Y-185250000D03*
D19*
X169750000Y-185250000D03*
D12*
X176650000Y-165750000D03*
D13*
X179190000Y-165750000D03*
D10*
X137460000Y-174500000D03*
D11*
X150160000Y-174500000D03*
D10*
X137460000Y-178750000D03*
D11*
X150160000Y-178750000D03*
D12*
X139415000Y-185000000D03*
D13*
X141955000Y-185000000D03*
D10*
X136650000Y-96500000D03*
D11*
X149350000Y-96500000D03*
D10*
X137400000Y-144750000D03*
D11*
X150100000Y-144750000D03*
D12*
X187750000Y-121000000D03*
D20*
X185210000Y-121000000D03*
D10*
X195850000Y-187750000D03*
D11*
X183150000Y-187750000D03*
D10*
X136650000Y-92500000D03*
D11*
X149350000Y-92500000D03*
D10*
X149500000Y-112000000D03*
D11*
X136800000Y-112000000D03*
D15*
X184750000Y-85250000D03*
D16*
X187290000Y-85250000D03*
X189830000Y-85250000D03*
D10*
X195834200Y-161648200D03*
D11*
X183134200Y-161648200D03*
D10*
X137150000Y-123000000D03*
D11*
X149850000Y-123000000D03*
D17*
X184000000Y-94500000D03*
D14*
X199000000Y-80000000D03*
D18*
X176550978Y-98750000D03*
D19*
X169350978Y-98750000D03*
D12*
X174850000Y-178750000D03*
D13*
X177390000Y-178750000D03*
D18*
X182850000Y-134500000D03*
D19*
X175650000Y-134500000D03*
D10*
X195500000Y-90750000D03*
D11*
X182800000Y-90750000D03*
D12*
X141460000Y-170750000D03*
D13*
X138920000Y-170750000D03*
D12*
X145725000Y-86000000D03*
D20*
X148265000Y-86000000D03*
D17*
X174500000Y-118750000D03*
D12*
X146250000Y-117500000D03*
D20*
X148790000Y-117500000D03*
D10*
X195500000Y-115500000D03*
D11*
X182800000Y-115500000D03*
D21*
X147250000Y-151250000D03*
D22*
X149790000Y-152520000D03*
X147250000Y-153790000D03*
X149790000Y-155060000D03*
X147250000Y-156330000D03*
X149790000Y-157600000D03*
X147250000Y-158870000D03*
X149790000Y-160140000D03*
D12*
X146710000Y-168750000D03*
D20*
X149250000Y-168750000D03*
D15*
X184665244Y-111794755D03*
D16*
X187205244Y-111794755D03*
X189745244Y-111794755D03*
D12*
X176748200Y-151898200D03*
D13*
X179288200Y-151898200D03*
D12*
X140750000Y-103750000D03*
D13*
X138210000Y-103750000D03*
D18*
X177100000Y-172250000D03*
D19*
X169900000Y-172250000D03*
D15*
X185694200Y-157593200D03*
D16*
X188234200Y-157593200D03*
X190774200Y-157593200D03*
D17*
X181378079Y-179083489D03*
D10*
X137000000Y-193250000D03*
D11*
X149700000Y-193250000D03*
D17*
X184950978Y-106750000D03*
D14*
X136000000Y-198000000D03*
D12*
X138955000Y-118750000D03*
D13*
X141495000Y-118750000D03*
D18*
X176600000Y-85750000D03*
D19*
X169400000Y-85750000D03*
D10*
X136860000Y-189250000D03*
D11*
X149560000Y-189250000D03*
D12*
X180705000Y-79250000D03*
D13*
X183245000Y-79250000D03*
D18*
X177248200Y-158502200D03*
D19*
X170048200Y-158502200D03*
D17*
X183100000Y-191500000D03*
D15*
X184700978Y-99500000D03*
D16*
X187240978Y-99500000D03*
X189780978Y-99500000D03*
D23*
X144250000Y-148750000D03*
X136672980Y-149000000D03*
D24*
X176483489Y-165583489D02*
X176650000Y-165750000D01*
X170048200Y-158502200D02*
X170048200Y-154601799D01*
D25*
X170096110Y-79248000D02*
X180545480Y-79248000D01*
X180545480Y-79248000D02*
X180545480Y-79250000D01*
D24*
X169900000Y-168349599D02*
X172666110Y-165583489D01*
X171799843Y-106099755D02*
X177455244Y-106099755D01*
X173524978Y-92000000D02*
X169350978Y-96174000D01*
X169750000Y-185250000D02*
X169750000Y-183850000D01*
X177700978Y-92000000D02*
X173524978Y-92000000D01*
X170048200Y-154601799D02*
X172751799Y-151898200D01*
X169900000Y-172250000D02*
X169900000Y-168349599D01*
D25*
X169400000Y-85750000D02*
X169400000Y-79944110D01*
D24*
X169750000Y-183850000D02*
X174850000Y-178750000D01*
X172666110Y-165583489D02*
X176483489Y-165583489D01*
D25*
X169400000Y-79944110D02*
X170096110Y-79248000D01*
D24*
X169395244Y-108504354D02*
X171799843Y-106099755D01*
X169395244Y-112404755D02*
X169395244Y-108504354D01*
X172751799Y-151898200D02*
X176748200Y-151898200D01*
D26*
X147210000Y-175800000D02*
X147210000Y-174750000D01*
X143210000Y-170750000D02*
X141460000Y-170750000D01*
X147210000Y-174750000D02*
X143210000Y-170750000D01*
X150160000Y-178750000D02*
X147210000Y-175800000D01*
X140342000Y-158870000D02*
X137460000Y-161752000D01*
X137460000Y-161752000D02*
X137460000Y-174500000D01*
X137460000Y-174500000D02*
X137890000Y-174930000D01*
X137890000Y-178320000D02*
X137460000Y-178750000D01*
X137890000Y-174930000D02*
X137890000Y-178320000D01*
X147250000Y-158870000D02*
X140342000Y-158870000D01*
X136860000Y-189250000D02*
X136860000Y-186846000D01*
X149334567Y-161239511D02*
X150245433Y-161239511D01*
X138176000Y-157480000D02*
X147480000Y-157480000D01*
X151250000Y-153980000D02*
X149790000Y-152520000D01*
X148349511Y-158349511D02*
X148349511Y-160254455D01*
X148349511Y-160254455D02*
X149334567Y-161239511D01*
X147480000Y-157480000D02*
X148349511Y-158349511D01*
X136112000Y-186098000D02*
X136112000Y-159544000D01*
X150245433Y-161239511D02*
X151250000Y-160234944D01*
D27*
X137032000Y-189422000D02*
X136860000Y-189250000D01*
D26*
X136112000Y-159544000D02*
X138176000Y-157480000D01*
D27*
X137000000Y-193250000D02*
X137032000Y-193218000D01*
D26*
X136860000Y-186846000D02*
X136112000Y-186098000D01*
D27*
X137032000Y-193218000D02*
X137032000Y-189422000D01*
D26*
X151250000Y-160234944D02*
X151250000Y-153980000D01*
X147250000Y-156330000D02*
X143715822Y-156330000D01*
X134772481Y-145272481D02*
X134772481Y-114027519D01*
X137422480Y-148689530D02*
X134772481Y-146039531D01*
X137422480Y-150036658D02*
X137422480Y-148689530D01*
X136650000Y-108100000D02*
X136750000Y-108000000D01*
X136800000Y-112000000D02*
X136650000Y-111850000D01*
X143715822Y-156330000D02*
X137422480Y-150036658D01*
X136650000Y-111850000D02*
X136650000Y-108100000D01*
X134772481Y-146039531D02*
X134772481Y-145272481D01*
X134772481Y-114027519D02*
X136800000Y-112000000D01*
X137922000Y-145272000D02*
X137400000Y-144750000D01*
D27*
X137500000Y-144650000D02*
X137400000Y-144750000D01*
D26*
X148000000Y-155000000D02*
X149790000Y-156790000D01*
X143092249Y-155000000D02*
X148000000Y-155000000D01*
X137922000Y-149829751D02*
X137922000Y-145272000D01*
D27*
X137500000Y-140750000D02*
X137500000Y-144650000D01*
D26*
X137922000Y-149829751D02*
X143092249Y-155000000D01*
X149790000Y-156790000D02*
X149790000Y-157600000D01*
X134272962Y-146599982D02*
X134272962Y-99994692D01*
X146949022Y-148750000D02*
X144250000Y-148750000D01*
X148500000Y-153770000D02*
X148500000Y-150300978D01*
X148500000Y-150300978D02*
X146949022Y-148750000D01*
X134633827Y-99633827D02*
X136500000Y-97767654D01*
X134272962Y-99994692D02*
X134633827Y-99633827D01*
X136672980Y-149000000D02*
X134272962Y-146599982D01*
X136500000Y-96650000D02*
X136650000Y-96500000D01*
X136500000Y-97767654D02*
X136500000Y-96650000D01*
X149790000Y-155060000D02*
X148500000Y-153770000D01*
X136650000Y-96500000D02*
X136650000Y-92500000D01*
X137250000Y-123100000D02*
X137150000Y-123000000D01*
X138649511Y-139899511D02*
X138649511Y-144848533D01*
X138649511Y-144848533D02*
X147250000Y-153449022D01*
X135272000Y-136522000D02*
X135272000Y-129978000D01*
X138649511Y-139899511D02*
X135272000Y-136522000D01*
X137250000Y-128000000D02*
X137250000Y-123100000D01*
X147250000Y-153449022D02*
X147250000Y-153790000D01*
X135272000Y-129978000D02*
X137250000Y-128000000D01*
D24*
X187240978Y-98040000D02*
X187240978Y-99500000D01*
X180240978Y-92000000D02*
X180240978Y-96259022D01*
X180240978Y-96259022D02*
X177750000Y-98750000D01*
X177750000Y-98750000D02*
X176550978Y-98750000D01*
X186501467Y-97300489D02*
X187240978Y-98040000D01*
X178000489Y-97300489D02*
X186501467Y-97300489D01*
X176550978Y-98750000D02*
X178000489Y-97300489D01*
X181450733Y-109595244D02*
X186817255Y-109595244D01*
X176595244Y-112404755D02*
X179404755Y-109595244D01*
X179995244Y-108139755D02*
X181450733Y-109595244D01*
X179404755Y-109595244D02*
X186817255Y-109595244D01*
X179995244Y-106099755D02*
X179995244Y-108139755D01*
X187205244Y-109983233D02*
X187205244Y-111794755D01*
X186817255Y-109595244D02*
X187205244Y-109983233D01*
X177390000Y-178750000D02*
X179940489Y-181300489D01*
X180899511Y-181300489D02*
X187752011Y-181300489D01*
X188140000Y-181688478D02*
X188140000Y-183500000D01*
X187752011Y-181300489D02*
X188140000Y-181688478D01*
X176950000Y-185250000D02*
X180899511Y-181300489D01*
X187846211Y-155393689D02*
X188234200Y-155781678D01*
X182479200Y-155134178D02*
X182738711Y-155393689D01*
X180356711Y-155393689D02*
X182738711Y-155393689D01*
X179288200Y-151898200D02*
X182479200Y-155089200D01*
X177248200Y-158502200D02*
X180356711Y-155393689D01*
X182479200Y-155089200D02*
X182479200Y-155134178D01*
X182738711Y-155393689D02*
X187846211Y-155393689D01*
X188234200Y-155781678D02*
X188234200Y-157593200D01*
D25*
X177292000Y-83152511D02*
X176600000Y-83844511D01*
X176600000Y-85750000D02*
X176600000Y-83844511D01*
X183886000Y-82386000D02*
X183245000Y-81745000D01*
X185987522Y-82386000D02*
X187290000Y-83688478D01*
X187290000Y-83688478D02*
X187290000Y-85250000D01*
X183245000Y-81745000D02*
X183245000Y-79250000D01*
X183886000Y-82386000D02*
X185987522Y-82386000D01*
X176600000Y-83844511D02*
X178058511Y-82386000D01*
X178058511Y-82386000D02*
X183886000Y-82386000D01*
D27*
X147705000Y-128000000D02*
X149950000Y-128000000D01*
X138455000Y-118750000D02*
X147705000Y-128000000D01*
X143415000Y-189000000D02*
X139415000Y-185000000D01*
X149560000Y-189250000D02*
X149310000Y-189000000D01*
X149310000Y-189000000D02*
X143415000Y-189000000D01*
D26*
X150500000Y-132500000D02*
X143250000Y-132500000D01*
X151500000Y-133500000D02*
X150500000Y-132500000D01*
X183134200Y-165298200D02*
X183234200Y-165398200D01*
X183134200Y-161648200D02*
X183134200Y-165298200D01*
X185694200Y-159088200D02*
X183134200Y-161648200D01*
X185694200Y-157593200D02*
X185694200Y-159088200D01*
X150200000Y-144750000D02*
X151500000Y-143450000D01*
X151500000Y-143450000D02*
X151500000Y-133500000D01*
X143250000Y-132500000D02*
X138750000Y-137000000D01*
X182750978Y-103250000D02*
X182750978Y-101450000D01*
D27*
X140750000Y-106750000D02*
X146000000Y-112000000D01*
D26*
X182750978Y-101450000D02*
X184700978Y-99500000D01*
X182750978Y-104550000D02*
X184950978Y-106750000D01*
X182750978Y-103250000D02*
X182750978Y-104550000D01*
D27*
X140750000Y-103750000D02*
X140750000Y-106750000D01*
X146000000Y-112000000D02*
X149500000Y-112000000D01*
D26*
X149250000Y-168750000D02*
X149750000Y-168750000D01*
X150590000Y-169590000D02*
X150590000Y-174070000D01*
X150590000Y-174070000D02*
X150160000Y-174500000D01*
X149750000Y-168750000D02*
X150590000Y-169590000D01*
D27*
X149850000Y-118560000D02*
X149850000Y-123000000D01*
X148790000Y-117500000D02*
X149850000Y-118560000D01*
X150684511Y-185934511D02*
X150684511Y-192265489D01*
X148750000Y-184000000D02*
X150684511Y-185934511D01*
X150684511Y-192265489D02*
X149700000Y-193250000D01*
X149290000Y-139840000D02*
X150200000Y-140750000D01*
X149290000Y-135500000D02*
X149290000Y-139840000D01*
X149350000Y-92500000D02*
X149350000Y-87085000D01*
X149350000Y-87085000D02*
X148265000Y-86000000D01*
X149450000Y-108000000D02*
X149450000Y-103410000D01*
X149450000Y-103410000D02*
X148540000Y-102500000D01*
X140350000Y-87500000D02*
X140045000Y-87500000D01*
D26*
X182800000Y-90750000D02*
X184000000Y-91950000D01*
X180594000Y-88544000D02*
X180594000Y-87122000D01*
X184000000Y-91950000D02*
X184000000Y-94500000D01*
D27*
X149350000Y-96500000D02*
X140350000Y-87500000D01*
D26*
X180594000Y-87122000D02*
X182466000Y-85250000D01*
X182800000Y-90750000D02*
X180594000Y-88544000D01*
X182466000Y-85250000D02*
X184750000Y-85250000D01*
D28*
X183960000Y-122250000D02*
X173750000Y-122250000D01*
X185210000Y-121000000D02*
X183960000Y-122250000D01*
G04 #@! TA.AperFunction,Conductor*
G36*
X171984732Y-80621375D02*
G01*
X172052835Y-80641436D01*
X172099281Y-80695132D01*
X172110621Y-80746978D01*
X172250000Y-125000000D01*
X178374000Y-125000000D01*
X178442121Y-125020002D01*
X178488614Y-125073658D01*
X178500000Y-125126000D01*
X178500000Y-146874000D01*
X178479998Y-146942121D01*
X178426342Y-146988614D01*
X178374002Y-147000000D01*
X173056271Y-146999981D01*
X172291700Y-146999978D01*
X172273584Y-146999978D01*
X172273603Y-147013566D01*
X172334295Y-191372388D01*
X172314386Y-191440536D01*
X172260794Y-191487102D01*
X172208185Y-191498560D01*
X153163132Y-191482001D01*
X153095029Y-191461940D01*
X153048583Y-191408244D01*
X153037242Y-191356256D01*
X152813510Y-80731071D01*
X152833375Y-80662910D01*
X152886936Y-80616308D01*
X152939620Y-80604816D01*
X171984732Y-80621375D01*
G37*
G04 #@! TD.AperFunction*
G04 #@! TA.AperFunction,Conductor*
G36*
X202683621Y-76632502D02*
G01*
X202730114Y-76686158D01*
X202741500Y-76738500D01*
X202741500Y-201015500D01*
X202721498Y-201083621D01*
X202667842Y-201130114D01*
X202615500Y-201141500D01*
X186336000Y-201141500D01*
X186267879Y-201121498D01*
X186221386Y-201067842D01*
X186210000Y-201015500D01*
X186210000Y-185134500D01*
X186230002Y-185066379D01*
X186283658Y-185019886D01*
X186336000Y-185008500D01*
X186600634Y-185008500D01*
X186662816Y-185001745D01*
X186799205Y-184950615D01*
X186915761Y-184863261D01*
X187003115Y-184746705D01*
X187006728Y-184737067D01*
X187007512Y-184736024D01*
X187010577Y-184730425D01*
X187011385Y-184730867D01*
X187049368Y-184680302D01*
X187115929Y-184655600D01*
X187185278Y-184670806D01*
X187204687Y-184683929D01*
X187269379Y-184737067D01*
X187276278Y-184742734D01*
X187280646Y-184745276D01*
X187471027Y-184856081D01*
X187486078Y-184864841D01*
X187490801Y-184866654D01*
X187707972Y-184950018D01*
X187707979Y-184950020D01*
X187712702Y-184951833D01*
X187743418Y-184958250D01*
X187759708Y-184962813D01*
X187765515Y-184964870D01*
X187828780Y-184976140D01*
X187832432Y-184976846D01*
X187950320Y-185001474D01*
X187955371Y-185001703D01*
X187955376Y-185001704D01*
X187964110Y-185002100D01*
X187969840Y-185002360D01*
X187986209Y-185004182D01*
X188002037Y-185007001D01*
X188030560Y-185007350D01*
X188095726Y-185008146D01*
X188099901Y-185008267D01*
X188187762Y-185012257D01*
X188187769Y-185012257D01*
X188192817Y-185012486D01*
X188209491Y-185010557D01*
X188225507Y-185009731D01*
X188232214Y-185009813D01*
X188237094Y-185009873D01*
X188237096Y-185009873D01*
X188242263Y-185009936D01*
X188324962Y-184997282D01*
X188329517Y-184996669D01*
X188433956Y-184984585D01*
X188457095Y-184978037D01*
X188472331Y-184974730D01*
X188479744Y-184973596D01*
X188522202Y-184959719D01*
X188526993Y-184958258D01*
X188667532Y-184918490D01*
X188672108Y-184916356D01*
X188672114Y-184916354D01*
X188882954Y-184818038D01*
X188882958Y-184818036D01*
X188887536Y-184815901D01*
X189088307Y-184679456D01*
X189264681Y-184512668D01*
X189267760Y-184508641D01*
X189409047Y-184323846D01*
X189409050Y-184323842D01*
X189412120Y-184319826D01*
X189526831Y-184105891D01*
X189605862Y-183876369D01*
X189647179Y-183637164D01*
X189648500Y-183608075D01*
X189648500Y-181712480D01*
X189648549Y-181708961D01*
X189651193Y-181614328D01*
X189651193Y-181614325D01*
X189651334Y-181609273D01*
X189640941Y-181531380D01*
X189640241Y-181524831D01*
X189634346Y-181451555D01*
X189634345Y-181451551D01*
X189633940Y-181446513D01*
X189626101Y-181414600D01*
X189623573Y-181401216D01*
X189619898Y-181373672D01*
X189619229Y-181368658D01*
X189596522Y-181293449D01*
X189594781Y-181287086D01*
X189577244Y-181215687D01*
X189576037Y-181210772D01*
X189563199Y-181180526D01*
X189558561Y-181167715D01*
X189550530Y-181141116D01*
X189549067Y-181136270D01*
X189546849Y-181131722D01*
X189546846Y-181131715D01*
X189514629Y-181065660D01*
X189511893Y-181059658D01*
X189483162Y-180991973D01*
X189481188Y-180987322D01*
X189463681Y-180959522D01*
X189457052Y-180947612D01*
X189442654Y-180918090D01*
X189397357Y-180853878D01*
X189393699Y-180848392D01*
X189354529Y-180786192D01*
X189354528Y-180786191D01*
X189351833Y-180781911D01*
X189348492Y-180778122D01*
X189348488Y-180778116D01*
X189330102Y-180757261D01*
X189321656Y-180746566D01*
X189305009Y-180722968D01*
X189302726Y-180719731D01*
X189283091Y-180698228D01*
X189243375Y-180658512D01*
X189237956Y-180652742D01*
X189194650Y-180603620D01*
X189194647Y-180603617D01*
X189191302Y-180599823D01*
X189159011Y-180573299D01*
X189149892Y-180565029D01*
X188835686Y-180250823D01*
X188833232Y-180248301D01*
X188768149Y-180179477D01*
X188768146Y-180179475D01*
X188764679Y-180175808D01*
X188702250Y-180128078D01*
X188697119Y-180123937D01*
X188641144Y-180076298D01*
X188641143Y-180076297D01*
X188637291Y-180073019D01*
X188632966Y-180070400D01*
X188632961Y-180070396D01*
X188609187Y-180055998D01*
X188597940Y-180048326D01*
X188571837Y-180028369D01*
X188502603Y-179991246D01*
X188496879Y-179987982D01*
X188433977Y-179949887D01*
X188429653Y-179947268D01*
X188399192Y-179934961D01*
X188386852Y-179929181D01*
X188362361Y-179916049D01*
X188362362Y-179916049D01*
X188357902Y-179913658D01*
X188353121Y-179912012D01*
X188353117Y-179912010D01*
X188283610Y-179888077D01*
X188277432Y-179885767D01*
X188209277Y-179858231D01*
X188209278Y-179858231D01*
X188204582Y-179856334D01*
X188172550Y-179849057D01*
X188159452Y-179845326D01*
X188128380Y-179834627D01*
X188050911Y-179821246D01*
X188044507Y-179819966D01*
X187967867Y-179802554D01*
X187935058Y-179800490D01*
X187921558Y-179798904D01*
X187889175Y-179793310D01*
X187885218Y-179793130D01*
X187885215Y-179793130D01*
X187861505Y-179792053D01*
X187861486Y-179792053D01*
X187860086Y-179791989D01*
X187803903Y-179791989D01*
X187795991Y-179791740D01*
X187790397Y-179791388D01*
X187725598Y-179787311D01*
X187686556Y-179791139D01*
X187684019Y-179791388D01*
X187671723Y-179791989D01*
X186336000Y-179791989D01*
X186267879Y-179771987D01*
X186221386Y-179718331D01*
X186210000Y-179665989D01*
X186210000Y-172915400D01*
X186230002Y-172847279D01*
X186283658Y-172800786D01*
X186291769Y-172797418D01*
X186293863Y-172796633D01*
X186327284Y-172784104D01*
X186443840Y-172696750D01*
X186531194Y-172580194D01*
X186538652Y-172560300D01*
X186581292Y-172503536D01*
X186647853Y-172478835D01*
X186717202Y-172494042D01*
X186734726Y-172505647D01*
X186852749Y-172598856D01*
X186852754Y-172598859D01*
X186856803Y-172602057D01*
X186861319Y-172604550D01*
X186861322Y-172604552D01*
X187062605Y-172715666D01*
X187062609Y-172715668D01*
X187067129Y-172718163D01*
X187071998Y-172719887D01*
X187072002Y-172719889D01*
X187288719Y-172796633D01*
X187288723Y-172796634D01*
X187293594Y-172798359D01*
X187298687Y-172799266D01*
X187298690Y-172799267D01*
X187525027Y-172839584D01*
X187525033Y-172839585D01*
X187530116Y-172840490D01*
X187617479Y-172841557D01*
X187765172Y-172843362D01*
X187765174Y-172843362D01*
X187770342Y-172843425D01*
X188007823Y-172807085D01*
X188120076Y-172770395D01*
X188231262Y-172734055D01*
X188231268Y-172734052D01*
X188236180Y-172732447D01*
X188240766Y-172730060D01*
X188240770Y-172730058D01*
X188444686Y-172623905D01*
X188449279Y-172621514D01*
X188641399Y-172477266D01*
X188807380Y-172303577D01*
X188942765Y-172105111D01*
X189043916Y-171887199D01*
X189108119Y-171655691D01*
X189129079Y-171459561D01*
X189129079Y-171225087D01*
X189114401Y-171046552D01*
X189055873Y-170813545D01*
X188960076Y-170593226D01*
X188829581Y-170391512D01*
X188667893Y-170213819D01*
X188591062Y-170153142D01*
X188483409Y-170068122D01*
X188483404Y-170068119D01*
X188479355Y-170064921D01*
X188474839Y-170062428D01*
X188474836Y-170062426D01*
X188273553Y-169951312D01*
X188273549Y-169951310D01*
X188269029Y-169948815D01*
X188264160Y-169947091D01*
X188264156Y-169947089D01*
X188047439Y-169870345D01*
X188047435Y-169870344D01*
X188042564Y-169868619D01*
X188037471Y-169867712D01*
X188037468Y-169867711D01*
X187811131Y-169827394D01*
X187811125Y-169827393D01*
X187806042Y-169826488D01*
X187718679Y-169825421D01*
X187570986Y-169823616D01*
X187570984Y-169823616D01*
X187565816Y-169823553D01*
X187328335Y-169859893D01*
X187216082Y-169896583D01*
X187104896Y-169932923D01*
X187104890Y-169932926D01*
X187099978Y-169934531D01*
X187095392Y-169936918D01*
X187095388Y-169936920D01*
X186891472Y-170043073D01*
X186886879Y-170045464D01*
X186731796Y-170161904D01*
X186665314Y-170186809D01*
X186595918Y-170171817D01*
X186545644Y-170121687D01*
X186538164Y-170105374D01*
X186534348Y-170095196D01*
X186534346Y-170095193D01*
X186531194Y-170086784D01*
X186443840Y-169970228D01*
X186327284Y-169882874D01*
X186291769Y-169869560D01*
X186235005Y-169826918D01*
X186210306Y-169760356D01*
X186210000Y-169751578D01*
X186210000Y-159546723D01*
X186232062Y-159478821D01*
X186231173Y-159478332D01*
X186233736Y-159473671D01*
X186233738Y-159473666D01*
X186234994Y-159471381D01*
X186241503Y-159459542D01*
X186252357Y-159443018D01*
X186260645Y-159432332D01*
X186265504Y-159426068D01*
X186268652Y-159418794D01*
X186283854Y-159383665D01*
X186289076Y-159373005D01*
X186307505Y-159339484D01*
X186307506Y-159339482D01*
X186311324Y-159332537D01*
X186316659Y-159311759D01*
X186323058Y-159293069D01*
X186331580Y-159273376D01*
X186338806Y-159227752D01*
X186341213Y-159216130D01*
X186346287Y-159196367D01*
X186382601Y-159135360D01*
X186446133Y-159103670D01*
X186468329Y-159101700D01*
X186694834Y-159101700D01*
X186757016Y-159094945D01*
X186893405Y-159043815D01*
X187009961Y-158956461D01*
X187097315Y-158839905D01*
X187100928Y-158830267D01*
X187101712Y-158829224D01*
X187104777Y-158823625D01*
X187105585Y-158824067D01*
X187143568Y-158773502D01*
X187210129Y-158748800D01*
X187279478Y-158764006D01*
X187298887Y-158777129D01*
X187363579Y-158830267D01*
X187370478Y-158835934D01*
X187374846Y-158838476D01*
X187565227Y-158949281D01*
X187580278Y-158958041D01*
X187585001Y-158959854D01*
X187802172Y-159043218D01*
X187802179Y-159043220D01*
X187806902Y-159045033D01*
X187837618Y-159051450D01*
X187853908Y-159056013D01*
X187859715Y-159058070D01*
X187922980Y-159069340D01*
X187926632Y-159070046D01*
X188044520Y-159094674D01*
X188049571Y-159094903D01*
X188049576Y-159094904D01*
X188058310Y-159095300D01*
X188064040Y-159095560D01*
X188080409Y-159097382D01*
X188096237Y-159100201D01*
X188124760Y-159100550D01*
X188189926Y-159101346D01*
X188194101Y-159101467D01*
X188281962Y-159105457D01*
X188281969Y-159105457D01*
X188287017Y-159105686D01*
X188303691Y-159103757D01*
X188319707Y-159102931D01*
X188326414Y-159103013D01*
X188331294Y-159103073D01*
X188331296Y-159103073D01*
X188336463Y-159103136D01*
X188419162Y-159090482D01*
X188423717Y-159089869D01*
X188528156Y-159077785D01*
X188551295Y-159071237D01*
X188566531Y-159067930D01*
X188573944Y-159066796D01*
X188616402Y-159052919D01*
X188621193Y-159051458D01*
X188761732Y-159011690D01*
X188766308Y-159009556D01*
X188766314Y-159009554D01*
X188977154Y-158911238D01*
X188977158Y-158911236D01*
X188981736Y-158909101D01*
X189182507Y-158772656D01*
X189358881Y-158605868D01*
X189361960Y-158601841D01*
X189503247Y-158417046D01*
X189503250Y-158417042D01*
X189506320Y-158413026D01*
X189621031Y-158199091D01*
X189700062Y-157969569D01*
X189741379Y-157730364D01*
X189742700Y-157701275D01*
X189742700Y-155805680D01*
X189742749Y-155802161D01*
X189745393Y-155707528D01*
X189745393Y-155707525D01*
X189745534Y-155702473D01*
X189735141Y-155624580D01*
X189734441Y-155618031D01*
X189728546Y-155544755D01*
X189728545Y-155544751D01*
X189728140Y-155539713D01*
X189720301Y-155507800D01*
X189717773Y-155494416D01*
X189714098Y-155466872D01*
X189713429Y-155461858D01*
X189690722Y-155386649D01*
X189688981Y-155380286D01*
X189671444Y-155308887D01*
X189670237Y-155303972D01*
X189657399Y-155273726D01*
X189652761Y-155260915D01*
X189643267Y-155229470D01*
X189641049Y-155224922D01*
X189641046Y-155224915D01*
X189608829Y-155158860D01*
X189606093Y-155152858D01*
X189577362Y-155085173D01*
X189575388Y-155080522D01*
X189557881Y-155052722D01*
X189551252Y-155040812D01*
X189536854Y-155011290D01*
X189491557Y-154947078D01*
X189487899Y-154941592D01*
X189448729Y-154879392D01*
X189448728Y-154879391D01*
X189446033Y-154875111D01*
X189442692Y-154871322D01*
X189442688Y-154871316D01*
X189424302Y-154850461D01*
X189415856Y-154839766D01*
X189399209Y-154816168D01*
X189396926Y-154812931D01*
X189377291Y-154791428D01*
X189337575Y-154751712D01*
X189332156Y-154745942D01*
X189288850Y-154696820D01*
X189288847Y-154696817D01*
X189285502Y-154693023D01*
X189253211Y-154666499D01*
X189244092Y-154658229D01*
X188929886Y-154344023D01*
X188927432Y-154341501D01*
X188862349Y-154272677D01*
X188862346Y-154272675D01*
X188858879Y-154269008D01*
X188796450Y-154221278D01*
X188791319Y-154217137D01*
X188735344Y-154169498D01*
X188735343Y-154169497D01*
X188731491Y-154166219D01*
X188727166Y-154163600D01*
X188727161Y-154163596D01*
X188703387Y-154149198D01*
X188692140Y-154141526D01*
X188666037Y-154121569D01*
X188596803Y-154084446D01*
X188591079Y-154081182D01*
X188528177Y-154043087D01*
X188523853Y-154040468D01*
X188493392Y-154028161D01*
X188481052Y-154022381D01*
X188456561Y-154009249D01*
X188456562Y-154009249D01*
X188452102Y-154006858D01*
X188447321Y-154005212D01*
X188447317Y-154005210D01*
X188377810Y-153981277D01*
X188371632Y-153978967D01*
X188303477Y-153951431D01*
X188303478Y-153951431D01*
X188298782Y-153949534D01*
X188266750Y-153942257D01*
X188253652Y-153938526D01*
X188222580Y-153927827D01*
X188145111Y-153914446D01*
X188138707Y-153913166D01*
X188062067Y-153895754D01*
X188029258Y-153893690D01*
X188015758Y-153892104D01*
X187983375Y-153886510D01*
X187979418Y-153886330D01*
X187979415Y-153886330D01*
X187955705Y-153885253D01*
X187955686Y-153885253D01*
X187954286Y-153885189D01*
X187898103Y-153885189D01*
X187890191Y-153884940D01*
X187884597Y-153884588D01*
X187819798Y-153880511D01*
X187780756Y-153884339D01*
X187778219Y-153884588D01*
X187765923Y-153885189D01*
X186336000Y-153885189D01*
X186267879Y-153865187D01*
X186221386Y-153811531D01*
X186210000Y-153759189D01*
X186210000Y-147000000D01*
X179626000Y-147000000D01*
X179557879Y-146979998D01*
X179511386Y-146926342D01*
X179500000Y-146874000D01*
X179500000Y-125126000D01*
X179520002Y-125057879D01*
X179573658Y-125011386D01*
X179626000Y-125000000D01*
X186210000Y-125000000D01*
X186210000Y-122044362D01*
X186230002Y-121976241D01*
X186247060Y-121955111D01*
X186282642Y-121919653D01*
X186286303Y-121916005D01*
X186421458Y-121727917D01*
X186452977Y-121664144D01*
X186521784Y-121524922D01*
X186521785Y-121524920D01*
X186524078Y-121520280D01*
X186591408Y-121298671D01*
X186621640Y-121069041D01*
X186623327Y-121000000D01*
X186617032Y-120923434D01*
X186604773Y-120774318D01*
X186604772Y-120774312D01*
X186604349Y-120769167D01*
X186547925Y-120544533D01*
X186455570Y-120332131D01*
X186329764Y-120137665D01*
X186326290Y-120133847D01*
X186326283Y-120133838D01*
X186242806Y-120042098D01*
X186211754Y-119978252D01*
X186210000Y-119957299D01*
X186210000Y-113180063D01*
X186230002Y-113111942D01*
X186283658Y-113065449D01*
X186353932Y-113055345D01*
X186399381Y-113071164D01*
X186470907Y-113112793D01*
X186551322Y-113159596D01*
X186556045Y-113161409D01*
X186773216Y-113244773D01*
X186773223Y-113244775D01*
X186777946Y-113246588D01*
X186808662Y-113253005D01*
X186824952Y-113257568D01*
X186830759Y-113259625D01*
X186894024Y-113270895D01*
X186897676Y-113271601D01*
X187015564Y-113296229D01*
X187020615Y-113296458D01*
X187020620Y-113296459D01*
X187029354Y-113296855D01*
X187035084Y-113297115D01*
X187051453Y-113298937D01*
X187067281Y-113301756D01*
X187095804Y-113302105D01*
X187160970Y-113302901D01*
X187165145Y-113303022D01*
X187253006Y-113307012D01*
X187253013Y-113307012D01*
X187258061Y-113307241D01*
X187274735Y-113305312D01*
X187290751Y-113304486D01*
X187297458Y-113304568D01*
X187302338Y-113304628D01*
X187302340Y-113304628D01*
X187307507Y-113304691D01*
X187390206Y-113292037D01*
X187394761Y-113291424D01*
X187499200Y-113279340D01*
X187522339Y-113272792D01*
X187537575Y-113269485D01*
X187544988Y-113268351D01*
X187587446Y-113254474D01*
X187592237Y-113253013D01*
X187732776Y-113213245D01*
X187737352Y-113211111D01*
X187737358Y-113211109D01*
X187948198Y-113112793D01*
X187948202Y-113112791D01*
X187952780Y-113110656D01*
X188153551Y-112974211D01*
X188329925Y-112807423D01*
X188333004Y-112803396D01*
X188474291Y-112618601D01*
X188474294Y-112618597D01*
X188477364Y-112614581D01*
X188592075Y-112400646D01*
X188671106Y-112171124D01*
X188712423Y-111931919D01*
X188713744Y-111902830D01*
X188713744Y-110007235D01*
X188713793Y-110003716D01*
X188716437Y-109909083D01*
X188716437Y-109909080D01*
X188716578Y-109904028D01*
X188706185Y-109826135D01*
X188705485Y-109819586D01*
X188699590Y-109746310D01*
X188699589Y-109746306D01*
X188699184Y-109741268D01*
X188691345Y-109709355D01*
X188688817Y-109695971D01*
X188685142Y-109668427D01*
X188684473Y-109663413D01*
X188661766Y-109588204D01*
X188660025Y-109581841D01*
X188641281Y-109505527D01*
X188628443Y-109475281D01*
X188623805Y-109462470D01*
X188615774Y-109435871D01*
X188614311Y-109431025D01*
X188612093Y-109426477D01*
X188612090Y-109426470D01*
X188579873Y-109360415D01*
X188577137Y-109354413D01*
X188548406Y-109286728D01*
X188546432Y-109282077D01*
X188528925Y-109254277D01*
X188522296Y-109242367D01*
X188507898Y-109212845D01*
X188462601Y-109148633D01*
X188458943Y-109143147D01*
X188419773Y-109080947D01*
X188419772Y-109080946D01*
X188417077Y-109076666D01*
X188413736Y-109072877D01*
X188413732Y-109072871D01*
X188395346Y-109052016D01*
X188386900Y-109041321D01*
X188370253Y-109017723D01*
X188367970Y-109014486D01*
X188348335Y-108992983D01*
X188308619Y-108953267D01*
X188303200Y-108947497D01*
X188259894Y-108898375D01*
X188259891Y-108898372D01*
X188256546Y-108894578D01*
X188224255Y-108868054D01*
X188215136Y-108859784D01*
X187900930Y-108545578D01*
X187898476Y-108543056D01*
X187833393Y-108474232D01*
X187833390Y-108474230D01*
X187829923Y-108470563D01*
X187767494Y-108422833D01*
X187762363Y-108418692D01*
X187706388Y-108371053D01*
X187706387Y-108371052D01*
X187702535Y-108367774D01*
X187698210Y-108365155D01*
X187698205Y-108365151D01*
X187674431Y-108350753D01*
X187663184Y-108343081D01*
X187637081Y-108323124D01*
X187567847Y-108286001D01*
X187562123Y-108282737D01*
X187499221Y-108244642D01*
X187494897Y-108242023D01*
X187464436Y-108229716D01*
X187452096Y-108223936D01*
X187427605Y-108210804D01*
X187427606Y-108210804D01*
X187423146Y-108208413D01*
X187418365Y-108206767D01*
X187418361Y-108206765D01*
X187348854Y-108182832D01*
X187342676Y-108180522D01*
X187274521Y-108152986D01*
X187274522Y-108152986D01*
X187269826Y-108151089D01*
X187237794Y-108143812D01*
X187224696Y-108140081D01*
X187193624Y-108129382D01*
X187116155Y-108116001D01*
X187109751Y-108114721D01*
X187033111Y-108097309D01*
X187000302Y-108095245D01*
X186986802Y-108093659D01*
X186954419Y-108088065D01*
X186950462Y-108087885D01*
X186950459Y-108087885D01*
X186926749Y-108086808D01*
X186926730Y-108086808D01*
X186925330Y-108086744D01*
X186869147Y-108086744D01*
X186861235Y-108086495D01*
X186855641Y-108086143D01*
X186790842Y-108082066D01*
X186751800Y-108085894D01*
X186749263Y-108086143D01*
X186736967Y-108086744D01*
X186336000Y-108086744D01*
X186267879Y-108066742D01*
X186221386Y-108013086D01*
X186210000Y-107960744D01*
X186210000Y-107618090D01*
X186228567Y-107552255D01*
X186296632Y-107441183D01*
X186299218Y-107436963D01*
X186390083Y-107217594D01*
X186445513Y-106986711D01*
X186464143Y-106750000D01*
X186445513Y-106513289D01*
X186390083Y-106282406D01*
X186299218Y-106063037D01*
X186255490Y-105991680D01*
X186228567Y-105947745D01*
X186210000Y-105881910D01*
X186210000Y-100864510D01*
X186230002Y-100796389D01*
X186283658Y-100749896D01*
X186353932Y-100739792D01*
X186399381Y-100755612D01*
X186582678Y-100862294D01*
X186582688Y-100862299D01*
X186587056Y-100864841D01*
X186591779Y-100866654D01*
X186808950Y-100950018D01*
X186808957Y-100950020D01*
X186813680Y-100951833D01*
X186844396Y-100958250D01*
X186860686Y-100962813D01*
X186866493Y-100964870D01*
X186929758Y-100976140D01*
X186933410Y-100976846D01*
X187051298Y-101001474D01*
X187056349Y-101001703D01*
X187056354Y-101001704D01*
X187065088Y-101002100D01*
X187070818Y-101002360D01*
X187087187Y-101004182D01*
X187103015Y-101007001D01*
X187131538Y-101007350D01*
X187196704Y-101008146D01*
X187200879Y-101008267D01*
X187288740Y-101012257D01*
X187288747Y-101012257D01*
X187293795Y-101012486D01*
X187310469Y-101010557D01*
X187326485Y-101009731D01*
X187333192Y-101009813D01*
X187338072Y-101009873D01*
X187338074Y-101009873D01*
X187343241Y-101009936D01*
X187425940Y-100997282D01*
X187430495Y-100996669D01*
X187534934Y-100984585D01*
X187558073Y-100978037D01*
X187573309Y-100974730D01*
X187580722Y-100973596D01*
X187623180Y-100959719D01*
X187627971Y-100958258D01*
X187768510Y-100918490D01*
X187773086Y-100916356D01*
X187773092Y-100916354D01*
X187983932Y-100818038D01*
X187983936Y-100818036D01*
X187988514Y-100815901D01*
X188189285Y-100679456D01*
X188365659Y-100512668D01*
X188368738Y-100508641D01*
X188510025Y-100323846D01*
X188510028Y-100323842D01*
X188513098Y-100319826D01*
X188627809Y-100105891D01*
X188706840Y-99876369D01*
X188748157Y-99637164D01*
X188749478Y-99608075D01*
X188749478Y-98064002D01*
X188749527Y-98060483D01*
X188752171Y-97965850D01*
X188752171Y-97965847D01*
X188752312Y-97960795D01*
X188741919Y-97882902D01*
X188741219Y-97876353D01*
X188735324Y-97803077D01*
X188735323Y-97803073D01*
X188734918Y-97798035D01*
X188727079Y-97766122D01*
X188724551Y-97752738D01*
X188720876Y-97725194D01*
X188720207Y-97720180D01*
X188697500Y-97644971D01*
X188695759Y-97638608D01*
X188678222Y-97567209D01*
X188677015Y-97562294D01*
X188664177Y-97532048D01*
X188659539Y-97519237D01*
X188651508Y-97492638D01*
X188650045Y-97487792D01*
X188647827Y-97483244D01*
X188647824Y-97483237D01*
X188615607Y-97417182D01*
X188612871Y-97411180D01*
X188584140Y-97343495D01*
X188582166Y-97338844D01*
X188564659Y-97311044D01*
X188558030Y-97299134D01*
X188543632Y-97269612D01*
X188498335Y-97205400D01*
X188494677Y-97199914D01*
X188455507Y-97137714D01*
X188455506Y-97137713D01*
X188452811Y-97133433D01*
X188449470Y-97129644D01*
X188449466Y-97129638D01*
X188431080Y-97108783D01*
X188422634Y-97098088D01*
X188405987Y-97074490D01*
X188403704Y-97071253D01*
X188384069Y-97049750D01*
X188344353Y-97010034D01*
X188338934Y-97004264D01*
X188295628Y-96955142D01*
X188295625Y-96955139D01*
X188292280Y-96951345D01*
X188259989Y-96924821D01*
X188250870Y-96916551D01*
X187585142Y-96250823D01*
X187582688Y-96248301D01*
X187517605Y-96179477D01*
X187517602Y-96179475D01*
X187514135Y-96175808D01*
X187451706Y-96128078D01*
X187446575Y-96123937D01*
X187390600Y-96076298D01*
X187390599Y-96076297D01*
X187386747Y-96073019D01*
X187382422Y-96070400D01*
X187382417Y-96070396D01*
X187358643Y-96055998D01*
X187347396Y-96048326D01*
X187321293Y-96028369D01*
X187252059Y-95991246D01*
X187246335Y-95987982D01*
X187183433Y-95949887D01*
X187179109Y-95947268D01*
X187148648Y-95934961D01*
X187136308Y-95929181D01*
X187111817Y-95916049D01*
X187111818Y-95916049D01*
X187107358Y-95913658D01*
X187102577Y-95912012D01*
X187102573Y-95912010D01*
X187033066Y-95888077D01*
X187026888Y-95885767D01*
X186958733Y-95858231D01*
X186958734Y-95858231D01*
X186954038Y-95856334D01*
X186922006Y-95849057D01*
X186908908Y-95845326D01*
X186877836Y-95834627D01*
X186800367Y-95821246D01*
X186793963Y-95819966D01*
X186717323Y-95802554D01*
X186684514Y-95800490D01*
X186671014Y-95798904D01*
X186638631Y-95793310D01*
X186634674Y-95793130D01*
X186634671Y-95793130D01*
X186610961Y-95792053D01*
X186610942Y-95792053D01*
X186609542Y-95791989D01*
X186553359Y-95791989D01*
X186545447Y-95791740D01*
X186539853Y-95791388D01*
X186475054Y-95787311D01*
X186436012Y-95791139D01*
X186433475Y-95791388D01*
X186421179Y-95791989D01*
X186336000Y-95791989D01*
X186267879Y-95771987D01*
X186221386Y-95718331D01*
X186210000Y-95665989D01*
X186210000Y-86880508D01*
X186230002Y-86812387D01*
X186283658Y-86765894D01*
X186353932Y-86755790D01*
X186394664Y-86770087D01*
X186394991Y-86769424D01*
X186625219Y-86882960D01*
X186625222Y-86882961D01*
X186629407Y-86885025D01*
X186633850Y-86886447D01*
X186633852Y-86886448D01*
X186701297Y-86908037D01*
X186878335Y-86964707D01*
X187136307Y-87006721D01*
X187250058Y-87008210D01*
X187392978Y-87010081D01*
X187392981Y-87010081D01*
X187397655Y-87010142D01*
X187656638Y-86974896D01*
X187907567Y-86901757D01*
X187943862Y-86885025D01*
X187962112Y-86876611D01*
X188144928Y-86792332D01*
X188200664Y-86755790D01*
X188359596Y-86651590D01*
X188359601Y-86651586D01*
X188363509Y-86649024D01*
X188558506Y-86474982D01*
X188725637Y-86274030D01*
X188861229Y-86050581D01*
X188962303Y-85809545D01*
X189026641Y-85556217D01*
X189048500Y-85339133D01*
X189048500Y-83743375D01*
X189048703Y-83736232D01*
X189052897Y-83662378D01*
X189052897Y-83662371D01*
X189053162Y-83657702D01*
X189042712Y-83543975D01*
X189042530Y-83541797D01*
X189034407Y-83432485D01*
X189034061Y-83427826D01*
X189032483Y-83420854D01*
X189029903Y-83404567D01*
X189029247Y-83397428D01*
X189002086Y-83286427D01*
X189001582Y-83284288D01*
X188977407Y-83177455D01*
X188976377Y-83172901D01*
X188974686Y-83168552D01*
X188974683Y-83168543D01*
X188973782Y-83166227D01*
X188968828Y-83150514D01*
X188968238Y-83148103D01*
X188968236Y-83148098D01*
X188967123Y-83143548D01*
X188965348Y-83139209D01*
X188923859Y-83037795D01*
X188923044Y-83035753D01*
X188883342Y-82933659D01*
X188883341Y-82933656D01*
X188881647Y-82929301D01*
X188878090Y-82923077D01*
X188870869Y-82908272D01*
X188868155Y-82901639D01*
X188809712Y-82803403D01*
X188808648Y-82801579D01*
X188754273Y-82706442D01*
X188754271Y-82706438D01*
X188751951Y-82702380D01*
X188747518Y-82696756D01*
X188738191Y-82683187D01*
X188734519Y-82677015D01*
X188731572Y-82673407D01*
X188731567Y-82673401D01*
X188662210Y-82588513D01*
X188660834Y-82586798D01*
X188593030Y-82500789D01*
X188593027Y-82500786D01*
X188590138Y-82497121D01*
X188513948Y-82425449D01*
X188511186Y-82422769D01*
X187269795Y-81181378D01*
X187264887Y-81176184D01*
X187215621Y-81120986D01*
X187215619Y-81120984D01*
X187212504Y-81117494D01*
X187124656Y-81044432D01*
X187123005Y-81043034D01*
X187089859Y-81014473D01*
X187036451Y-80968454D01*
X187030396Y-80964634D01*
X187017067Y-80954949D01*
X187015147Y-80953352D01*
X187015139Y-80953346D01*
X187011552Y-80950363D01*
X186962015Y-80920303D01*
X186913843Y-80891071D01*
X186911974Y-80889914D01*
X186865413Y-80860537D01*
X186815403Y-80828983D01*
X186808849Y-80826099D01*
X186794232Y-80818490D01*
X186788103Y-80814771D01*
X186682774Y-80770603D01*
X186680753Y-80769735D01*
X186662622Y-80761757D01*
X186576167Y-80723716D01*
X186571660Y-80722487D01*
X186571651Y-80722484D01*
X186569251Y-80721830D01*
X186553674Y-80716467D01*
X186547067Y-80713697D01*
X186542539Y-80712547D01*
X186542536Y-80712546D01*
X186436349Y-80685578D01*
X186434223Y-80685018D01*
X186429158Y-80683637D01*
X186324001Y-80654968D01*
X186319358Y-80654419D01*
X186314766Y-80653526D01*
X186315059Y-80652017D01*
X186255901Y-80626772D01*
X186216032Y-80568027D01*
X186210000Y-80529509D01*
X186210000Y-76612500D01*
X202615500Y-76612500D01*
X202683621Y-76632502D01*
G37*
G04 #@! TD.AperFunction*
G04 #@! TA.AperFunction,Conductor*
G36*
X202683621Y-76632502D02*
G01*
X202730114Y-76686158D01*
X202741500Y-76738500D01*
X202741500Y-78970000D01*
X185085357Y-78970000D01*
X185017236Y-78949998D01*
X184970743Y-78896342D01*
X184962464Y-78871808D01*
X184932408Y-78738980D01*
X184931377Y-78734423D01*
X184836647Y-78490823D01*
X184706951Y-78263902D01*
X184545138Y-78058643D01*
X184354763Y-77879557D01*
X184140009Y-77730576D01*
X184135816Y-77728508D01*
X183909781Y-77617040D01*
X183909778Y-77617039D01*
X183905593Y-77614975D01*
X183859449Y-77600204D01*
X183661123Y-77536720D01*
X183656665Y-77535293D01*
X183398693Y-77493279D01*
X183284942Y-77491790D01*
X183142022Y-77489919D01*
X183142019Y-77489919D01*
X183137345Y-77489858D01*
X182878362Y-77525104D01*
X182873876Y-77526412D01*
X182873874Y-77526412D01*
X182845988Y-77534540D01*
X182627433Y-77598243D01*
X182623180Y-77600203D01*
X182623179Y-77600204D01*
X182590995Y-77615041D01*
X182390072Y-77707668D01*
X182354120Y-77731239D01*
X182175404Y-77848410D01*
X182175399Y-77848414D01*
X182171491Y-77850976D01*
X182167999Y-77854093D01*
X182072989Y-77938892D01*
X182008848Y-77969330D01*
X181938433Y-77960258D01*
X181913523Y-77945715D01*
X181903474Y-77938184D01*
X181851705Y-77899385D01*
X181715316Y-77848255D01*
X181653134Y-77841500D01*
X181649718Y-77841500D01*
X181646320Y-77841316D01*
X181646369Y-77840407D01*
X181581972Y-77821498D01*
X181577060Y-77817866D01*
X181576914Y-77818070D01*
X181573107Y-77815355D01*
X181569510Y-77812363D01*
X181507006Y-77774435D01*
X181500551Y-77770243D01*
X181447213Y-77733241D01*
X181440489Y-77728576D01*
X181397070Y-77707164D01*
X181387438Y-77701879D01*
X181350051Y-77679192D01*
X181350049Y-77679191D01*
X181346061Y-77676771D01*
X181341758Y-77674967D01*
X181341749Y-77674962D01*
X181278642Y-77648499D01*
X181271639Y-77645308D01*
X181210264Y-77615041D01*
X181210255Y-77615037D01*
X181206073Y-77612975D01*
X181159971Y-77598218D01*
X181149659Y-77594413D01*
X181109345Y-77577508D01*
X181109339Y-77577506D01*
X181105025Y-77575697D01*
X181034168Y-77557701D01*
X181026776Y-77555582D01*
X180961603Y-77534720D01*
X180957145Y-77533293D01*
X180952526Y-77532541D01*
X180952523Y-77532540D01*
X180909382Y-77525514D01*
X180898622Y-77523276D01*
X180856231Y-77512510D01*
X180856224Y-77512509D01*
X180851697Y-77511359D01*
X180811802Y-77507342D01*
X180778951Y-77504034D01*
X180771333Y-77503032D01*
X180699173Y-77491279D01*
X180663011Y-77490805D01*
X180650777Y-77490645D01*
X180639812Y-77490023D01*
X180638150Y-77489856D01*
X180634613Y-77489500D01*
X180564075Y-77489500D01*
X180562426Y-77489489D01*
X180442502Y-77487919D01*
X180442499Y-77487919D01*
X180437825Y-77487858D01*
X180433192Y-77488489D01*
X180428526Y-77488774D01*
X180428524Y-77488735D01*
X180417226Y-77489500D01*
X170151007Y-77489500D01*
X170143864Y-77489297D01*
X170070010Y-77485103D01*
X170070003Y-77485103D01*
X170065334Y-77484838D01*
X169951607Y-77495288D01*
X169949442Y-77495469D01*
X169835458Y-77503939D01*
X169828486Y-77505517D01*
X169812199Y-77508097D01*
X169805060Y-77508753D01*
X169800526Y-77509863D01*
X169800517Y-77509864D01*
X169694040Y-77535919D01*
X169691900Y-77536423D01*
X169613591Y-77554143D01*
X169580533Y-77561623D01*
X169573860Y-77564218D01*
X169558155Y-77569169D01*
X169555724Y-77569764D01*
X169555714Y-77569767D01*
X169551179Y-77570877D01*
X169445353Y-77614172D01*
X169443362Y-77614966D01*
X169336933Y-77656353D01*
X169330884Y-77659810D01*
X169330709Y-77659910D01*
X169315904Y-77667131D01*
X169309271Y-77669845D01*
X169211035Y-77728288D01*
X169209211Y-77729352D01*
X169114074Y-77783727D01*
X169114070Y-77783729D01*
X169110012Y-77786049D01*
X169104390Y-77790481D01*
X169090819Y-77799809D01*
X169084647Y-77803481D01*
X169081039Y-77806428D01*
X169081033Y-77806433D01*
X168996145Y-77875790D01*
X168994433Y-77877163D01*
X168904753Y-77947862D01*
X168842464Y-78014078D01*
X168833081Y-78024052D01*
X168830401Y-78026814D01*
X168195378Y-78661837D01*
X168190184Y-78666745D01*
X168131494Y-78719128D01*
X168118774Y-78734423D01*
X168058455Y-78806948D01*
X168057057Y-78808600D01*
X167982454Y-78895181D01*
X167979959Y-78899136D01*
X167978635Y-78901234D01*
X167968949Y-78914565D01*
X167967349Y-78916488D01*
X167967340Y-78916500D01*
X167966630Y-78917355D01*
X167966628Y-78917356D01*
X167964364Y-78920078D01*
X167963780Y-78919592D01*
X167911017Y-78961014D01*
X167864286Y-78970000D01*
X132692500Y-78970000D01*
X132624379Y-78949998D01*
X132577886Y-78896342D01*
X132566500Y-78844000D01*
X132566500Y-76738500D01*
X132586502Y-76670379D01*
X132640158Y-76623886D01*
X132692500Y-76612500D01*
X202615500Y-76612500D01*
X202683621Y-76632502D01*
G37*
G04 #@! TD.AperFunction*
G04 #@! TA.AperFunction,Conductor*
G36*
X202741500Y-201015500D02*
G01*
X202721498Y-201083621D01*
X202667842Y-201130114D01*
X202615500Y-201141500D01*
X132692500Y-201141500D01*
X132624379Y-201121498D01*
X132577886Y-201067842D01*
X132566500Y-201015500D01*
X132566500Y-197877600D01*
X132586502Y-197809479D01*
X132640158Y-197762986D01*
X132692791Y-197751600D01*
X143204106Y-197775872D01*
X152118989Y-197796457D01*
X152109257Y-193212610D01*
X152129115Y-193144446D01*
X152182671Y-193097840D01*
X152235141Y-193086342D01*
X186210000Y-193055449D01*
X202741500Y-193040417D01*
X202741500Y-201015500D01*
G37*
G04 #@! TD.AperFunction*
M02*
