G04 #@! TF.GenerationSoftware,KiCad,Pcbnew,(6.0.5)*
G04 #@! TF.CreationDate,2023-06-10T16:45:34-04:00*
G04 #@! TF.ProjectId,CaelusRocketPCB,4361656c-7573-4526-9f63-6b6574504342,rev?*
G04 #@! TF.SameCoordinates,Original*
G04 #@! TF.FileFunction,Copper,L4,Bot*
G04 #@! TF.FilePolarity,Positive*
%FSLAX46Y46*%
G04 Gerber Fmt 4.6, Leading zero omitted, Abs format (unit mm)*
G04 Created by KiCad (PCBNEW (6.0.5)) date 2023-06-10 16:45:34*
%MOMM*%
%LPD*%
G01*
G04 APERTURE LIST*
G04 #@! TA.AperFunction,ComponentPad*
%ADD10C,1.600000*%
G04 #@! TD*
G04 #@! TA.AperFunction,ComponentPad*
%ADD11O,1.600000X1.600000*%
G04 #@! TD*
G04 #@! TA.AperFunction,ComponentPad*
%ADD12R,1.800000X1.800000*%
G04 #@! TD*
G04 #@! TA.AperFunction,ComponentPad*
%ADD13O,1.800000X1.800000*%
G04 #@! TD*
G04 #@! TA.AperFunction,ComponentPad*
%ADD14C,5.000000*%
G04 #@! TD*
G04 #@! TA.AperFunction,ComponentPad*
%ADD15R,1.905000X2.000000*%
G04 #@! TD*
G04 #@! TA.AperFunction,ComponentPad*
%ADD16O,1.905000X2.000000*%
G04 #@! TD*
G04 #@! TA.AperFunction,ComponentPad*
%ADD17C,2.000000*%
G04 #@! TD*
G04 #@! TA.AperFunction,ComponentPad*
%ADD18R,5.516000X5.516000*%
G04 #@! TD*
G04 #@! TA.AperFunction,ComponentPad*
%ADD19C,5.516000*%
G04 #@! TD*
G04 #@! TA.AperFunction,ComponentPad*
%ADD20C,1.800000*%
G04 #@! TD*
G04 #@! TA.AperFunction,ComponentPad*
%ADD21R,1.500000X1.500000*%
G04 #@! TD*
G04 #@! TA.AperFunction,ComponentPad*
%ADD22C,1.500000*%
G04 #@! TD*
G04 #@! TA.AperFunction,ViaPad*
%ADD23C,0.800000*%
G04 #@! TD*
G04 #@! TA.AperFunction,Conductor*
%ADD24C,0.300000*%
G04 #@! TD*
G04 #@! TA.AperFunction,Conductor*
%ADD25C,2.000000*%
G04 #@! TD*
G04 #@! TA.AperFunction,Conductor*
%ADD26C,2.500000*%
G04 #@! TD*
G04 #@! TA.AperFunction,Conductor*
%ADD27C,0.250000*%
G04 #@! TD*
G04 APERTURE END LIST*
D10*
X137500000Y-140750000D03*
D11*
X150200000Y-140750000D03*
D12*
X139500000Y-137000000D03*
D13*
X142040000Y-137000000D03*
D12*
X177455244Y-106099755D03*
D13*
X179995244Y-106099755D03*
D10*
X195450978Y-103250000D03*
D11*
X182750978Y-103250000D03*
D14*
X136000000Y-80000000D03*
D15*
X185600000Y-183500000D03*
D16*
X188140000Y-183500000D03*
X190680000Y-183500000D03*
D10*
X137250000Y-128000000D03*
D11*
X149950000Y-128000000D03*
D14*
X199000000Y-198000000D03*
D17*
X183234200Y-165398200D03*
D18*
X176595244Y-112404755D03*
D19*
X169395244Y-112404755D03*
D12*
X177700978Y-92000000D03*
D13*
X180240978Y-92000000D03*
D12*
X146750000Y-135500000D03*
D20*
X149290000Y-135500000D03*
D10*
X173750000Y-122250000D03*
D11*
X161050000Y-122250000D03*
D12*
X146210000Y-184000000D03*
D20*
X148750000Y-184000000D03*
D10*
X136750000Y-108000000D03*
D11*
X149450000Y-108000000D03*
D12*
X140045000Y-87500000D03*
D13*
X137505000Y-87500000D03*
D15*
X185128079Y-171333489D03*
D16*
X187668079Y-171333489D03*
X190208079Y-171333489D03*
D10*
X195978079Y-175333489D03*
D11*
X183278079Y-175333489D03*
D12*
X146000000Y-102500000D03*
D20*
X148540000Y-102500000D03*
D18*
X176950000Y-185250000D03*
D19*
X169750000Y-185250000D03*
D12*
X176650000Y-165750000D03*
D13*
X179190000Y-165750000D03*
D10*
X137460000Y-174500000D03*
D11*
X150160000Y-174500000D03*
D10*
X137460000Y-178750000D03*
D11*
X150160000Y-178750000D03*
D12*
X139415000Y-185000000D03*
D13*
X141955000Y-185000000D03*
D10*
X136650000Y-96500000D03*
D11*
X149350000Y-96500000D03*
D10*
X137400000Y-144750000D03*
D11*
X150100000Y-144750000D03*
D12*
X187750000Y-121000000D03*
D20*
X185210000Y-121000000D03*
D10*
X195850000Y-187750000D03*
D11*
X183150000Y-187750000D03*
D10*
X136650000Y-92500000D03*
D11*
X149350000Y-92500000D03*
D10*
X149500000Y-112000000D03*
D11*
X136800000Y-112000000D03*
D15*
X184750000Y-85250000D03*
D16*
X187290000Y-85250000D03*
X189830000Y-85250000D03*
D10*
X195834200Y-161648200D03*
D11*
X183134200Y-161648200D03*
D10*
X137150000Y-123000000D03*
D11*
X149850000Y-123000000D03*
D17*
X184000000Y-94500000D03*
D14*
X199000000Y-80000000D03*
D18*
X176550978Y-98750000D03*
D19*
X169350978Y-98750000D03*
D12*
X174850000Y-178750000D03*
D13*
X177390000Y-178750000D03*
D18*
X182850000Y-134500000D03*
D19*
X175650000Y-134500000D03*
D10*
X195500000Y-90750000D03*
D11*
X182800000Y-90750000D03*
D12*
X141460000Y-170750000D03*
D13*
X138920000Y-170750000D03*
D12*
X145725000Y-86000000D03*
D20*
X148265000Y-86000000D03*
D17*
X174500000Y-118750000D03*
D12*
X146250000Y-117500000D03*
D20*
X148790000Y-117500000D03*
D10*
X195500000Y-115500000D03*
D11*
X182800000Y-115500000D03*
D21*
X147250000Y-151250000D03*
D22*
X149790000Y-152520000D03*
X147250000Y-153790000D03*
X149790000Y-155060000D03*
X147250000Y-156330000D03*
X149790000Y-157600000D03*
X147250000Y-158870000D03*
X149790000Y-160140000D03*
D12*
X146710000Y-168750000D03*
D20*
X149250000Y-168750000D03*
D15*
X184665244Y-111794755D03*
D16*
X187205244Y-111794755D03*
X189745244Y-111794755D03*
D12*
X176748200Y-151898200D03*
D13*
X179288200Y-151898200D03*
D12*
X140750000Y-103750000D03*
D13*
X138210000Y-103750000D03*
D18*
X177100000Y-172250000D03*
D19*
X169900000Y-172250000D03*
D15*
X185694200Y-157593200D03*
D16*
X188234200Y-157593200D03*
X190774200Y-157593200D03*
D17*
X181378079Y-179083489D03*
D10*
X137000000Y-193250000D03*
D11*
X149700000Y-193250000D03*
D17*
X184950978Y-106750000D03*
D14*
X136000000Y-198000000D03*
D12*
X138955000Y-118750000D03*
D13*
X141495000Y-118750000D03*
D18*
X176600000Y-85750000D03*
D19*
X169400000Y-85750000D03*
D10*
X136860000Y-189250000D03*
D11*
X149560000Y-189250000D03*
D12*
X180705000Y-79250000D03*
D13*
X183245000Y-79250000D03*
D18*
X177248200Y-158502200D03*
D19*
X170048200Y-158502200D03*
D17*
X183100000Y-191500000D03*
D15*
X184700978Y-99500000D03*
D16*
X187240978Y-99500000D03*
X189780978Y-99500000D03*
D23*
X144250000Y-148750000D03*
X136672980Y-149000000D03*
D24*
X173525000Y-191475000D02*
X173525000Y-182459978D01*
X151981031Y-192564603D02*
X151981031Y-179771031D01*
X151981031Y-179771031D02*
X150960000Y-178750000D01*
X183378079Y-175433489D02*
X183278079Y-175333489D01*
X172750000Y-192250000D02*
X173525000Y-191475000D01*
X150960000Y-178750000D02*
X150160000Y-178750000D01*
X183278079Y-173183489D02*
X185128079Y-171333489D01*
X181378079Y-179083489D02*
X183378079Y-177083489D01*
X174484978Y-181500000D02*
X177547355Y-181500000D01*
X152166426Y-192749998D02*
X151981031Y-192564603D01*
X173525000Y-182459978D02*
X174484978Y-181500000D01*
X177547355Y-181500000D02*
X179963866Y-179083489D01*
X172272028Y-192750000D02*
X172814517Y-192207511D01*
X152227972Y-192750000D02*
X172272028Y-192750000D01*
X183378079Y-177083489D02*
X183378079Y-175433489D01*
X183278079Y-175333489D02*
X183278079Y-173183489D01*
X179963866Y-179083489D02*
X181378079Y-179083489D01*
X136672980Y-149000000D02*
X137692501Y-147980479D01*
X137692501Y-147980479D02*
X143480479Y-147980479D01*
X143480479Y-147980479D02*
X144250000Y-148750000D01*
D25*
X186852989Y-97300489D02*
X187240978Y-97688478D01*
X187240978Y-97688478D02*
X187240978Y-99500000D01*
X178000489Y-97300489D02*
X186852989Y-97300489D01*
X176550978Y-98750000D02*
X178000489Y-97300489D01*
X180216022Y-169133978D02*
X187428568Y-169133978D01*
X179190000Y-170160000D02*
X177100000Y-172250000D01*
X187428568Y-169133978D02*
X187668079Y-169373489D01*
X177100000Y-172250000D02*
X180216022Y-169133978D01*
X187668079Y-169373489D02*
X187668079Y-171333489D01*
X179190000Y-165750000D02*
X179190000Y-170160000D01*
X179404755Y-109595244D02*
X186700733Y-109595244D01*
X187205244Y-110099755D02*
X187205244Y-111794755D01*
X176595244Y-112404755D02*
X179404755Y-109595244D01*
X186700733Y-109595244D02*
X187205244Y-110099755D01*
X180899511Y-181300489D02*
X187752011Y-181300489D01*
X188140000Y-181688478D02*
X188140000Y-183500000D01*
X176950000Y-185250000D02*
X180899511Y-181300489D01*
X187752011Y-181300489D02*
X188140000Y-181688478D01*
X188234200Y-155781678D02*
X188234200Y-157593200D01*
X181979689Y-155393689D02*
X187846211Y-155393689D01*
X177248200Y-158502200D02*
X180356711Y-155393689D01*
X187846211Y-155393689D02*
X188234200Y-155781678D01*
X179288200Y-151898200D02*
X181979689Y-154589689D01*
X180356711Y-155393689D02*
X181979689Y-155393689D01*
X181979689Y-154589689D02*
X181979689Y-155393689D01*
D26*
X176600000Y-85750000D02*
X180750489Y-81599511D01*
X183245000Y-81409022D02*
X183245000Y-79250000D01*
X180750489Y-81599511D02*
X183054511Y-81599511D01*
X187290000Y-85250000D02*
X187290000Y-83295000D01*
X187290000Y-83295000D02*
X183245000Y-79250000D01*
X183054511Y-81599511D02*
X183245000Y-81409022D01*
D24*
X171474520Y-80224520D02*
X172593449Y-81343449D01*
X172593449Y-88250000D02*
X172493449Y-88350000D01*
X179550000Y-118750000D02*
X182800000Y-115500000D01*
X152571447Y-80821447D02*
X153168374Y-80224520D01*
X172500000Y-89277875D02*
X172500000Y-108715022D01*
X174500000Y-118750000D02*
X179550000Y-118750000D01*
X173487733Y-115512266D02*
X174130711Y-116155244D01*
X149950000Y-128000000D02*
X152571447Y-125378553D01*
X172493449Y-88350000D02*
X172493449Y-89271324D01*
X184665244Y-113634756D02*
X182800000Y-115500000D01*
X174130711Y-116155244D02*
X182144756Y-116155244D01*
X184665244Y-111794755D02*
X184665244Y-113634756D01*
X153168374Y-80224520D02*
X171474520Y-80224520D01*
X172500000Y-108715022D02*
X173487733Y-109702755D01*
X182144756Y-116155244D02*
X182800000Y-115500000D01*
X172493449Y-89271324D02*
X172500000Y-89277875D01*
X152571447Y-125378553D02*
X152571447Y-80821447D01*
X172593449Y-81343449D02*
X172593449Y-88250000D01*
X173487733Y-109702755D02*
X173487733Y-115512266D01*
X183100000Y-191500000D02*
X183100000Y-187800000D01*
X183100000Y-187800000D02*
X183150000Y-187750000D01*
X183150000Y-187750000D02*
X183150000Y-185950000D01*
X173000000Y-193250000D02*
X174750000Y-191500000D01*
X183150000Y-185950000D02*
X185600000Y-183500000D01*
X151960002Y-193250002D02*
X173021546Y-193250002D01*
X149560000Y-189250000D02*
X150250000Y-189250000D01*
X174750000Y-191500000D02*
X183100000Y-191500000D01*
X150250000Y-189250000D02*
X151481511Y-190481511D01*
X151481512Y-192771512D02*
X151960002Y-193250002D01*
X151481511Y-190481511D02*
X151481512Y-192771512D01*
X171933067Y-192250481D02*
X153187546Y-192250481D01*
X173025480Y-165624520D02*
X175397800Y-163252200D01*
X153187546Y-192250481D02*
X152679546Y-191742481D01*
X181602200Y-161648200D02*
X183134200Y-161648200D01*
X175397800Y-163252200D02*
X179998200Y-163252200D01*
X152679546Y-191742481D02*
X152679546Y-147329546D01*
X179998200Y-163252200D02*
X181602200Y-161648200D01*
X173025480Y-191224520D02*
X173025480Y-165624520D01*
X152679546Y-147329546D02*
X150100000Y-144750000D01*
X172000000Y-192250000D02*
X173025480Y-191224520D01*
D27*
X174885956Y-103250000D02*
X182750978Y-103250000D01*
X152096927Y-110653073D02*
X152096928Y-80624894D01*
X152971822Y-79750000D02*
X171671072Y-79750000D01*
X152096928Y-80624894D02*
X152971822Y-79750000D01*
X149500000Y-112000000D02*
X150750000Y-112000000D01*
X150750000Y-112000000D02*
X152096927Y-110653073D01*
X171671072Y-79750000D02*
X173067969Y-81146897D01*
X173067969Y-101432013D02*
X174885956Y-103250000D01*
X173067969Y-81146897D02*
X173067969Y-101432013D01*
X151647408Y-94202592D02*
X149350000Y-96500000D01*
X151647408Y-80438696D02*
X151647408Y-94202592D01*
X182800000Y-90750000D02*
X181800000Y-89750000D01*
X152785624Y-79300480D02*
X151647408Y-80438696D01*
X171927980Y-79300480D02*
X152785624Y-79300480D01*
X173517489Y-88832511D02*
X173517489Y-80889989D01*
X173517489Y-80889989D02*
X171927980Y-79300480D01*
X181800000Y-89750000D02*
X174434978Y-89750000D01*
X174434978Y-89750000D02*
X173517489Y-88832511D01*
G04 #@! TA.AperFunction,Conductor*
G36*
X171217691Y-80903022D02*
G01*
X171238665Y-80919925D01*
X171898044Y-81579304D01*
X171932070Y-81641616D01*
X171934949Y-81668399D01*
X171934949Y-87957963D01*
X171920342Y-88011353D01*
X171922144Y-88012133D01*
X171903795Y-88054535D01*
X171898573Y-88065195D01*
X171876325Y-88105663D01*
X171870990Y-88126441D01*
X171864591Y-88145131D01*
X171856069Y-88164824D01*
X171854829Y-88172655D01*
X171848843Y-88210448D01*
X171846436Y-88222071D01*
X171834949Y-88266812D01*
X171834949Y-88288259D01*
X171833398Y-88307969D01*
X171830043Y-88329152D01*
X171830789Y-88337043D01*
X171834390Y-88375138D01*
X171834949Y-88386996D01*
X171834949Y-89189268D01*
X171834390Y-89201124D01*
X171832661Y-89208861D01*
X171832910Y-89216783D01*
X171834887Y-89279693D01*
X171834949Y-89283651D01*
X171834949Y-89312756D01*
X171835505Y-89317156D01*
X171836437Y-89328988D01*
X171837887Y-89375155D01*
X171839996Y-89382413D01*
X171841500Y-89401532D01*
X171841500Y-108632966D01*
X171840941Y-108644822D01*
X171839212Y-108652559D01*
X171839461Y-108660481D01*
X171841438Y-108723391D01*
X171841500Y-108727349D01*
X171841500Y-108756454D01*
X171842056Y-108760854D01*
X171842988Y-108772686D01*
X171844438Y-108818853D01*
X171846650Y-108826466D01*
X171846650Y-108826467D01*
X171850419Y-108839438D01*
X171854430Y-108858804D01*
X171857118Y-108880086D01*
X171860034Y-108887451D01*
X171860035Y-108887455D01*
X171874126Y-108923043D01*
X171877965Y-108934253D01*
X171890855Y-108978622D01*
X171901775Y-108997087D01*
X171910466Y-109014827D01*
X171918365Y-109034778D01*
X171942293Y-109067712D01*
X171945516Y-109072148D01*
X171952033Y-109082070D01*
X171971507Y-109114999D01*
X171971510Y-109115003D01*
X171975547Y-109121829D01*
X171990711Y-109136993D01*
X172003551Y-109152026D01*
X172016159Y-109169379D01*
X172051752Y-109198824D01*
X172060532Y-109206814D01*
X172163959Y-109310241D01*
X172197985Y-109372553D01*
X172200863Y-109398939D01*
X172250000Y-125000000D01*
X178374000Y-125000000D01*
X178442121Y-125020002D01*
X178488614Y-125073658D01*
X178500000Y-125126000D01*
X178500000Y-146874000D01*
X178479998Y-146942121D01*
X178426342Y-146988614D01*
X178374002Y-147000000D01*
X173056271Y-146999981D01*
X172291700Y-146999978D01*
X172273584Y-146999978D01*
X172297756Y-164666442D01*
X172333693Y-190932685D01*
X172313784Y-191000833D01*
X172296788Y-191021952D01*
X171857467Y-191461273D01*
X171795155Y-191495299D01*
X171768265Y-191498178D01*
X153463935Y-191482263D01*
X153395833Y-191462202D01*
X153349387Y-191408506D01*
X153338046Y-191356263D01*
X153338046Y-147411605D01*
X153338605Y-147399749D01*
X153340335Y-147392009D01*
X153338108Y-147321157D01*
X153338046Y-147317199D01*
X153338046Y-147288114D01*
X153337492Y-147283725D01*
X153336559Y-147271883D01*
X153335357Y-147233640D01*
X153335108Y-147225715D01*
X153329126Y-147205125D01*
X153325116Y-147185762D01*
X153323421Y-147172342D01*
X153323421Y-147172341D01*
X153322428Y-147164482D01*
X153319512Y-147157117D01*
X153319511Y-147157113D01*
X153305420Y-147121525D01*
X153301581Y-147110315D01*
X153288691Y-147065946D01*
X153277771Y-147047481D01*
X153269080Y-147029741D01*
X153261181Y-147009790D01*
X153234028Y-146972417D01*
X153227513Y-146962498D01*
X153208039Y-146929569D01*
X153208036Y-146929565D01*
X153203999Y-146922739D01*
X153188835Y-146907575D01*
X153175994Y-146892541D01*
X153168047Y-146881603D01*
X153163387Y-146875189D01*
X153127793Y-146845743D01*
X153119014Y-146837754D01*
X152983658Y-146702398D01*
X152949632Y-146640086D01*
X152946753Y-146613558D01*
X152905121Y-126028584D01*
X152924986Y-125960423D01*
X152942026Y-125939234D01*
X152979052Y-125902208D01*
X152987832Y-125894218D01*
X152987834Y-125894216D01*
X152994527Y-125889969D01*
X153043052Y-125838295D01*
X153045806Y-125835454D01*
X153066374Y-125814886D01*
X153069094Y-125811379D01*
X153076800Y-125802357D01*
X153102991Y-125774466D01*
X153108419Y-125768686D01*
X153112241Y-125761734D01*
X153118750Y-125749895D01*
X153129604Y-125733371D01*
X153137892Y-125722685D01*
X153142751Y-125716421D01*
X153145899Y-125709147D01*
X153161101Y-125674018D01*
X153166323Y-125663358D01*
X153184752Y-125629837D01*
X153184753Y-125629835D01*
X153188571Y-125622890D01*
X153193906Y-125602112D01*
X153200305Y-125583422D01*
X153208827Y-125563729D01*
X153216053Y-125518105D01*
X153218460Y-125506482D01*
X153227975Y-125469421D01*
X153229947Y-125461741D01*
X153229947Y-125440294D01*
X153231498Y-125420584D01*
X153233613Y-125407230D01*
X153234853Y-125399401D01*
X153230506Y-125353412D01*
X153229947Y-125341557D01*
X153229947Y-81146398D01*
X153249949Y-81078277D01*
X153266851Y-81057303D01*
X153404228Y-80919925D01*
X153466540Y-80885900D01*
X153493324Y-80883020D01*
X171149570Y-80883020D01*
X171217691Y-80903022D01*
G37*
G04 #@! TD.AperFunction*
G04 #@! TA.AperFunction,Conductor*
G36*
X202683621Y-76632502D02*
G01*
X202730114Y-76686158D01*
X202741500Y-76738500D01*
X202741500Y-201015500D01*
X202721498Y-201083621D01*
X202667842Y-201130114D01*
X202615500Y-201141500D01*
X186336000Y-201141500D01*
X186267879Y-201121498D01*
X186221386Y-201067842D01*
X186210000Y-201015500D01*
X186210000Y-185134500D01*
X186230002Y-185066379D01*
X186283658Y-185019886D01*
X186336000Y-185008500D01*
X186600634Y-185008500D01*
X186662816Y-185001745D01*
X186799205Y-184950615D01*
X186915761Y-184863261D01*
X187003115Y-184746705D01*
X187006728Y-184737067D01*
X187007512Y-184736024D01*
X187010577Y-184730425D01*
X187011385Y-184730867D01*
X187049368Y-184680302D01*
X187115929Y-184655600D01*
X187185278Y-184670806D01*
X187204687Y-184683929D01*
X187269379Y-184737067D01*
X187276278Y-184742734D01*
X187280646Y-184745276D01*
X187471027Y-184856081D01*
X187486078Y-184864841D01*
X187490801Y-184866654D01*
X187707972Y-184950018D01*
X187707979Y-184950020D01*
X187712702Y-184951833D01*
X187743418Y-184958250D01*
X187759708Y-184962813D01*
X187765515Y-184964870D01*
X187828780Y-184976140D01*
X187832432Y-184976846D01*
X187950320Y-185001474D01*
X187955371Y-185001703D01*
X187955376Y-185001704D01*
X187964110Y-185002100D01*
X187969840Y-185002360D01*
X187986209Y-185004182D01*
X188002037Y-185007001D01*
X188030560Y-185007350D01*
X188095726Y-185008146D01*
X188099901Y-185008267D01*
X188187762Y-185012257D01*
X188187769Y-185012257D01*
X188192817Y-185012486D01*
X188209491Y-185010557D01*
X188225507Y-185009731D01*
X188232214Y-185009813D01*
X188237094Y-185009873D01*
X188237096Y-185009873D01*
X188242263Y-185009936D01*
X188324962Y-184997282D01*
X188329517Y-184996669D01*
X188433956Y-184984585D01*
X188457095Y-184978037D01*
X188472331Y-184974730D01*
X188479744Y-184973596D01*
X188522202Y-184959719D01*
X188526993Y-184958258D01*
X188667532Y-184918490D01*
X188672108Y-184916356D01*
X188672114Y-184916354D01*
X188882954Y-184818038D01*
X188882958Y-184818036D01*
X188887536Y-184815901D01*
X189088307Y-184679456D01*
X189264681Y-184512668D01*
X189267760Y-184508641D01*
X189409047Y-184323846D01*
X189409050Y-184323842D01*
X189412120Y-184319826D01*
X189526831Y-184105891D01*
X189605862Y-183876369D01*
X189647179Y-183637164D01*
X189648500Y-183608075D01*
X189648500Y-181712480D01*
X189648549Y-181708961D01*
X189651193Y-181614328D01*
X189651193Y-181614325D01*
X189651334Y-181609273D01*
X189640941Y-181531380D01*
X189640241Y-181524831D01*
X189634346Y-181451555D01*
X189634345Y-181451551D01*
X189633940Y-181446513D01*
X189626101Y-181414600D01*
X189623573Y-181401216D01*
X189619898Y-181373672D01*
X189619229Y-181368658D01*
X189617767Y-181363815D01*
X189596522Y-181293449D01*
X189594781Y-181287086D01*
X189577244Y-181215687D01*
X189576037Y-181210772D01*
X189563199Y-181180526D01*
X189558561Y-181167715D01*
X189550530Y-181141116D01*
X189549067Y-181136270D01*
X189546849Y-181131722D01*
X189546846Y-181131715D01*
X189514629Y-181065660D01*
X189511893Y-181059658D01*
X189483162Y-180991973D01*
X189481188Y-180987322D01*
X189463681Y-180959522D01*
X189457052Y-180947612D01*
X189442654Y-180918090D01*
X189397357Y-180853878D01*
X189393699Y-180848392D01*
X189354529Y-180786192D01*
X189354528Y-180786191D01*
X189351833Y-180781911D01*
X189348492Y-180778122D01*
X189348488Y-180778116D01*
X189330102Y-180757261D01*
X189321656Y-180746566D01*
X189305009Y-180722968D01*
X189302726Y-180719731D01*
X189283091Y-180698228D01*
X189243375Y-180658512D01*
X189237956Y-180652742D01*
X189194650Y-180603620D01*
X189194647Y-180603617D01*
X189191302Y-180599823D01*
X189159011Y-180573299D01*
X189149892Y-180565029D01*
X188835686Y-180250823D01*
X188833232Y-180248301D01*
X188768149Y-180179477D01*
X188768146Y-180179475D01*
X188764679Y-180175808D01*
X188702250Y-180128078D01*
X188697119Y-180123937D01*
X188641144Y-180076298D01*
X188641143Y-180076297D01*
X188637291Y-180073019D01*
X188632966Y-180070400D01*
X188632961Y-180070396D01*
X188609187Y-180055998D01*
X188597940Y-180048326D01*
X188571837Y-180028369D01*
X188502603Y-179991246D01*
X188496879Y-179987982D01*
X188429653Y-179947268D01*
X188399192Y-179934961D01*
X188386852Y-179929181D01*
X188362361Y-179916049D01*
X188362362Y-179916049D01*
X188357902Y-179913658D01*
X188353121Y-179912012D01*
X188353117Y-179912010D01*
X188283610Y-179888077D01*
X188277432Y-179885767D01*
X188209277Y-179858231D01*
X188209278Y-179858231D01*
X188204582Y-179856334D01*
X188172550Y-179849057D01*
X188159452Y-179845326D01*
X188128380Y-179834627D01*
X188050911Y-179821246D01*
X188044507Y-179819966D01*
X187967867Y-179802554D01*
X187935058Y-179800490D01*
X187921558Y-179798904D01*
X187889175Y-179793310D01*
X187885218Y-179793130D01*
X187885215Y-179793130D01*
X187861505Y-179792053D01*
X187861486Y-179792053D01*
X187860086Y-179791989D01*
X187803903Y-179791989D01*
X187795991Y-179791740D01*
X187790397Y-179791388D01*
X187725598Y-179787311D01*
X187686556Y-179791139D01*
X187684019Y-179791388D01*
X187671723Y-179791989D01*
X186336000Y-179791989D01*
X186267879Y-179771987D01*
X186221386Y-179718331D01*
X186210000Y-179665989D01*
X186210000Y-172915400D01*
X186230002Y-172847279D01*
X186283658Y-172800786D01*
X186291769Y-172797418D01*
X186302975Y-172793217D01*
X186327284Y-172784104D01*
X186443840Y-172696750D01*
X186531194Y-172580194D01*
X186534807Y-172570556D01*
X186535591Y-172569513D01*
X186538656Y-172563914D01*
X186539464Y-172564356D01*
X186577447Y-172513791D01*
X186644008Y-172489089D01*
X186713357Y-172504295D01*
X186732766Y-172517418D01*
X186797458Y-172570556D01*
X186804357Y-172576223D01*
X186808725Y-172578765D01*
X186999106Y-172689570D01*
X187014157Y-172698330D01*
X187018880Y-172700143D01*
X187236051Y-172783507D01*
X187236058Y-172783509D01*
X187240781Y-172785322D01*
X187271497Y-172791739D01*
X187287787Y-172796302D01*
X187293594Y-172798359D01*
X187356859Y-172809629D01*
X187360511Y-172810335D01*
X187478399Y-172834963D01*
X187483450Y-172835192D01*
X187483455Y-172835193D01*
X187492189Y-172835589D01*
X187497919Y-172835849D01*
X187514288Y-172837671D01*
X187530116Y-172840490D01*
X187558639Y-172840839D01*
X187623805Y-172841635D01*
X187627980Y-172841756D01*
X187715841Y-172845746D01*
X187715848Y-172845746D01*
X187720896Y-172845975D01*
X187737570Y-172844046D01*
X187753586Y-172843220D01*
X187760293Y-172843302D01*
X187765173Y-172843362D01*
X187765175Y-172843362D01*
X187770342Y-172843425D01*
X187853041Y-172830771D01*
X187857596Y-172830158D01*
X187962035Y-172818074D01*
X187985174Y-172811526D01*
X188000410Y-172808219D01*
X188007823Y-172807085D01*
X188050281Y-172793208D01*
X188055072Y-172791747D01*
X188195611Y-172751979D01*
X188200187Y-172749845D01*
X188200193Y-172749843D01*
X188411033Y-172651527D01*
X188411037Y-172651525D01*
X188415615Y-172649390D01*
X188616386Y-172512945D01*
X188792760Y-172346157D01*
X188795839Y-172342130D01*
X188937126Y-172157335D01*
X188937129Y-172157331D01*
X188940199Y-172153315D01*
X189054910Y-171939380D01*
X189133941Y-171709858D01*
X189175258Y-171470653D01*
X189176579Y-171441564D01*
X189176579Y-169397505D01*
X189176628Y-169393987D01*
X189179272Y-169299339D01*
X189179272Y-169299336D01*
X189179413Y-169294284D01*
X189169020Y-169216391D01*
X189168320Y-169209842D01*
X189162425Y-169136566D01*
X189162424Y-169136562D01*
X189162019Y-169131524D01*
X189154180Y-169099611D01*
X189151652Y-169086227D01*
X189147977Y-169058683D01*
X189147308Y-169053669D01*
X189128162Y-168990255D01*
X189124601Y-168978460D01*
X189122860Y-168972097D01*
X189105323Y-168900698D01*
X189104116Y-168895783D01*
X189091278Y-168865537D01*
X189086640Y-168852726D01*
X189078609Y-168826127D01*
X189077146Y-168821281D01*
X189074928Y-168816733D01*
X189074925Y-168816726D01*
X189042708Y-168750671D01*
X189039972Y-168744669D01*
X189011241Y-168676984D01*
X189009267Y-168672333D01*
X188991760Y-168644533D01*
X188985131Y-168632623D01*
X188970733Y-168603101D01*
X188925436Y-168538889D01*
X188921778Y-168533403D01*
X188882608Y-168471203D01*
X188882607Y-168471202D01*
X188879912Y-168466922D01*
X188876571Y-168463133D01*
X188876567Y-168463127D01*
X188858181Y-168442272D01*
X188849735Y-168431577D01*
X188833088Y-168407979D01*
X188830805Y-168404742D01*
X188811170Y-168383239D01*
X188771454Y-168343523D01*
X188766035Y-168337753D01*
X188722729Y-168288631D01*
X188722726Y-168288628D01*
X188719381Y-168284834D01*
X188687090Y-168258310D01*
X188677971Y-168250040D01*
X188512243Y-168084312D01*
X188509789Y-168081790D01*
X188444706Y-168012966D01*
X188444703Y-168012964D01*
X188441236Y-168009297D01*
X188378807Y-167961567D01*
X188373676Y-167957426D01*
X188317701Y-167909787D01*
X188317700Y-167909786D01*
X188313848Y-167906508D01*
X188309523Y-167903889D01*
X188309518Y-167903885D01*
X188285744Y-167889487D01*
X188274497Y-167881815D01*
X188248394Y-167861858D01*
X188179160Y-167824735D01*
X188173436Y-167821471D01*
X188110534Y-167783376D01*
X188106210Y-167780757D01*
X188075749Y-167768450D01*
X188063409Y-167762670D01*
X188038918Y-167749538D01*
X188038919Y-167749538D01*
X188034459Y-167747147D01*
X188029678Y-167745501D01*
X188029674Y-167745499D01*
X187960167Y-167721566D01*
X187953989Y-167719256D01*
X187885834Y-167691720D01*
X187885835Y-167691720D01*
X187881139Y-167689823D01*
X187849107Y-167682546D01*
X187836009Y-167678815D01*
X187804937Y-167668116D01*
X187727468Y-167654735D01*
X187721064Y-167653455D01*
X187644424Y-167636043D01*
X187611615Y-167633979D01*
X187598115Y-167632393D01*
X187565732Y-167626799D01*
X187561775Y-167626619D01*
X187561772Y-167626619D01*
X187538062Y-167625542D01*
X187538043Y-167625542D01*
X187536643Y-167625478D01*
X187480460Y-167625478D01*
X187472548Y-167625229D01*
X187466954Y-167624877D01*
X187402155Y-167620800D01*
X187363113Y-167624628D01*
X187360576Y-167624877D01*
X187348280Y-167625478D01*
X186336000Y-167625478D01*
X186267879Y-167605476D01*
X186221386Y-167551820D01*
X186210000Y-167499478D01*
X186210000Y-159227700D01*
X186230002Y-159159579D01*
X186283658Y-159113086D01*
X186336000Y-159101700D01*
X186694834Y-159101700D01*
X186757016Y-159094945D01*
X186893405Y-159043815D01*
X187009961Y-158956461D01*
X187097315Y-158839905D01*
X187100928Y-158830267D01*
X187101712Y-158829224D01*
X187104777Y-158823625D01*
X187105585Y-158824067D01*
X187143568Y-158773502D01*
X187210129Y-158748800D01*
X187279478Y-158764006D01*
X187298887Y-158777129D01*
X187363579Y-158830267D01*
X187370478Y-158835934D01*
X187374846Y-158838476D01*
X187565227Y-158949281D01*
X187580278Y-158958041D01*
X187585001Y-158959854D01*
X187802172Y-159043218D01*
X187802179Y-159043220D01*
X187806902Y-159045033D01*
X187837618Y-159051450D01*
X187853908Y-159056013D01*
X187859715Y-159058070D01*
X187922980Y-159069340D01*
X187926632Y-159070046D01*
X188044520Y-159094674D01*
X188049571Y-159094903D01*
X188049576Y-159094904D01*
X188058310Y-159095300D01*
X188064040Y-159095560D01*
X188080409Y-159097382D01*
X188096237Y-159100201D01*
X188124760Y-159100550D01*
X188189926Y-159101346D01*
X188194101Y-159101467D01*
X188281962Y-159105457D01*
X188281969Y-159105457D01*
X188287017Y-159105686D01*
X188303691Y-159103757D01*
X188319707Y-159102931D01*
X188326414Y-159103013D01*
X188331294Y-159103073D01*
X188331296Y-159103073D01*
X188336463Y-159103136D01*
X188419162Y-159090482D01*
X188423717Y-159089869D01*
X188528156Y-159077785D01*
X188551295Y-159071237D01*
X188566531Y-159067930D01*
X188573944Y-159066796D01*
X188616402Y-159052919D01*
X188621193Y-159051458D01*
X188761732Y-159011690D01*
X188766308Y-159009556D01*
X188766314Y-159009554D01*
X188977154Y-158911238D01*
X188977158Y-158911236D01*
X188981736Y-158909101D01*
X189182507Y-158772656D01*
X189358881Y-158605868D01*
X189361960Y-158601841D01*
X189503247Y-158417046D01*
X189503250Y-158417042D01*
X189506320Y-158413026D01*
X189621031Y-158199091D01*
X189700062Y-157969569D01*
X189741379Y-157730364D01*
X189742700Y-157701275D01*
X189742700Y-155805680D01*
X189742749Y-155802161D01*
X189745393Y-155707528D01*
X189745393Y-155707525D01*
X189745534Y-155702473D01*
X189735141Y-155624580D01*
X189734441Y-155618031D01*
X189728546Y-155544755D01*
X189728545Y-155544751D01*
X189728140Y-155539713D01*
X189720301Y-155507800D01*
X189717773Y-155494416D01*
X189714098Y-155466872D01*
X189713429Y-155461858D01*
X189690722Y-155386649D01*
X189688981Y-155380286D01*
X189671444Y-155308887D01*
X189670237Y-155303972D01*
X189657399Y-155273726D01*
X189652761Y-155260915D01*
X189643267Y-155229470D01*
X189641049Y-155224922D01*
X189641046Y-155224915D01*
X189608829Y-155158860D01*
X189606093Y-155152858D01*
X189577362Y-155085173D01*
X189575388Y-155080522D01*
X189557881Y-155052722D01*
X189551252Y-155040812D01*
X189536854Y-155011290D01*
X189491557Y-154947078D01*
X189487899Y-154941592D01*
X189448729Y-154879392D01*
X189448728Y-154879391D01*
X189446033Y-154875111D01*
X189442692Y-154871322D01*
X189442688Y-154871316D01*
X189424302Y-154850461D01*
X189415856Y-154839766D01*
X189399209Y-154816168D01*
X189396926Y-154812931D01*
X189377291Y-154791428D01*
X189337575Y-154751712D01*
X189332156Y-154745942D01*
X189288850Y-154696820D01*
X189288847Y-154696817D01*
X189285502Y-154693023D01*
X189253211Y-154666499D01*
X189244092Y-154658229D01*
X188929886Y-154344023D01*
X188927432Y-154341501D01*
X188862349Y-154272677D01*
X188862346Y-154272675D01*
X188858879Y-154269008D01*
X188796450Y-154221278D01*
X188791319Y-154217137D01*
X188735344Y-154169498D01*
X188735343Y-154169497D01*
X188731491Y-154166219D01*
X188727166Y-154163600D01*
X188727161Y-154163596D01*
X188703387Y-154149198D01*
X188692140Y-154141526D01*
X188666037Y-154121569D01*
X188596803Y-154084446D01*
X188591079Y-154081182D01*
X188528177Y-154043087D01*
X188523853Y-154040468D01*
X188493392Y-154028161D01*
X188481052Y-154022381D01*
X188456561Y-154009249D01*
X188456562Y-154009249D01*
X188452102Y-154006858D01*
X188447321Y-154005212D01*
X188447317Y-154005210D01*
X188377810Y-153981277D01*
X188371632Y-153978967D01*
X188303477Y-153951431D01*
X188303478Y-153951431D01*
X188298782Y-153949534D01*
X188266750Y-153942257D01*
X188253652Y-153938526D01*
X188222580Y-153927827D01*
X188145111Y-153914446D01*
X188138707Y-153913166D01*
X188062067Y-153895754D01*
X188029258Y-153893690D01*
X188015758Y-153892104D01*
X187983375Y-153886510D01*
X187979418Y-153886330D01*
X187979415Y-153886330D01*
X187955705Y-153885253D01*
X187955686Y-153885253D01*
X187954286Y-153885189D01*
X187898103Y-153885189D01*
X187890191Y-153884940D01*
X187884597Y-153884588D01*
X187819798Y-153880511D01*
X187780756Y-153884339D01*
X187778219Y-153884588D01*
X187765923Y-153885189D01*
X186336000Y-153885189D01*
X186267879Y-153865187D01*
X186221386Y-153811531D01*
X186210000Y-153759189D01*
X186210000Y-147000000D01*
X179626000Y-147000000D01*
X179557879Y-146979998D01*
X179511386Y-146926342D01*
X179500000Y-146874000D01*
X179500000Y-125126000D01*
X179520002Y-125057879D01*
X179573658Y-125011386D01*
X179626000Y-125000000D01*
X186210000Y-125000000D01*
X186210000Y-122044362D01*
X186230002Y-121976241D01*
X186247060Y-121955111D01*
X186282642Y-121919653D01*
X186286303Y-121916005D01*
X186421458Y-121727917D01*
X186524078Y-121520280D01*
X186591408Y-121298671D01*
X186621640Y-121069041D01*
X186623327Y-121000000D01*
X186617032Y-120923434D01*
X186604773Y-120774318D01*
X186604772Y-120774312D01*
X186604349Y-120769167D01*
X186547925Y-120544533D01*
X186455570Y-120332131D01*
X186329764Y-120137665D01*
X186326290Y-120133847D01*
X186326283Y-120133838D01*
X186242806Y-120042098D01*
X186211754Y-119978252D01*
X186210000Y-119957299D01*
X186210000Y-113180063D01*
X186230002Y-113111942D01*
X186283658Y-113065449D01*
X186353932Y-113055345D01*
X186399381Y-113071164D01*
X186470907Y-113112793D01*
X186551322Y-113159596D01*
X186556045Y-113161409D01*
X186773216Y-113244773D01*
X186773223Y-113244775D01*
X186777946Y-113246588D01*
X186808662Y-113253005D01*
X186824952Y-113257568D01*
X186830759Y-113259625D01*
X186894024Y-113270895D01*
X186897676Y-113271601D01*
X187015564Y-113296229D01*
X187020615Y-113296458D01*
X187020620Y-113296459D01*
X187029354Y-113296855D01*
X187035084Y-113297115D01*
X187051453Y-113298937D01*
X187067281Y-113301756D01*
X187095804Y-113302105D01*
X187160970Y-113302901D01*
X187165145Y-113303022D01*
X187253006Y-113307012D01*
X187253013Y-113307012D01*
X187258061Y-113307241D01*
X187274735Y-113305312D01*
X187290751Y-113304486D01*
X187297458Y-113304568D01*
X187302338Y-113304628D01*
X187302340Y-113304628D01*
X187307507Y-113304691D01*
X187390206Y-113292037D01*
X187394761Y-113291424D01*
X187499200Y-113279340D01*
X187522339Y-113272792D01*
X187537575Y-113269485D01*
X187544988Y-113268351D01*
X187587446Y-113254474D01*
X187592237Y-113253013D01*
X187732776Y-113213245D01*
X187737352Y-113211111D01*
X187737358Y-113211109D01*
X187948198Y-113112793D01*
X187948202Y-113112791D01*
X187952780Y-113110656D01*
X188153551Y-112974211D01*
X188329925Y-112807423D01*
X188333004Y-112803396D01*
X188474291Y-112618601D01*
X188474294Y-112618597D01*
X188477364Y-112614581D01*
X188592075Y-112400646D01*
X188671106Y-112171124D01*
X188712423Y-111931919D01*
X188713744Y-111902830D01*
X188713744Y-110123757D01*
X188713793Y-110120238D01*
X188716437Y-110025605D01*
X188716437Y-110025602D01*
X188716578Y-110020550D01*
X188706185Y-109942657D01*
X188705485Y-109936108D01*
X188699590Y-109862832D01*
X188699589Y-109862828D01*
X188699184Y-109857790D01*
X188691345Y-109825877D01*
X188688817Y-109812493D01*
X188685142Y-109784949D01*
X188684473Y-109779935D01*
X188661766Y-109704726D01*
X188660025Y-109698363D01*
X188642488Y-109626964D01*
X188641281Y-109622049D01*
X188628443Y-109591803D01*
X188623805Y-109578992D01*
X188615774Y-109552393D01*
X188614311Y-109547547D01*
X188612093Y-109542999D01*
X188612090Y-109542992D01*
X188579873Y-109476937D01*
X188577137Y-109470935D01*
X188548406Y-109403250D01*
X188546432Y-109398599D01*
X188528925Y-109370799D01*
X188522296Y-109358889D01*
X188507898Y-109329367D01*
X188462601Y-109265155D01*
X188458943Y-109259669D01*
X188419773Y-109197469D01*
X188419772Y-109197468D01*
X188417077Y-109193188D01*
X188413736Y-109189399D01*
X188413732Y-109189393D01*
X188395346Y-109168538D01*
X188386900Y-109157843D01*
X188370253Y-109134245D01*
X188367970Y-109131008D01*
X188348335Y-109109505D01*
X188308619Y-109069789D01*
X188303200Y-109064019D01*
X188259894Y-109014897D01*
X188259891Y-109014894D01*
X188256546Y-109011100D01*
X188224255Y-108984576D01*
X188215136Y-108976306D01*
X187784408Y-108545578D01*
X187781954Y-108543056D01*
X187716871Y-108474232D01*
X187716868Y-108474230D01*
X187713401Y-108470563D01*
X187650972Y-108422833D01*
X187645841Y-108418692D01*
X187589866Y-108371053D01*
X187589865Y-108371052D01*
X187586013Y-108367774D01*
X187581688Y-108365155D01*
X187581683Y-108365151D01*
X187557909Y-108350753D01*
X187546662Y-108343081D01*
X187520559Y-108323124D01*
X187451325Y-108286001D01*
X187445601Y-108282737D01*
X187433151Y-108275197D01*
X187378375Y-108242023D01*
X187347914Y-108229716D01*
X187335574Y-108223936D01*
X187311083Y-108210804D01*
X187311084Y-108210804D01*
X187306624Y-108208413D01*
X187301843Y-108206767D01*
X187301839Y-108206765D01*
X187232332Y-108182832D01*
X187226154Y-108180522D01*
X187157999Y-108152986D01*
X187158000Y-108152986D01*
X187153304Y-108151089D01*
X187121272Y-108143812D01*
X187108174Y-108140081D01*
X187077102Y-108129382D01*
X186999633Y-108116001D01*
X186993229Y-108114721D01*
X186916589Y-108097309D01*
X186883780Y-108095245D01*
X186870280Y-108093659D01*
X186837897Y-108088065D01*
X186833940Y-108087885D01*
X186833937Y-108087885D01*
X186810227Y-108086808D01*
X186810208Y-108086808D01*
X186808808Y-108086744D01*
X186752625Y-108086744D01*
X186744713Y-108086495D01*
X186739119Y-108086143D01*
X186674320Y-108082066D01*
X186635278Y-108085894D01*
X186632741Y-108086143D01*
X186620445Y-108086744D01*
X186336000Y-108086744D01*
X186267879Y-108066742D01*
X186221386Y-108013086D01*
X186210000Y-107960744D01*
X186210000Y-107618090D01*
X186228567Y-107552255D01*
X186296632Y-107441183D01*
X186299218Y-107436963D01*
X186390083Y-107217594D01*
X186445513Y-106986711D01*
X186464143Y-106750000D01*
X186445513Y-106513289D01*
X186390083Y-106282406D01*
X186299218Y-106063037D01*
X186228567Y-105947745D01*
X186210000Y-105881910D01*
X186210000Y-100864510D01*
X186230002Y-100796389D01*
X186283658Y-100749896D01*
X186353932Y-100739792D01*
X186399381Y-100755612D01*
X186582678Y-100862294D01*
X186582688Y-100862299D01*
X186587056Y-100864841D01*
X186591779Y-100866654D01*
X186808950Y-100950018D01*
X186808957Y-100950020D01*
X186813680Y-100951833D01*
X186844396Y-100958250D01*
X186860686Y-100962813D01*
X186866493Y-100964870D01*
X186929758Y-100976140D01*
X186933410Y-100976846D01*
X187051298Y-101001474D01*
X187056349Y-101001703D01*
X187056354Y-101001704D01*
X187065088Y-101002100D01*
X187070818Y-101002360D01*
X187087187Y-101004182D01*
X187103015Y-101007001D01*
X187131538Y-101007350D01*
X187196704Y-101008146D01*
X187200879Y-101008267D01*
X187288740Y-101012257D01*
X187288747Y-101012257D01*
X187293795Y-101012486D01*
X187310469Y-101010557D01*
X187326485Y-101009731D01*
X187333192Y-101009813D01*
X187338072Y-101009873D01*
X187338074Y-101009873D01*
X187343241Y-101009936D01*
X187425940Y-100997282D01*
X187430495Y-100996669D01*
X187534934Y-100984585D01*
X187558073Y-100978037D01*
X187573309Y-100974730D01*
X187580722Y-100973596D01*
X187623180Y-100959719D01*
X187627971Y-100958258D01*
X187768510Y-100918490D01*
X187773086Y-100916356D01*
X187773092Y-100916354D01*
X187983932Y-100818038D01*
X187983936Y-100818036D01*
X187988514Y-100815901D01*
X188189285Y-100679456D01*
X188365659Y-100512668D01*
X188368738Y-100508641D01*
X188510025Y-100323846D01*
X188510028Y-100323842D01*
X188513098Y-100319826D01*
X188627809Y-100105891D01*
X188706840Y-99876369D01*
X188748157Y-99637164D01*
X188749478Y-99608075D01*
X188749478Y-97712480D01*
X188749527Y-97708961D01*
X188752171Y-97614328D01*
X188752171Y-97614325D01*
X188752312Y-97609273D01*
X188741919Y-97531380D01*
X188741219Y-97524831D01*
X188735324Y-97451555D01*
X188735323Y-97451551D01*
X188734918Y-97446513D01*
X188727079Y-97414600D01*
X188724551Y-97401216D01*
X188720876Y-97373672D01*
X188720207Y-97368658D01*
X188697500Y-97293449D01*
X188695759Y-97287086D01*
X188678222Y-97215687D01*
X188677015Y-97210772D01*
X188664177Y-97180526D01*
X188659539Y-97167715D01*
X188651508Y-97141116D01*
X188650045Y-97136270D01*
X188647827Y-97131722D01*
X188647824Y-97131715D01*
X188615607Y-97065660D01*
X188612871Y-97059658D01*
X188584140Y-96991973D01*
X188582166Y-96987322D01*
X188564659Y-96959522D01*
X188558030Y-96947612D01*
X188543632Y-96918090D01*
X188498335Y-96853878D01*
X188494677Y-96848392D01*
X188455507Y-96786192D01*
X188455506Y-96786191D01*
X188452811Y-96781911D01*
X188449470Y-96778122D01*
X188449466Y-96778116D01*
X188431080Y-96757261D01*
X188422634Y-96746566D01*
X188405987Y-96722968D01*
X188403704Y-96719731D01*
X188384069Y-96698228D01*
X188344353Y-96658512D01*
X188338934Y-96652742D01*
X188295628Y-96603620D01*
X188295625Y-96603617D01*
X188292280Y-96599823D01*
X188259989Y-96573299D01*
X188250870Y-96565029D01*
X187936664Y-96250823D01*
X187934210Y-96248301D01*
X187869127Y-96179477D01*
X187869124Y-96179475D01*
X187865657Y-96175808D01*
X187803228Y-96128078D01*
X187798097Y-96123937D01*
X187742122Y-96076298D01*
X187742121Y-96076297D01*
X187738269Y-96073019D01*
X187733944Y-96070400D01*
X187733939Y-96070396D01*
X187710165Y-96055998D01*
X187698918Y-96048326D01*
X187672815Y-96028369D01*
X187603581Y-95991246D01*
X187597857Y-95987982D01*
X187534955Y-95949887D01*
X187530631Y-95947268D01*
X187500170Y-95934961D01*
X187487830Y-95929181D01*
X187463339Y-95916049D01*
X187463340Y-95916049D01*
X187458880Y-95913658D01*
X187454099Y-95912012D01*
X187454095Y-95912010D01*
X187384588Y-95888077D01*
X187378410Y-95885767D01*
X187310255Y-95858231D01*
X187310256Y-95858231D01*
X187305560Y-95856334D01*
X187273528Y-95849057D01*
X187260430Y-95845326D01*
X187229358Y-95834627D01*
X187151889Y-95821246D01*
X187145485Y-95819966D01*
X187068845Y-95802554D01*
X187036036Y-95800490D01*
X187022536Y-95798904D01*
X186990153Y-95793310D01*
X186986196Y-95793130D01*
X186986193Y-95793130D01*
X186962483Y-95792053D01*
X186962464Y-95792053D01*
X186961064Y-95791989D01*
X186904881Y-95791989D01*
X186896969Y-95791740D01*
X186891375Y-95791388D01*
X186826576Y-95787311D01*
X186787534Y-95791139D01*
X186784997Y-95791388D01*
X186772701Y-95791989D01*
X186336000Y-95791989D01*
X186267879Y-95771987D01*
X186221386Y-95718331D01*
X186210000Y-95665989D01*
X186210000Y-86880508D01*
X186230002Y-86812387D01*
X186283658Y-86765894D01*
X186353932Y-86755790D01*
X186394664Y-86770087D01*
X186394991Y-86769424D01*
X186625219Y-86882960D01*
X186625222Y-86882961D01*
X186629407Y-86885025D01*
X186633850Y-86886447D01*
X186633852Y-86886448D01*
X186873877Y-86963280D01*
X186878335Y-86964707D01*
X187136307Y-87006721D01*
X187250058Y-87008210D01*
X187392978Y-87010081D01*
X187392981Y-87010081D01*
X187397655Y-87010142D01*
X187656638Y-86974896D01*
X187907567Y-86901757D01*
X187943862Y-86885025D01*
X188101425Y-86812387D01*
X188144928Y-86792332D01*
X188200664Y-86755790D01*
X188359596Y-86651590D01*
X188359601Y-86651586D01*
X188363509Y-86649024D01*
X188558506Y-86474982D01*
X188725637Y-86274030D01*
X188861229Y-86050581D01*
X188962303Y-85809545D01*
X189026641Y-85556217D01*
X189048500Y-85339133D01*
X189048500Y-83349897D01*
X189048703Y-83342754D01*
X189052897Y-83268900D01*
X189052897Y-83268893D01*
X189053162Y-83264224D01*
X189042712Y-83150497D01*
X189042530Y-83148319D01*
X189036076Y-83061462D01*
X189034061Y-83034348D01*
X189032483Y-83027376D01*
X189029903Y-83011089D01*
X189029247Y-83003950D01*
X189002086Y-82892949D01*
X189001582Y-82890810D01*
X188994134Y-82857898D01*
X188976377Y-82779423D01*
X188974686Y-82775074D01*
X188974683Y-82775065D01*
X188973782Y-82772749D01*
X188968828Y-82757036D01*
X188968238Y-82754625D01*
X188968236Y-82754620D01*
X188967123Y-82750070D01*
X188965170Y-82745295D01*
X188923859Y-82644317D01*
X188923044Y-82642275D01*
X188883342Y-82540181D01*
X188883341Y-82540178D01*
X188881647Y-82535823D01*
X188878090Y-82529599D01*
X188870869Y-82514794D01*
X188868155Y-82508161D01*
X188857502Y-82490255D01*
X188809752Y-82409992D01*
X188808645Y-82408094D01*
X188754270Y-82312959D01*
X188754269Y-82312957D01*
X188751951Y-82308902D01*
X188747513Y-82303272D01*
X188738183Y-82289697D01*
X188736912Y-82287561D01*
X188734519Y-82283538D01*
X188662149Y-82194961D01*
X188660937Y-82193452D01*
X188590138Y-82103643D01*
X188513948Y-82031971D01*
X188511186Y-82029291D01*
X186246905Y-79765010D01*
X186212879Y-79702698D01*
X186210000Y-79675915D01*
X186210000Y-76612500D01*
X202615500Y-76612500D01*
X202683621Y-76632502D01*
G37*
G04 #@! TD.AperFunction*
G04 #@! TA.AperFunction,Conductor*
G36*
X202683621Y-76632502D02*
G01*
X202730114Y-76686158D01*
X202741500Y-76738500D01*
X202741500Y-78970000D01*
X185504085Y-78970000D01*
X185435964Y-78949998D01*
X185414990Y-78933095D01*
X184567530Y-78085635D01*
X184557675Y-78074546D01*
X184548030Y-78062311D01*
X184548027Y-78062308D01*
X184545138Y-78058643D01*
X184468948Y-77986971D01*
X184466186Y-77984291D01*
X184441528Y-77959633D01*
X184424070Y-77944591D01*
X184419996Y-77940922D01*
X184354763Y-77879557D01*
X184328537Y-77861364D01*
X184318113Y-77853293D01*
X184293929Y-77832454D01*
X184218183Y-77784662D01*
X184213598Y-77781627D01*
X184143852Y-77733242D01*
X184140009Y-77730576D01*
X184135822Y-77728511D01*
X184135813Y-77728506D01*
X184111380Y-77716458D01*
X184099868Y-77710011D01*
X184076835Y-77695478D01*
X184072881Y-77692983D01*
X184021029Y-77670167D01*
X183990899Y-77656909D01*
X183985919Y-77654586D01*
X183909790Y-77617044D01*
X183909782Y-77617041D01*
X183905593Y-77614975D01*
X183875200Y-77605246D01*
X183862866Y-77600573D01*
X183837929Y-77589601D01*
X183837928Y-77589601D01*
X183833645Y-77587716D01*
X183747230Y-77564157D01*
X183741973Y-77562600D01*
X183656665Y-77535293D01*
X183641256Y-77532784D01*
X183625165Y-77530163D01*
X183612276Y-77527364D01*
X183594235Y-77522446D01*
X183581479Y-77518968D01*
X183576850Y-77518420D01*
X183576834Y-77518417D01*
X183492534Y-77508439D01*
X183487092Y-77507675D01*
X183403307Y-77494030D01*
X183403301Y-77494029D01*
X183398693Y-77493279D01*
X183385887Y-77493111D01*
X183366783Y-77492861D01*
X183353624Y-77491999D01*
X183326559Y-77488796D01*
X183326558Y-77488796D01*
X183321920Y-77488247D01*
X183248574Y-77490488D01*
X183232404Y-77490982D01*
X183226907Y-77491030D01*
X183142022Y-77489919D01*
X183142019Y-77489919D01*
X183137345Y-77489858D01*
X183132717Y-77490488D01*
X183132715Y-77490488D01*
X183128469Y-77491066D01*
X183105703Y-77494165D01*
X183092567Y-77495256D01*
X183071434Y-77495901D01*
X183065350Y-77496087D01*
X183065349Y-77496087D01*
X183060671Y-77496230D01*
X183056065Y-77497063D01*
X183056064Y-77497063D01*
X182972550Y-77512164D01*
X182967122Y-77513024D01*
X182882997Y-77524473D01*
X182882994Y-77524474D01*
X182878362Y-77525104D01*
X182873873Y-77526412D01*
X182873870Y-77526413D01*
X182847712Y-77534037D01*
X182834878Y-77537059D01*
X182803472Y-77542738D01*
X182740368Y-77564159D01*
X182718665Y-77571526D01*
X182713421Y-77573179D01*
X182627433Y-77598243D01*
X182598432Y-77611612D01*
X182586202Y-77616491D01*
X182560405Y-77625248D01*
X182560399Y-77625250D01*
X182555973Y-77626753D01*
X182551816Y-77628894D01*
X182476359Y-77667757D01*
X182471418Y-77670167D01*
X182390072Y-77707668D01*
X182386165Y-77710230D01*
X182386157Y-77710234D01*
X182363373Y-77725172D01*
X182351980Y-77731816D01*
X182327767Y-77744286D01*
X182327756Y-77744293D01*
X182323610Y-77746428D01*
X182319824Y-77749154D01*
X182319820Y-77749156D01*
X182250918Y-77798758D01*
X182246388Y-77801871D01*
X182195085Y-77835507D01*
X182171491Y-77850976D01*
X182168005Y-77854087D01*
X182167999Y-77854092D01*
X182147679Y-77872228D01*
X182137394Y-77880483D01*
X182115516Y-77896233D01*
X182111488Y-77899133D01*
X182093881Y-77916285D01*
X182075603Y-77934090D01*
X182012850Y-77967296D01*
X181942107Y-77961304D01*
X181912117Y-77944661D01*
X181858892Y-77904771D01*
X181858890Y-77904770D01*
X181851705Y-77899385D01*
X181715316Y-77848255D01*
X181653134Y-77841500D01*
X179756866Y-77841500D01*
X179694684Y-77848255D01*
X179558295Y-77899385D01*
X179441739Y-77986739D01*
X179354385Y-78103295D01*
X179303255Y-78239684D01*
X179296500Y-78301866D01*
X179296500Y-78844000D01*
X179276498Y-78912121D01*
X179222842Y-78958614D01*
X179170500Y-78970000D01*
X172545595Y-78970000D01*
X172477474Y-78949998D01*
X172456500Y-78933095D01*
X172431632Y-78908227D01*
X172424092Y-78899941D01*
X172419980Y-78893462D01*
X172370328Y-78846836D01*
X172367487Y-78844082D01*
X172347750Y-78824345D01*
X172344553Y-78821865D01*
X172335531Y-78814160D01*
X172331377Y-78810259D01*
X172303301Y-78783894D01*
X172296355Y-78780075D01*
X172296352Y-78780073D01*
X172285546Y-78774132D01*
X172269027Y-78763281D01*
X172268563Y-78762921D01*
X172253021Y-78750866D01*
X172245752Y-78747721D01*
X172245748Y-78747718D01*
X172212443Y-78733306D01*
X172201793Y-78728089D01*
X172163040Y-78706785D01*
X172143417Y-78701747D01*
X172124714Y-78695343D01*
X172113400Y-78690447D01*
X172113399Y-78690447D01*
X172106125Y-78687299D01*
X172098302Y-78686060D01*
X172098292Y-78686057D01*
X172062456Y-78680381D01*
X172050836Y-78677975D01*
X172015691Y-78668952D01*
X172015690Y-78668952D01*
X172008010Y-78666980D01*
X171987756Y-78666980D01*
X171968045Y-78665429D01*
X171955866Y-78663500D01*
X171948037Y-78662260D01*
X171918766Y-78665027D01*
X171904019Y-78666421D01*
X171892161Y-78666980D01*
X152864392Y-78666980D01*
X152853209Y-78666453D01*
X152845716Y-78664778D01*
X152837790Y-78665027D01*
X152837789Y-78665027D01*
X152777626Y-78666918D01*
X152773668Y-78666980D01*
X152745768Y-78666980D01*
X152741778Y-78667484D01*
X152729944Y-78668416D01*
X152685735Y-78669806D01*
X152678119Y-78672019D01*
X152678117Y-78672019D01*
X152666276Y-78675459D01*
X152646917Y-78679468D01*
X152645607Y-78679634D01*
X152626827Y-78682006D01*
X152619461Y-78684922D01*
X152619455Y-78684924D01*
X152585722Y-78698280D01*
X152574492Y-78702125D01*
X152558452Y-78706785D01*
X152532031Y-78714461D01*
X152525208Y-78718496D01*
X152514590Y-78724775D01*
X152496837Y-78733472D01*
X152489192Y-78736499D01*
X152478007Y-78740928D01*
X152464329Y-78750866D01*
X152442236Y-78766917D01*
X152432319Y-78773431D01*
X152394262Y-78795938D01*
X152379941Y-78810259D01*
X152364908Y-78823099D01*
X152348517Y-78835008D01*
X152339841Y-78845496D01*
X152320326Y-78869085D01*
X152312336Y-78877864D01*
X152257105Y-78933095D01*
X152194793Y-78967121D01*
X152168010Y-78970000D01*
X132566500Y-78970000D01*
X132566500Y-76738500D01*
X132586502Y-76670379D01*
X132640158Y-76623886D01*
X132692500Y-76612500D01*
X202615500Y-76612500D01*
X202683621Y-76632502D01*
G37*
G04 #@! TD.AperFunction*
G04 #@! TA.AperFunction,Conductor*
G36*
X202741500Y-201015500D02*
G01*
X202721498Y-201083621D01*
X202667842Y-201130114D01*
X202615500Y-201141500D01*
X132692500Y-201141500D01*
X132624379Y-201121498D01*
X132577886Y-201067842D01*
X132566500Y-201015500D01*
X132566500Y-197877600D01*
X132586502Y-197809479D01*
X132640158Y-197762986D01*
X132692791Y-197751600D01*
X143204106Y-197775872D01*
X152118989Y-197796457D01*
X152111002Y-194034769D01*
X152130860Y-193966606D01*
X152184416Y-193920000D01*
X152237002Y-193908502D01*
X172917965Y-193908502D01*
X172929808Y-193909060D01*
X172937537Y-193910788D01*
X173008306Y-193908564D01*
X173012264Y-193908502D01*
X173062978Y-193908502D01*
X173074544Y-193907041D01*
X173086366Y-193906111D01*
X173091970Y-193905935D01*
X173095910Y-193905811D01*
X173095912Y-193905811D01*
X173103831Y-193905562D01*
X173111441Y-193903351D01*
X173117618Y-193902373D01*
X173127195Y-193900390D01*
X173186610Y-193892884D01*
X173193977Y-193889967D01*
X173193978Y-193889967D01*
X173251667Y-193867126D01*
X173341302Y-193831637D01*
X173355522Y-193821306D01*
X173451891Y-193751289D01*
X173475903Y-193733843D01*
X173581955Y-193605648D01*
X173584198Y-193600882D01*
X173599591Y-193581669D01*
X174077955Y-193103305D01*
X174140267Y-193069279D01*
X174166935Y-193066400D01*
X178580152Y-193062387D01*
X186210000Y-193055449D01*
X202741500Y-193040417D01*
X202741500Y-201015500D01*
G37*
G04 #@! TD.AperFunction*
G04 #@! TA.AperFunction,Conductor*
G36*
X151130000Y-80028996D02*
G01*
X151109998Y-80097117D01*
X151103570Y-80106209D01*
X151097794Y-80113655D01*
X151094649Y-80120924D01*
X151094646Y-80120928D01*
X151080234Y-80154233D01*
X151075017Y-80164883D01*
X151053713Y-80203636D01*
X151051742Y-80211311D01*
X151051742Y-80211312D01*
X151048675Y-80223258D01*
X151042271Y-80241962D01*
X151034227Y-80260551D01*
X151032988Y-80268374D01*
X151032985Y-80268384D01*
X151027309Y-80304220D01*
X151024903Y-80315840D01*
X151013908Y-80358666D01*
X151013908Y-80378920D01*
X151012357Y-80398630D01*
X151009188Y-80418639D01*
X151009934Y-80426531D01*
X151013349Y-80462657D01*
X151013908Y-80474515D01*
X151013908Y-93887998D01*
X150993906Y-93956119D01*
X150977003Y-93977093D01*
X149763248Y-95190848D01*
X149700936Y-95224874D01*
X149641541Y-95223459D01*
X149583409Y-95207882D01*
X149583398Y-95207880D01*
X149578087Y-95206457D01*
X149350000Y-95186502D01*
X149121913Y-95206457D01*
X149116600Y-95207881D01*
X149116598Y-95207881D01*
X148906067Y-95264293D01*
X148906065Y-95264294D01*
X148900757Y-95265716D01*
X148895776Y-95268039D01*
X148895775Y-95268039D01*
X148698238Y-95360151D01*
X148698233Y-95360154D01*
X148693251Y-95362477D01*
X148588389Y-95435902D01*
X148510211Y-95490643D01*
X148510208Y-95490645D01*
X148505700Y-95493802D01*
X148343802Y-95655700D01*
X148212477Y-95843251D01*
X148210154Y-95848233D01*
X148210151Y-95848238D01*
X148118039Y-96045775D01*
X148115716Y-96050757D01*
X148114294Y-96056065D01*
X148114293Y-96056067D01*
X148057883Y-96266591D01*
X148056457Y-96271913D01*
X148036502Y-96500000D01*
X148056457Y-96728087D01*
X148115716Y-96949243D01*
X148118039Y-96954224D01*
X148118039Y-96954225D01*
X148210151Y-97151762D01*
X148210154Y-97151767D01*
X148212477Y-97156749D01*
X148343802Y-97344300D01*
X148505700Y-97506198D01*
X148510208Y-97509355D01*
X148510211Y-97509357D01*
X148588389Y-97564098D01*
X148693251Y-97637523D01*
X148698233Y-97639846D01*
X148698238Y-97639849D01*
X148895775Y-97731961D01*
X148900757Y-97734284D01*
X148906065Y-97735706D01*
X148906067Y-97735707D01*
X149116598Y-97792119D01*
X149116600Y-97792119D01*
X149121913Y-97793543D01*
X149350000Y-97813498D01*
X149578087Y-97793543D01*
X149583400Y-97792119D01*
X149583402Y-97792119D01*
X149793933Y-97735707D01*
X149793935Y-97735706D01*
X149799243Y-97734284D01*
X149804225Y-97731961D01*
X150001762Y-97639849D01*
X150001767Y-97639846D01*
X150006749Y-97637523D01*
X150111611Y-97564098D01*
X150189789Y-97509357D01*
X150189792Y-97509355D01*
X150194300Y-97506198D01*
X150356198Y-97344300D01*
X150487523Y-97156749D01*
X150489846Y-97151767D01*
X150489849Y-97151762D01*
X150581961Y-96954225D01*
X150581961Y-96954224D01*
X150584284Y-96949243D01*
X150643543Y-96728087D01*
X150663498Y-96500000D01*
X150643543Y-96271913D01*
X150642119Y-96266598D01*
X150642118Y-96266591D01*
X150626541Y-96208459D01*
X150628230Y-96137483D01*
X150659152Y-96086752D01*
X150914905Y-95830999D01*
X150977217Y-95796973D01*
X151048032Y-95802038D01*
X151104868Y-95844585D01*
X151129679Y-95911105D01*
X151130000Y-95920094D01*
X151130000Y-110671905D01*
X151109998Y-110740026D01*
X151093095Y-110761000D01*
X150690779Y-111163316D01*
X150628467Y-111197342D01*
X150557652Y-111192277D01*
X150506537Y-111156183D01*
X150506198Y-111155700D01*
X150344300Y-110993802D01*
X150339792Y-110990645D01*
X150339789Y-110990643D01*
X150261611Y-110935902D01*
X150156749Y-110862477D01*
X150151767Y-110860154D01*
X150151762Y-110860151D01*
X149954225Y-110768039D01*
X149954224Y-110768039D01*
X149949243Y-110765716D01*
X149943935Y-110764294D01*
X149943933Y-110764293D01*
X149733402Y-110707881D01*
X149733400Y-110707881D01*
X149728087Y-110706457D01*
X149500000Y-110686502D01*
X149271913Y-110706457D01*
X149266600Y-110707881D01*
X149266598Y-110707881D01*
X149056067Y-110764293D01*
X149056065Y-110764294D01*
X149050757Y-110765716D01*
X149045776Y-110768039D01*
X149045775Y-110768039D01*
X148848238Y-110860151D01*
X148848233Y-110860154D01*
X148843251Y-110862477D01*
X148738389Y-110935902D01*
X148660211Y-110990643D01*
X148660208Y-110990645D01*
X148655700Y-110993802D01*
X148493802Y-111155700D01*
X148362477Y-111343251D01*
X148360154Y-111348233D01*
X148360151Y-111348238D01*
X148268039Y-111545775D01*
X148265716Y-111550757D01*
X148206457Y-111771913D01*
X148186502Y-112000000D01*
X148206457Y-112228087D01*
X148207881Y-112233400D01*
X148207881Y-112233402D01*
X148259710Y-112426827D01*
X148265716Y-112449243D01*
X148268039Y-112454224D01*
X148268039Y-112454225D01*
X148360151Y-112651762D01*
X148360154Y-112651767D01*
X148362477Y-112656749D01*
X148493802Y-112844300D01*
X148655700Y-113006198D01*
X148660208Y-113009355D01*
X148660211Y-113009357D01*
X148738389Y-113064098D01*
X148843251Y-113137523D01*
X148848233Y-113139846D01*
X148848238Y-113139849D01*
X149045775Y-113231961D01*
X149050757Y-113234284D01*
X149056065Y-113235706D01*
X149056067Y-113235707D01*
X149266598Y-113292119D01*
X149266600Y-113292119D01*
X149271913Y-113293543D01*
X149500000Y-113313498D01*
X149728087Y-113293543D01*
X149733400Y-113292119D01*
X149733402Y-113292119D01*
X149943933Y-113235707D01*
X149943935Y-113235706D01*
X149949243Y-113234284D01*
X149954225Y-113231961D01*
X150151762Y-113139849D01*
X150151767Y-113139846D01*
X150156749Y-113137523D01*
X150261611Y-113064098D01*
X150339789Y-113009357D01*
X150339792Y-113009355D01*
X150344300Y-113006198D01*
X150506198Y-112844300D01*
X150595259Y-112717109D01*
X150615223Y-112688597D01*
X150670680Y-112644269D01*
X150714476Y-112634930D01*
X150754739Y-112633664D01*
X150757986Y-112633562D01*
X150761945Y-112633500D01*
X150789856Y-112633500D01*
X150793791Y-112633003D01*
X150793856Y-112632995D01*
X150805693Y-112632062D01*
X150837951Y-112631048D01*
X150841970Y-112630922D01*
X150849889Y-112630673D01*
X150869343Y-112625021D01*
X150888700Y-112621013D01*
X150900930Y-112619468D01*
X150900931Y-112619468D01*
X150908797Y-112618474D01*
X150916168Y-112615555D01*
X150916170Y-112615555D01*
X150949912Y-112602196D01*
X150961135Y-112598353D01*
X150962870Y-112597849D01*
X150968841Y-112596114D01*
X151039836Y-112596313D01*
X151099455Y-112634863D01*
X151128767Y-112699526D01*
X151130000Y-112717109D01*
X151130000Y-122147109D01*
X151109998Y-122215230D01*
X151056342Y-122261723D01*
X150986068Y-122271827D01*
X150921488Y-122242333D01*
X150900787Y-122219379D01*
X150859361Y-122160216D01*
X150859356Y-122160210D01*
X150856198Y-122155700D01*
X150694300Y-121993802D01*
X150689792Y-121990645D01*
X150689789Y-121990643D01*
X150611611Y-121935902D01*
X150506749Y-121862477D01*
X150501767Y-121860154D01*
X150501762Y-121860151D01*
X150304225Y-121768039D01*
X150304224Y-121768039D01*
X150299243Y-121765716D01*
X150293935Y-121764294D01*
X150293933Y-121764293D01*
X150083402Y-121707881D01*
X150083400Y-121707881D01*
X150078087Y-121706457D01*
X149850000Y-121686502D01*
X149621913Y-121706457D01*
X149616600Y-121707881D01*
X149616598Y-121707881D01*
X149406067Y-121764293D01*
X149406065Y-121764294D01*
X149400757Y-121765716D01*
X149395776Y-121768039D01*
X149395775Y-121768039D01*
X149198238Y-121860151D01*
X149198233Y-121860154D01*
X149193251Y-121862477D01*
X149088389Y-121935902D01*
X149010211Y-121990643D01*
X149010208Y-121990645D01*
X149005700Y-121993802D01*
X148843802Y-122155700D01*
X148840645Y-122160208D01*
X148840643Y-122160211D01*
X148799213Y-122219379D01*
X148712477Y-122343251D01*
X148710154Y-122348233D01*
X148710151Y-122348238D01*
X148618039Y-122545775D01*
X148615716Y-122550757D01*
X148556457Y-122771913D01*
X148536502Y-123000000D01*
X148556457Y-123228087D01*
X148615716Y-123449243D01*
X148618039Y-123454224D01*
X148618039Y-123454225D01*
X148710151Y-123651762D01*
X148710154Y-123651767D01*
X148712477Y-123656749D01*
X148715634Y-123661257D01*
X148840640Y-123839784D01*
X148843802Y-123844300D01*
X149005700Y-124006198D01*
X149010208Y-124009355D01*
X149010211Y-124009357D01*
X149088389Y-124064098D01*
X149193251Y-124137523D01*
X149198233Y-124139846D01*
X149198238Y-124139849D01*
X149395775Y-124231961D01*
X149400757Y-124234284D01*
X149406065Y-124235706D01*
X149406067Y-124235707D01*
X149616598Y-124292119D01*
X149616600Y-124292119D01*
X149621913Y-124293543D01*
X149850000Y-124313498D01*
X150078087Y-124293543D01*
X150083400Y-124292119D01*
X150083402Y-124292119D01*
X150293933Y-124235707D01*
X150293935Y-124235706D01*
X150299243Y-124234284D01*
X150304225Y-124231961D01*
X150501762Y-124139849D01*
X150501767Y-124139846D01*
X150506749Y-124137523D01*
X150611611Y-124064098D01*
X150689789Y-124009357D01*
X150689792Y-124009355D01*
X150694300Y-124006198D01*
X150856198Y-123844300D01*
X150859357Y-123839789D01*
X150859361Y-123839784D01*
X150900787Y-123780621D01*
X150956244Y-123736292D01*
X151026863Y-123728983D01*
X151090224Y-123761013D01*
X151126209Y-123822215D01*
X151130000Y-123852891D01*
X151130000Y-125836550D01*
X151109998Y-125904671D01*
X151093095Y-125925645D01*
X150335364Y-126683376D01*
X150273052Y-126717402D01*
X150213659Y-126715988D01*
X150183405Y-126707882D01*
X150178087Y-126706457D01*
X149950000Y-126686502D01*
X149721913Y-126706457D01*
X149716600Y-126707881D01*
X149716598Y-126707881D01*
X149506067Y-126764293D01*
X149506065Y-126764294D01*
X149500757Y-126765716D01*
X149495776Y-126768039D01*
X149495775Y-126768039D01*
X149298238Y-126860151D01*
X149298233Y-126860154D01*
X149293251Y-126862477D01*
X149188389Y-126935902D01*
X149110211Y-126990643D01*
X149110208Y-126990645D01*
X149105700Y-126993802D01*
X148943802Y-127155700D01*
X148812477Y-127343251D01*
X148810154Y-127348233D01*
X148810151Y-127348238D01*
X148718039Y-127545775D01*
X148715716Y-127550757D01*
X148656457Y-127771913D01*
X148636502Y-128000000D01*
X148656457Y-128228087D01*
X148715716Y-128449243D01*
X148718039Y-128454224D01*
X148718039Y-128454225D01*
X148810151Y-128651762D01*
X148810154Y-128651767D01*
X148812477Y-128656749D01*
X148943802Y-128844300D01*
X149105700Y-129006198D01*
X149110208Y-129009355D01*
X149110211Y-129009357D01*
X149188389Y-129064098D01*
X149293251Y-129137523D01*
X149298233Y-129139846D01*
X149298238Y-129139849D01*
X149495775Y-129231961D01*
X149500757Y-129234284D01*
X149506065Y-129235706D01*
X149506067Y-129235707D01*
X149716598Y-129292119D01*
X149716600Y-129292119D01*
X149721913Y-129293543D01*
X149950000Y-129313498D01*
X150178087Y-129293543D01*
X150183400Y-129292119D01*
X150183402Y-129292119D01*
X150393933Y-129235707D01*
X150393935Y-129235706D01*
X150399243Y-129234284D01*
X150404225Y-129231961D01*
X150601762Y-129139849D01*
X150601767Y-129139846D01*
X150606749Y-129137523D01*
X150711611Y-129064098D01*
X150789789Y-129009357D01*
X150789792Y-129009355D01*
X150794300Y-129006198D01*
X150914905Y-128885593D01*
X150977217Y-128851567D01*
X151048032Y-128856632D01*
X151104868Y-128899179D01*
X151129679Y-128965699D01*
X151130000Y-128974688D01*
X151130000Y-139561766D01*
X151109998Y-139629887D01*
X151056342Y-139676380D01*
X150986068Y-139686484D01*
X150931729Y-139664979D01*
X150856749Y-139612477D01*
X150851767Y-139610154D01*
X150851762Y-139610151D01*
X150654225Y-139518039D01*
X150654224Y-139518039D01*
X150649243Y-139515716D01*
X150643935Y-139514294D01*
X150643933Y-139514293D01*
X150433402Y-139457881D01*
X150433400Y-139457881D01*
X150428087Y-139456457D01*
X150200000Y-139436502D01*
X149971913Y-139456457D01*
X149966600Y-139457881D01*
X149966598Y-139457881D01*
X149756067Y-139514293D01*
X149756065Y-139514294D01*
X149750757Y-139515716D01*
X149745776Y-139518039D01*
X149745775Y-139518039D01*
X149548238Y-139610151D01*
X149548233Y-139610154D01*
X149543251Y-139612477D01*
X149468271Y-139664979D01*
X149360211Y-139740643D01*
X149360208Y-139740645D01*
X149355700Y-139743802D01*
X149193802Y-139905700D01*
X149062477Y-140093251D01*
X149060154Y-140098233D01*
X149060151Y-140098238D01*
X148968039Y-140295775D01*
X148965716Y-140300757D01*
X148906457Y-140521913D01*
X148886502Y-140750000D01*
X148906457Y-140978087D01*
X148965716Y-141199243D01*
X148968039Y-141204224D01*
X148968039Y-141204225D01*
X149060151Y-141401762D01*
X149060154Y-141401767D01*
X149062477Y-141406749D01*
X149193802Y-141594300D01*
X149355700Y-141756198D01*
X149360208Y-141759355D01*
X149360211Y-141759357D01*
X149435869Y-141812333D01*
X149543251Y-141887523D01*
X149548233Y-141889846D01*
X149548238Y-141889849D01*
X149745775Y-141981961D01*
X149750757Y-141984284D01*
X149756065Y-141985706D01*
X149756067Y-141985707D01*
X149966598Y-142042119D01*
X149966600Y-142042119D01*
X149971913Y-142043543D01*
X150200000Y-142063498D01*
X150428087Y-142043543D01*
X150433400Y-142042119D01*
X150433402Y-142042119D01*
X150643933Y-141985707D01*
X150643935Y-141985706D01*
X150649243Y-141984284D01*
X150654225Y-141981961D01*
X150851762Y-141889849D01*
X150851767Y-141889846D01*
X150856749Y-141887523D01*
X150931730Y-141835021D01*
X150999003Y-141812333D01*
X151067863Y-141829618D01*
X151116448Y-141881387D01*
X151130000Y-141938234D01*
X151130000Y-143631787D01*
X151109998Y-143699908D01*
X151056342Y-143746401D01*
X150986068Y-143756505D01*
X150931729Y-143735000D01*
X150784326Y-143631787D01*
X150756749Y-143612477D01*
X150751767Y-143610154D01*
X150751762Y-143610151D01*
X150554225Y-143518039D01*
X150554224Y-143518039D01*
X150549243Y-143515716D01*
X150543935Y-143514294D01*
X150543933Y-143514293D01*
X150333402Y-143457881D01*
X150333400Y-143457881D01*
X150328087Y-143456457D01*
X150100000Y-143436502D01*
X149871913Y-143456457D01*
X149866600Y-143457881D01*
X149866598Y-143457881D01*
X149656067Y-143514293D01*
X149656065Y-143514294D01*
X149650757Y-143515716D01*
X149645776Y-143518039D01*
X149645775Y-143518039D01*
X149448238Y-143610151D01*
X149448233Y-143610154D01*
X149443251Y-143612477D01*
X149415674Y-143631787D01*
X149260211Y-143740643D01*
X149260208Y-143740645D01*
X149255700Y-143743802D01*
X149093802Y-143905700D01*
X148962477Y-144093251D01*
X148960154Y-144098233D01*
X148960151Y-144098238D01*
X148868039Y-144295775D01*
X148865716Y-144300757D01*
X148806457Y-144521913D01*
X148786502Y-144750000D01*
X148806457Y-144978087D01*
X148865716Y-145199243D01*
X148868039Y-145204224D01*
X148868039Y-145204225D01*
X148960151Y-145401762D01*
X148960154Y-145401767D01*
X148962477Y-145406749D01*
X149093802Y-145594300D01*
X149255700Y-145756198D01*
X149260208Y-145759355D01*
X149260211Y-145759357D01*
X149338389Y-145814098D01*
X149443251Y-145887523D01*
X149448233Y-145889846D01*
X149448238Y-145889849D01*
X149645775Y-145981961D01*
X149650757Y-145984284D01*
X149656065Y-145985706D01*
X149656067Y-145985707D01*
X149866598Y-146042119D01*
X149866600Y-146042119D01*
X149871913Y-146043543D01*
X150100000Y-146063498D01*
X150328087Y-146043543D01*
X150335766Y-146041485D01*
X150363659Y-146034012D01*
X150434635Y-146035702D01*
X150485364Y-146066624D01*
X151093095Y-146674355D01*
X151127121Y-146736667D01*
X151130000Y-146763450D01*
X151130000Y-151847426D01*
X151109998Y-151915547D01*
X151056342Y-151962040D01*
X150986068Y-151972144D01*
X150921488Y-151942650D01*
X150889805Y-151900675D01*
X150886384Y-151893338D01*
X150886381Y-151893332D01*
X150884056Y-151888347D01*
X150811893Y-151785287D01*
X150760908Y-151712473D01*
X150760906Y-151712470D01*
X150757749Y-151707962D01*
X150602038Y-151552251D01*
X150421654Y-151425944D01*
X150222076Y-151332880D01*
X150009371Y-151275885D01*
X149790000Y-151256693D01*
X149570629Y-151275885D01*
X149357924Y-151332880D01*
X149264562Y-151376415D01*
X149163334Y-151423618D01*
X149163329Y-151423621D01*
X149158347Y-151425944D01*
X149153840Y-151429100D01*
X149153838Y-151429101D01*
X148982473Y-151549092D01*
X148982470Y-151549094D01*
X148977962Y-151552251D01*
X148822251Y-151707962D01*
X148819094Y-151712470D01*
X148819092Y-151712473D01*
X148768107Y-151785287D01*
X148695944Y-151888347D01*
X148693621Y-151893329D01*
X148693618Y-151893334D01*
X148685515Y-151910712D01*
X148602880Y-152087924D01*
X148545885Y-152300629D01*
X148526693Y-152520000D01*
X148545885Y-152739371D01*
X148602880Y-152952076D01*
X148646415Y-153045438D01*
X148693618Y-153146666D01*
X148693621Y-153146671D01*
X148695944Y-153151653D01*
X148822251Y-153332038D01*
X148977962Y-153487749D01*
X149158346Y-153614056D01*
X149163328Y-153616379D01*
X149163333Y-153616382D01*
X149290768Y-153675805D01*
X149344053Y-153722722D01*
X149363514Y-153790999D01*
X149342972Y-153858959D01*
X149290768Y-153904195D01*
X149163334Y-153963618D01*
X149163329Y-153963621D01*
X149158347Y-153965944D01*
X149153840Y-153969100D01*
X149153838Y-153969101D01*
X148982473Y-154089092D01*
X148982470Y-154089094D01*
X148977962Y-154092251D01*
X148822251Y-154247962D01*
X148695944Y-154428347D01*
X148693621Y-154433329D01*
X148693618Y-154433334D01*
X148690195Y-154440675D01*
X148602880Y-154627924D01*
X148545885Y-154840629D01*
X148526693Y-155060000D01*
X148545885Y-155279371D01*
X148602880Y-155492076D01*
X148646415Y-155585438D01*
X148693618Y-155686666D01*
X148693621Y-155686671D01*
X148695944Y-155691653D01*
X148822251Y-155872038D01*
X148977962Y-156027749D01*
X149158346Y-156154056D01*
X149163328Y-156156379D01*
X149163333Y-156156382D01*
X149290768Y-156215805D01*
X149344053Y-156262722D01*
X149363514Y-156330999D01*
X149342972Y-156398959D01*
X149290768Y-156444195D01*
X149163334Y-156503618D01*
X149163329Y-156503621D01*
X149158347Y-156505944D01*
X149153840Y-156509100D01*
X149153838Y-156509101D01*
X148982473Y-156629092D01*
X148982470Y-156629094D01*
X148977962Y-156632251D01*
X148822251Y-156787962D01*
X148695944Y-156968347D01*
X148693621Y-156973329D01*
X148693618Y-156973334D01*
X148690195Y-156980675D01*
X148602880Y-157167924D01*
X148545885Y-157380629D01*
X148526693Y-157600000D01*
X148545885Y-157819371D01*
X148602880Y-158032076D01*
X148646415Y-158125438D01*
X148693618Y-158226666D01*
X148693621Y-158226671D01*
X148695944Y-158231653D01*
X148822251Y-158412038D01*
X148977962Y-158567749D01*
X149158346Y-158694056D01*
X149163328Y-158696379D01*
X149163333Y-158696382D01*
X149290768Y-158755805D01*
X149344053Y-158802722D01*
X149363514Y-158870999D01*
X149342972Y-158938959D01*
X149290768Y-158984195D01*
X149163334Y-159043618D01*
X149163329Y-159043621D01*
X149158347Y-159045944D01*
X149153840Y-159049100D01*
X149153838Y-159049101D01*
X148982473Y-159169092D01*
X148982470Y-159169094D01*
X148977962Y-159172251D01*
X148822251Y-159327962D01*
X148819094Y-159332470D01*
X148819092Y-159332473D01*
X148721143Y-159472359D01*
X148695944Y-159508347D01*
X148693621Y-159513329D01*
X148693618Y-159513334D01*
X148690195Y-159520675D01*
X148602880Y-159707924D01*
X148545885Y-159920629D01*
X148526693Y-160140000D01*
X148545885Y-160359371D01*
X148602880Y-160572076D01*
X148605205Y-160577061D01*
X148693618Y-160766666D01*
X148693621Y-160766671D01*
X148695944Y-160771653D01*
X148822251Y-160952038D01*
X148977962Y-161107749D01*
X149158346Y-161234056D01*
X149357924Y-161327120D01*
X149570629Y-161384115D01*
X149790000Y-161403307D01*
X150009371Y-161384115D01*
X150222076Y-161327120D01*
X150421654Y-161234056D01*
X150602038Y-161107749D01*
X150757749Y-160952038D01*
X150884056Y-160771653D01*
X150886381Y-160766668D01*
X150886384Y-160766662D01*
X150889805Y-160759325D01*
X150936722Y-160706039D01*
X151004999Y-160686578D01*
X151072959Y-160707119D01*
X151119025Y-160761142D01*
X151130000Y-160812574D01*
X151130000Y-173339774D01*
X151109998Y-173407895D01*
X151056342Y-173454388D01*
X150986068Y-173464492D01*
X150931729Y-173442987D01*
X150821258Y-173365634D01*
X150821256Y-173365633D01*
X150816749Y-173362477D01*
X150811767Y-173360154D01*
X150811762Y-173360151D01*
X150614225Y-173268039D01*
X150614224Y-173268039D01*
X150609243Y-173265716D01*
X150603935Y-173264294D01*
X150603933Y-173264293D01*
X150393402Y-173207881D01*
X150393400Y-173207881D01*
X150388087Y-173206457D01*
X150160000Y-173186502D01*
X149931913Y-173206457D01*
X149926600Y-173207881D01*
X149926598Y-173207881D01*
X149716067Y-173264293D01*
X149716065Y-173264294D01*
X149710757Y-173265716D01*
X149705776Y-173268039D01*
X149705775Y-173268039D01*
X149508238Y-173360151D01*
X149508233Y-173360154D01*
X149503251Y-173362477D01*
X149438388Y-173407895D01*
X149320211Y-173490643D01*
X149320208Y-173490645D01*
X149315700Y-173493802D01*
X149153802Y-173655700D01*
X149022477Y-173843251D01*
X149020154Y-173848233D01*
X149020151Y-173848238D01*
X148928039Y-174045775D01*
X148925716Y-174050757D01*
X148866457Y-174271913D01*
X148846502Y-174500000D01*
X148866457Y-174728087D01*
X148925716Y-174949243D01*
X148928039Y-174954224D01*
X148928039Y-174954225D01*
X149020151Y-175151762D01*
X149020154Y-175151767D01*
X149022477Y-175156749D01*
X149153802Y-175344300D01*
X149315700Y-175506198D01*
X149320208Y-175509355D01*
X149320211Y-175509357D01*
X149355869Y-175534325D01*
X149503251Y-175637523D01*
X149508233Y-175639846D01*
X149508238Y-175639849D01*
X149705775Y-175731961D01*
X149710757Y-175734284D01*
X149716065Y-175735706D01*
X149716067Y-175735707D01*
X149926598Y-175792119D01*
X149926600Y-175792119D01*
X149931913Y-175793543D01*
X150160000Y-175813498D01*
X150388087Y-175793543D01*
X150393400Y-175792119D01*
X150393402Y-175792119D01*
X150603933Y-175735707D01*
X150603935Y-175735706D01*
X150609243Y-175734284D01*
X150614225Y-175731961D01*
X150811762Y-175639849D01*
X150811767Y-175639846D01*
X150816749Y-175637523D01*
X150931729Y-175557013D01*
X150999003Y-175534325D01*
X151067864Y-175551610D01*
X151116448Y-175603380D01*
X151130000Y-175660226D01*
X151130000Y-177589774D01*
X151109998Y-177657895D01*
X151056342Y-177704388D01*
X150986068Y-177714492D01*
X150931729Y-177692987D01*
X150821258Y-177615634D01*
X150821256Y-177615633D01*
X150816749Y-177612477D01*
X150811767Y-177610154D01*
X150811762Y-177610151D01*
X150614225Y-177518039D01*
X150614224Y-177518039D01*
X150609243Y-177515716D01*
X150603935Y-177514294D01*
X150603933Y-177514293D01*
X150393402Y-177457881D01*
X150393400Y-177457881D01*
X150388087Y-177456457D01*
X150160000Y-177436502D01*
X149931913Y-177456457D01*
X149926600Y-177457881D01*
X149926598Y-177457881D01*
X149716067Y-177514293D01*
X149716065Y-177514294D01*
X149710757Y-177515716D01*
X149705776Y-177518039D01*
X149705775Y-177518039D01*
X149508238Y-177610151D01*
X149508233Y-177610154D01*
X149503251Y-177612477D01*
X149438388Y-177657895D01*
X149320211Y-177740643D01*
X149320208Y-177740645D01*
X149315700Y-177743802D01*
X149153802Y-177905700D01*
X149022477Y-178093251D01*
X149020154Y-178098233D01*
X149020151Y-178098238D01*
X148936768Y-178277055D01*
X148925716Y-178300757D01*
X148924294Y-178306065D01*
X148924293Y-178306067D01*
X148867881Y-178516598D01*
X148866457Y-178521913D01*
X148846502Y-178750000D01*
X148866457Y-178978087D01*
X148925716Y-179199243D01*
X148928039Y-179204224D01*
X148928039Y-179204225D01*
X149020151Y-179401762D01*
X149020154Y-179401767D01*
X149022477Y-179406749D01*
X149153802Y-179594300D01*
X149315700Y-179756198D01*
X149320208Y-179759355D01*
X149320211Y-179759357D01*
X149355869Y-179784325D01*
X149503251Y-179887523D01*
X149508233Y-179889846D01*
X149508238Y-179889849D01*
X149705775Y-179981961D01*
X149710757Y-179984284D01*
X149716065Y-179985706D01*
X149716067Y-179985707D01*
X149926598Y-180042119D01*
X149926600Y-180042119D01*
X149931913Y-180043543D01*
X150160000Y-180063498D01*
X150388087Y-180043543D01*
X150393400Y-180042119D01*
X150393402Y-180042119D01*
X150603933Y-179985707D01*
X150603935Y-179985706D01*
X150609243Y-179984284D01*
X150614225Y-179981961D01*
X150811762Y-179889849D01*
X150811767Y-179889846D01*
X150816749Y-179887523D01*
X150931729Y-179807013D01*
X150999003Y-179784325D01*
X151067864Y-179801610D01*
X151116448Y-179853380D01*
X151130000Y-179910226D01*
X151130000Y-188894550D01*
X151109998Y-188962671D01*
X151056342Y-189009164D01*
X150986068Y-189019268D01*
X150921488Y-188989774D01*
X150914905Y-188983645D01*
X150840949Y-188909689D01*
X150808338Y-188853206D01*
X150795707Y-188806068D01*
X150795707Y-188806067D01*
X150794284Y-188800757D01*
X150791961Y-188795775D01*
X150699849Y-188598238D01*
X150699846Y-188598233D01*
X150697523Y-188593251D01*
X150566198Y-188405700D01*
X150404300Y-188243802D01*
X150399792Y-188240645D01*
X150399789Y-188240643D01*
X150321611Y-188185902D01*
X150216749Y-188112477D01*
X150211767Y-188110154D01*
X150211762Y-188110151D01*
X150014225Y-188018039D01*
X150014224Y-188018039D01*
X150009243Y-188015716D01*
X150003935Y-188014294D01*
X150003933Y-188014293D01*
X149793402Y-187957881D01*
X149793400Y-187957881D01*
X149788087Y-187956457D01*
X149560000Y-187936502D01*
X149331913Y-187956457D01*
X149326600Y-187957881D01*
X149326598Y-187957881D01*
X149116067Y-188014293D01*
X149116065Y-188014294D01*
X149110757Y-188015716D01*
X149105776Y-188018039D01*
X149105775Y-188018039D01*
X148908238Y-188110151D01*
X148908233Y-188110154D01*
X148903251Y-188112477D01*
X148798389Y-188185902D01*
X148720211Y-188240643D01*
X148720208Y-188240645D01*
X148715700Y-188243802D01*
X148553802Y-188405700D01*
X148422477Y-188593251D01*
X148420154Y-188598233D01*
X148420151Y-188598238D01*
X148328039Y-188795775D01*
X148325716Y-188800757D01*
X148324294Y-188806065D01*
X148324293Y-188806067D01*
X148282331Y-188962671D01*
X148266457Y-189021913D01*
X148246502Y-189250000D01*
X148266457Y-189478087D01*
X148325716Y-189699243D01*
X148328039Y-189704224D01*
X148328039Y-189704225D01*
X148420151Y-189901762D01*
X148420154Y-189901767D01*
X148422477Y-189906749D01*
X148495902Y-190011611D01*
X148540081Y-190074704D01*
X148553802Y-190094300D01*
X148715700Y-190256198D01*
X148720208Y-190259355D01*
X148720211Y-190259357D01*
X148732515Y-190267972D01*
X148903251Y-190387523D01*
X148908233Y-190389846D01*
X148908238Y-190389849D01*
X149015958Y-190440079D01*
X149110757Y-190484284D01*
X149116065Y-190485706D01*
X149116067Y-190485707D01*
X149326598Y-190542119D01*
X149326600Y-190542119D01*
X149331913Y-190543543D01*
X149560000Y-190563498D01*
X149788087Y-190543543D01*
X149793400Y-190542119D01*
X149793402Y-190542119D01*
X150003933Y-190485707D01*
X150003935Y-190485706D01*
X150009243Y-190484284D01*
X150104042Y-190440079D01*
X150211762Y-190389849D01*
X150211767Y-190389846D01*
X150216749Y-190387523D01*
X150271016Y-190349525D01*
X150338289Y-190326836D01*
X150407150Y-190344120D01*
X150432382Y-190363642D01*
X150786106Y-190717366D01*
X150820132Y-190779678D01*
X150823011Y-190806461D01*
X150823012Y-192218324D01*
X150803010Y-192286445D01*
X150749354Y-192332938D01*
X150679080Y-192343042D01*
X150614500Y-192313549D01*
X150607917Y-192307419D01*
X150544300Y-192243802D01*
X150539792Y-192240645D01*
X150539789Y-192240643D01*
X150461611Y-192185902D01*
X150356749Y-192112477D01*
X150351767Y-192110154D01*
X150351762Y-192110151D01*
X150154225Y-192018039D01*
X150154224Y-192018039D01*
X150149243Y-192015716D01*
X150143935Y-192014294D01*
X150143933Y-192014293D01*
X149933402Y-191957881D01*
X149933400Y-191957881D01*
X149928087Y-191956457D01*
X149700000Y-191936502D01*
X149471913Y-191956457D01*
X149466600Y-191957881D01*
X149466598Y-191957881D01*
X149256067Y-192014293D01*
X149256065Y-192014294D01*
X149250757Y-192015716D01*
X149245776Y-192018039D01*
X149245775Y-192018039D01*
X149048238Y-192110151D01*
X149048233Y-192110154D01*
X149043251Y-192112477D01*
X148938389Y-192185902D01*
X148860211Y-192240643D01*
X148860208Y-192240645D01*
X148855700Y-192243802D01*
X148693802Y-192405700D01*
X148562477Y-192593251D01*
X148560154Y-192598233D01*
X148560151Y-192598238D01*
X148468039Y-192795775D01*
X148465716Y-192800757D01*
X148406457Y-193021913D01*
X148386502Y-193250000D01*
X148406457Y-193478087D01*
X148465716Y-193699243D01*
X148468039Y-193704224D01*
X148468039Y-193704225D01*
X148560151Y-193901762D01*
X148560154Y-193901767D01*
X148562477Y-193906749D01*
X148693802Y-194094300D01*
X148855700Y-194256198D01*
X148860208Y-194259355D01*
X148860211Y-194259357D01*
X148938389Y-194314098D01*
X149043251Y-194387523D01*
X149048233Y-194389846D01*
X149048238Y-194389849D01*
X149245775Y-194481961D01*
X149250757Y-194484284D01*
X149256065Y-194485706D01*
X149256067Y-194485707D01*
X149466598Y-194542119D01*
X149466600Y-194542119D01*
X149471913Y-194543543D01*
X149700000Y-194563498D01*
X149928087Y-194543543D01*
X149933400Y-194542119D01*
X149933402Y-194542119D01*
X150143933Y-194485707D01*
X150143935Y-194485706D01*
X150149243Y-194484284D01*
X150154225Y-194481961D01*
X150351762Y-194389849D01*
X150351767Y-194389846D01*
X150356749Y-194387523D01*
X150461611Y-194314098D01*
X150539789Y-194259357D01*
X150539792Y-194259355D01*
X150544300Y-194256198D01*
X150706198Y-194094300D01*
X150837523Y-193906749D01*
X150889805Y-193794629D01*
X150936722Y-193741344D01*
X151004999Y-193721883D01*
X151072959Y-193742425D01*
X151119025Y-193796447D01*
X151130000Y-193847879D01*
X151130000Y-201141500D01*
X132692500Y-201141500D01*
X132624379Y-201121498D01*
X132577886Y-201067842D01*
X132566500Y-201015500D01*
X132566500Y-193250000D01*
X135686502Y-193250000D01*
X135706457Y-193478087D01*
X135765716Y-193699243D01*
X135768039Y-193704224D01*
X135768039Y-193704225D01*
X135860151Y-193901762D01*
X135860154Y-193901767D01*
X135862477Y-193906749D01*
X135993802Y-194094300D01*
X136155700Y-194256198D01*
X136160208Y-194259355D01*
X136160211Y-194259357D01*
X136238389Y-194314098D01*
X136343251Y-194387523D01*
X136348233Y-194389846D01*
X136348238Y-194389849D01*
X136545775Y-194481961D01*
X136550757Y-194484284D01*
X136556065Y-194485706D01*
X136556067Y-194485707D01*
X136766598Y-194542119D01*
X136766600Y-194542119D01*
X136771913Y-194543543D01*
X137000000Y-194563498D01*
X137228087Y-194543543D01*
X137233400Y-194542119D01*
X137233402Y-194542119D01*
X137443933Y-194485707D01*
X137443935Y-194485706D01*
X137449243Y-194484284D01*
X137454225Y-194481961D01*
X137651762Y-194389849D01*
X137651767Y-194389846D01*
X137656749Y-194387523D01*
X137761611Y-194314098D01*
X137839789Y-194259357D01*
X137839792Y-194259355D01*
X137844300Y-194256198D01*
X138006198Y-194094300D01*
X138137523Y-193906749D01*
X138139846Y-193901767D01*
X138139849Y-193901762D01*
X138231961Y-193704225D01*
X138231961Y-193704224D01*
X138234284Y-193699243D01*
X138293543Y-193478087D01*
X138313498Y-193250000D01*
X138293543Y-193021913D01*
X138234284Y-192800757D01*
X138231961Y-192795775D01*
X138139849Y-192598238D01*
X138139846Y-192598233D01*
X138137523Y-192593251D01*
X138006198Y-192405700D01*
X137844300Y-192243802D01*
X137839792Y-192240645D01*
X137839789Y-192240643D01*
X137761611Y-192185902D01*
X137656749Y-192112477D01*
X137651767Y-192110154D01*
X137651762Y-192110151D01*
X137454225Y-192018039D01*
X137454224Y-192018039D01*
X137449243Y-192015716D01*
X137443935Y-192014294D01*
X137443933Y-192014293D01*
X137233402Y-191957881D01*
X137233400Y-191957881D01*
X137228087Y-191956457D01*
X137000000Y-191936502D01*
X136771913Y-191956457D01*
X136766600Y-191957881D01*
X136766598Y-191957881D01*
X136556067Y-192014293D01*
X136556065Y-192014294D01*
X136550757Y-192015716D01*
X136545776Y-192018039D01*
X136545775Y-192018039D01*
X136348238Y-192110151D01*
X136348233Y-192110154D01*
X136343251Y-192112477D01*
X136238389Y-192185902D01*
X136160211Y-192240643D01*
X136160208Y-192240645D01*
X136155700Y-192243802D01*
X135993802Y-192405700D01*
X135862477Y-192593251D01*
X135860154Y-192598233D01*
X135860151Y-192598238D01*
X135768039Y-192795775D01*
X135765716Y-192800757D01*
X135706457Y-193021913D01*
X135686502Y-193250000D01*
X132566500Y-193250000D01*
X132566500Y-189250000D01*
X135546502Y-189250000D01*
X135566457Y-189478087D01*
X135625716Y-189699243D01*
X135628039Y-189704224D01*
X135628039Y-189704225D01*
X135720151Y-189901762D01*
X135720154Y-189901767D01*
X135722477Y-189906749D01*
X135795902Y-190011611D01*
X135840081Y-190074704D01*
X135853802Y-190094300D01*
X136015700Y-190256198D01*
X136020208Y-190259355D01*
X136020211Y-190259357D01*
X136032515Y-190267972D01*
X136203251Y-190387523D01*
X136208233Y-190389846D01*
X136208238Y-190389849D01*
X136315958Y-190440079D01*
X136410757Y-190484284D01*
X136416065Y-190485706D01*
X136416067Y-190485707D01*
X136626598Y-190542119D01*
X136626600Y-190542119D01*
X136631913Y-190543543D01*
X136860000Y-190563498D01*
X137088087Y-190543543D01*
X137093400Y-190542119D01*
X137093402Y-190542119D01*
X137303933Y-190485707D01*
X137303935Y-190485706D01*
X137309243Y-190484284D01*
X137404042Y-190440079D01*
X137511762Y-190389849D01*
X137511767Y-190389846D01*
X137516749Y-190387523D01*
X137687485Y-190267972D01*
X137699789Y-190259357D01*
X137699792Y-190259355D01*
X137704300Y-190256198D01*
X137866198Y-190094300D01*
X137879920Y-190074704D01*
X137924098Y-190011611D01*
X137997523Y-189906749D01*
X137999846Y-189901767D01*
X137999849Y-189901762D01*
X138091961Y-189704225D01*
X138091961Y-189704224D01*
X138094284Y-189699243D01*
X138153543Y-189478087D01*
X138173498Y-189250000D01*
X138153543Y-189021913D01*
X138137669Y-188962671D01*
X138095707Y-188806067D01*
X138095706Y-188806065D01*
X138094284Y-188800757D01*
X138091961Y-188795775D01*
X137999849Y-188598238D01*
X137999846Y-188598233D01*
X137997523Y-188593251D01*
X137866198Y-188405700D01*
X137704300Y-188243802D01*
X137699792Y-188240645D01*
X137699789Y-188240643D01*
X137621611Y-188185902D01*
X137516749Y-188112477D01*
X137511767Y-188110154D01*
X137511762Y-188110151D01*
X137314225Y-188018039D01*
X137314224Y-188018039D01*
X137309243Y-188015716D01*
X137303935Y-188014294D01*
X137303933Y-188014293D01*
X137093402Y-187957881D01*
X137093400Y-187957881D01*
X137088087Y-187956457D01*
X136860000Y-187936502D01*
X136631913Y-187956457D01*
X136626600Y-187957881D01*
X136626598Y-187957881D01*
X136416067Y-188014293D01*
X136416065Y-188014294D01*
X136410757Y-188015716D01*
X136405776Y-188018039D01*
X136405775Y-188018039D01*
X136208238Y-188110151D01*
X136208233Y-188110154D01*
X136203251Y-188112477D01*
X136098389Y-188185902D01*
X136020211Y-188240643D01*
X136020208Y-188240645D01*
X136015700Y-188243802D01*
X135853802Y-188405700D01*
X135722477Y-188593251D01*
X135720154Y-188598233D01*
X135720151Y-188598238D01*
X135628039Y-188795775D01*
X135625716Y-188800757D01*
X135624294Y-188806065D01*
X135624293Y-188806067D01*
X135582331Y-188962671D01*
X135566457Y-189021913D01*
X135546502Y-189250000D01*
X132566500Y-189250000D01*
X132566500Y-185948134D01*
X138006500Y-185948134D01*
X138013255Y-186010316D01*
X138064385Y-186146705D01*
X138151739Y-186263261D01*
X138268295Y-186350615D01*
X138404684Y-186401745D01*
X138466866Y-186408500D01*
X140363134Y-186408500D01*
X140425316Y-186401745D01*
X140561705Y-186350615D01*
X140678261Y-186263261D01*
X140765615Y-186146705D01*
X140816745Y-186010316D01*
X140823500Y-185948134D01*
X140823500Y-184051866D01*
X140816745Y-183989684D01*
X140807667Y-183965469D01*
X147337095Y-183965469D01*
X147337392Y-183970622D01*
X147337392Y-183970625D01*
X147343067Y-184069041D01*
X147350427Y-184196697D01*
X147351564Y-184201743D01*
X147351565Y-184201749D01*
X147383741Y-184344523D01*
X147401346Y-184422642D01*
X147403288Y-184427424D01*
X147403289Y-184427428D01*
X147486540Y-184632450D01*
X147488484Y-184637237D01*
X147609501Y-184834719D01*
X147761147Y-185009784D01*
X147939349Y-185157730D01*
X148139322Y-185274584D01*
X148355694Y-185357209D01*
X148360760Y-185358240D01*
X148360761Y-185358240D01*
X148413846Y-185369040D01*
X148582656Y-185403385D01*
X148713324Y-185408176D01*
X148808949Y-185411683D01*
X148808953Y-185411683D01*
X148814113Y-185411872D01*
X148819233Y-185411216D01*
X148819235Y-185411216D01*
X148892270Y-185401860D01*
X149043847Y-185382442D01*
X149048795Y-185380957D01*
X149048802Y-185380956D01*
X149260747Y-185317369D01*
X149265690Y-185315886D01*
X149346236Y-185276427D01*
X149469049Y-185216262D01*
X149469052Y-185216260D01*
X149473684Y-185213991D01*
X149662243Y-185079494D01*
X149826303Y-184916005D01*
X149961458Y-184727917D01*
X150008641Y-184632450D01*
X150061784Y-184524922D01*
X150061785Y-184524920D01*
X150064078Y-184520280D01*
X150131408Y-184298671D01*
X150161640Y-184069041D01*
X150163327Y-184000000D01*
X150150675Y-183846109D01*
X150144773Y-183774318D01*
X150144772Y-183774312D01*
X150144349Y-183769167D01*
X150087925Y-183544533D01*
X150085866Y-183539797D01*
X149997630Y-183336868D01*
X149997628Y-183336865D01*
X149995570Y-183332131D01*
X149869764Y-183137665D01*
X149713887Y-182966358D01*
X149709836Y-182963159D01*
X149709832Y-182963155D01*
X149536177Y-182826011D01*
X149536172Y-182826008D01*
X149532123Y-182822810D01*
X149527607Y-182820317D01*
X149527604Y-182820315D01*
X149333879Y-182713373D01*
X149333875Y-182713371D01*
X149329355Y-182710876D01*
X149324486Y-182709152D01*
X149324482Y-182709150D01*
X149115903Y-182635288D01*
X149115899Y-182635287D01*
X149111028Y-182633562D01*
X149105935Y-182632655D01*
X149105932Y-182632654D01*
X148888095Y-182593851D01*
X148888089Y-182593850D01*
X148883006Y-182592945D01*
X148810096Y-182592054D01*
X148656581Y-182590179D01*
X148656579Y-182590179D01*
X148651411Y-182590116D01*
X148422464Y-182625150D01*
X148202314Y-182697106D01*
X148197726Y-182699494D01*
X148197722Y-182699496D01*
X148171065Y-182713373D01*
X147996872Y-182804052D01*
X147992739Y-182807155D01*
X147992736Y-182807157D01*
X147967625Y-182826011D01*
X147811655Y-182943117D01*
X147651639Y-183110564D01*
X147648725Y-183114836D01*
X147648724Y-183114837D01*
X147633152Y-183137665D01*
X147521119Y-183301899D01*
X147423602Y-183511981D01*
X147361707Y-183735169D01*
X147337095Y-183965469D01*
X140807667Y-183965469D01*
X140765615Y-183853295D01*
X140678261Y-183736739D01*
X140561705Y-183649385D01*
X140425316Y-183598255D01*
X140363134Y-183591500D01*
X138466866Y-183591500D01*
X138404684Y-183598255D01*
X138268295Y-183649385D01*
X138151739Y-183736739D01*
X138064385Y-183853295D01*
X138013255Y-183989684D01*
X138006500Y-184051866D01*
X138006500Y-185948134D01*
X132566500Y-185948134D01*
X132566500Y-178750000D01*
X136146502Y-178750000D01*
X136166457Y-178978087D01*
X136225716Y-179199243D01*
X136228039Y-179204224D01*
X136228039Y-179204225D01*
X136320151Y-179401762D01*
X136320154Y-179401767D01*
X136322477Y-179406749D01*
X136453802Y-179594300D01*
X136615700Y-179756198D01*
X136620208Y-179759355D01*
X136620211Y-179759357D01*
X136655869Y-179784325D01*
X136803251Y-179887523D01*
X136808233Y-179889846D01*
X136808238Y-179889849D01*
X137005775Y-179981961D01*
X137010757Y-179984284D01*
X137016065Y-179985706D01*
X137016067Y-179985707D01*
X137226598Y-180042119D01*
X137226600Y-180042119D01*
X137231913Y-180043543D01*
X137460000Y-180063498D01*
X137688087Y-180043543D01*
X137693400Y-180042119D01*
X137693402Y-180042119D01*
X137903933Y-179985707D01*
X137903935Y-179985706D01*
X137909243Y-179984284D01*
X137914225Y-179981961D01*
X138111762Y-179889849D01*
X138111767Y-179889846D01*
X138116749Y-179887523D01*
X138264131Y-179784325D01*
X138299789Y-179759357D01*
X138299792Y-179759355D01*
X138304300Y-179756198D01*
X138466198Y-179594300D01*
X138597523Y-179406749D01*
X138599846Y-179401767D01*
X138599849Y-179401762D01*
X138691961Y-179204225D01*
X138691961Y-179204224D01*
X138694284Y-179199243D01*
X138753543Y-178978087D01*
X138773498Y-178750000D01*
X138753543Y-178521913D01*
X138752119Y-178516598D01*
X138695707Y-178306067D01*
X138695706Y-178306065D01*
X138694284Y-178300757D01*
X138683232Y-178277055D01*
X138599849Y-178098238D01*
X138599846Y-178098233D01*
X138597523Y-178093251D01*
X138466198Y-177905700D01*
X138304300Y-177743802D01*
X138299792Y-177740645D01*
X138299789Y-177740643D01*
X138181612Y-177657895D01*
X138116749Y-177612477D01*
X138111767Y-177610154D01*
X138111762Y-177610151D01*
X137914225Y-177518039D01*
X137914224Y-177518039D01*
X137909243Y-177515716D01*
X137903935Y-177514294D01*
X137903933Y-177514293D01*
X137693402Y-177457881D01*
X137693400Y-177457881D01*
X137688087Y-177456457D01*
X137460000Y-177436502D01*
X137231913Y-177456457D01*
X137226600Y-177457881D01*
X137226598Y-177457881D01*
X137016067Y-177514293D01*
X137016065Y-177514294D01*
X137010757Y-177515716D01*
X137005776Y-177518039D01*
X137005775Y-177518039D01*
X136808238Y-177610151D01*
X136808233Y-177610154D01*
X136803251Y-177612477D01*
X136738388Y-177657895D01*
X136620211Y-177740643D01*
X136620208Y-177740645D01*
X136615700Y-177743802D01*
X136453802Y-177905700D01*
X136322477Y-178093251D01*
X136320154Y-178098233D01*
X136320151Y-178098238D01*
X136236768Y-178277055D01*
X136225716Y-178300757D01*
X136224294Y-178306065D01*
X136224293Y-178306067D01*
X136167881Y-178516598D01*
X136166457Y-178521913D01*
X136146502Y-178750000D01*
X132566500Y-178750000D01*
X132566500Y-174500000D01*
X136146502Y-174500000D01*
X136166457Y-174728087D01*
X136225716Y-174949243D01*
X136228039Y-174954224D01*
X136228039Y-174954225D01*
X136320151Y-175151762D01*
X136320154Y-175151767D01*
X136322477Y-175156749D01*
X136453802Y-175344300D01*
X136615700Y-175506198D01*
X136620208Y-175509355D01*
X136620211Y-175509357D01*
X136655869Y-175534325D01*
X136803251Y-175637523D01*
X136808233Y-175639846D01*
X136808238Y-175639849D01*
X137005775Y-175731961D01*
X137010757Y-175734284D01*
X137016065Y-175735706D01*
X137016067Y-175735707D01*
X137226598Y-175792119D01*
X137226600Y-175792119D01*
X137231913Y-175793543D01*
X137460000Y-175813498D01*
X137688087Y-175793543D01*
X137693400Y-175792119D01*
X137693402Y-175792119D01*
X137903933Y-175735707D01*
X137903935Y-175735706D01*
X137909243Y-175734284D01*
X137914225Y-175731961D01*
X138111762Y-175639849D01*
X138111767Y-175639846D01*
X138116749Y-175637523D01*
X138264131Y-175534325D01*
X138299789Y-175509357D01*
X138299792Y-175509355D01*
X138304300Y-175506198D01*
X138466198Y-175344300D01*
X138597523Y-175156749D01*
X138599846Y-175151767D01*
X138599849Y-175151762D01*
X138691961Y-174954225D01*
X138691961Y-174954224D01*
X138694284Y-174949243D01*
X138753543Y-174728087D01*
X138773498Y-174500000D01*
X138753543Y-174271913D01*
X138694284Y-174050757D01*
X138691961Y-174045775D01*
X138599849Y-173848238D01*
X138599846Y-173848233D01*
X138597523Y-173843251D01*
X138466198Y-173655700D01*
X138304300Y-173493802D01*
X138299792Y-173490645D01*
X138299789Y-173490643D01*
X138181612Y-173407895D01*
X138116749Y-173362477D01*
X138111767Y-173360154D01*
X138111762Y-173360151D01*
X137914225Y-173268039D01*
X137914224Y-173268039D01*
X137909243Y-173265716D01*
X137903935Y-173264294D01*
X137903933Y-173264293D01*
X137693402Y-173207881D01*
X137693400Y-173207881D01*
X137688087Y-173206457D01*
X137460000Y-173186502D01*
X137231913Y-173206457D01*
X137226600Y-173207881D01*
X137226598Y-173207881D01*
X137016067Y-173264293D01*
X137016065Y-173264294D01*
X137010757Y-173265716D01*
X137005776Y-173268039D01*
X137005775Y-173268039D01*
X136808238Y-173360151D01*
X136808233Y-173360154D01*
X136803251Y-173362477D01*
X136738388Y-173407895D01*
X136620211Y-173490643D01*
X136620208Y-173490645D01*
X136615700Y-173493802D01*
X136453802Y-173655700D01*
X136322477Y-173843251D01*
X136320154Y-173848233D01*
X136320151Y-173848238D01*
X136228039Y-174045775D01*
X136225716Y-174050757D01*
X136166457Y-174271913D01*
X136146502Y-174500000D01*
X132566500Y-174500000D01*
X132566500Y-171698134D01*
X140051500Y-171698134D01*
X140058255Y-171760316D01*
X140109385Y-171896705D01*
X140196739Y-172013261D01*
X140313295Y-172100615D01*
X140449684Y-172151745D01*
X140511866Y-172158500D01*
X142408134Y-172158500D01*
X142470316Y-172151745D01*
X142606705Y-172100615D01*
X142723261Y-172013261D01*
X142810615Y-171896705D01*
X142861745Y-171760316D01*
X142868500Y-171698134D01*
X142868500Y-169801866D01*
X142861745Y-169739684D01*
X142810615Y-169603295D01*
X142723261Y-169486739D01*
X142606705Y-169399385D01*
X142470316Y-169348255D01*
X142408134Y-169341500D01*
X140511866Y-169341500D01*
X140449684Y-169348255D01*
X140313295Y-169399385D01*
X140196739Y-169486739D01*
X140109385Y-169603295D01*
X140058255Y-169739684D01*
X140051500Y-169801866D01*
X140051500Y-171698134D01*
X132566500Y-171698134D01*
X132566500Y-168715469D01*
X147837095Y-168715469D01*
X147837392Y-168720622D01*
X147837392Y-168720625D01*
X147843067Y-168819041D01*
X147850427Y-168946697D01*
X147851564Y-168951743D01*
X147851565Y-168951749D01*
X147883741Y-169094523D01*
X147901346Y-169172642D01*
X147903288Y-169177424D01*
X147903289Y-169177428D01*
X147972655Y-169348255D01*
X147988484Y-169387237D01*
X148109501Y-169584719D01*
X148261147Y-169759784D01*
X148439349Y-169907730D01*
X148639322Y-170024584D01*
X148855694Y-170107209D01*
X148860760Y-170108240D01*
X148860761Y-170108240D01*
X148913846Y-170119040D01*
X149082656Y-170153385D01*
X149213324Y-170158176D01*
X149308949Y-170161683D01*
X149308953Y-170161683D01*
X149314113Y-170161872D01*
X149319233Y-170161216D01*
X149319235Y-170161216D01*
X149392270Y-170151860D01*
X149543847Y-170132442D01*
X149548795Y-170130957D01*
X149548802Y-170130956D01*
X149760747Y-170067369D01*
X149765690Y-170065886D01*
X149846236Y-170026427D01*
X149969049Y-169966262D01*
X149969052Y-169966260D01*
X149973684Y-169963991D01*
X150162243Y-169829494D01*
X150326303Y-169666005D01*
X150461458Y-169477917D01*
X150508641Y-169382450D01*
X150561784Y-169274922D01*
X150561785Y-169274920D01*
X150564078Y-169270280D01*
X150631408Y-169048671D01*
X150661640Y-168819041D01*
X150663327Y-168750000D01*
X150657032Y-168673434D01*
X150644773Y-168524318D01*
X150644772Y-168524312D01*
X150644349Y-168519167D01*
X150587925Y-168294533D01*
X150585866Y-168289797D01*
X150497630Y-168086868D01*
X150497628Y-168086865D01*
X150495570Y-168082131D01*
X150369764Y-167887665D01*
X150213887Y-167716358D01*
X150209836Y-167713159D01*
X150209832Y-167713155D01*
X150036177Y-167576011D01*
X150036172Y-167576008D01*
X150032123Y-167572810D01*
X150027607Y-167570317D01*
X150027604Y-167570315D01*
X149833879Y-167463373D01*
X149833875Y-167463371D01*
X149829355Y-167460876D01*
X149824486Y-167459152D01*
X149824482Y-167459150D01*
X149615903Y-167385288D01*
X149615899Y-167385287D01*
X149611028Y-167383562D01*
X149605935Y-167382655D01*
X149605932Y-167382654D01*
X149388095Y-167343851D01*
X149388089Y-167343850D01*
X149383006Y-167342945D01*
X149310096Y-167342054D01*
X149156581Y-167340179D01*
X149156579Y-167340179D01*
X149151411Y-167340116D01*
X148922464Y-167375150D01*
X148702314Y-167447106D01*
X148697726Y-167449494D01*
X148697722Y-167449496D01*
X148671065Y-167463373D01*
X148496872Y-167554052D01*
X148492739Y-167557155D01*
X148492736Y-167557157D01*
X148467625Y-167576011D01*
X148311655Y-167693117D01*
X148151639Y-167860564D01*
X148148725Y-167864836D01*
X148148724Y-167864837D01*
X148133152Y-167887665D01*
X148021119Y-168051899D01*
X147923602Y-168261981D01*
X147861707Y-168485169D01*
X147837095Y-168715469D01*
X132566500Y-168715469D01*
X132566500Y-161542703D01*
X138790743Y-161542703D01*
X138828268Y-161827734D01*
X138904129Y-162105036D01*
X139016923Y-162369476D01*
X139164561Y-162616161D01*
X139344313Y-162840528D01*
X139552851Y-163038423D01*
X139786317Y-163206186D01*
X139790112Y-163208195D01*
X139790113Y-163208196D01*
X139811869Y-163219715D01*
X140040392Y-163340712D01*
X140310373Y-163439511D01*
X140591264Y-163500755D01*
X140619841Y-163503004D01*
X140814282Y-163518307D01*
X140814291Y-163518307D01*
X140816739Y-163518500D01*
X140972271Y-163518500D01*
X140974407Y-163518354D01*
X140974418Y-163518354D01*
X141182548Y-163504165D01*
X141182554Y-163504164D01*
X141186825Y-163503873D01*
X141191020Y-163503004D01*
X141191022Y-163503004D01*
X141327583Y-163474724D01*
X141468342Y-163445574D01*
X141739343Y-163349607D01*
X141994812Y-163217750D01*
X141998313Y-163215289D01*
X141998317Y-163215287D01*
X142112418Y-163135095D01*
X142230023Y-163052441D01*
X142440622Y-162856740D01*
X142622713Y-162634268D01*
X142772927Y-162389142D01*
X142888483Y-162125898D01*
X142967244Y-161849406D01*
X143007751Y-161564784D01*
X143007845Y-161546951D01*
X143009235Y-161281583D01*
X143009235Y-161281576D01*
X143009257Y-161277297D01*
X142971732Y-160992266D01*
X142895871Y-160714964D01*
X142783077Y-160450524D01*
X142635439Y-160203839D01*
X142455687Y-159979472D01*
X142306342Y-159837749D01*
X142250258Y-159784527D01*
X142250255Y-159784525D01*
X142247149Y-159781577D01*
X142013683Y-159613814D01*
X141991843Y-159602250D01*
X141917051Y-159562650D01*
X141759608Y-159479288D01*
X141489627Y-159380489D01*
X141208736Y-159319245D01*
X141177685Y-159316801D01*
X140985718Y-159301693D01*
X140985709Y-159301693D01*
X140983261Y-159301500D01*
X140827729Y-159301500D01*
X140825593Y-159301646D01*
X140825582Y-159301646D01*
X140617452Y-159315835D01*
X140617446Y-159315836D01*
X140613175Y-159316127D01*
X140608980Y-159316996D01*
X140608978Y-159316996D01*
X140472416Y-159345277D01*
X140331658Y-159374426D01*
X140060657Y-159470393D01*
X139805188Y-159602250D01*
X139801687Y-159604711D01*
X139801683Y-159604713D01*
X139791594Y-159611804D01*
X139569977Y-159767559D01*
X139554892Y-159781577D01*
X139410969Y-159915319D01*
X139359378Y-159963260D01*
X139177287Y-160185732D01*
X139027073Y-160430858D01*
X138911517Y-160694102D01*
X138910342Y-160698229D01*
X138910341Y-160698230D01*
X138877769Y-160812574D01*
X138832756Y-160970594D01*
X138829672Y-160992266D01*
X138794930Y-161236381D01*
X138792249Y-161255216D01*
X138792227Y-161259505D01*
X138792226Y-161259512D01*
X138791473Y-161403307D01*
X138790743Y-161542703D01*
X132566500Y-161542703D01*
X132566500Y-158870000D01*
X145986693Y-158870000D01*
X146005885Y-159089371D01*
X146062880Y-159302076D01*
X146100132Y-159381964D01*
X146153618Y-159496666D01*
X146153621Y-159496671D01*
X146155944Y-159501653D01*
X146159100Y-159506160D01*
X146159101Y-159506162D01*
X146233073Y-159611804D01*
X146282251Y-159682038D01*
X146437962Y-159837749D01*
X146618346Y-159964056D01*
X146817924Y-160057120D01*
X147030629Y-160114115D01*
X147250000Y-160133307D01*
X147469371Y-160114115D01*
X147682076Y-160057120D01*
X147881654Y-159964056D01*
X148062038Y-159837749D01*
X148217749Y-159682038D01*
X148266928Y-159611804D01*
X148340899Y-159506162D01*
X148340900Y-159506160D01*
X148344056Y-159501653D01*
X148346379Y-159496671D01*
X148346382Y-159496666D01*
X148399868Y-159381964D01*
X148437120Y-159302076D01*
X148494115Y-159089371D01*
X148513307Y-158870000D01*
X148494115Y-158650629D01*
X148437120Y-158437924D01*
X148393585Y-158344562D01*
X148346382Y-158243334D01*
X148346379Y-158243329D01*
X148344056Y-158238347D01*
X148294182Y-158167119D01*
X148220908Y-158062473D01*
X148220906Y-158062470D01*
X148217749Y-158057962D01*
X148062038Y-157902251D01*
X147881654Y-157775944D01*
X147876672Y-157773621D01*
X147876667Y-157773618D01*
X147749232Y-157714195D01*
X147695947Y-157667278D01*
X147676486Y-157599001D01*
X147697028Y-157531041D01*
X147749232Y-157485805D01*
X147876667Y-157426382D01*
X147876672Y-157426379D01*
X147881654Y-157424056D01*
X148062038Y-157297749D01*
X148217749Y-157142038D01*
X148280694Y-157052144D01*
X148340899Y-156966162D01*
X148340900Y-156966160D01*
X148344056Y-156961653D01*
X148346379Y-156956671D01*
X148346382Y-156956666D01*
X148393585Y-156855438D01*
X148437120Y-156762076D01*
X148494115Y-156549371D01*
X148513307Y-156330000D01*
X148494115Y-156110629D01*
X148437120Y-155897924D01*
X148393585Y-155804562D01*
X148346382Y-155703334D01*
X148346379Y-155703329D01*
X148344056Y-155698347D01*
X148294182Y-155627119D01*
X148220908Y-155522473D01*
X148220906Y-155522470D01*
X148217749Y-155517962D01*
X148062038Y-155362251D01*
X147881654Y-155235944D01*
X147876672Y-155233621D01*
X147876667Y-155233618D01*
X147749232Y-155174195D01*
X147695947Y-155127278D01*
X147676486Y-155059001D01*
X147697028Y-154991041D01*
X147749232Y-154945805D01*
X147876667Y-154886382D01*
X147876672Y-154886379D01*
X147881654Y-154884056D01*
X148062038Y-154757749D01*
X148217749Y-154602038D01*
X148280694Y-154512144D01*
X148340899Y-154426162D01*
X148340900Y-154426160D01*
X148344056Y-154421653D01*
X148346379Y-154416671D01*
X148346382Y-154416666D01*
X148393585Y-154315438D01*
X148437120Y-154222076D01*
X148494115Y-154009371D01*
X148513307Y-153790000D01*
X148494115Y-153570629D01*
X148437120Y-153357924D01*
X148393585Y-153264562D01*
X148346382Y-153163334D01*
X148346379Y-153163329D01*
X148344056Y-153158347D01*
X148294182Y-153087119D01*
X148220908Y-152982473D01*
X148220906Y-152982470D01*
X148217749Y-152977962D01*
X148062038Y-152822251D01*
X147881654Y-152695944D01*
X147682076Y-152602880D01*
X147469371Y-152545885D01*
X147250000Y-152526693D01*
X147030629Y-152545885D01*
X146817924Y-152602880D01*
X146724562Y-152646415D01*
X146623334Y-152693618D01*
X146623329Y-152693621D01*
X146618347Y-152695944D01*
X146613840Y-152699100D01*
X146613838Y-152699101D01*
X146442473Y-152819092D01*
X146442470Y-152819094D01*
X146437962Y-152822251D01*
X146282251Y-152977962D01*
X146279094Y-152982470D01*
X146279092Y-152982473D01*
X146205818Y-153087119D01*
X146155944Y-153158347D01*
X146153621Y-153163329D01*
X146153618Y-153163334D01*
X146106415Y-153264562D01*
X146062880Y-153357924D01*
X146005885Y-153570629D01*
X145986693Y-153790000D01*
X146005885Y-154009371D01*
X146062880Y-154222076D01*
X146106415Y-154315438D01*
X146153618Y-154416666D01*
X146153621Y-154416671D01*
X146155944Y-154421653D01*
X146159100Y-154426160D01*
X146159101Y-154426162D01*
X146219307Y-154512144D01*
X146282251Y-154602038D01*
X146437962Y-154757749D01*
X146618346Y-154884056D01*
X146623328Y-154886379D01*
X146623333Y-154886382D01*
X146750768Y-154945805D01*
X146804053Y-154992722D01*
X146823514Y-155060999D01*
X146802972Y-155128959D01*
X146750768Y-155174195D01*
X146623334Y-155233618D01*
X146623329Y-155233621D01*
X146618347Y-155235944D01*
X146613840Y-155239100D01*
X146613838Y-155239101D01*
X146442473Y-155359092D01*
X146442470Y-155359094D01*
X146437962Y-155362251D01*
X146282251Y-155517962D01*
X146279094Y-155522470D01*
X146279092Y-155522473D01*
X146205818Y-155627119D01*
X146155944Y-155698347D01*
X146153621Y-155703329D01*
X146153618Y-155703334D01*
X146106415Y-155804562D01*
X146062880Y-155897924D01*
X146005885Y-156110629D01*
X145986693Y-156330000D01*
X146005885Y-156549371D01*
X146062880Y-156762076D01*
X146106415Y-156855438D01*
X146153618Y-156956666D01*
X146153621Y-156956671D01*
X146155944Y-156961653D01*
X146159100Y-156966160D01*
X146159101Y-156966162D01*
X146219307Y-157052144D01*
X146282251Y-157142038D01*
X146437962Y-157297749D01*
X146618346Y-157424056D01*
X146623328Y-157426379D01*
X146623333Y-157426382D01*
X146750768Y-157485805D01*
X146804053Y-157532722D01*
X146823514Y-157600999D01*
X146802972Y-157668959D01*
X146750768Y-157714195D01*
X146623334Y-157773618D01*
X146623329Y-157773621D01*
X146618347Y-157775944D01*
X146613840Y-157779100D01*
X146613838Y-157779101D01*
X146442473Y-157899092D01*
X146442470Y-157899094D01*
X146437962Y-157902251D01*
X146282251Y-158057962D01*
X146279094Y-158062470D01*
X146279092Y-158062473D01*
X146205818Y-158167119D01*
X146155944Y-158238347D01*
X146153621Y-158243329D01*
X146153618Y-158243334D01*
X146106415Y-158344562D01*
X146062880Y-158437924D01*
X146005885Y-158650629D01*
X145986693Y-158870000D01*
X132566500Y-158870000D01*
X132566500Y-149000000D01*
X135759476Y-149000000D01*
X135760166Y-149006565D01*
X135762049Y-149024476D01*
X135779438Y-149189928D01*
X135838453Y-149371556D01*
X135933940Y-149536944D01*
X135938358Y-149541851D01*
X135938359Y-149541852D01*
X135956740Y-149562266D01*
X136061727Y-149678866D01*
X136216228Y-149791118D01*
X136222256Y-149793802D01*
X136222258Y-149793803D01*
X136352035Y-149851583D01*
X136390692Y-149868794D01*
X136484092Y-149888647D01*
X136571036Y-149907128D01*
X136571041Y-149907128D01*
X136577493Y-149908500D01*
X136768467Y-149908500D01*
X136774919Y-149907128D01*
X136774924Y-149907128D01*
X136861868Y-149888647D01*
X136955268Y-149868794D01*
X136993925Y-149851583D01*
X137123702Y-149793803D01*
X137123704Y-149793802D01*
X137129732Y-149791118D01*
X137284233Y-149678866D01*
X137389220Y-149562266D01*
X137407601Y-149541852D01*
X137407602Y-149541851D01*
X137412020Y-149536944D01*
X137507507Y-149371556D01*
X137566522Y-149189928D01*
X137579735Y-149064215D01*
X137606748Y-148998559D01*
X137615949Y-148988291D01*
X137759933Y-148844307D01*
X137928355Y-148675884D01*
X137990668Y-148641859D01*
X138017451Y-148638979D01*
X139023844Y-148638979D01*
X139091965Y-148658981D01*
X139138458Y-148712637D01*
X139148562Y-148782911D01*
X139131276Y-148830814D01*
X139029320Y-148997190D01*
X139029316Y-148997198D01*
X139027073Y-149000858D01*
X138911517Y-149264102D01*
X138832756Y-149540594D01*
X138792249Y-149825216D01*
X138792227Y-149829505D01*
X138792226Y-149829512D01*
X138790765Y-150108417D01*
X138790743Y-150112703D01*
X138828268Y-150397734D01*
X138904129Y-150675036D01*
X139016923Y-150939476D01*
X139164561Y-151186161D01*
X139344313Y-151410528D01*
X139361397Y-151426740D01*
X139497765Y-151556148D01*
X139552851Y-151608423D01*
X139786317Y-151776186D01*
X139790112Y-151778195D01*
X139790113Y-151778196D01*
X139811869Y-151789715D01*
X140040392Y-151910712D01*
X140310373Y-152009511D01*
X140591264Y-152070755D01*
X140619841Y-152073004D01*
X140814282Y-152088307D01*
X140814291Y-152088307D01*
X140816739Y-152088500D01*
X140972271Y-152088500D01*
X140974407Y-152088354D01*
X140974418Y-152088354D01*
X141182548Y-152074165D01*
X141182554Y-152074164D01*
X141186825Y-152073873D01*
X141191020Y-152073004D01*
X141191022Y-152073004D01*
X141327584Y-152044723D01*
X141468342Y-152015574D01*
X141739343Y-151919607D01*
X141994812Y-151787750D01*
X141998313Y-151785289D01*
X141998317Y-151785287D01*
X142113884Y-151704065D01*
X142230023Y-151622441D01*
X142440622Y-151426740D01*
X142622713Y-151204268D01*
X142772927Y-150959142D01*
X142888483Y-150695898D01*
X142967244Y-150419406D01*
X143007751Y-150134784D01*
X143007845Y-150116951D01*
X143009235Y-149851583D01*
X143009235Y-149851576D01*
X143009257Y-149847297D01*
X143002215Y-149793803D01*
X142984221Y-149657128D01*
X142971732Y-149562266D01*
X142963241Y-149531226D01*
X142935238Y-149428866D01*
X142895871Y-149284964D01*
X142858012Y-149196206D01*
X142784763Y-149024476D01*
X142784761Y-149024472D01*
X142783077Y-149020524D01*
X142668862Y-148829685D01*
X142651042Y-148760961D01*
X142673206Y-148693513D01*
X142728317Y-148648755D01*
X142776978Y-148638979D01*
X143155529Y-148638979D01*
X143223650Y-148658981D01*
X143244624Y-148675884D01*
X143307030Y-148738290D01*
X143341056Y-148800602D01*
X143343244Y-148814211D01*
X143356458Y-148939928D01*
X143358498Y-148946205D01*
X143358498Y-148946207D01*
X143390234Y-149043880D01*
X143415473Y-149121556D01*
X143510960Y-149286944D01*
X143638747Y-149428866D01*
X143793248Y-149541118D01*
X143799276Y-149543802D01*
X143799278Y-149543803D01*
X143961681Y-149616109D01*
X143967712Y-149618794D01*
X144061112Y-149638647D01*
X144148056Y-149657128D01*
X144148061Y-149657128D01*
X144154513Y-149658500D01*
X144345487Y-149658500D01*
X144351939Y-149657128D01*
X144351944Y-149657128D01*
X144438888Y-149638647D01*
X144532288Y-149618794D01*
X144538319Y-149616109D01*
X144700722Y-149543803D01*
X144700724Y-149543802D01*
X144706752Y-149541118D01*
X144861253Y-149428866D01*
X144989040Y-149286944D01*
X145084527Y-149121556D01*
X145143542Y-148939928D01*
X145156501Y-148816635D01*
X145162814Y-148756565D01*
X145163504Y-148750000D01*
X145143542Y-148560072D01*
X145084527Y-148378444D01*
X144989040Y-148213056D01*
X144861253Y-148071134D01*
X144706752Y-147958882D01*
X144700724Y-147956198D01*
X144700722Y-147956197D01*
X144538319Y-147883891D01*
X144538318Y-147883891D01*
X144532288Y-147881206D01*
X144438887Y-147861353D01*
X144351944Y-147842872D01*
X144351939Y-147842872D01*
X144345487Y-147841500D01*
X144324950Y-147841500D01*
X144256829Y-147821498D01*
X144235855Y-147804595D01*
X144004134Y-147572874D01*
X143996144Y-147564094D01*
X143996142Y-147564092D01*
X143991895Y-147557399D01*
X143940221Y-147508874D01*
X143937380Y-147506120D01*
X143916812Y-147485552D01*
X143913305Y-147482832D01*
X143904283Y-147475126D01*
X143870612Y-147443507D01*
X143863660Y-147439685D01*
X143851821Y-147433176D01*
X143835297Y-147422322D01*
X143824611Y-147414034D01*
X143818347Y-147409175D01*
X143811075Y-147406028D01*
X143811073Y-147406027D01*
X143775944Y-147390825D01*
X143765284Y-147385603D01*
X143731763Y-147367174D01*
X143731761Y-147367173D01*
X143724816Y-147363355D01*
X143704038Y-147358020D01*
X143685348Y-147351621D01*
X143665655Y-147343099D01*
X143620031Y-147335873D01*
X143608408Y-147333466D01*
X143574140Y-147324668D01*
X143563667Y-147321979D01*
X143542220Y-147321979D01*
X143522510Y-147320428D01*
X143509156Y-147318313D01*
X143501327Y-147317073D01*
X143455338Y-147321420D01*
X143443483Y-147321979D01*
X137774557Y-147321979D01*
X137762701Y-147321420D01*
X137762698Y-147321420D01*
X137754964Y-147319691D01*
X137699947Y-147321420D01*
X137684132Y-147321917D01*
X137680174Y-147321979D01*
X137651069Y-147321979D01*
X137646669Y-147322535D01*
X137634837Y-147323467D01*
X137588670Y-147324917D01*
X137568080Y-147330899D01*
X137548719Y-147334909D01*
X137541731Y-147335791D01*
X137535297Y-147336604D01*
X137535296Y-147336604D01*
X137527437Y-147337597D01*
X137520072Y-147340513D01*
X137520068Y-147340514D01*
X137484483Y-147354603D01*
X137473253Y-147358448D01*
X137428900Y-147371334D01*
X137422076Y-147375370D01*
X137410444Y-147382249D01*
X137392688Y-147390948D01*
X137372745Y-147398844D01*
X137358526Y-147409175D01*
X137335369Y-147425999D01*
X137325450Y-147432514D01*
X137292524Y-147451987D01*
X137292520Y-147451990D01*
X137285694Y-147456027D01*
X137270533Y-147471188D01*
X137255501Y-147484027D01*
X137238144Y-147496638D01*
X137228021Y-147508875D01*
X137208699Y-147532231D01*
X137200709Y-147541012D01*
X136687124Y-148054596D01*
X136624812Y-148088621D01*
X136598029Y-148091500D01*
X136577493Y-148091500D01*
X136571041Y-148092872D01*
X136571036Y-148092872D01*
X136484092Y-148111353D01*
X136390692Y-148131206D01*
X136384662Y-148133891D01*
X136384661Y-148133891D01*
X136222258Y-148206197D01*
X136222256Y-148206198D01*
X136216228Y-148208882D01*
X136061727Y-148321134D01*
X135933940Y-148463056D01*
X135838453Y-148628444D01*
X135779438Y-148810072D01*
X135778748Y-148816633D01*
X135778748Y-148816635D01*
X135765790Y-148939928D01*
X135759476Y-149000000D01*
X132566500Y-149000000D01*
X132566500Y-144750000D01*
X136086502Y-144750000D01*
X136106457Y-144978087D01*
X136165716Y-145199243D01*
X136168039Y-145204224D01*
X136168039Y-145204225D01*
X136260151Y-145401762D01*
X136260154Y-145401767D01*
X136262477Y-145406749D01*
X136393802Y-145594300D01*
X136555700Y-145756198D01*
X136560208Y-145759355D01*
X136560211Y-145759357D01*
X136638389Y-145814098D01*
X136743251Y-145887523D01*
X136748233Y-145889846D01*
X136748238Y-145889849D01*
X136945775Y-145981961D01*
X136950757Y-145984284D01*
X136956065Y-145985706D01*
X136956067Y-145985707D01*
X137166598Y-146042119D01*
X137166600Y-146042119D01*
X137171913Y-146043543D01*
X137400000Y-146063498D01*
X137628087Y-146043543D01*
X137633400Y-146042119D01*
X137633402Y-146042119D01*
X137843933Y-145985707D01*
X137843935Y-145985706D01*
X137849243Y-145984284D01*
X137854225Y-145981961D01*
X138051762Y-145889849D01*
X138051767Y-145889846D01*
X138056749Y-145887523D01*
X138161611Y-145814098D01*
X138239789Y-145759357D01*
X138239792Y-145759355D01*
X138244300Y-145756198D01*
X138406198Y-145594300D01*
X138537523Y-145406749D01*
X138539846Y-145401767D01*
X138539849Y-145401762D01*
X138631961Y-145204225D01*
X138631961Y-145204224D01*
X138634284Y-145199243D01*
X138693543Y-144978087D01*
X138713498Y-144750000D01*
X138693543Y-144521913D01*
X138634284Y-144300757D01*
X138631961Y-144295775D01*
X138539849Y-144098238D01*
X138539846Y-144098233D01*
X138537523Y-144093251D01*
X138406198Y-143905700D01*
X138244300Y-143743802D01*
X138239792Y-143740645D01*
X138239789Y-143740643D01*
X138084326Y-143631787D01*
X138056749Y-143612477D01*
X138051767Y-143610154D01*
X138051762Y-143610151D01*
X137854225Y-143518039D01*
X137854224Y-143518039D01*
X137849243Y-143515716D01*
X137843935Y-143514294D01*
X137843933Y-143514293D01*
X137633402Y-143457881D01*
X137633400Y-143457881D01*
X137628087Y-143456457D01*
X137400000Y-143436502D01*
X137171913Y-143456457D01*
X137166600Y-143457881D01*
X137166598Y-143457881D01*
X136956067Y-143514293D01*
X136956065Y-143514294D01*
X136950757Y-143515716D01*
X136945776Y-143518039D01*
X136945775Y-143518039D01*
X136748238Y-143610151D01*
X136748233Y-143610154D01*
X136743251Y-143612477D01*
X136715674Y-143631787D01*
X136560211Y-143740643D01*
X136560208Y-143740645D01*
X136555700Y-143743802D01*
X136393802Y-143905700D01*
X136262477Y-144093251D01*
X136260154Y-144098233D01*
X136260151Y-144098238D01*
X136168039Y-144295775D01*
X136165716Y-144300757D01*
X136106457Y-144521913D01*
X136086502Y-144750000D01*
X132566500Y-144750000D01*
X132566500Y-140750000D01*
X136186502Y-140750000D01*
X136206457Y-140978087D01*
X136265716Y-141199243D01*
X136268039Y-141204224D01*
X136268039Y-141204225D01*
X136360151Y-141401762D01*
X136360154Y-141401767D01*
X136362477Y-141406749D01*
X136493802Y-141594300D01*
X136655700Y-141756198D01*
X136660208Y-141759355D01*
X136660211Y-141759357D01*
X136735869Y-141812333D01*
X136843251Y-141887523D01*
X136848233Y-141889846D01*
X136848238Y-141889849D01*
X137045775Y-141981961D01*
X137050757Y-141984284D01*
X137056065Y-141985706D01*
X137056067Y-141985707D01*
X137266598Y-142042119D01*
X137266600Y-142042119D01*
X137271913Y-142043543D01*
X137500000Y-142063498D01*
X137728087Y-142043543D01*
X137733400Y-142042119D01*
X137733402Y-142042119D01*
X137943933Y-141985707D01*
X137943935Y-141985706D01*
X137949243Y-141984284D01*
X137954225Y-141981961D01*
X138151762Y-141889849D01*
X138151767Y-141889846D01*
X138156749Y-141887523D01*
X138264131Y-141812333D01*
X138339789Y-141759357D01*
X138339792Y-141759355D01*
X138344300Y-141756198D01*
X138506198Y-141594300D01*
X138637523Y-141406749D01*
X138639846Y-141401767D01*
X138639849Y-141401762D01*
X138731961Y-141204225D01*
X138731961Y-141204224D01*
X138734284Y-141199243D01*
X138793543Y-140978087D01*
X138813498Y-140750000D01*
X138793543Y-140521913D01*
X138734284Y-140300757D01*
X138731961Y-140295775D01*
X138639849Y-140098238D01*
X138639846Y-140098233D01*
X138637523Y-140093251D01*
X138506198Y-139905700D01*
X138344300Y-139743802D01*
X138339792Y-139740645D01*
X138339789Y-139740643D01*
X138231729Y-139664979D01*
X138156749Y-139612477D01*
X138151767Y-139610154D01*
X138151762Y-139610151D01*
X137954225Y-139518039D01*
X137954224Y-139518039D01*
X137949243Y-139515716D01*
X137943935Y-139514294D01*
X137943933Y-139514293D01*
X137733402Y-139457881D01*
X137733400Y-139457881D01*
X137728087Y-139456457D01*
X137500000Y-139436502D01*
X137271913Y-139456457D01*
X137266600Y-139457881D01*
X137266598Y-139457881D01*
X137056067Y-139514293D01*
X137056065Y-139514294D01*
X137050757Y-139515716D01*
X137045776Y-139518039D01*
X137045775Y-139518039D01*
X136848238Y-139610151D01*
X136848233Y-139610154D01*
X136843251Y-139612477D01*
X136768271Y-139664979D01*
X136660211Y-139740643D01*
X136660208Y-139740645D01*
X136655700Y-139743802D01*
X136493802Y-139905700D01*
X136362477Y-140093251D01*
X136360154Y-140098233D01*
X136360151Y-140098238D01*
X136268039Y-140295775D01*
X136265716Y-140300757D01*
X136206457Y-140521913D01*
X136186502Y-140750000D01*
X132566500Y-140750000D01*
X132566500Y-137948134D01*
X138091500Y-137948134D01*
X138098255Y-138010316D01*
X138149385Y-138146705D01*
X138236739Y-138263261D01*
X138353295Y-138350615D01*
X138489684Y-138401745D01*
X138551866Y-138408500D01*
X140448134Y-138408500D01*
X140510316Y-138401745D01*
X140646705Y-138350615D01*
X140763261Y-138263261D01*
X140850615Y-138146705D01*
X140901745Y-138010316D01*
X140908500Y-137948134D01*
X140908500Y-136051866D01*
X140901745Y-135989684D01*
X140850615Y-135853295D01*
X140763261Y-135736739D01*
X140646705Y-135649385D01*
X140510316Y-135598255D01*
X140448134Y-135591500D01*
X138551866Y-135591500D01*
X138489684Y-135598255D01*
X138353295Y-135649385D01*
X138236739Y-135736739D01*
X138149385Y-135853295D01*
X138098255Y-135989684D01*
X138091500Y-136051866D01*
X138091500Y-137948134D01*
X132566500Y-137948134D01*
X132566500Y-135465469D01*
X147877095Y-135465469D01*
X147877392Y-135470622D01*
X147877392Y-135470625D01*
X147884383Y-135591869D01*
X147890427Y-135696697D01*
X147891564Y-135701743D01*
X147891565Y-135701749D01*
X147923741Y-135844523D01*
X147941346Y-135922642D01*
X147943288Y-135927424D01*
X147943289Y-135927428D01*
X147992439Y-136048469D01*
X148028484Y-136137237D01*
X148149501Y-136334719D01*
X148301147Y-136509784D01*
X148479349Y-136657730D01*
X148679322Y-136774584D01*
X148895694Y-136857209D01*
X148900760Y-136858240D01*
X148900761Y-136858240D01*
X148953846Y-136869040D01*
X149122656Y-136903385D01*
X149253324Y-136908176D01*
X149348949Y-136911683D01*
X149348953Y-136911683D01*
X149354113Y-136911872D01*
X149359233Y-136911216D01*
X149359235Y-136911216D01*
X149432270Y-136901860D01*
X149583847Y-136882442D01*
X149588795Y-136880957D01*
X149588802Y-136880956D01*
X149800747Y-136817369D01*
X149805690Y-136815886D01*
X149886236Y-136776427D01*
X150009049Y-136716262D01*
X150009052Y-136716260D01*
X150013684Y-136713991D01*
X150202243Y-136579494D01*
X150366303Y-136416005D01*
X150501458Y-136227917D01*
X150548641Y-136132450D01*
X150601784Y-136024922D01*
X150601785Y-136024920D01*
X150604078Y-136020280D01*
X150671408Y-135798671D01*
X150701640Y-135569041D01*
X150703327Y-135500000D01*
X150697032Y-135423434D01*
X150684773Y-135274318D01*
X150684772Y-135274312D01*
X150684349Y-135269167D01*
X150627925Y-135044533D01*
X150625866Y-135039797D01*
X150537630Y-134836868D01*
X150537628Y-134836865D01*
X150535570Y-134832131D01*
X150409764Y-134637665D01*
X150253887Y-134466358D01*
X150249836Y-134463159D01*
X150249832Y-134463155D01*
X150076177Y-134326011D01*
X150076172Y-134326008D01*
X150072123Y-134322810D01*
X150067607Y-134320317D01*
X150067604Y-134320315D01*
X149873879Y-134213373D01*
X149873875Y-134213371D01*
X149869355Y-134210876D01*
X149864486Y-134209152D01*
X149864482Y-134209150D01*
X149655903Y-134135288D01*
X149655899Y-134135287D01*
X149651028Y-134133562D01*
X149645935Y-134132655D01*
X149645932Y-134132654D01*
X149428095Y-134093851D01*
X149428089Y-134093850D01*
X149423006Y-134092945D01*
X149350096Y-134092054D01*
X149196581Y-134090179D01*
X149196579Y-134090179D01*
X149191411Y-134090116D01*
X148962464Y-134125150D01*
X148742314Y-134197106D01*
X148737726Y-134199494D01*
X148737722Y-134199496D01*
X148711065Y-134213373D01*
X148536872Y-134304052D01*
X148532739Y-134307155D01*
X148532736Y-134307157D01*
X148507625Y-134326011D01*
X148351655Y-134443117D01*
X148191639Y-134610564D01*
X148188725Y-134614836D01*
X148188724Y-134614837D01*
X148173152Y-134637665D01*
X148061119Y-134801899D01*
X147963602Y-135011981D01*
X147901707Y-135235169D01*
X147877095Y-135465469D01*
X132566500Y-135465469D01*
X132566500Y-128000000D01*
X135936502Y-128000000D01*
X135956457Y-128228087D01*
X136015716Y-128449243D01*
X136018039Y-128454224D01*
X136018039Y-128454225D01*
X136110151Y-128651762D01*
X136110154Y-128651767D01*
X136112477Y-128656749D01*
X136243802Y-128844300D01*
X136405700Y-129006198D01*
X136410208Y-129009355D01*
X136410211Y-129009357D01*
X136488389Y-129064098D01*
X136593251Y-129137523D01*
X136598233Y-129139846D01*
X136598238Y-129139849D01*
X136795775Y-129231961D01*
X136800757Y-129234284D01*
X136806065Y-129235706D01*
X136806067Y-129235707D01*
X137016598Y-129292119D01*
X137016600Y-129292119D01*
X137021913Y-129293543D01*
X137250000Y-129313498D01*
X137478087Y-129293543D01*
X137483400Y-129292119D01*
X137483402Y-129292119D01*
X137693933Y-129235707D01*
X137693935Y-129235706D01*
X137699243Y-129234284D01*
X137704225Y-129231961D01*
X137901762Y-129139849D01*
X137901767Y-129139846D01*
X137906749Y-129137523D01*
X138011611Y-129064098D01*
X138089789Y-129009357D01*
X138089792Y-129009355D01*
X138094300Y-129006198D01*
X138256198Y-128844300D01*
X138387523Y-128656749D01*
X138389846Y-128651767D01*
X138389849Y-128651762D01*
X138481961Y-128454225D01*
X138481961Y-128454224D01*
X138484284Y-128449243D01*
X138543543Y-128228087D01*
X138563498Y-128000000D01*
X138543543Y-127771913D01*
X138484284Y-127550757D01*
X138481961Y-127545775D01*
X138389849Y-127348238D01*
X138389846Y-127348233D01*
X138387523Y-127343251D01*
X138256198Y-127155700D01*
X138094300Y-126993802D01*
X138089792Y-126990645D01*
X138089789Y-126990643D01*
X138011611Y-126935902D01*
X137906749Y-126862477D01*
X137901767Y-126860154D01*
X137901762Y-126860151D01*
X137704225Y-126768039D01*
X137704224Y-126768039D01*
X137699243Y-126765716D01*
X137693935Y-126764294D01*
X137693933Y-126764293D01*
X137483402Y-126707881D01*
X137483400Y-126707881D01*
X137478087Y-126706457D01*
X137250000Y-126686502D01*
X137021913Y-126706457D01*
X137016600Y-126707881D01*
X137016598Y-126707881D01*
X136806067Y-126764293D01*
X136806065Y-126764294D01*
X136800757Y-126765716D01*
X136795776Y-126768039D01*
X136795775Y-126768039D01*
X136598238Y-126860151D01*
X136598233Y-126860154D01*
X136593251Y-126862477D01*
X136488389Y-126935902D01*
X136410211Y-126990643D01*
X136410208Y-126990645D01*
X136405700Y-126993802D01*
X136243802Y-127155700D01*
X136112477Y-127343251D01*
X136110154Y-127348233D01*
X136110151Y-127348238D01*
X136018039Y-127545775D01*
X136015716Y-127550757D01*
X135956457Y-127771913D01*
X135936502Y-128000000D01*
X132566500Y-128000000D01*
X132566500Y-123000000D01*
X135836502Y-123000000D01*
X135856457Y-123228087D01*
X135915716Y-123449243D01*
X135918039Y-123454224D01*
X135918039Y-123454225D01*
X136010151Y-123651762D01*
X136010154Y-123651767D01*
X136012477Y-123656749D01*
X136015634Y-123661257D01*
X136140640Y-123839784D01*
X136143802Y-123844300D01*
X136305700Y-124006198D01*
X136310208Y-124009355D01*
X136310211Y-124009357D01*
X136388389Y-124064098D01*
X136493251Y-124137523D01*
X136498233Y-124139846D01*
X136498238Y-124139849D01*
X136695775Y-124231961D01*
X136700757Y-124234284D01*
X136706065Y-124235706D01*
X136706067Y-124235707D01*
X136916598Y-124292119D01*
X136916600Y-124292119D01*
X136921913Y-124293543D01*
X137150000Y-124313498D01*
X137378087Y-124293543D01*
X137383400Y-124292119D01*
X137383402Y-124292119D01*
X137593933Y-124235707D01*
X137593935Y-124235706D01*
X137599243Y-124234284D01*
X137604225Y-124231961D01*
X137801762Y-124139849D01*
X137801767Y-124139846D01*
X137806749Y-124137523D01*
X137911611Y-124064098D01*
X137989789Y-124009357D01*
X137989792Y-124009355D01*
X137994300Y-124006198D01*
X138156198Y-123844300D01*
X138159361Y-123839784D01*
X138284366Y-123661257D01*
X138287523Y-123656749D01*
X138289846Y-123651767D01*
X138289849Y-123651762D01*
X138381961Y-123454225D01*
X138381961Y-123454224D01*
X138384284Y-123449243D01*
X138443543Y-123228087D01*
X138463498Y-123000000D01*
X138443543Y-122771913D01*
X138384284Y-122550757D01*
X138381961Y-122545775D01*
X138289849Y-122348238D01*
X138289846Y-122348233D01*
X138287523Y-122343251D01*
X138200787Y-122219379D01*
X138159357Y-122160211D01*
X138159355Y-122160208D01*
X138156198Y-122155700D01*
X137994300Y-121993802D01*
X137989792Y-121990645D01*
X137989789Y-121990643D01*
X137911611Y-121935902D01*
X137806749Y-121862477D01*
X137801767Y-121860154D01*
X137801762Y-121860151D01*
X137604225Y-121768039D01*
X137604224Y-121768039D01*
X137599243Y-121765716D01*
X137593935Y-121764294D01*
X137593933Y-121764293D01*
X137383402Y-121707881D01*
X137383400Y-121707881D01*
X137378087Y-121706457D01*
X137150000Y-121686502D01*
X136921913Y-121706457D01*
X136916600Y-121707881D01*
X136916598Y-121707881D01*
X136706067Y-121764293D01*
X136706065Y-121764294D01*
X136700757Y-121765716D01*
X136695776Y-121768039D01*
X136695775Y-121768039D01*
X136498238Y-121860151D01*
X136498233Y-121860154D01*
X136493251Y-121862477D01*
X136388389Y-121935902D01*
X136310211Y-121990643D01*
X136310208Y-121990645D01*
X136305700Y-121993802D01*
X136143802Y-122155700D01*
X136140645Y-122160208D01*
X136140643Y-122160211D01*
X136099213Y-122219379D01*
X136012477Y-122343251D01*
X136010154Y-122348233D01*
X136010151Y-122348238D01*
X135918039Y-122545775D01*
X135915716Y-122550757D01*
X135856457Y-122771913D01*
X135836502Y-123000000D01*
X132566500Y-123000000D01*
X132566500Y-119698134D01*
X137546500Y-119698134D01*
X137553255Y-119760316D01*
X137604385Y-119896705D01*
X137691739Y-120013261D01*
X137808295Y-120100615D01*
X137944684Y-120151745D01*
X138006866Y-120158500D01*
X139903134Y-120158500D01*
X139965316Y-120151745D01*
X140101705Y-120100615D01*
X140218261Y-120013261D01*
X140305615Y-119896705D01*
X140356745Y-119760316D01*
X140363500Y-119698134D01*
X140363500Y-117801866D01*
X140356745Y-117739684D01*
X140305615Y-117603295D01*
X140218261Y-117486739D01*
X140189881Y-117465469D01*
X147377095Y-117465469D01*
X147377392Y-117470622D01*
X147377392Y-117470625D01*
X147383067Y-117569041D01*
X147390427Y-117696697D01*
X147391564Y-117701743D01*
X147391565Y-117701749D01*
X147414898Y-117805283D01*
X147441346Y-117922642D01*
X147443288Y-117927424D01*
X147443289Y-117927428D01*
X147526540Y-118132450D01*
X147528484Y-118137237D01*
X147649501Y-118334719D01*
X147801147Y-118509784D01*
X147979349Y-118657730D01*
X148179322Y-118774584D01*
X148395694Y-118857209D01*
X148400760Y-118858240D01*
X148400761Y-118858240D01*
X148453846Y-118869040D01*
X148622656Y-118903385D01*
X148753324Y-118908176D01*
X148848949Y-118911683D01*
X148848953Y-118911683D01*
X148854113Y-118911872D01*
X148859233Y-118911216D01*
X148859235Y-118911216D01*
X148932270Y-118901860D01*
X149083847Y-118882442D01*
X149088795Y-118880957D01*
X149088802Y-118880956D01*
X149300747Y-118817369D01*
X149305690Y-118815886D01*
X149386236Y-118776427D01*
X149509049Y-118716262D01*
X149509052Y-118716260D01*
X149513684Y-118713991D01*
X149702243Y-118579494D01*
X149866303Y-118416005D01*
X150001458Y-118227917D01*
X150048641Y-118132450D01*
X150101784Y-118024922D01*
X150101785Y-118024920D01*
X150104078Y-118020280D01*
X150171408Y-117798671D01*
X150201640Y-117569041D01*
X150203327Y-117500000D01*
X150194796Y-117396233D01*
X150184773Y-117274318D01*
X150184772Y-117274312D01*
X150184349Y-117269167D01*
X150127925Y-117044533D01*
X150125866Y-117039797D01*
X150037630Y-116836868D01*
X150037628Y-116836865D01*
X150035570Y-116832131D01*
X149909764Y-116637665D01*
X149753887Y-116466358D01*
X149749836Y-116463159D01*
X149749832Y-116463155D01*
X149576177Y-116326011D01*
X149576172Y-116326008D01*
X149572123Y-116322810D01*
X149567607Y-116320317D01*
X149567604Y-116320315D01*
X149373879Y-116213373D01*
X149373875Y-116213371D01*
X149369355Y-116210876D01*
X149364486Y-116209152D01*
X149364482Y-116209150D01*
X149155903Y-116135288D01*
X149155899Y-116135287D01*
X149151028Y-116133562D01*
X149145935Y-116132655D01*
X149145932Y-116132654D01*
X148928095Y-116093851D01*
X148928089Y-116093850D01*
X148923006Y-116092945D01*
X148850096Y-116092054D01*
X148696581Y-116090179D01*
X148696579Y-116090179D01*
X148691411Y-116090116D01*
X148462464Y-116125150D01*
X148242314Y-116197106D01*
X148237726Y-116199494D01*
X148237722Y-116199496D01*
X148211065Y-116213373D01*
X148036872Y-116304052D01*
X148032739Y-116307155D01*
X148032736Y-116307157D01*
X148007625Y-116326011D01*
X147851655Y-116443117D01*
X147691639Y-116610564D01*
X147688725Y-116614836D01*
X147688724Y-116614837D01*
X147673152Y-116637665D01*
X147561119Y-116801899D01*
X147463602Y-117011981D01*
X147401707Y-117235169D01*
X147377095Y-117465469D01*
X140189881Y-117465469D01*
X140101705Y-117399385D01*
X139965316Y-117348255D01*
X139903134Y-117341500D01*
X138006866Y-117341500D01*
X137944684Y-117348255D01*
X137808295Y-117399385D01*
X137691739Y-117486739D01*
X137604385Y-117603295D01*
X137553255Y-117739684D01*
X137546500Y-117801866D01*
X137546500Y-119698134D01*
X132566500Y-119698134D01*
X132566500Y-112000000D01*
X135486502Y-112000000D01*
X135506457Y-112228087D01*
X135507881Y-112233400D01*
X135507881Y-112233402D01*
X135559710Y-112426827D01*
X135565716Y-112449243D01*
X135568039Y-112454224D01*
X135568039Y-112454225D01*
X135660151Y-112651762D01*
X135660154Y-112651767D01*
X135662477Y-112656749D01*
X135793802Y-112844300D01*
X135955700Y-113006198D01*
X135960208Y-113009355D01*
X135960211Y-113009357D01*
X136038389Y-113064098D01*
X136143251Y-113137523D01*
X136148233Y-113139846D01*
X136148238Y-113139849D01*
X136345775Y-113231961D01*
X136350757Y-113234284D01*
X136356065Y-113235706D01*
X136356067Y-113235707D01*
X136566598Y-113292119D01*
X136566600Y-113292119D01*
X136571913Y-113293543D01*
X136800000Y-113313498D01*
X137028087Y-113293543D01*
X137033400Y-113292119D01*
X137033402Y-113292119D01*
X137243933Y-113235707D01*
X137243935Y-113235706D01*
X137249243Y-113234284D01*
X137254225Y-113231961D01*
X137451762Y-113139849D01*
X137451767Y-113139846D01*
X137456749Y-113137523D01*
X137561611Y-113064098D01*
X137639789Y-113009357D01*
X137639792Y-113009355D01*
X137644300Y-113006198D01*
X137806198Y-112844300D01*
X137937523Y-112656749D01*
X137939846Y-112651767D01*
X137939849Y-112651762D01*
X138031961Y-112454225D01*
X138031961Y-112454224D01*
X138034284Y-112449243D01*
X138040291Y-112426827D01*
X138092119Y-112233402D01*
X138092119Y-112233400D01*
X138093543Y-112228087D01*
X138113498Y-112000000D01*
X138093543Y-111771913D01*
X138034284Y-111550757D01*
X138031961Y-111545775D01*
X137939849Y-111348238D01*
X137939846Y-111348233D01*
X137937523Y-111343251D01*
X137806198Y-111155700D01*
X137644300Y-110993802D01*
X137639792Y-110990645D01*
X137639789Y-110990643D01*
X137561611Y-110935902D01*
X137456749Y-110862477D01*
X137451767Y-110860154D01*
X137451762Y-110860151D01*
X137254225Y-110768039D01*
X137254224Y-110768039D01*
X137249243Y-110765716D01*
X137243935Y-110764294D01*
X137243933Y-110764293D01*
X137033402Y-110707881D01*
X137033400Y-110707881D01*
X137028087Y-110706457D01*
X136800000Y-110686502D01*
X136571913Y-110706457D01*
X136566600Y-110707881D01*
X136566598Y-110707881D01*
X136356067Y-110764293D01*
X136356065Y-110764294D01*
X136350757Y-110765716D01*
X136345776Y-110768039D01*
X136345775Y-110768039D01*
X136148238Y-110860151D01*
X136148233Y-110860154D01*
X136143251Y-110862477D01*
X136038389Y-110935902D01*
X135960211Y-110990643D01*
X135960208Y-110990645D01*
X135955700Y-110993802D01*
X135793802Y-111155700D01*
X135662477Y-111343251D01*
X135660154Y-111348233D01*
X135660151Y-111348238D01*
X135568039Y-111545775D01*
X135565716Y-111550757D01*
X135506457Y-111771913D01*
X135486502Y-112000000D01*
X132566500Y-112000000D01*
X132566500Y-108000000D01*
X135436502Y-108000000D01*
X135456457Y-108228087D01*
X135515716Y-108449243D01*
X135518039Y-108454224D01*
X135518039Y-108454225D01*
X135610151Y-108651762D01*
X135610154Y-108651767D01*
X135612477Y-108656749D01*
X135743802Y-108844300D01*
X135905700Y-109006198D01*
X135910208Y-109009355D01*
X135910211Y-109009357D01*
X135988389Y-109064098D01*
X136093251Y-109137523D01*
X136098233Y-109139846D01*
X136098238Y-109139849D01*
X136295775Y-109231961D01*
X136300757Y-109234284D01*
X136306065Y-109235706D01*
X136306067Y-109235707D01*
X136516598Y-109292119D01*
X136516600Y-109292119D01*
X136521913Y-109293543D01*
X136750000Y-109313498D01*
X136978087Y-109293543D01*
X136983400Y-109292119D01*
X136983402Y-109292119D01*
X137193933Y-109235707D01*
X137193935Y-109235706D01*
X137199243Y-109234284D01*
X137204225Y-109231961D01*
X137401762Y-109139849D01*
X137401767Y-109139846D01*
X137406749Y-109137523D01*
X137511611Y-109064098D01*
X137589789Y-109009357D01*
X137589792Y-109009355D01*
X137594300Y-109006198D01*
X137756198Y-108844300D01*
X137887523Y-108656749D01*
X137889846Y-108651767D01*
X137889849Y-108651762D01*
X137981961Y-108454225D01*
X137981961Y-108454224D01*
X137984284Y-108449243D01*
X138043543Y-108228087D01*
X138063498Y-108000000D01*
X148136502Y-108000000D01*
X148156457Y-108228087D01*
X148215716Y-108449243D01*
X148218039Y-108454224D01*
X148218039Y-108454225D01*
X148310151Y-108651762D01*
X148310154Y-108651767D01*
X148312477Y-108656749D01*
X148443802Y-108844300D01*
X148605700Y-109006198D01*
X148610208Y-109009355D01*
X148610211Y-109009357D01*
X148688389Y-109064098D01*
X148793251Y-109137523D01*
X148798233Y-109139846D01*
X148798238Y-109139849D01*
X148995775Y-109231961D01*
X149000757Y-109234284D01*
X149006065Y-109235706D01*
X149006067Y-109235707D01*
X149216598Y-109292119D01*
X149216600Y-109292119D01*
X149221913Y-109293543D01*
X149450000Y-109313498D01*
X149678087Y-109293543D01*
X149683400Y-109292119D01*
X149683402Y-109292119D01*
X149893933Y-109235707D01*
X149893935Y-109235706D01*
X149899243Y-109234284D01*
X149904225Y-109231961D01*
X150101762Y-109139849D01*
X150101767Y-109139846D01*
X150106749Y-109137523D01*
X150211611Y-109064098D01*
X150289789Y-109009357D01*
X150289792Y-109009355D01*
X150294300Y-109006198D01*
X150456198Y-108844300D01*
X150587523Y-108656749D01*
X150589846Y-108651767D01*
X150589849Y-108651762D01*
X150681961Y-108454225D01*
X150681961Y-108454224D01*
X150684284Y-108449243D01*
X150743543Y-108228087D01*
X150763498Y-108000000D01*
X150743543Y-107771913D01*
X150684284Y-107550757D01*
X150681961Y-107545775D01*
X150589849Y-107348238D01*
X150589846Y-107348233D01*
X150587523Y-107343251D01*
X150456198Y-107155700D01*
X150294300Y-106993802D01*
X150289792Y-106990645D01*
X150289789Y-106990643D01*
X150211611Y-106935902D01*
X150106749Y-106862477D01*
X150101767Y-106860154D01*
X150101762Y-106860151D01*
X149904225Y-106768039D01*
X149904224Y-106768039D01*
X149899243Y-106765716D01*
X149893935Y-106764294D01*
X149893933Y-106764293D01*
X149683402Y-106707881D01*
X149683400Y-106707881D01*
X149678087Y-106706457D01*
X149450000Y-106686502D01*
X149221913Y-106706457D01*
X149216600Y-106707881D01*
X149216598Y-106707881D01*
X149006067Y-106764293D01*
X149006065Y-106764294D01*
X149000757Y-106765716D01*
X148995776Y-106768039D01*
X148995775Y-106768039D01*
X148798238Y-106860151D01*
X148798233Y-106860154D01*
X148793251Y-106862477D01*
X148688389Y-106935902D01*
X148610211Y-106990643D01*
X148610208Y-106990645D01*
X148605700Y-106993802D01*
X148443802Y-107155700D01*
X148312477Y-107343251D01*
X148310154Y-107348233D01*
X148310151Y-107348238D01*
X148218039Y-107545775D01*
X148215716Y-107550757D01*
X148156457Y-107771913D01*
X148136502Y-108000000D01*
X138063498Y-108000000D01*
X138043543Y-107771913D01*
X137984284Y-107550757D01*
X137981961Y-107545775D01*
X137889849Y-107348238D01*
X137889846Y-107348233D01*
X137887523Y-107343251D01*
X137756198Y-107155700D01*
X137594300Y-106993802D01*
X137589792Y-106990645D01*
X137589789Y-106990643D01*
X137511611Y-106935902D01*
X137406749Y-106862477D01*
X137401767Y-106860154D01*
X137401762Y-106860151D01*
X137204225Y-106768039D01*
X137204224Y-106768039D01*
X137199243Y-106765716D01*
X137193935Y-106764294D01*
X137193933Y-106764293D01*
X136983402Y-106707881D01*
X136983400Y-106707881D01*
X136978087Y-106706457D01*
X136750000Y-106686502D01*
X136521913Y-106706457D01*
X136516600Y-106707881D01*
X136516598Y-106707881D01*
X136306067Y-106764293D01*
X136306065Y-106764294D01*
X136300757Y-106765716D01*
X136295776Y-106768039D01*
X136295775Y-106768039D01*
X136098238Y-106860151D01*
X136098233Y-106860154D01*
X136093251Y-106862477D01*
X135988389Y-106935902D01*
X135910211Y-106990643D01*
X135910208Y-106990645D01*
X135905700Y-106993802D01*
X135743802Y-107155700D01*
X135612477Y-107343251D01*
X135610154Y-107348233D01*
X135610151Y-107348238D01*
X135518039Y-107545775D01*
X135515716Y-107550757D01*
X135456457Y-107771913D01*
X135436502Y-108000000D01*
X132566500Y-108000000D01*
X132566500Y-104698134D01*
X139341500Y-104698134D01*
X139348255Y-104760316D01*
X139399385Y-104896705D01*
X139486739Y-105013261D01*
X139603295Y-105100615D01*
X139739684Y-105151745D01*
X139801866Y-105158500D01*
X141698134Y-105158500D01*
X141760316Y-105151745D01*
X141896705Y-105100615D01*
X142013261Y-105013261D01*
X142100615Y-104896705D01*
X142151745Y-104760316D01*
X142158500Y-104698134D01*
X142158500Y-102801866D01*
X142151745Y-102739684D01*
X142100615Y-102603295D01*
X142013261Y-102486739D01*
X141984881Y-102465469D01*
X147127095Y-102465469D01*
X147127392Y-102470622D01*
X147127392Y-102470625D01*
X147133067Y-102569041D01*
X147140427Y-102696697D01*
X147141564Y-102701743D01*
X147141565Y-102701749D01*
X147164898Y-102805283D01*
X147191346Y-102922642D01*
X147193288Y-102927424D01*
X147193289Y-102927428D01*
X147276540Y-103132450D01*
X147278484Y-103137237D01*
X147399501Y-103334719D01*
X147551147Y-103509784D01*
X147729349Y-103657730D01*
X147929322Y-103774584D01*
X148145694Y-103857209D01*
X148150760Y-103858240D01*
X148150761Y-103858240D01*
X148203846Y-103869040D01*
X148372656Y-103903385D01*
X148503324Y-103908176D01*
X148598949Y-103911683D01*
X148598953Y-103911683D01*
X148604113Y-103911872D01*
X148609233Y-103911216D01*
X148609235Y-103911216D01*
X148682270Y-103901860D01*
X148833847Y-103882442D01*
X148838795Y-103880957D01*
X148838802Y-103880956D01*
X149050747Y-103817369D01*
X149055690Y-103815886D01*
X149136236Y-103776427D01*
X149259049Y-103716262D01*
X149259052Y-103716260D01*
X149263684Y-103713991D01*
X149452243Y-103579494D01*
X149616303Y-103416005D01*
X149751458Y-103227917D01*
X149798641Y-103132450D01*
X149851784Y-103024922D01*
X149851785Y-103024920D01*
X149854078Y-103020280D01*
X149921408Y-102798671D01*
X149951640Y-102569041D01*
X149953327Y-102500000D01*
X149944796Y-102396233D01*
X149934773Y-102274318D01*
X149934772Y-102274312D01*
X149934349Y-102269167D01*
X149877925Y-102044533D01*
X149875866Y-102039797D01*
X149787630Y-101836868D01*
X149787628Y-101836865D01*
X149785570Y-101832131D01*
X149659764Y-101637665D01*
X149503887Y-101466358D01*
X149499836Y-101463159D01*
X149499832Y-101463155D01*
X149326177Y-101326011D01*
X149326172Y-101326008D01*
X149322123Y-101322810D01*
X149317607Y-101320317D01*
X149317604Y-101320315D01*
X149123879Y-101213373D01*
X149123875Y-101213371D01*
X149119355Y-101210876D01*
X149114486Y-101209152D01*
X149114482Y-101209150D01*
X148905903Y-101135288D01*
X148905899Y-101135287D01*
X148901028Y-101133562D01*
X148895935Y-101132655D01*
X148895932Y-101132654D01*
X148678095Y-101093851D01*
X148678089Y-101093850D01*
X148673006Y-101092945D01*
X148600096Y-101092054D01*
X148446581Y-101090179D01*
X148446579Y-101090179D01*
X148441411Y-101090116D01*
X148212464Y-101125150D01*
X147992314Y-101197106D01*
X147987726Y-101199494D01*
X147987722Y-101199496D01*
X147961065Y-101213373D01*
X147786872Y-101304052D01*
X147782739Y-101307155D01*
X147782736Y-101307157D01*
X147757625Y-101326011D01*
X147601655Y-101443117D01*
X147441639Y-101610564D01*
X147438725Y-101614836D01*
X147438724Y-101614837D01*
X147423152Y-101637665D01*
X147311119Y-101801899D01*
X147213602Y-102011981D01*
X147151707Y-102235169D01*
X147127095Y-102465469D01*
X141984881Y-102465469D01*
X141896705Y-102399385D01*
X141760316Y-102348255D01*
X141698134Y-102341500D01*
X139801866Y-102341500D01*
X139739684Y-102348255D01*
X139603295Y-102399385D01*
X139486739Y-102486739D01*
X139399385Y-102603295D01*
X139348255Y-102739684D01*
X139341500Y-102801866D01*
X139341500Y-104698134D01*
X132566500Y-104698134D01*
X132566500Y-96500000D01*
X135336502Y-96500000D01*
X135356457Y-96728087D01*
X135415716Y-96949243D01*
X135418039Y-96954224D01*
X135418039Y-96954225D01*
X135510151Y-97151762D01*
X135510154Y-97151767D01*
X135512477Y-97156749D01*
X135643802Y-97344300D01*
X135805700Y-97506198D01*
X135810208Y-97509355D01*
X135810211Y-97509357D01*
X135888389Y-97564098D01*
X135993251Y-97637523D01*
X135998233Y-97639846D01*
X135998238Y-97639849D01*
X136195775Y-97731961D01*
X136200757Y-97734284D01*
X136206065Y-97735706D01*
X136206067Y-97735707D01*
X136416598Y-97792119D01*
X136416600Y-97792119D01*
X136421913Y-97793543D01*
X136650000Y-97813498D01*
X136878087Y-97793543D01*
X136883400Y-97792119D01*
X136883402Y-97792119D01*
X137093933Y-97735707D01*
X137093935Y-97735706D01*
X137099243Y-97734284D01*
X137104225Y-97731961D01*
X137301762Y-97639849D01*
X137301767Y-97639846D01*
X137306749Y-97637523D01*
X137411611Y-97564098D01*
X137489789Y-97509357D01*
X137489792Y-97509355D01*
X137494300Y-97506198D01*
X137656198Y-97344300D01*
X137787523Y-97156749D01*
X137789846Y-97151767D01*
X137789849Y-97151762D01*
X137881961Y-96954225D01*
X137881961Y-96954224D01*
X137884284Y-96949243D01*
X137943543Y-96728087D01*
X137963498Y-96500000D01*
X137943543Y-96271913D01*
X137942117Y-96266591D01*
X137885707Y-96056067D01*
X137885706Y-96056065D01*
X137884284Y-96050757D01*
X137881961Y-96045775D01*
X137789849Y-95848238D01*
X137789846Y-95848233D01*
X137787523Y-95843251D01*
X137656198Y-95655700D01*
X137494300Y-95493802D01*
X137489792Y-95490645D01*
X137489789Y-95490643D01*
X137411611Y-95435902D01*
X137306749Y-95362477D01*
X137301767Y-95360154D01*
X137301762Y-95360151D01*
X137104225Y-95268039D01*
X137104224Y-95268039D01*
X137099243Y-95265716D01*
X137093935Y-95264294D01*
X137093933Y-95264293D01*
X136883402Y-95207881D01*
X136883400Y-95207881D01*
X136878087Y-95206457D01*
X136650000Y-95186502D01*
X136421913Y-95206457D01*
X136416600Y-95207881D01*
X136416598Y-95207881D01*
X136206067Y-95264293D01*
X136206065Y-95264294D01*
X136200757Y-95265716D01*
X136195776Y-95268039D01*
X136195775Y-95268039D01*
X135998238Y-95360151D01*
X135998233Y-95360154D01*
X135993251Y-95362477D01*
X135888389Y-95435902D01*
X135810211Y-95490643D01*
X135810208Y-95490645D01*
X135805700Y-95493802D01*
X135643802Y-95655700D01*
X135512477Y-95843251D01*
X135510154Y-95848233D01*
X135510151Y-95848238D01*
X135418039Y-96045775D01*
X135415716Y-96050757D01*
X135414294Y-96056065D01*
X135414293Y-96056067D01*
X135357883Y-96266591D01*
X135356457Y-96271913D01*
X135336502Y-96500000D01*
X132566500Y-96500000D01*
X132566500Y-92500000D01*
X135336502Y-92500000D01*
X135356457Y-92728087D01*
X135415716Y-92949243D01*
X135418039Y-92954224D01*
X135418039Y-92954225D01*
X135510151Y-93151762D01*
X135510154Y-93151767D01*
X135512477Y-93156749D01*
X135643802Y-93344300D01*
X135805700Y-93506198D01*
X135810208Y-93509355D01*
X135810211Y-93509357D01*
X135888389Y-93564098D01*
X135993251Y-93637523D01*
X135998233Y-93639846D01*
X135998238Y-93639849D01*
X136195775Y-93731961D01*
X136200757Y-93734284D01*
X136206065Y-93735706D01*
X136206067Y-93735707D01*
X136416598Y-93792119D01*
X136416600Y-93792119D01*
X136421913Y-93793543D01*
X136650000Y-93813498D01*
X136878087Y-93793543D01*
X136883400Y-93792119D01*
X136883402Y-93792119D01*
X137093933Y-93735707D01*
X137093935Y-93735706D01*
X137099243Y-93734284D01*
X137104225Y-93731961D01*
X137301762Y-93639849D01*
X137301767Y-93639846D01*
X137306749Y-93637523D01*
X137411611Y-93564098D01*
X137489789Y-93509357D01*
X137489792Y-93509355D01*
X137494300Y-93506198D01*
X137656198Y-93344300D01*
X137787523Y-93156749D01*
X137789846Y-93151767D01*
X137789849Y-93151762D01*
X137881961Y-92954225D01*
X137881961Y-92954224D01*
X137884284Y-92949243D01*
X137943543Y-92728087D01*
X137963498Y-92500000D01*
X148036502Y-92500000D01*
X148056457Y-92728087D01*
X148115716Y-92949243D01*
X148118039Y-92954224D01*
X148118039Y-92954225D01*
X148210151Y-93151762D01*
X148210154Y-93151767D01*
X148212477Y-93156749D01*
X148343802Y-93344300D01*
X148505700Y-93506198D01*
X148510208Y-93509355D01*
X148510211Y-93509357D01*
X148588389Y-93564098D01*
X148693251Y-93637523D01*
X148698233Y-93639846D01*
X148698238Y-93639849D01*
X148895775Y-93731961D01*
X148900757Y-93734284D01*
X148906065Y-93735706D01*
X148906067Y-93735707D01*
X149116598Y-93792119D01*
X149116600Y-93792119D01*
X149121913Y-93793543D01*
X149350000Y-93813498D01*
X149578087Y-93793543D01*
X149583400Y-93792119D01*
X149583402Y-93792119D01*
X149793933Y-93735707D01*
X149793935Y-93735706D01*
X149799243Y-93734284D01*
X149804225Y-93731961D01*
X150001762Y-93639849D01*
X150001767Y-93639846D01*
X150006749Y-93637523D01*
X150111611Y-93564098D01*
X150189789Y-93509357D01*
X150189792Y-93509355D01*
X150194300Y-93506198D01*
X150356198Y-93344300D01*
X150487523Y-93156749D01*
X150489846Y-93151767D01*
X150489849Y-93151762D01*
X150581961Y-92954225D01*
X150581961Y-92954224D01*
X150584284Y-92949243D01*
X150643543Y-92728087D01*
X150663498Y-92500000D01*
X150643543Y-92271913D01*
X150584284Y-92050757D01*
X150581961Y-92045775D01*
X150489849Y-91848238D01*
X150489846Y-91848233D01*
X150487523Y-91843251D01*
X150356198Y-91655700D01*
X150194300Y-91493802D01*
X150189792Y-91490645D01*
X150189789Y-91490643D01*
X150111611Y-91435902D01*
X150006749Y-91362477D01*
X150001767Y-91360154D01*
X150001762Y-91360151D01*
X149804225Y-91268039D01*
X149804224Y-91268039D01*
X149799243Y-91265716D01*
X149793935Y-91264294D01*
X149793933Y-91264293D01*
X149583402Y-91207881D01*
X149583400Y-91207881D01*
X149578087Y-91206457D01*
X149350000Y-91186502D01*
X149121913Y-91206457D01*
X149116600Y-91207881D01*
X149116598Y-91207881D01*
X148906067Y-91264293D01*
X148906065Y-91264294D01*
X148900757Y-91265716D01*
X148895776Y-91268039D01*
X148895775Y-91268039D01*
X148698238Y-91360151D01*
X148698233Y-91360154D01*
X148693251Y-91362477D01*
X148588389Y-91435902D01*
X148510211Y-91490643D01*
X148510208Y-91490645D01*
X148505700Y-91493802D01*
X148343802Y-91655700D01*
X148212477Y-91843251D01*
X148210154Y-91848233D01*
X148210151Y-91848238D01*
X148118039Y-92045775D01*
X148115716Y-92050757D01*
X148056457Y-92271913D01*
X148036502Y-92500000D01*
X137963498Y-92500000D01*
X137943543Y-92271913D01*
X137884284Y-92050757D01*
X137881961Y-92045775D01*
X137789849Y-91848238D01*
X137789846Y-91848233D01*
X137787523Y-91843251D01*
X137656198Y-91655700D01*
X137494300Y-91493802D01*
X137489792Y-91490645D01*
X137489789Y-91490643D01*
X137411611Y-91435902D01*
X137306749Y-91362477D01*
X137301767Y-91360154D01*
X137301762Y-91360151D01*
X137104225Y-91268039D01*
X137104224Y-91268039D01*
X137099243Y-91265716D01*
X137093935Y-91264294D01*
X137093933Y-91264293D01*
X136883402Y-91207881D01*
X136883400Y-91207881D01*
X136878087Y-91206457D01*
X136650000Y-91186502D01*
X136421913Y-91206457D01*
X136416600Y-91207881D01*
X136416598Y-91207881D01*
X136206067Y-91264293D01*
X136206065Y-91264294D01*
X136200757Y-91265716D01*
X136195776Y-91268039D01*
X136195775Y-91268039D01*
X135998238Y-91360151D01*
X135998233Y-91360154D01*
X135993251Y-91362477D01*
X135888389Y-91435902D01*
X135810211Y-91490643D01*
X135810208Y-91490645D01*
X135805700Y-91493802D01*
X135643802Y-91655700D01*
X135512477Y-91843251D01*
X135510154Y-91848233D01*
X135510151Y-91848238D01*
X135418039Y-92045775D01*
X135415716Y-92050757D01*
X135356457Y-92271913D01*
X135336502Y-92500000D01*
X132566500Y-92500000D01*
X132566500Y-88448134D01*
X138636500Y-88448134D01*
X138643255Y-88510316D01*
X138694385Y-88646705D01*
X138781739Y-88763261D01*
X138898295Y-88850615D01*
X139034684Y-88901745D01*
X139096866Y-88908500D01*
X140993134Y-88908500D01*
X141055316Y-88901745D01*
X141191705Y-88850615D01*
X141308261Y-88763261D01*
X141395615Y-88646705D01*
X141446745Y-88510316D01*
X141453500Y-88448134D01*
X141453500Y-86551866D01*
X141446745Y-86489684D01*
X141395615Y-86353295D01*
X141308261Y-86236739D01*
X141191705Y-86149385D01*
X141055316Y-86098255D01*
X140993134Y-86091500D01*
X139096866Y-86091500D01*
X139034684Y-86098255D01*
X138898295Y-86149385D01*
X138781739Y-86236739D01*
X138694385Y-86353295D01*
X138643255Y-86489684D01*
X138636500Y-86551866D01*
X138636500Y-88448134D01*
X132566500Y-88448134D01*
X132566500Y-85965469D01*
X146852095Y-85965469D01*
X146852392Y-85970622D01*
X146852392Y-85970625D01*
X146859383Y-86091869D01*
X146865427Y-86196697D01*
X146866564Y-86201743D01*
X146866565Y-86201749D01*
X146898741Y-86344523D01*
X146916346Y-86422642D01*
X146918288Y-86427424D01*
X146918289Y-86427428D01*
X146967439Y-86548469D01*
X147003484Y-86637237D01*
X147124501Y-86834719D01*
X147276147Y-87009784D01*
X147454349Y-87157730D01*
X147654322Y-87274584D01*
X147870694Y-87357209D01*
X147875760Y-87358240D01*
X147875761Y-87358240D01*
X147928846Y-87369040D01*
X148097656Y-87403385D01*
X148228324Y-87408176D01*
X148323949Y-87411683D01*
X148323953Y-87411683D01*
X148329113Y-87411872D01*
X148334233Y-87411216D01*
X148334235Y-87411216D01*
X148407270Y-87401860D01*
X148558847Y-87382442D01*
X148563795Y-87380957D01*
X148563802Y-87380956D01*
X148775747Y-87317369D01*
X148780690Y-87315886D01*
X148861236Y-87276427D01*
X148984049Y-87216262D01*
X148984052Y-87216260D01*
X148988684Y-87213991D01*
X149177243Y-87079494D01*
X149341303Y-86916005D01*
X149476458Y-86727917D01*
X149523641Y-86632450D01*
X149576784Y-86524922D01*
X149576785Y-86524920D01*
X149579078Y-86520280D01*
X149646408Y-86298671D01*
X149676640Y-86069041D01*
X149678327Y-86000000D01*
X149672032Y-85923434D01*
X149659773Y-85774318D01*
X149659772Y-85774312D01*
X149659349Y-85769167D01*
X149602925Y-85544533D01*
X149600866Y-85539797D01*
X149512630Y-85336868D01*
X149512628Y-85336865D01*
X149510570Y-85332131D01*
X149384764Y-85137665D01*
X149228887Y-84966358D01*
X149224836Y-84963159D01*
X149224832Y-84963155D01*
X149051177Y-84826011D01*
X149051172Y-84826008D01*
X149047123Y-84822810D01*
X149042607Y-84820317D01*
X149042604Y-84820315D01*
X148848879Y-84713373D01*
X148848875Y-84713371D01*
X148844355Y-84710876D01*
X148839486Y-84709152D01*
X148839482Y-84709150D01*
X148630903Y-84635288D01*
X148630899Y-84635287D01*
X148626028Y-84633562D01*
X148620935Y-84632655D01*
X148620932Y-84632654D01*
X148403095Y-84593851D01*
X148403089Y-84593850D01*
X148398006Y-84592945D01*
X148325096Y-84592054D01*
X148171581Y-84590179D01*
X148171579Y-84590179D01*
X148166411Y-84590116D01*
X147937464Y-84625150D01*
X147717314Y-84697106D01*
X147712726Y-84699494D01*
X147712722Y-84699496D01*
X147686065Y-84713373D01*
X147511872Y-84804052D01*
X147507739Y-84807155D01*
X147507736Y-84807157D01*
X147482625Y-84826011D01*
X147326655Y-84943117D01*
X147166639Y-85110564D01*
X147163725Y-85114836D01*
X147163724Y-85114837D01*
X147148152Y-85137665D01*
X147036119Y-85301899D01*
X146938602Y-85511981D01*
X146876707Y-85735169D01*
X146852095Y-85965469D01*
X132566500Y-85965469D01*
X132566500Y-76738500D01*
X132586502Y-76670379D01*
X132640158Y-76623886D01*
X132692500Y-76612500D01*
X151130000Y-76612500D01*
X151130000Y-80028996D01*
G37*
G04 #@! TD.AperFunction*
M02*
